<?xml version="1.0" encoding="UTF-8"?>
<svg xmlns="http://www.w3.org/2000/svg"
     xmlns:xlink="http://www.w3.org/1999/xlink"
     xmlns:gadfly="http://www.gadflyjl.org/ns"
     version="1.2"
     width="152.4mm" height="101.6mm" viewBox="0 0 152.4 101.6"
     stroke="none"
     fill="#000000"
     stroke-width="0.3"
     font-size="3.88"
>
<defs>
  <marker id="arrow" markerWidth="15" markerHeight="7" refX="5" refY="3.5" orient="auto" markerUnits="strokeWidth">
    <path d="M0,0 L15,3.5 L0,7 z" stroke="context-stroke" fill="context-stroke"/>
  </marker>
</defs>
<g class="plotroot xscalable yscalable" id="img-baf680b1-1">
  <g font-size="3.88" font-family="'PT Sans','Helvetica Neue','Helvetica',sans-serif" fill="#564A55" stroke="#000000" stroke-opacity="0.000" id="img-baf680b1-2">
    <g transform="translate(73.33,89.99)">
      <g class="primitive">
        <text text-anchor="middle" dy="0.6em">Energy (eV)</text>
      </g>
    </g>
  </g>
  <g class="guide xlabels" font-size="2.82" font-family="'PT Sans Caption','Helvetica Neue','Helvetica',sans-serif" fill="#6C606B" id="img-baf680b1-3">
    <g transform="translate(21.63,83.32)">
      <g class="primitive">
        <text text-anchor="middle" dy="0.6em">0</text>
      </g>
    </g>
    <g transform="translate(42.31,83.32)">
      <g class="primitive">
        <text text-anchor="middle" dy="0.6em">1.00×10³</text>
      </g>
    </g>
    <g transform="translate(62.99,83.32)">
      <g class="primitive">
        <text text-anchor="middle" dy="0.6em">2.00×10³</text>
      </g>
    </g>
    <g transform="translate(83.66,83.32)">
      <g class="primitive">
        <text text-anchor="middle" dy="0.6em">3.00×10³</text>
      </g>
    </g>
    <g transform="translate(104.34,83.32)">
      <g class="primitive">
        <text text-anchor="middle" dy="0.6em">4.00×10³</text>
      </g>
    </g>
    <g transform="translate(125.02,83.32)">
      <g class="primitive">
        <text text-anchor="middle" dy="0.6em">5.00×10³</text>
      </g>
    </g>
  </g>
  <g class="guide colorkey" id="img-baf680b1-4">
    <g fill="#4C404B" font-size="2.82" font-family="'PT Sans','Helvetica Neue','Helvetica',sans-serif" id="img-baf680b1-5">
      <g transform="translate(130.83,38.22)" id="img-baf680b1-6" class="color_f1">
        <g class="primitive">
          <text dy="0.35em">Smith</text>
        </g>
      </g>
      <g transform="translate(130.83,41.84)" id="img-baf680b1-7" class="color_f2">
        <g class="primitive">
          <text dy="0.35em">Small</text>
        </g>
      </g>
      <g transform="translate(130.83,45.47)" id="img-baf680b1-8" class="color_f3">
        <g class="primitive">
          <text dy="0.35em">Trincavelli</text>
        </g>
      </g>
      <g transform="translate(130.83,49.1)" id="img-baf680b1-9" class="color_f4">
        <g class="primitive">
          <text dy="0.35em">Castellano (a)</text>
        </g>
      </g>
      <g transform="translate(130.83,52.72)" id="img-baf680b1-10" class="color_f5">
        <g class="primitive">
          <text dy="0.35em">Castellano (b)</text>
        </g>
      </g>
    </g>
    <g fill-opacity="1" id="img-baf680b1-11">
      <g transform="translate(128.93,38.22)" id="img-baf680b1-12" class="color_f1" fill="#00BFFF" stroke="#FFFFFF">
        <path d="M-0.91,-0.91 L0.91,-0.91 0.91,0.91 -0.91,0.91  z" class="primitive"/>
      </g>
      <g transform="translate(128.93,41.84)" id="img-baf680b1-13" class="color_f2" fill="#D4CA3A" stroke="#FFFFFF">
        <path d="M-0.91,-0.91 L0.91,-0.91 0.91,0.91 -0.91,0.91  z" class="primitive"/>
      </g>
      <g transform="translate(128.93,45.47)" id="img-baf680b1-14" class="color_f3" fill="#FF6DAE" stroke="#FFFFFF">
        <path d="M-0.91,-0.91 L0.91,-0.91 0.91,0.91 -0.91,0.91  z" class="primitive"/>
      </g>
      <g transform="translate(128.93,49.1)" id="img-baf680b1-15" class="color_f4" fill="#00B78D" stroke="#FFFFFF">
        <path d="M-0.91,-0.91 L0.91,-0.91 0.91,0.91 -0.91,0.91  z" class="primitive"/>
      </g>
      <g transform="translate(128.93,52.72)" id="img-baf680b1-16" class="color_f5" fill="#BEA9FF" stroke="#FFFFFF">
        <path d="M-0.91,-0.91 L0.91,-0.91 0.91,0.91 -0.91,0.91  z" class="primitive"/>
      </g>
    </g>
    <g fill="#362A35" font-size="3.88" font-family="'PT Sans','Helvetica Neue','Helvetica',sans-serif" stroke="#000000" stroke-opacity="0.000" id="img-baf680b1-17">
      <g transform="translate(128.02,34.4)" id="img-baf680b1-18">
        <g class="primitive">
          <text dy="-0em">Author</text>
        </g>
      </g>
    </g>
  </g>
  <g clip-path="url(#img-baf680b1-19)">
    <g id="img-baf680b1-20">
      <g pointer-events="visible" stroke-width="0.3" fill="#000000" fill-opacity="0.000" stroke="#000000" stroke-opacity="0.000" class="guide background" id="img-baf680b1-21">
        <g transform="translate(73.33,43.66)" id="img-baf680b1-22">
          <path d="M-53.69,-38.66 L53.69,-38.66 53.69,38.66 -53.69,38.66  z" class="primitive"/>
        </g>
      </g>
      <g class="guide ygridlines xfixed" stroke-dasharray="0.5,0.5" stroke-width="0.2" stroke="#D0D0E0" id="img-baf680b1-23">
        <g transform="translate(73.33,80.32)" id="img-baf680b1-24">
          <path fill="none" d="M-53.69,0 L53.69,0 " class="primitive"/>
        </g>
        <g transform="translate(73.33,61.99)" id="img-baf680b1-25">
          <path fill="none" d="M-53.69,0 L53.69,0 " class="primitive"/>
        </g>
        <g transform="translate(73.33,43.66)" id="img-baf680b1-26">
          <path fill="none" d="M-53.69,0 L53.69,0 " class="primitive"/>
        </g>
        <g transform="translate(73.33,25.33)" id="img-baf680b1-27">
          <path fill="none" d="M-53.69,0 L53.69,0 " class="primitive"/>
        </g>
        <g transform="translate(73.33,7)" id="img-baf680b1-28">
          <path fill="none" d="M-53.69,0 L53.69,0 " class="primitive"/>
        </g>
      </g>
      <g class="guide xgridlines yfixed" stroke-dasharray="0.5,0.5" stroke-width="0.2" stroke="#D0D0E0" id="img-baf680b1-29">
        <g transform="translate(21.63,43.66)" id="img-baf680b1-30">
          <path fill="none" d="M0,-38.66 L0,38.66 " class="primitive"/>
        </g>
        <g transform="translate(42.31,43.66)" id="img-baf680b1-31">
          <path fill="none" d="M0,-38.66 L0,38.66 " class="primitive"/>
        </g>
        <g transform="translate(62.99,43.66)" id="img-baf680b1-32">
          <path fill="none" d="M0,-38.66 L0,38.66 " class="primitive"/>
        </g>
        <g transform="translate(83.66,43.66)" id="img-baf680b1-33">
          <path fill="none" d="M0,-38.66 L0,38.66 " class="primitive"/>
        </g>
        <g transform="translate(104.34,43.66)" id="img-baf680b1-34">
          <path fill="none" d="M0,-38.66 L0,38.66 " class="primitive"/>
        </g>
        <g transform="translate(125.02,43.66)" id="img-baf680b1-35">
          <path fill="none" d="M0,-38.66 L0,38.66 " class="primitive"/>
        </g>
      </g>
      <g class="plotpanel" id="img-baf680b1-36">
        <metadata>
          <boundingbox value="19.63166666666666mm 5.0mm 107.38833333333332mm 77.315mm"/>
          <unitbox value="-96.72271210484743 821.8236377276137 5193.445424209695 -843.6472754552275"/>
        </metadata>
        <g stroke-width="0.3" fill="#000000" fill-opacity="0.000" class="geometry" id="img-baf680b1-37">
          <g transform="translate(83.66,69.23)" id="img-baf680b1-38" class="color_f1" stroke="#00BFFF" stroke-dasharray="none">
            <path fill="none" d="M-41.36,-55.99 L-41.02,-53.94 -40.69,-51.99 -40.36,-50.11 -40.03,-48.31 -39.69,-46.58 -39.36,-44.92 -39.03,-43.33 -38.7,-41.79 -38.37,-40.32 -38.03,-38.9 -37.7,-37.53 -37.37,-36.21 -37.04,-34.94 -36.7,-33.71 -36.37,-32.53 -36.04,-31.39 -35.71,-30.29 -35.38,-29.23 -35.04,-28.2 -34.71,-27.21 -34.38,-26.25 -34.05,-25.32 -33.72,-24.42 -33.38,-23.55 -33.05,-22.71 -32.72,-21.89 -32.39,-21.1 -32.05,-20.33 -31.72,-19.59 -31.39,-18.87 -31.06,-18.17 -30.73,-17.49 -30.39,-16.83 -30.06,-16.19 -29.73,-15.57 -29.4,-14.97 -29.06,-14.38 -28.73,-13.81 -28.4,-13.26 -28.07,-12.72 -27.74,-12.19 -27.4,-11.68 -27.07,-11.19 -26.74,-10.71 -26.41,-10.23 -26.08,-9.78 -25.74,-9.33 -25.41,-8.89 -25.08,-8.47 -24.75,-8.06 -24.41,-7.66 -24.08,-7.26 -23.75,-6.88 -23.42,-6.51 -23.09,-6.14 -22.75,-5.79 -22.42,-5.44 -22.09,-5.1 -21.76,-4.77 -21.43,-4.45 -21.09,-4.13 -20.76,-3.82 -20.43,-3.52 -20.1,-3.23 -19.76,-2.94 -19.43,-2.66 -19.1,-2.39 -18.77,-2.12 -18.44,-1.85 -18.1,-1.6 -17.77,-1.35 -17.44,-1.1 -17.11,-0.86 -16.77,-0.62 -16.44,-0.39 -16.11,-0.17 -15.78,0.05 -15.45,0.27 -15.11,0.48 -14.78,0.69 -14.45,0.89 -14.12,1.09 -13.79,1.28 -13.45,1.47 -13.12,1.66 -12.79,1.84 -12.46,2.02 -12.12,2.2 -11.79,2.37 -11.46,2.54 -11.13,2.71 -10.8,2.87 -10.46,3.03 -10.13,3.18 -9.8,3.34 -9.47,3.49 -9.13,3.63 -8.8,3.78 -8.47,3.92 -8.14,4.06 -7.81,4.2 -7.47,4.33 -7.14,4.46 -6.81,4.59 -6.48,4.72 -6.15,4.84 -5.81,4.96 -5.48,5.08 -5.15,5.2 -4.82,5.32 -4.48,5.43 -4.15,5.54 -3.82,5.65 -3.49,5.76 -3.16,5.87 -2.82,5.97 -2.49,6.07 -2.16,6.17 -1.83,6.27 -1.49,6.37 -1.16,6.46 -0.83,6.55 -0.5,6.65 -0.17,6.74 0.17,6.82 0.5,6.91 0.83,7 1.16,7.08 1.49,7.16 1.83,7.25 2.16,7.33 2.49,7.4 2.82,7.48 3.16,7.56 3.49,7.63 3.82,7.7 4.15,7.78 4.48,7.85 4.82,7.92 5.15,7.98 5.48,8.05 5.81,8.12 6.15,8.18 6.48,8.25 6.81,8.31 7.14,8.37 7.47,8.43 7.81,8.49 8.14,8.55 8.47,8.61 8.8,8.67 9.13,8.72 9.47,8.78 9.8,8.83 10.13,8.88 10.46,8.93 10.8,8.99 11.13,9.04 11.46,9.09 11.79,9.13 12.12,9.18 12.46,9.23 12.79,9.28 13.12,9.32 13.45,9.37 13.79,9.41 14.12,9.45 14.45,9.5 14.78,9.54 15.11,9.58 15.45,9.62 15.78,9.66 16.11,9.7 16.44,9.73 16.77,9.77 17.11,9.81 17.44,9.84 17.77,9.88 18.1,9.92 18.44,9.95 18.77,9.98 19.1,10.02 19.43,10.05 19.76,10.08 20.1,10.11 20.43,10.14 20.76,10.17 21.09,10.2 21.43,10.23 21.76,10.26 22.09,10.29 22.42,10.31 22.75,10.34 23.09,10.37 23.42,10.39 23.75,10.42 24.08,10.44 24.41,10.47 24.75,10.49 25.08,10.51 25.41,10.53 25.74,10.56 26.08,10.58 26.41,10.6 26.74,10.62 27.07,10.64 27.4,10.66 27.74,10.68 28.07,10.7 28.4,10.72 28.73,10.73 29.06,10.75 29.4,10.77 29.73,10.78 30.06,10.8 30.39,10.82 30.73,10.83 31.06,10.85 31.39,10.86 31.72,10.87 32.05,10.89 32.39,10.9 32.72,10.91 33.05,10.93 33.38,10.94 33.72,10.95 34.05,10.96 34.38,10.97 34.71,10.98 35.04,10.99 35.38,11 35.71,11.01 36.04,11.02 36.37,11.02 36.7,11.03 37.04,11.04 37.37,11.04 37.7,11.05 38.03,11.06 38.37,11.06 38.7,11.07 39.03,11.07 39.36,11.08 39.69,11.08 40.03,11.08 40.36,11.08 40.69,11.09 41.02,11.09 41.36,11.09 " class="primitive"/>
          </g>
          <g transform="translate(83.66,77.83)" id="img-baf680b1-39" class="color_f2" stroke="#D4CA3A" stroke-dasharray="none">
            <path fill="none" d="M-41.36,-9.05 L-41.02,-8.77 -40.69,-8.51 -40.36,-8.25 -40.03,-8 -39.69,-7.76 -39.36,-7.53 -39.03,-7.31 -38.7,-7.1 -38.37,-6.89 -38.03,-6.68 -37.7,-6.49 -37.37,-6.3 -37.04,-6.11 -36.7,-5.94 -36.37,-5.76 -36.04,-5.59 -35.71,-5.43 -35.38,-5.27 -35.04,-5.12 -34.71,-4.97 -34.38,-4.82 -34.05,-4.68 -33.72,-4.54 -33.38,-4.41 -33.05,-4.28 -32.72,-4.15 -32.39,-4.03 -32.05,-3.91 -31.72,-3.79 -31.39,-3.67 -31.06,-3.56 -30.73,-3.45 -30.39,-3.35 -30.06,-3.24 -29.73,-3.14 -29.4,-3.04 -29.06,-2.95 -28.73,-2.85 -28.4,-2.76 -28.07,-2.67 -27.74,-2.58 -27.4,-2.49 -27.07,-2.41 -26.74,-2.33 -26.41,-2.25 -26.08,-2.17 -25.74,-2.09 -25.41,-2.01 -25.08,-1.94 -24.75,-1.87 -24.41,-1.8 -24.08,-1.73 -23.75,-1.66 -23.42,-1.59 -23.09,-1.53 -22.75,-1.46 -22.42,-1.4 -22.09,-1.34 -21.76,-1.28 -21.43,-1.22 -21.09,-1.16 -20.76,-1.1 -20.43,-1.05 -20.1,-0.99 -19.76,-0.94 -19.43,-0.88 -19.1,-0.83 -18.77,-0.78 -18.44,-0.73 -18.1,-0.68 -17.77,-0.63 -17.44,-0.59 -17.11,-0.54 -16.77,-0.49 -16.44,-0.45 -16.11,-0.4 -15.78,-0.36 -15.45,-0.32 -15.11,-0.27 -14.78,-0.23 -14.45,-0.19 -14.12,-0.15 -13.79,-0.11 -13.45,-0.07 -13.12,-0.04 -12.79,0 -12.46,0.04 -12.12,0.08 -11.79,0.11 -11.46,0.15 -11.13,0.18 -10.8,0.22 -10.46,0.25 -10.13,0.28 -9.8,0.32 -9.47,0.35 -9.13,0.38 -8.8,0.41 -8.47,0.44 -8.14,0.47 -7.81,0.5 -7.47,0.53 -7.14,0.56 -6.81,0.59 -6.48,0.62 -6.15,0.64 -5.81,0.67 -5.48,0.7 -5.15,0.72 -4.82,0.75 -4.48,0.78 -4.15,0.8 -3.82,0.83 -3.49,0.85 -3.16,0.88 -2.82,0.9 -2.49,0.92 -2.16,0.95 -1.83,0.97 -1.49,0.99 -1.16,1.02 -0.83,1.04 -0.5,1.06 -0.17,1.08 0.17,1.1 0.5,1.13 0.83,1.15 1.16,1.17 1.49,1.19 1.83,1.21 2.16,1.23 2.49,1.25 2.82,1.27 3.16,1.28 3.49,1.3 3.82,1.32 4.15,1.34 4.48,1.36 4.82,1.38 5.15,1.39 5.48,1.41 5.81,1.43 6.15,1.45 6.48,1.46 6.81,1.48 7.14,1.5 7.47,1.51 7.81,1.53 8.14,1.54 8.47,1.56 8.8,1.57 9.13,1.59 9.47,1.61 9.8,1.62 10.13,1.64 10.46,1.65 10.8,1.66 11.13,1.68 11.46,1.69 11.79,1.71 12.12,1.72 12.46,1.73 12.79,1.75 13.12,1.76 13.45,1.77 13.79,1.79 14.12,1.8 14.45,1.81 14.78,1.83 15.11,1.84 15.45,1.85 15.78,1.86 16.11,1.87 16.44,1.89 16.77,1.9 17.11,1.91 17.44,1.92 17.77,1.93 18.1,1.94 18.44,1.95 18.77,1.97 19.1,1.98 19.43,1.99 19.76,2 20.1,2.01 20.43,2.02 20.76,2.03 21.09,2.04 21.43,2.05 21.76,2.06 22.09,2.07 22.42,2.08 22.75,2.09 23.09,2.1 23.42,2.11 23.75,2.12 24.08,2.13 24.41,2.14 24.75,2.15 25.08,2.15 25.41,2.16 25.74,2.17 26.08,2.18 26.41,2.19 26.74,2.2 27.07,2.21 27.4,2.22 27.74,2.22 28.07,2.23 28.4,2.24 28.73,2.25 29.06,2.26 29.4,2.26 29.73,2.27 30.06,2.28 30.39,2.29 30.73,2.29 31.06,2.3 31.39,2.31 31.72,2.32 32.05,2.32 32.39,2.33 32.72,2.34 33.05,2.34 33.38,2.35 33.72,2.36 34.05,2.36 34.38,2.37 34.71,2.38 35.04,2.38 35.38,2.39 35.71,2.4 36.04,2.4 36.37,2.41 36.7,2.42 37.04,2.42 37.37,2.43 37.7,2.43 38.03,2.44 38.37,2.44 38.7,2.45 39.03,2.46 39.36,2.46 39.69,2.47 40.03,2.47 40.36,2.48 40.69,2.48 41.02,2.49 41.36,2.49 " class="primitive"/>
          </g>
          <g transform="translate(83.66,62.85)" id="img-baf680b1-40" class="color_f3" stroke="#FF6DAE" stroke-dasharray="none">
            <path fill="none" d="M-41.36,-53.1 L-41.02,-51.68 -40.69,-50.3 -40.36,-48.96 -40.03,-47.67 -39.69,-46.41 -39.36,-45.19 -39.03,-44 -38.7,-42.85 -38.37,-41.73 -38.03,-40.65 -37.7,-39.59 -37.37,-38.56 -37.04,-37.56 -36.7,-36.59 -36.37,-35.64 -36.04,-34.71 -35.71,-33.81 -35.38,-32.93 -35.04,-32.08 -34.71,-31.24 -34.38,-30.42 -34.05,-29.63 -33.72,-28.85 -33.38,-28.09 -33.05,-27.35 -32.72,-26.63 -32.39,-25.92 -32.05,-25.23 -31.72,-24.55 -31.39,-23.89 -31.06,-23.24 -30.73,-22.61 -30.39,-21.99 -30.06,-21.38 -29.73,-20.78 -29.4,-20.2 -29.06,-19.63 -28.73,-19.07 -28.4,-18.53 -28.07,-17.99 -27.74,-17.46 -27.4,-16.95 -27.07,-16.44 -26.74,-15.94 -26.41,-15.46 -26.08,-14.98 -25.74,-14.51 -25.41,-14.05 -25.08,-13.6 -24.75,-13.15 -24.41,-12.72 -24.08,-12.29 -23.75,-11.87 -23.42,-11.46 -23.09,-11.05 -22.75,-10.65 -22.42,-10.26 -22.09,-9.87 -21.76,-9.49 -21.43,-9.12 -21.09,-8.75 -20.76,-8.39 -20.43,-8.04 -20.1,-7.69 -19.76,-7.35 -19.43,-7.01 -19.1,-6.68 -18.77,-6.35 -18.44,-6.03 -18.1,-5.71 -17.77,-5.4 -17.44,-5.09 -17.11,-4.79 -16.77,-4.49 -16.44,-4.2 -16.11,-3.91 -15.78,-3.62 -15.45,-3.34 -15.11,-3.06 -14.78,-2.79 -14.45,-2.52 -14.12,-2.25 -13.79,-1.99 -13.45,-1.74 -13.12,-1.48 -12.79,-1.23 -12.46,-0.98 -12.12,-0.74 -11.79,-0.5 -11.46,-0.26 -11.13,-0.03 -10.8,0.2 -10.46,0.43 -10.13,0.66 -9.8,0.88 -9.47,1.1 -9.13,1.31 -8.8,1.53 -8.47,1.74 -8.14,1.95 -7.81,2.15 -7.47,2.35 -7.14,2.55 -6.81,2.75 -6.48,2.95 -6.15,3.14 -5.81,3.33 -5.48,3.52 -5.15,3.7 -4.82,3.89 -4.48,4.07 -4.15,4.25 -3.82,4.43 -3.49,4.6 -3.16,4.77 -2.82,4.94 -2.49,5.11 -2.16,5.28 -1.83,5.45 -1.49,5.61 -1.16,5.77 -0.83,5.93 -0.5,6.09 -0.17,6.24 0.17,6.4 0.5,6.55 0.83,6.7 1.16,6.85 1.49,7 1.83,7.14 2.16,7.29 2.49,7.43 2.82,7.57 3.16,7.71 3.49,7.85 3.82,7.98 4.15,8.12 4.48,8.25 4.82,8.39 5.15,8.52 5.48,8.65 5.81,8.78 6.15,8.9 6.48,9.03 6.81,9.15 7.14,9.28 7.47,9.4 7.81,9.52 8.14,9.64 8.47,9.76 8.8,9.87 9.13,9.99 9.47,10.1 9.8,10.22 10.13,10.33 10.46,10.44 10.8,10.55 11.13,10.66 11.46,10.77 11.79,10.88 12.12,10.98 12.46,11.09 12.79,11.19 13.12,11.29 13.45,11.4 13.79,11.5 14.12,11.6 14.45,11.7 14.78,11.8 15.11,11.89 15.45,11.99 15.78,12.09 16.11,12.18 16.44,12.28 16.77,12.37 17.11,12.46 17.44,12.55 17.77,12.64 18.1,12.73 18.44,12.82 18.77,12.91 19.1,13 19.43,13.08 19.76,13.17 20.1,13.25 20.43,13.34 20.76,13.42 21.09,13.51 21.43,13.59 21.76,13.67 22.09,13.75 22.42,13.83 22.75,13.91 23.09,13.99 23.42,14.07 23.75,14.14 24.08,14.22 24.41,14.3 24.75,14.37 25.08,14.45 25.41,14.52 25.74,14.59 26.08,14.67 26.41,14.74 26.74,14.81 27.07,14.88 27.4,14.95 27.74,15.02 28.07,15.09 28.4,15.16 28.73,15.23 29.06,15.3 29.4,15.37 29.73,15.43 30.06,15.5 30.39,15.56 30.73,15.63 31.06,15.69 31.39,15.76 31.72,15.82 32.05,15.88 32.39,15.95 32.72,16.01 33.05,16.07 33.38,16.13 33.72,16.19 34.05,16.25 34.38,16.31 34.71,16.37 35.04,16.43 35.38,16.49 35.71,16.55 36.04,16.6 36.37,16.66 36.7,16.72 37.04,16.77 37.37,16.83 37.7,16.89 38.03,16.94 38.37,16.99 38.7,17.05 39.03,17.1 39.36,17.16 39.69,17.21 40.03,17.26 40.36,17.31 40.69,17.36 41.02,17.42 41.36,17.47 " class="primitive"/>
          </g>
          <g transform="translate(83.66,62.12)" id="img-baf680b1-41" class="color_f4" stroke="#00B78D" stroke-dasharray="none">
            <path fill="none" d="M-41.36,-51.78 L-41.02,-50.51 -40.69,-49.27 -40.36,-48.06 -40.03,-46.89 -39.69,-45.75 -39.36,-44.63 -39.03,-43.55 -38.7,-42.49 -38.37,-41.45 -38.03,-40.45 -37.7,-39.47 -37.37,-38.51 -37.04,-37.57 -36.7,-36.66 -36.37,-35.76 -36.04,-34.89 -35.71,-34.04 -35.38,-33.21 -35.04,-32.39 -34.71,-31.6 -34.38,-30.82 -34.05,-30.05 -33.72,-29.31 -33.38,-28.58 -33.05,-27.86 -32.72,-27.16 -32.39,-26.48 -32.05,-25.81 -31.72,-25.15 -31.39,-24.51 -31.06,-23.87 -30.73,-23.25 -30.39,-22.65 -30.06,-22.05 -29.73,-21.47 -29.4,-20.89 -29.06,-20.33 -28.73,-19.78 -28.4,-19.24 -28.07,-18.71 -27.74,-18.18 -27.4,-17.67 -27.07,-17.17 -26.74,-16.67 -26.41,-16.19 -26.08,-15.71 -25.74,-15.24 -25.41,-14.78 -25.08,-14.32 -24.75,-13.88 -24.41,-13.44 -24.08,-13.01 -23.75,-12.59 -23.42,-12.17 -23.09,-11.76 -22.75,-11.36 -22.42,-10.96 -22.09,-10.57 -21.76,-10.18 -21.43,-9.8 -21.09,-9.43 -20.76,-9.06 -20.43,-8.7 -20.1,-8.35 -19.76,-8 -19.43,-7.65 -19.1,-7.31 -18.77,-6.98 -18.44,-6.65 -18.1,-6.32 -17.77,-6 -17.44,-5.69 -17.11,-5.37 -16.77,-5.07 -16.44,-4.76 -16.11,-4.47 -15.78,-4.17 -15.45,-3.88 -15.11,-3.6 -14.78,-3.31 -14.45,-3.03 -14.12,-2.76 -13.79,-2.49 -13.45,-2.22 -13.12,-1.96 -12.79,-1.7 -12.46,-1.44 -12.12,-1.19 -11.79,-0.94 -11.46,-0.69 -11.13,-0.45 -10.8,-0.21 -10.46,0.03 -10.13,0.27 -9.8,0.5 -9.47,0.73 -9.13,0.95 -8.8,1.18 -8.47,1.4 -8.14,1.61 -7.81,1.83 -7.47,2.04 -7.14,2.25 -6.81,2.46 -6.48,2.66 -6.15,2.87 -5.81,3.07 -5.48,3.26 -5.15,3.46 -4.82,3.65 -4.48,3.84 -4.15,4.03 -3.82,4.22 -3.49,4.4 -3.16,4.59 -2.82,4.77 -2.49,4.94 -2.16,5.12 -1.83,5.29 -1.49,5.47 -1.16,5.64 -0.83,5.81 -0.5,5.97 -0.17,6.14 0.17,6.3 0.5,6.46 0.83,6.62 1.16,6.78 1.49,6.94 1.83,7.09 2.16,7.25 2.49,7.4 2.82,7.55 3.16,7.7 3.49,7.84 3.82,7.99 4.15,8.13 4.48,8.27 4.82,8.42 5.15,8.55 5.48,8.69 5.81,8.83 6.15,8.97 6.48,9.1 6.81,9.23 7.14,9.36 7.47,9.49 7.81,9.62 8.14,9.75 8.47,9.88 8.8,10 9.13,10.13 9.47,10.25 9.8,10.37 10.13,10.49 10.46,10.61 10.8,10.73 11.13,10.84 11.46,10.96 11.79,11.08 12.12,11.19 12.46,11.3 12.79,11.41 13.12,11.52 13.45,11.63 13.79,11.74 14.12,11.85 14.45,11.96 14.78,12.06 15.11,12.17 15.45,12.27 15.78,12.37 16.11,12.48 16.44,12.58 16.77,12.68 17.11,12.78 17.44,12.87 17.77,12.97 18.1,13.07 18.44,13.17 18.77,13.26 19.1,13.35 19.43,13.45 19.76,13.54 20.1,13.63 20.43,13.72 20.76,13.81 21.09,13.9 21.43,13.99 21.76,14.08 22.09,14.17 22.42,14.25 22.75,14.34 23.09,14.42 23.42,14.51 23.75,14.59 24.08,14.67 24.41,14.76 24.75,14.84 25.08,14.92 25.41,15 25.74,15.08 26.08,15.16 26.41,15.24 26.74,15.31 27.07,15.39 27.4,15.47 27.74,15.54 28.07,15.62 28.4,15.69 28.73,15.77 29.06,15.84 29.4,15.91 29.73,15.99 30.06,16.06 30.39,16.13 30.73,16.2 31.06,16.27 31.39,16.34 31.72,16.41 32.05,16.48 32.39,16.54 32.72,16.61 33.05,16.68 33.38,16.74 33.72,16.81 34.05,16.88 34.38,16.94 34.71,17 35.04,17.07 35.38,17.13 35.71,17.19 36.04,17.26 36.37,17.32 36.7,17.38 37.04,17.44 37.37,17.5 37.7,17.56 38.03,17.62 38.37,17.68 38.7,17.74 39.03,17.8 39.36,17.86 39.69,17.91 40.03,17.97 40.36,18.03 40.69,18.08 41.02,18.14 41.36,18.2 " class="primitive"/>
          </g>
          <g transform="translate(83.66,62.46)" id="img-baf680b1-42" class="color_f5" stroke="#BEA9FF" stroke-dasharray="none">
            <path fill="none" d="M-41.36,-48.97 L-41.02,-47.78 -40.69,-46.63 -40.36,-45.5 -40.03,-44.41 -39.69,-43.34 -39.36,-42.3 -39.03,-41.29 -38.7,-40.3 -38.37,-39.33 -38.03,-38.39 -37.7,-37.47 -37.37,-36.58 -37.04,-35.7 -36.7,-34.85 -36.37,-34.01 -36.04,-33.2 -35.71,-32.4 -35.38,-31.62 -35.04,-30.86 -34.71,-30.11 -34.38,-29.38 -34.05,-28.67 -33.72,-27.97 -33.38,-27.28 -33.05,-26.61 -32.72,-25.96 -32.39,-25.32 -32.05,-24.69 -31.72,-24.07 -31.39,-23.46 -31.06,-22.87 -30.73,-22.29 -30.39,-21.72 -30.06,-21.16 -29.73,-20.61 -29.4,-20.07 -29.06,-19.54 -28.73,-19.02 -28.4,-18.51 -28.07,-18.01 -27.74,-17.52 -27.4,-17.03 -27.07,-16.56 -26.74,-16.09 -26.41,-15.63 -26.08,-15.18 -25.74,-14.74 -25.41,-14.31 -25.08,-13.88 -24.75,-13.46 -24.41,-13.04 -24.08,-12.64 -23.75,-12.23 -23.42,-11.84 -23.09,-11.45 -22.75,-11.07 -22.42,-10.69 -22.09,-10.32 -21.76,-9.96 -21.43,-9.6 -21.09,-9.25 -20.76,-8.9 -20.43,-8.56 -20.1,-8.22 -19.76,-7.89 -19.43,-7.56 -19.1,-7.24 -18.77,-6.92 -18.44,-6.6 -18.1,-6.29 -17.77,-5.99 -17.44,-5.69 -17.11,-5.39 -16.77,-5.1 -16.44,-4.81 -16.11,-4.53 -15.78,-4.25 -15.45,-3.97 -15.11,-3.7 -14.78,-3.43 -14.45,-3.16 -14.12,-2.9 -13.79,-2.64 -13.45,-2.38 -13.12,-2.13 -12.79,-1.88 -12.46,-1.64 -12.12,-1.39 -11.79,-1.15 -11.46,-0.92 -11.13,-0.68 -10.8,-0.45 -10.46,-0.22 -10.13,0 -9.8,0.22 -9.47,0.44 -9.13,0.66 -8.8,0.88 -8.47,1.09 -8.14,1.3 -7.81,1.51 -7.47,1.71 -7.14,1.91 -6.81,2.11 -6.48,2.31 -6.15,2.51 -5.81,2.7 -5.48,2.89 -5.15,3.08 -4.82,3.27 -4.48,3.45 -4.15,3.64 -3.82,3.82 -3.49,4 -3.16,4.17 -2.82,4.35 -2.49,4.52 -2.16,4.69 -1.83,4.86 -1.49,5.03 -1.16,5.2 -0.83,5.36 -0.5,5.52 -0.17,5.68 0.17,5.84 0.5,6 0.83,6.16 1.16,6.31 1.49,6.46 1.83,6.62 2.16,6.77 2.49,6.91 2.82,7.06 3.16,7.21 3.49,7.35 3.82,7.49 4.15,7.63 4.48,7.77 4.82,7.91 5.15,8.05 5.48,8.19 5.81,8.32 6.15,8.46 6.48,8.59 6.81,8.72 7.14,8.85 7.47,8.98 7.81,9.1 8.14,9.23 8.47,9.36 8.8,9.48 9.13,9.6 9.47,9.72 9.8,9.84 10.13,9.96 10.46,10.08 10.8,10.2 11.13,10.32 11.46,10.43 11.79,10.55 12.12,10.66 12.46,10.77 12.79,10.88 13.12,10.99 13.45,11.1 13.79,11.21 14.12,11.32 14.45,11.43 14.78,11.53 15.11,11.64 15.45,11.74 15.78,11.85 16.11,11.95 16.44,12.05 16.77,12.15 17.11,12.25 17.44,12.35 17.77,12.45 18.1,12.55 18.44,12.64 18.77,12.74 19.1,12.83 19.43,12.93 19.76,13.02 20.1,13.12 20.43,13.21 20.76,13.3 21.09,13.39 21.43,13.48 21.76,13.57 22.09,13.66 22.42,13.75 22.75,13.83 23.09,13.92 23.42,14.01 23.75,14.09 24.08,14.18 24.41,14.26 24.75,14.34 25.08,14.43 25.41,14.51 25.74,14.59 26.08,14.67 26.41,14.75 26.74,14.83 27.07,14.91 27.4,14.99 27.74,15.07 28.07,15.15 28.4,15.22 28.73,15.3 29.06,15.38 29.4,15.45 29.73,15.53 30.06,15.6 30.39,15.68 30.73,15.75 31.06,15.82 31.39,15.89 31.72,15.97 32.05,16.04 32.39,16.11 32.72,16.18 33.05,16.25 33.38,16.32 33.72,16.39 34.05,16.46 34.38,16.52 34.71,16.59 35.04,16.66 35.38,16.73 35.71,16.79 36.04,16.86 36.37,16.92 36.7,16.99 37.04,17.05 37.37,17.12 37.7,17.18 38.03,17.24 38.37,17.31 38.7,17.37 39.03,17.43 39.36,17.49 39.69,17.55 40.03,17.62 40.36,17.68 40.69,17.74 41.02,17.8 41.36,17.86 " class="primitive"/>
          </g>
        </g>
      </g>
    </g>
  </g>
  <g class="guide ylabels" font-size="2.82" font-family="'PT Sans Caption','Helvetica Neue','Helvetica',sans-serif" fill="#6C606B" id="img-baf680b1-43">
    <g transform="translate(18.63,80.32)" id="img-baf680b1-44">
      <g class="primitive">
        <text text-anchor="end" dy="0.35em">0</text>
      </g>
    </g>
    <g transform="translate(18.63,61.99)" id="img-baf680b1-45">
      <g class="primitive">
        <text text-anchor="end" dy="0.35em">200</text>
      </g>
    </g>
    <g transform="translate(18.63,43.66)" id="img-baf680b1-46">
      <g class="primitive">
        <text text-anchor="end" dy="0.35em">400</text>
      </g>
    </g>
    <g transform="translate(18.63,25.33)" id="img-baf680b1-47">
      <g class="primitive">
        <text text-anchor="end" dy="0.35em">600</text>
      </g>
    </g>
    <g transform="translate(18.63,7)" id="img-baf680b1-48">
      <g class="primitive">
        <text text-anchor="end" dy="0.35em">800</text>
      </g>
    </g>
  </g>
  <g font-size="3.88" font-family="'PT Sans','Helvetica Neue','Helvetica',sans-serif" fill="#564A55" stroke="#000000" stroke-opacity="0.000" id="img-baf680b1-49">
    <g transform="translate(8.81,41.66)" id="img-baf680b1-50">
      <g class="primitive">
        <text text-anchor="middle" dy="0.35em" transform="rotate(-90,0, 2)">Intensity (arb)</text>
      </g>
    </g>
  </g>
</g>
<defs>
  <clipPath id="img-baf680b1-19">
    <path d="M19.63,5 L127.02,5 127.02,82.32 19.63,82.32 " />
  </clipPath>
</defs>
</svg>
