<?xml version="1.0" encoding="UTF-8"?>
<svg xmlns="http://www.w3.org/2000/svg"
     xmlns:xlink="http://www.w3.org/1999/xlink"
     xmlns:gadfly="http://www.gadflyjl.org/ns"
     version="1.2"
     width="152.4mm" height="101.6mm" viewBox="0 0 152.4 101.6"
     stroke="none"
     fill="#000000"
     stroke-width="0.3"
     font-size="3.88"
>
<defs>
  <marker id="arrow" markerWidth="15" markerHeight="7" refX="5" refY="3.5" orient="auto" markerUnits="strokeWidth">
    <path d="M0,0 L15,3.5 L0,7 z" stroke="context-stroke" fill="context-stroke"/>
  </marker>
</defs>
<g class="plotroot xscalable yscalable" id="img-2e812148-1">
  <g font-size="3.88" font-family="'PT Sans','Helvetica Neue','Helvetica',sans-serif" fill="#564A55" stroke="#000000" stroke-opacity="0.000" id="img-2e812148-2">
    <g transform="translate(77.54,89.99)">
      <g class="primitive">
        <text text-anchor="middle" dy="0.6em">Energy (eV)</text>
      </g>
    </g>
  </g>
  <g class="guide xlabels" font-size="2.82" font-family="'PT Sans Caption','Helvetica Neue','Helvetica',sans-serif" fill="#6C606B" id="img-2e812148-3">
    <g transform="translate(21.63,83.32)">
      <g class="primitive">
        <text text-anchor="middle" dy="0.6em">0</text>
      </g>
    </g>
    <g transform="translate(49.59,83.32)">
      <g class="primitive">
        <text text-anchor="middle" dy="0.6em">5.00×10³</text>
      </g>
    </g>
    <g transform="translate(77.54,83.32)">
      <g class="primitive">
        <text text-anchor="middle" dy="0.6em">1.00×10⁴</text>
      </g>
    </g>
    <g transform="translate(105.5,83.32)">
      <g class="primitive">
        <text text-anchor="middle" dy="0.6em">1.50×10⁴</text>
      </g>
    </g>
    <g transform="translate(133.45,83.32)">
      <g class="primitive">
        <text text-anchor="middle" dy="0.6em">2.00×10⁴</text>
      </g>
    </g>
  </g>
  <g class="guide colorkey" id="img-2e812148-4">
    <g fill="#4C404B" font-size="2.82" font-family="'PT Sans','Helvetica Neue','Helvetica',sans-serif" id="img-2e812148-5">
      <g transform="translate(139.27,43.66)" id="img-2e812148-6" class="color_f1">
        <g class="primitive">
          <text dy="0.35em">Lifshin</text>
        </g>
      </g>
      <g transform="translate(139.27,47.28)" id="img-2e812148-7" class="color_f2">
        <g class="primitive">
          <text dy="0.35em">Reed</text>
        </g>
      </g>
    </g>
    <g fill-opacity="1" id="img-2e812148-8">
      <g transform="translate(137.36,43.66)" id="img-2e812148-9" stroke="#FFFFFF" class="color_f1" fill="#00BFFF">
        <path d="M-0.91,-0.91 L0.91,-0.91 0.91,0.91 -0.91,0.91  z" class="primitive"/>
      </g>
      <g transform="translate(137.36,47.28)" id="img-2e812148-10" stroke="#FFFFFF" class="color_f2" fill="#D4CA3A">
        <path d="M-0.91,-0.91 L0.91,-0.91 0.91,0.91 -0.91,0.91  z" class="primitive"/>
      </g>
    </g>
    <g fill="#362A35" font-size="3.88" font-family="'PT Sans','Helvetica Neue','Helvetica',sans-serif" stroke="#000000" stroke-opacity="0.000" id="img-2e812148-11">
      <g transform="translate(136.45,39.84)" id="img-2e812148-12">
        <g class="primitive">
          <text dy="-0em">Author</text>
        </g>
      </g>
    </g>
  </g>
  <g clip-path="url(#img-2e812148-13)">
    <g id="img-2e812148-14">
      <g pointer-events="visible" stroke-width="0.3" fill="#000000" fill-opacity="0.000" stroke="#000000" stroke-opacity="0.000" class="guide background" id="img-2e812148-15">
        <g transform="translate(77.54,43.66)" id="img-2e812148-16">
          <path d="M-57.91,-38.66 L57.91,-38.66 57.91,38.66 -57.91,38.66  z" class="primitive"/>
        </g>
      </g>
      <g class="guide ygridlines xfixed" stroke-dasharray="0.5,0.5" stroke-width="0.2" stroke="#D0D0E0" id="img-2e812148-17">
        <g transform="translate(77.54,80.32)" id="img-2e812148-18">
          <path fill="none" d="M-57.91,0 L57.91,0 " class="primitive"/>
        </g>
        <g transform="translate(77.54,61.99)" id="img-2e812148-19">
          <path fill="none" d="M-57.91,0 L57.91,0 " class="primitive"/>
        </g>
        <g transform="translate(77.54,43.66)" id="img-2e812148-20">
          <path fill="none" d="M-57.91,0 L57.91,0 " class="primitive"/>
        </g>
        <g transform="translate(77.54,25.33)" id="img-2e812148-21">
          <path fill="none" d="M-57.91,0 L57.91,0 " class="primitive"/>
        </g>
        <g transform="translate(77.54,7)" id="img-2e812148-22">
          <path fill="none" d="M-57.91,0 L57.91,0 " class="primitive"/>
        </g>
      </g>
      <g class="guide xgridlines yfixed" stroke-dasharray="0.5,0.5" stroke-width="0.2" stroke="#D0D0E0" id="img-2e812148-23">
        <g transform="translate(21.63,43.66)" id="img-2e812148-24">
          <path fill="none" d="M0,-38.66 L0,38.66 " class="primitive"/>
        </g>
        <g transform="translate(49.59,43.66)" id="img-2e812148-25">
          <path fill="none" d="M0,-38.66 L0,38.66 " class="primitive"/>
        </g>
        <g transform="translate(77.54,43.66)" id="img-2e812148-26">
          <path fill="none" d="M0,-38.66 L0,38.66 " class="primitive"/>
        </g>
        <g transform="translate(105.5,43.66)" id="img-2e812148-27">
          <path fill="none" d="M0,-38.66 L0,38.66 " class="primitive"/>
        </g>
        <g transform="translate(133.45,43.66)" id="img-2e812148-28">
          <path fill="none" d="M0,-38.66 L0,38.66 " class="primitive"/>
        </g>
      </g>
      <g class="plotpanel" id="img-2e812148-29">
        <metadata>
          <boundingbox value="19.631666666666675mm 5.0mm 115.82166666666664mm 77.315mm"/>
          <unitbox value="-357.7124290164399 205.45590943190342 20715.42485803288 -210.91181886380687"/>
        </metadata>
        <g stroke-width="0.3" fill="#000000" fill-opacity="0.000" class="geometry" id="img-2e812148-30">
          <g transform="translate(83.13,69.46)" id="img-2e812148-31" class="color_f1" stroke-dasharray="none" stroke="#00BFFF">
            <path fill="none" d="M-50.32,-48.66 L-49.92,-46.4 -49.51,-44.3 -49.11,-42.33 -48.7,-40.49 -48.3,-38.76 -47.89,-37.13 -47.49,-35.59 -47.09,-34.14 -46.68,-32.77 -46.28,-31.47 -45.87,-30.24 -45.47,-29.07 -45.07,-27.96 -44.66,-26.9 -44.26,-25.89 -43.85,-24.93 -43.45,-24.01 -43.04,-23.13 -42.64,-22.28 -42.24,-21.47 -41.83,-20.7 -41.43,-19.95 -41.02,-19.24 -40.62,-18.55 -40.22,-17.89 -39.81,-17.25 -39.41,-16.64 -39,-16.05 -38.6,-15.47 -38.19,-14.92 -37.79,-14.39 -37.39,-13.87 -36.98,-13.37 -36.58,-12.89 -36.17,-12.42 -35.77,-11.97 -35.37,-11.53 -34.96,-11.1 -34.56,-10.69 -34.15,-10.29 -33.75,-9.9 -33.34,-9.52 -32.94,-9.15 -32.54,-8.79 -32.13,-8.44 -31.73,-8.11 -31.32,-7.77 -30.92,-7.45 -30.52,-7.14 -30.11,-6.83 -29.71,-6.54 -29.3,-6.25 -28.9,-5.96 -28.49,-5.68 -28.09,-5.41 -27.69,-5.15 -27.28,-4.89 -26.88,-4.64 -26.47,-4.39 -26.07,-4.15 -25.67,-3.92 -25.26,-3.69 -24.86,-3.46 -24.45,-3.24 -24.05,-3.03 -23.64,-2.81 -23.24,-2.61 -22.84,-2.4 -22.43,-2.21 -22.03,-2.01 -21.62,-1.82 -21.22,-1.63 -20.81,-1.45 -20.41,-1.27 -20.01,-1.09 -19.6,-0.92 -19.2,-0.75 -18.79,-0.58 -18.39,-0.42 -17.99,-0.26 -17.58,-0.1 -17.18,0.06 -16.77,0.21 -16.37,0.36 -15.96,0.51 -15.56,0.65 -15.16,0.8 -14.75,0.94 -14.35,1.08 -13.94,1.21 -13.54,1.35 -13.14,1.48 -12.73,1.61 -12.33,1.73 -11.92,1.86 -11.52,1.98 -11.11,2.1 -10.71,2.22 -10.31,2.34 -9.9,2.46 -9.5,2.57 -9.09,2.69 -8.69,2.8 -8.29,2.91 -7.88,3.01 -7.48,3.12 -7.07,3.23 -6.67,3.33 -6.26,3.43 -5.86,3.53 -5.46,3.63 -5.05,3.73 -4.65,3.83 -4.24,3.92 -3.84,4.02 -3.44,4.11 -3.03,4.2 -2.63,4.29 -2.22,4.38 -1.82,4.47 -1.41,4.56 -1.01,4.64 -0.61,4.73 -0.2,4.81 0.2,4.89 0.61,4.98 1.01,5.06 1.41,5.14 1.82,5.22 2.22,5.29 2.63,5.37 3.03,5.45 3.44,5.52 3.84,5.6 4.24,5.67 4.65,5.74 5.05,5.82 5.46,5.89 5.86,5.96 6.26,6.03 6.67,6.1 7.07,6.16 7.48,6.23 7.88,6.3 8.29,6.36 8.69,6.43 9.09,6.49 9.5,6.56 9.9,6.62 10.31,6.68 10.71,6.75 11.11,6.81 11.52,6.87 11.92,6.93 12.33,6.99 12.73,7.05 13.14,7.11 13.54,7.16 13.94,7.22 14.35,7.28 14.75,7.33 15.16,7.39 15.56,7.45 15.96,7.5 16.37,7.55 16.77,7.61 17.18,7.66 17.58,7.71 17.99,7.77 18.39,7.82 18.79,7.87 19.2,7.92 19.6,7.97 20.01,8.02 20.41,8.07 20.81,8.12 21.22,8.17 21.62,8.22 22.03,8.26 22.43,8.31 22.84,8.36 23.24,8.4 23.64,8.45 24.05,8.5 24.45,8.54 24.86,8.59 25.26,8.63 25.67,8.68 26.07,8.72 26.47,8.76 26.88,8.81 27.28,8.85 27.69,8.89 28.09,8.94 28.49,8.98 28.9,9.02 29.3,9.06 29.71,9.1 30.11,9.14 30.52,9.18 30.92,9.22 31.32,9.26 31.73,9.3 32.13,9.34 32.54,9.38 32.94,9.42 33.34,9.46 33.75,9.5 34.15,9.53 34.56,9.57 34.96,9.61 35.37,9.65 35.77,9.68 36.17,9.72 36.58,9.75 36.98,9.79 37.39,9.83 37.79,9.86 38.19,9.9 38.6,9.93 39,9.97 39.41,10 39.81,10.04 40.22,10.07 40.62,10.1 41.02,10.14 41.43,10.17 41.83,10.2 42.24,10.24 42.64,10.27 43.04,10.3 43.45,10.34 43.85,10.37 44.26,10.4 44.66,10.43 45.07,10.46 45.47,10.49 45.87,10.53 46.28,10.56 46.68,10.59 47.09,10.62 47.49,10.65 47.89,10.68 48.3,10.71 48.7,10.74 49.11,10.77 49.51,10.8 49.92,10.83 50.32,10.86 " class="primitive"/>
          </g>
          <g transform="translate(83.13,67.85)" id="img-2e812148-32" class="color_f2" stroke-dasharray="none" stroke="#D4CA3A">
            <path fill="none" d="M-50.32,-59.61 L-49.92,-56.8 -49.51,-54.17 -49.11,-51.71 -48.7,-49.41 -48.3,-47.26 -47.89,-45.23 -47.49,-43.32 -47.09,-41.51 -46.68,-39.81 -46.28,-38.19 -45.87,-36.67 -45.47,-35.21 -45.07,-33.83 -44.66,-32.52 -44.26,-31.27 -43.85,-30.07 -43.45,-28.93 -43.04,-27.84 -42.64,-26.8 -42.24,-25.8 -41.83,-24.84 -41.43,-23.92 -41.02,-23.04 -40.62,-22.19 -40.22,-21.38 -39.81,-20.59 -39.41,-19.84 -39,-19.11 -38.6,-18.4 -38.19,-17.73 -37.79,-17.07 -37.39,-16.44 -36.98,-15.83 -36.58,-15.23 -36.17,-14.66 -35.77,-14.11 -35.37,-13.57 -34.96,-13.05 -34.56,-12.54 -34.15,-12.05 -33.75,-11.57 -33.34,-11.11 -32.94,-10.66 -32.54,-10.23 -32.13,-9.8 -31.73,-9.39 -31.32,-8.99 -30.92,-8.6 -30.52,-8.21 -30.11,-7.84 -29.71,-7.48 -29.3,-7.13 -28.9,-6.79 -28.49,-6.45 -28.09,-6.12 -27.69,-5.8 -27.28,-5.49 -26.88,-5.19 -26.47,-4.89 -26.07,-4.6 -25.67,-4.32 -25.26,-4.04 -24.86,-3.77 -24.45,-3.5 -24.05,-3.24 -23.64,-2.99 -23.24,-2.74 -22.84,-2.5 -22.43,-2.26 -22.03,-2.03 -21.62,-1.8 -21.22,-1.58 -20.81,-1.36 -20.41,-1.14 -20.01,-0.93 -19.6,-0.72 -19.2,-0.52 -18.79,-0.32 -18.39,-0.13 -17.99,0.06 -17.58,0.25 -17.18,0.44 -16.77,0.62 -16.37,0.8 -15.96,0.97 -15.56,1.14 -15.16,1.31 -14.75,1.48 -14.35,1.64 -13.94,1.8 -13.54,1.96 -13.14,2.11 -12.73,2.26 -12.33,2.41 -11.92,2.56 -11.52,2.71 -11.11,2.85 -10.71,2.99 -10.31,3.13 -9.9,3.26 -9.5,3.39 -9.09,3.53 -8.69,3.66 -8.29,3.78 -7.88,3.91 -7.48,4.03 -7.07,4.15 -6.67,4.27 -6.26,4.39 -5.86,4.51 -5.46,4.62 -5.05,4.74 -4.65,4.85 -4.24,4.96 -3.84,5.07 -3.44,5.17 -3.03,5.28 -2.63,5.38 -2.22,5.49 -1.82,5.59 -1.41,5.69 -1.01,5.78 -0.61,5.88 -0.2,5.98 0.2,6.07 0.61,6.16 1.01,6.26 1.41,6.35 1.82,6.44 2.22,6.53 2.63,6.61 3.03,6.7 3.44,6.79 3.84,6.87 4.24,6.95 4.65,7.03 5.05,7.12 5.46,7.2 5.86,7.27 6.26,7.35 6.67,7.43 7.07,7.51 7.48,7.58 7.88,7.66 8.29,7.73 8.69,7.8 9.09,7.88 9.5,7.95 9.9,8.02 10.31,8.09 10.71,8.15 11.11,8.22 11.52,8.29 11.92,8.36 12.33,8.42 12.73,8.49 13.14,8.55 13.54,8.62 13.94,8.68 14.35,8.74 14.75,8.8 15.16,8.86 15.56,8.92 15.96,8.98 16.37,9.04 16.77,9.1 17.18,9.16 17.58,9.22 17.99,9.27 18.39,9.33 18.79,9.38 19.2,9.44 19.6,9.49 20.01,9.55 20.41,9.6 20.81,9.65 21.22,9.7 21.62,9.76 22.03,9.81 22.43,9.86 22.84,9.91 23.24,9.96 23.64,10.01 24.05,10.06 24.45,10.11 24.86,10.15 25.26,10.2 25.67,10.25 26.07,10.29 26.47,10.34 26.88,10.39 27.28,10.43 27.69,10.48 28.09,10.52 28.49,10.56 28.9,10.61 29.3,10.65 29.71,10.69 30.11,10.74 30.52,10.78 30.92,10.82 31.32,10.86 31.73,10.9 32.13,10.94 32.54,10.98 32.94,11.02 33.34,11.06 33.75,11.1 34.15,11.14 34.56,11.18 34.96,11.22 35.37,11.26 35.77,11.29 36.17,11.33 36.58,11.37 36.98,11.41 37.39,11.44 37.79,11.48 38.19,11.51 38.6,11.55 39,11.58 39.41,11.62 39.81,11.65 40.22,11.69 40.62,11.72 41.02,11.76 41.43,11.79 41.83,11.82 42.24,11.86 42.64,11.89 43.04,11.92 43.45,11.95 43.85,11.99 44.26,12.02 44.66,12.05 45.07,12.08 45.47,12.11 45.87,12.14 46.28,12.17 46.68,12.2 47.09,12.23 47.49,12.26 47.89,12.29 48.3,12.32 48.7,12.35 49.11,12.38 49.51,12.41 49.92,12.44 50.32,12.47 " class="primitive"/>
          </g>
        </g>
      </g>
    </g>
  </g>
  <g class="guide ylabels" font-size="2.82" font-family="'PT Sans Caption','Helvetica Neue','Helvetica',sans-serif" fill="#6C606B" id="img-2e812148-33">
    <g transform="translate(18.63,80.32)" id="img-2e812148-34">
      <g class="primitive">
        <text text-anchor="end" dy="0.35em">0</text>
      </g>
    </g>
    <g transform="translate(18.63,61.99)" id="img-2e812148-35">
      <g class="primitive">
        <text text-anchor="end" dy="0.35em">50</text>
      </g>
    </g>
    <g transform="translate(18.63,43.66)" id="img-2e812148-36">
      <g class="primitive">
        <text text-anchor="end" dy="0.35em">100</text>
      </g>
    </g>
    <g transform="translate(18.63,25.33)" id="img-2e812148-37">
      <g class="primitive">
        <text text-anchor="end" dy="0.35em">150</text>
      </g>
    </g>
    <g transform="translate(18.63,7)" id="img-2e812148-38">
      <g class="primitive">
        <text text-anchor="end" dy="0.35em">200</text>
      </g>
    </g>
  </g>
  <g font-size="3.88" font-family="'PT Sans','Helvetica Neue','Helvetica',sans-serif" fill="#564A55" stroke="#000000" stroke-opacity="0.000" id="img-2e812148-39">
    <g transform="translate(8.81,41.66)" id="img-2e812148-40">
      <g class="primitive">
        <text text-anchor="middle" dy="0.35em" transform="rotate(-90,0, 2)">Intensity (arb)</text>
      </g>
    </g>
  </g>
</g>
<defs>
  <clipPath id="img-2e812148-13">
    <path d="M19.63,5 L135.45,5 135.45,82.32 19.63,82.32 " />
  </clipPath>
</defs>
</svg>
