<?xml version="1.0" encoding="UTF-8"?>
<svg xmlns="http://www.w3.org/2000/svg"
     xmlns:xlink="http://www.w3.org/1999/xlink"
     xmlns:gadfly="http://www.gadflyjl.org/ns"
     version="1.2"
     width="152.4mm" height="101.6mm" viewBox="0 0 152.4 101.6"
     stroke="none"
     fill="#000000"
     stroke-width="0.3"
     font-size="3.88"
>
<defs>
  <marker id="arrow" markerWidth="15" markerHeight="7" refX="5" refY="3.5" orient="auto" markerUnits="strokeWidth">
    <path d="M0,0 L15,3.5 L0,7 z" stroke="context-stroke" fill="context-stroke"/>
  </marker>
</defs>
<g class="plotroot xscalable yscalable" id="img-728f01b3-1">
  <g font-size="3.88" font-family="'PT Sans','Helvetica Neue','Helvetica',sans-serif" fill="#564A55" stroke="#000000" stroke-opacity="0.000" id="img-728f01b3-2">
    <g transform="translate(76.87,89.99)">
      <g class="primitive">
        <text text-anchor="middle" dy="0.6em">Energy (eV)</text>
      </g>
    </g>
  </g>
  <g class="guide xlabels" font-size="2.82" font-family="'PT Sans Caption','Helvetica Neue','Helvetica',sans-serif" fill="#6C606B" id="img-728f01b3-3">
    <g transform="translate(28.72,83.32)">
      <g class="primitive">
        <text text-anchor="middle" dy="0.6em">0</text>
      </g>
    </g>
    <g transform="translate(52.8,83.32)">
      <g class="primitive">
        <text text-anchor="middle" dy="0.6em">5.00×10³</text>
      </g>
    </g>
    <g transform="translate(76.87,83.32)">
      <g class="primitive">
        <text text-anchor="middle" dy="0.6em">1.00×10⁴</text>
      </g>
    </g>
    <g transform="translate(100.95,83.32)">
      <g class="primitive">
        <text text-anchor="middle" dy="0.6em">1.50×10⁴</text>
      </g>
    </g>
    <g transform="translate(125.02,83.32)">
      <g class="primitive">
        <text text-anchor="middle" dy="0.6em">2.00×10⁴</text>
      </g>
    </g>
  </g>
  <g class="guide colorkey" id="img-728f01b3-4">
    <g fill="#4C404B" font-size="2.82" font-family="'PT Sans','Helvetica Neue','Helvetica',sans-serif" id="img-728f01b3-5">
      <g transform="translate(130.83,38.22)" id="img-728f01b3-6" class="color_f1">
        <g class="primitive">
          <text dy="0.35em">Smith</text>
        </g>
      </g>
      <g transform="translate(130.83,41.84)" id="img-728f01b3-7" class="color_f2">
        <g class="primitive">
          <text dy="0.35em">Small</text>
        </g>
      </g>
      <g transform="translate(130.83,45.47)" id="img-728f01b3-8" class="color_f3">
        <g class="primitive">
          <text dy="0.35em">Trincavelli</text>
        </g>
      </g>
      <g transform="translate(130.83,49.1)" id="img-728f01b3-9" class="color_f4">
        <g class="primitive">
          <text dy="0.35em">Castellano (a)</text>
        </g>
      </g>
      <g transform="translate(130.83,52.72)" id="img-728f01b3-10" class="color_f5">
        <g class="primitive">
          <text dy="0.35em">Castellano (b)</text>
        </g>
      </g>
    </g>
    <g fill-opacity="1" id="img-728f01b3-11">
      <g transform="translate(128.93,38.22)" id="img-728f01b3-12" stroke="#FFFFFF" class="color_f1" fill="#00BFFF">
        <path d="M-0.91,-0.91 L0.91,-0.91 0.91,0.91 -0.91,0.91  z" class="primitive"/>
      </g>
      <g transform="translate(128.93,41.84)" id="img-728f01b3-13" stroke="#FFFFFF" class="color_f2" fill="#D4CA3A">
        <path d="M-0.91,-0.91 L0.91,-0.91 0.91,0.91 -0.91,0.91  z" class="primitive"/>
      </g>
      <g transform="translate(128.93,45.47)" id="img-728f01b3-14" stroke="#FFFFFF" class="color_f3" fill="#FF6DAE">
        <path d="M-0.91,-0.91 L0.91,-0.91 0.91,0.91 -0.91,0.91  z" class="primitive"/>
      </g>
      <g transform="translate(128.93,49.1)" id="img-728f01b3-15" stroke="#FFFFFF" class="color_f4" fill="#00B78D">
        <path d="M-0.91,-0.91 L0.91,-0.91 0.91,0.91 -0.91,0.91  z" class="primitive"/>
      </g>
      <g transform="translate(128.93,52.72)" id="img-728f01b3-16" stroke="#FFFFFF" class="color_f5" fill="#BEA9FF">
        <path d="M-0.91,-0.91 L0.91,-0.91 0.91,0.91 -0.91,0.91  z" class="primitive"/>
      </g>
    </g>
    <g fill="#362A35" font-size="3.88" font-family="'PT Sans','Helvetica Neue','Helvetica',sans-serif" stroke="#000000" stroke-opacity="0.000" id="img-728f01b3-17">
      <g transform="translate(128.02,34.4)" id="img-728f01b3-18">
        <g class="primitive">
          <text dy="-0em">Author</text>
        </g>
      </g>
    </g>
  </g>
  <g clip-path="url(#img-728f01b3-19)">
    <g id="img-728f01b3-20">
      <g pointer-events="visible" stroke-width="0.3" fill="#000000" fill-opacity="0.000" stroke="#000000" stroke-opacity="0.000" class="guide background" id="img-728f01b3-21">
        <g transform="translate(76.87,43.66)" id="img-728f01b3-22">
          <path d="M-50.15,-38.66 L50.15,-38.66 50.15,38.66 -50.15,38.66  z" class="primitive"/>
        </g>
      </g>
      <g class="guide ygridlines xfixed" stroke-dasharray="0.5,0.5" stroke-width="0.2" stroke="#D0D0E0" id="img-728f01b3-23">
        <g transform="translate(76.87,80.31)" id="img-728f01b3-24">
          <path fill="none" d="M-50.15,0 L50.15,0 " class="primitive"/>
        </g>
        <g transform="translate(76.87,61.99)" id="img-728f01b3-25">
          <path fill="none" d="M-50.15,0 L50.15,0 " class="primitive"/>
        </g>
        <g transform="translate(76.87,43.66)" id="img-728f01b3-26">
          <path fill="none" d="M-50.15,0 L50.15,0 " class="primitive"/>
        </g>
        <g transform="translate(76.87,25.33)" id="img-728f01b3-27">
          <path fill="none" d="M-50.15,0 L50.15,0 " class="primitive"/>
        </g>
        <g transform="translate(76.87,7)" id="img-728f01b3-28">
          <path fill="none" d="M-50.15,0 L50.15,0 " class="primitive"/>
        </g>
      </g>
      <g class="guide xgridlines yfixed" stroke-dasharray="0.5,0.5" stroke-width="0.2" stroke="#D0D0E0" id="img-728f01b3-29">
        <g transform="translate(28.72,43.66)" id="img-728f01b3-30">
          <path fill="none" d="M0,-38.66 L0,38.66 " class="primitive"/>
        </g>
        <g transform="translate(52.8,43.66)" id="img-728f01b3-31">
          <path fill="none" d="M0,-38.66 L0,38.66 " class="primitive"/>
        </g>
        <g transform="translate(76.87,43.66)" id="img-728f01b3-32">
          <path fill="none" d="M0,-38.66 L0,38.66 " class="primitive"/>
        </g>
        <g transform="translate(100.95,43.66)" id="img-728f01b3-33">
          <path fill="none" d="M0,-38.66 L0,38.66 " class="primitive"/>
        </g>
        <g transform="translate(125.02,43.66)" id="img-728f01b3-34">
          <path fill="none" d="M0,-38.66 L0,38.66 " class="primitive"/>
        </g>
      </g>
      <g class="plotpanel" id="img-728f01b3-35">
        <metadata>
          <boundingbox value="26.724999999999994mm 5.0mm 100.29499999999999mm 77.315mm"/>
          <unitbox value="-415.3902071758659 4109.118188638068 20830.78041435173 -4218.236377276137"/>
        </metadata>
        <g stroke-width="0.3" fill="#000000" fill-opacity="0.000" class="geometry" id="img-728f01b3-36">
          <g transform="translate(81.69,70.52)" id="img-728f01b3-37" class="color_f1" stroke-dasharray="none" stroke="#00BFFF">
            <path fill="none" d="M-43.33,-57.73 L-42.98,-54.13 -42.64,-50.84 -42.29,-47.83 -41.94,-45.07 -41.59,-42.52 -41.24,-40.16 -40.9,-37.98 -40.55,-35.96 -40.2,-34.08 -39.85,-32.33 -39.5,-30.69 -39.16,-29.16 -38.81,-27.73 -38.46,-26.39 -38.11,-25.12 -37.76,-23.93 -37.42,-22.81 -37.07,-21.76 -36.72,-20.76 -36.37,-19.81 -36.02,-18.91 -35.68,-18.06 -35.33,-17.26 -34.98,-16.49 -34.63,-15.76 -34.28,-15.07 -33.94,-14.4 -33.59,-13.77 -33.24,-13.17 -32.89,-12.59 -32.54,-12.04 -32.2,-11.51 -31.85,-11 -31.5,-10.52 -31.15,-10.05 -30.8,-9.6 -30.45,-9.17 -30.11,-8.76 -29.76,-8.36 -29.41,-7.97 -29.06,-7.6 -28.71,-7.25 -28.37,-6.9 -28.02,-6.57 -27.67,-6.25 -27.32,-5.94 -26.97,-5.64 -26.63,-5.35 -26.28,-5.07 -25.93,-4.8 -25.58,-4.53 -25.23,-4.28 -24.89,-4.03 -24.54,-3.79 -24.19,-3.56 -23.84,-3.33 -23.49,-3.11 -23.15,-2.9 -22.8,-2.69 -22.45,-2.48 -22.1,-2.29 -21.75,-2.1 -21.41,-1.91 -21.06,-1.73 -20.71,-1.55 -20.36,-1.38 -20.01,-1.21 -19.67,-1.04 -19.32,-0.88 -18.97,-0.72 -18.62,-0.57 -18.27,-0.42 -17.92,-0.27 -17.58,-0.13 -17.23,0.01 -16.88,0.15 -16.53,0.28 -16.18,0.41 -15.84,0.54 -15.49,0.67 -15.14,0.79 -14.79,0.91 -14.44,1.03 -14.1,1.15 -13.75,1.26 -13.4,1.38 -13.05,1.49 -12.7,1.59 -12.36,1.7 -12.01,1.81 -11.66,1.91 -11.31,2.01 -10.96,2.11 -10.62,2.21 -10.27,2.3 -9.92,2.4 -9.57,2.49 -9.22,2.58 -8.88,2.67 -8.53,2.76 -8.18,2.85 -7.83,2.94 -7.48,3.02 -7.14,3.1 -6.79,3.19 -6.44,3.27 -6.09,3.35 -5.74,3.43 -5.39,3.51 -5.05,3.59 -4.7,3.66 -4.35,3.74 -4,3.81 -3.65,3.89 -3.31,3.96 -2.96,4.03 -2.61,4.1 -2.26,4.17 -1.91,4.24 -1.57,4.31 -1.22,4.38 -0.87,4.45 -0.52,4.52 -0.17,4.58 0.17,4.65 0.52,4.71 0.87,4.78 1.22,4.84 1.57,4.9 1.91,4.97 2.26,5.03 2.61,5.09 2.96,5.15 3.31,5.21 3.65,5.27 4,5.33 4.35,5.39 4.7,5.45 5.05,5.51 5.39,5.57 5.74,5.62 6.09,5.68 6.44,5.74 6.79,5.79 7.14,5.85 7.48,5.9 7.83,5.96 8.18,6.01 8.53,6.07 8.88,6.12 9.22,6.18 9.57,6.23 9.92,6.28 10.27,6.34 10.62,6.39 10.96,6.44 11.31,6.49 11.66,6.54 12.01,6.59 12.36,6.65 12.7,6.7 13.05,6.75 13.4,6.8 13.75,6.85 14.1,6.9 14.44,6.95 14.79,6.99 15.14,7.04 15.49,7.09 15.84,7.14 16.18,7.19 16.53,7.24 16.88,7.28 17.23,7.33 17.58,7.38 17.92,7.43 18.27,7.47 18.62,7.52 18.97,7.56 19.32,7.61 19.67,7.66 20.01,7.7 20.36,7.75 20.71,7.79 21.06,7.84 21.41,7.88 21.75,7.93 22.1,7.97 22.45,8.01 22.8,8.06 23.15,8.1 23.49,8.14 23.84,8.19 24.19,8.23 24.54,8.27 24.89,8.31 25.23,8.35 25.58,8.39 25.93,8.44 26.28,8.48 26.63,8.52 26.97,8.56 27.32,8.6 27.67,8.63 28.02,8.67 28.37,8.71 28.71,8.75 29.06,8.79 29.41,8.83 29.76,8.86 30.11,8.9 30.45,8.94 30.8,8.97 31.15,9.01 31.5,9.04 31.85,9.08 32.2,9.11 32.54,9.14 32.89,9.18 33.24,9.21 33.59,9.24 33.94,9.27 34.28,9.3 34.63,9.33 34.98,9.36 35.33,9.39 35.68,9.42 36.02,9.45 36.37,9.47 36.72,9.5 37.07,9.52 37.42,9.55 37.76,9.57 38.11,9.6 38.46,9.62 38.81,9.64 39.16,9.66 39.5,9.68 39.85,9.69 40.2,9.71 40.55,9.73 40.9,9.74 41.24,9.75 41.59,9.77 41.94,9.78 42.29,9.78 42.64,9.79 42.98,9.79 43.33,9.8 " class="primitive"/>
          </g>
          <g transform="translate(81.69,79.79)" id="img-728f01b3-38" class="color_f2" stroke-dasharray="none" stroke="#D4CA3A">
            <path fill="none" d="M-43.33,-5.18 L-42.98,-4.8 -42.64,-4.45 -42.29,-4.14 -41.94,-3.85 -41.59,-3.59 -41.24,-3.36 -40.9,-3.14 -40.55,-2.94 -40.2,-2.75 -39.85,-2.58 -39.5,-2.42 -39.16,-2.27 -38.81,-2.14 -38.46,-2.01 -38.11,-1.89 -37.76,-1.78 -37.42,-1.68 -37.07,-1.58 -36.72,-1.49 -36.37,-1.4 -36.02,-1.32 -35.68,-1.25 -35.33,-1.17 -34.98,-1.11 -34.63,-1.04 -34.28,-0.98 -33.94,-0.92 -33.59,-0.87 -33.24,-0.82 -32.89,-0.77 -32.54,-0.72 -32.2,-0.68 -31.85,-0.64 -31.5,-0.6 -31.15,-0.56 -30.8,-0.52 -30.45,-0.49 -30.11,-0.45 -29.76,-0.42 -29.41,-0.39 -29.06,-0.36 -28.71,-0.34 -28.37,-0.31 -28.02,-0.28 -27.67,-0.26 -27.32,-0.24 -26.97,-0.21 -26.63,-0.19 -26.28,-0.17 -25.93,-0.15 -25.58,-0.13 -25.23,-0.11 -24.89,-0.09 -24.54,-0.08 -24.19,-0.06 -23.84,-0.04 -23.49,-0.03 -23.15,-0.01 -22.8,0 -22.45,0.01 -22.1,0.03 -21.75,0.04 -21.41,0.05 -21.06,0.07 -20.71,0.08 -20.36,0.09 -20.01,0.1 -19.67,0.11 -19.32,0.12 -18.97,0.13 -18.62,0.14 -18.27,0.15 -17.92,0.16 -17.58,0.17 -17.23,0.18 -16.88,0.19 -16.53,0.19 -16.18,0.2 -15.84,0.21 -15.49,0.22 -15.14,0.22 -14.79,0.23 -14.44,0.24 -14.1,0.24 -13.75,0.25 -13.4,0.26 -13.05,0.26 -12.7,0.27 -12.36,0.27 -12.01,0.28 -11.66,0.29 -11.31,0.29 -10.96,0.3 -10.62,0.3 -10.27,0.31 -9.92,0.31 -9.57,0.32 -9.22,0.32 -8.88,0.33 -8.53,0.33 -8.18,0.33 -7.83,0.34 -7.48,0.34 -7.14,0.35 -6.79,0.35 -6.44,0.35 -6.09,0.36 -5.74,0.36 -5.39,0.36 -5.05,0.37 -4.7,0.37 -4.35,0.37 -4,0.38 -3.65,0.38 -3.31,0.38 -2.96,0.39 -2.61,0.39 -2.26,0.39 -1.91,0.4 -1.57,0.4 -1.22,0.4 -0.87,0.4 -0.52,0.41 -0.17,0.41 0.17,0.41 0.52,0.41 0.87,0.42 1.22,0.42 1.57,0.42 1.91,0.42 2.26,0.42 2.61,0.43 2.96,0.43 3.31,0.43 3.65,0.43 4,0.43 4.35,0.44 4.7,0.44 5.05,0.44 5.39,0.44 5.74,0.44 6.09,0.45 6.44,0.45 6.79,0.45 7.14,0.45 7.48,0.45 7.83,0.45 8.18,0.46 8.53,0.46 8.88,0.46 9.22,0.46 9.57,0.46 9.92,0.46 10.27,0.46 10.62,0.47 10.96,0.47 11.31,0.47 11.66,0.47 12.01,0.47 12.36,0.47 12.7,0.47 13.05,0.47 13.4,0.48 13.75,0.48 14.1,0.48 14.44,0.48 14.79,0.48 15.14,0.48 15.49,0.48 15.84,0.48 16.18,0.48 16.53,0.48 16.88,0.49 17.23,0.49 17.58,0.49 17.92,0.49 18.27,0.49 18.62,0.49 18.97,0.49 19.32,0.49 19.67,0.49 20.01,0.49 20.36,0.49 20.71,0.5 21.06,0.5 21.41,0.5 21.75,0.5 22.1,0.5 22.45,0.5 22.8,0.5 23.15,0.5 23.49,0.5 23.84,0.5 24.19,0.5 24.54,0.5 24.89,0.5 25.23,0.5 25.58,0.5 25.93,0.51 26.28,0.51 26.63,0.51 26.97,0.51 27.32,0.51 27.67,0.51 28.02,0.51 28.37,0.51 28.71,0.51 29.06,0.51 29.41,0.51 29.76,0.51 30.11,0.51 30.45,0.51 30.8,0.51 31.15,0.51 31.5,0.51 31.85,0.51 32.2,0.51 32.54,0.52 32.89,0.52 33.24,0.52 33.59,0.52 33.94,0.52 34.28,0.52 34.63,0.52 34.98,0.52 35.33,0.52 35.68,0.52 36.02,0.52 36.37,0.52 36.72,0.52 37.07,0.52 37.42,0.52 37.76,0.52 38.11,0.52 38.46,0.52 38.81,0.52 39.16,0.52 39.5,0.52 39.85,0.52 40.2,0.52 40.55,0.52 40.9,0.52 41.24,0.52 41.59,0.52 41.94,0.52 42.29,0.52 42.64,0.52 42.98,0.52 43.33,0.52 " class="primitive"/>
          </g>
          <g transform="translate(81.69,74.91)" id="img-728f01b3-39" class="color_f3" stroke-dasharray="none" stroke="#FF6DAE">
            <path fill="none" d="M-43.33,-28.68 L-42.98,-27.3 -42.64,-26.02 -42.29,-24.81 -41.94,-23.69 -41.59,-22.63 -41.24,-21.64 -40.9,-20.71 -40.55,-19.82 -40.2,-18.99 -39.85,-18.2 -39.5,-17.45 -39.16,-16.74 -38.81,-16.07 -38.46,-15.43 -38.11,-14.82 -37.76,-14.23 -37.42,-13.68 -37.07,-13.14 -36.72,-12.64 -36.37,-12.15 -36.02,-11.68 -35.68,-11.23 -35.33,-10.8 -34.98,-10.39 -34.63,-9.99 -34.28,-9.61 -33.94,-9.24 -33.59,-8.89 -33.24,-8.55 -32.89,-8.22 -32.54,-7.9 -32.2,-7.59 -31.85,-7.29 -31.5,-7.01 -31.15,-6.73 -30.8,-6.46 -30.45,-6.2 -30.11,-5.95 -29.76,-5.7 -29.41,-5.47 -29.06,-5.24 -28.71,-5.01 -28.37,-4.8 -28.02,-4.59 -27.67,-4.38 -27.32,-4.18 -26.97,-3.99 -26.63,-3.8 -26.28,-3.62 -25.93,-3.44 -25.58,-3.27 -25.23,-3.1 -24.89,-2.94 -24.54,-2.78 -24.19,-2.62 -23.84,-2.47 -23.49,-2.32 -23.15,-2.18 -22.8,-2.03 -22.45,-1.9 -22.1,-1.76 -21.75,-1.63 -21.41,-1.5 -21.06,-1.38 -20.71,-1.25 -20.36,-1.13 -20.01,-1.02 -19.67,-0.9 -19.32,-0.79 -18.97,-0.68 -18.62,-0.57 -18.27,-0.47 -17.92,-0.36 -17.58,-0.26 -17.23,-0.16 -16.88,-0.07 -16.53,0.03 -16.18,0.12 -15.84,0.21 -15.49,0.3 -15.14,0.39 -14.79,0.47 -14.44,0.56 -14.1,0.64 -13.75,0.72 -13.4,0.8 -13.05,0.88 -12.7,0.95 -12.36,1.03 -12.01,1.1 -11.66,1.17 -11.31,1.24 -10.96,1.31 -10.62,1.38 -10.27,1.45 -9.92,1.51 -9.57,1.58 -9.22,1.64 -8.88,1.7 -8.53,1.76 -8.18,1.82 -7.83,1.88 -7.48,1.94 -7.14,2 -6.79,2.06 -6.44,2.11 -6.09,2.17 -5.74,2.22 -5.39,2.27 -5.05,2.32 -4.7,2.37 -4.35,2.42 -4,2.47 -3.65,2.52 -3.31,2.57 -2.96,2.62 -2.61,2.66 -2.26,2.71 -1.91,2.75 -1.57,2.8 -1.22,2.84 -0.87,2.88 -0.52,2.93 -0.17,2.97 0.17,3.01 0.52,3.05 0.87,3.09 1.22,3.13 1.57,3.16 1.91,3.2 2.26,3.24 2.61,3.28 2.96,3.31 3.31,3.35 3.65,3.38 4,3.42 4.35,3.45 4.7,3.49 5.05,3.52 5.39,3.55 5.74,3.58 6.09,3.62 6.44,3.65 6.79,3.68 7.14,3.71 7.48,3.74 7.83,3.77 8.18,3.8 8.53,3.83 8.88,3.85 9.22,3.88 9.57,3.91 9.92,3.94 10.27,3.96 10.62,3.99 10.96,4.02 11.31,4.04 11.66,4.07 12.01,4.09 12.36,4.12 12.7,4.14 13.05,4.17 13.4,4.19 13.75,4.21 14.1,4.24 14.44,4.26 14.79,4.28 15.14,4.3 15.49,4.32 15.84,4.35 16.18,4.37 16.53,4.39 16.88,4.41 17.23,4.43 17.58,4.45 17.92,4.47 18.27,4.49 18.62,4.51 18.97,4.53 19.32,4.55 19.67,4.57 20.01,4.58 20.36,4.6 20.71,4.62 21.06,4.64 21.41,4.66 21.75,4.67 22.1,4.69 22.45,4.71 22.8,4.72 23.15,4.74 23.49,4.76 23.84,4.77 24.19,4.79 24.54,4.8 24.89,4.82 25.23,4.83 25.58,4.85 25.93,4.86 26.28,4.88 26.63,4.89 26.97,4.91 27.32,4.92 27.67,4.94 28.02,4.95 28.37,4.96 28.71,4.98 29.06,4.99 29.41,5 29.76,5.02 30.11,5.03 30.45,5.04 30.8,5.05 31.15,5.07 31.5,5.08 31.85,5.09 32.2,5.1 32.54,5.11 32.89,5.12 33.24,5.14 33.59,5.15 33.94,5.16 34.28,5.17 34.63,5.18 34.98,5.19 35.33,5.2 35.68,5.21 36.02,5.22 36.37,5.23 36.72,5.24 37.07,5.25 37.42,5.26 37.76,5.27 38.11,5.28 38.46,5.29 38.81,5.3 39.16,5.31 39.5,5.32 39.85,5.33 40.2,5.33 40.55,5.34 40.9,5.35 41.24,5.36 41.59,5.37 41.94,5.38 42.29,5.38 42.64,5.39 42.98,5.4 43.33,5.41 " class="primitive"/>
          </g>
          <g transform="translate(81.69,74.73)" id="img-728f01b3-40" class="color_f4" stroke-dasharray="none" stroke="#00B78D">
            <path fill="none" d="M-43.33,-29.86 L-42.98,-28.43 -42.64,-27.09 -42.29,-25.85 -41.94,-24.68 -41.59,-23.58 -41.24,-22.55 -40.9,-21.58 -40.55,-20.66 -40.2,-19.79 -39.85,-18.97 -39.5,-18.2 -39.16,-17.46 -38.81,-16.75 -38.46,-16.08 -38.11,-15.45 -37.76,-14.84 -37.42,-14.26 -37.07,-13.7 -36.72,-13.17 -36.37,-12.66 -36.02,-12.18 -35.68,-11.71 -35.33,-11.26 -34.98,-10.83 -34.63,-10.42 -34.28,-10.02 -33.94,-9.63 -33.59,-9.26 -33.24,-8.91 -32.89,-8.56 -32.54,-8.23 -32.2,-7.91 -31.85,-7.6 -31.5,-7.3 -31.15,-7.01 -30.8,-6.73 -30.45,-6.46 -30.11,-6.19 -29.76,-5.94 -29.41,-5.69 -29.06,-5.45 -28.71,-5.22 -28.37,-4.99 -28.02,-4.77 -27.67,-4.56 -27.32,-4.35 -26.97,-4.15 -26.63,-3.95 -26.28,-3.76 -25.93,-3.57 -25.58,-3.39 -25.23,-3.22 -24.89,-3.05 -24.54,-2.88 -24.19,-2.71 -23.84,-2.56 -23.49,-2.4 -23.15,-2.25 -22.8,-2.1 -22.45,-1.96 -22.1,-1.82 -21.75,-1.68 -21.41,-1.55 -21.06,-1.41 -20.71,-1.29 -20.36,-1.16 -20.01,-1.04 -19.67,-0.92 -19.32,-0.8 -18.97,-0.69 -18.62,-0.57 -18.27,-0.47 -17.92,-0.36 -17.58,-0.25 -17.23,-0.15 -16.88,-0.05 -16.53,0.05 -16.18,0.15 -15.84,0.24 -15.49,0.33 -15.14,0.42 -14.79,0.51 -14.44,0.6 -14.1,0.69 -13.75,0.77 -13.4,0.85 -13.05,0.93 -12.7,1.01 -12.36,1.09 -12.01,1.17 -11.66,1.24 -11.31,1.32 -10.96,1.39 -10.62,1.46 -10.27,1.53 -9.92,1.6 -9.57,1.67 -9.22,1.73 -8.88,1.8 -8.53,1.86 -8.18,1.92 -7.83,1.98 -7.48,2.04 -7.14,2.1 -6.79,2.16 -6.44,2.22 -6.09,2.28 -5.74,2.33 -5.39,2.39 -5.05,2.44 -4.7,2.49 -4.35,2.55 -4,2.6 -3.65,2.65 -3.31,2.7 -2.96,2.74 -2.61,2.79 -2.26,2.84 -1.91,2.89 -1.57,2.93 -1.22,2.98 -0.87,3.02 -0.52,3.06 -0.17,3.11 0.17,3.15 0.52,3.19 0.87,3.23 1.22,3.27 1.57,3.31 1.91,3.35 2.26,3.39 2.61,3.43 2.96,3.46 3.31,3.5 3.65,3.54 4,3.57 4.35,3.61 4.7,3.64 5.05,3.68 5.39,3.71 5.74,3.74 6.09,3.78 6.44,3.81 6.79,3.84 7.14,3.87 7.48,3.9 7.83,3.93 8.18,3.96 8.53,3.99 8.88,4.02 9.22,4.05 9.57,4.08 9.92,4.11 10.27,4.13 10.62,4.16 10.96,4.19 11.31,4.21 11.66,4.24 12.01,4.27 12.36,4.29 12.7,4.32 13.05,4.34 13.4,4.37 13.75,4.39 14.1,4.41 14.44,4.44 14.79,4.46 15.14,4.48 15.49,4.5 15.84,4.53 16.18,4.55 16.53,4.57 16.88,4.59 17.23,4.61 17.58,4.63 17.92,4.65 18.27,4.67 18.62,4.69 18.97,4.71 19.32,4.73 19.67,4.75 20.01,4.77 20.36,4.79 20.71,4.81 21.06,4.82 21.41,4.84 21.75,4.86 22.1,4.88 22.45,4.89 22.8,4.91 23.15,4.93 23.49,4.94 23.84,4.96 24.19,4.97 24.54,4.99 24.89,5.01 25.23,5.02 25.58,5.04 25.93,5.05 26.28,5.07 26.63,5.08 26.97,5.09 27.32,5.11 27.67,5.12 28.02,5.14 28.37,5.15 28.71,5.16 29.06,5.18 29.41,5.19 29.76,5.2 30.11,5.22 30.45,5.23 30.8,5.24 31.15,5.25 31.5,5.26 31.85,5.28 32.2,5.29 32.54,5.3 32.89,5.31 33.24,5.32 33.59,5.33 33.94,5.34 34.28,5.35 34.63,5.37 34.98,5.38 35.33,5.39 35.68,5.4 36.02,5.41 36.37,5.42 36.72,5.43 37.07,5.44 37.42,5.45 37.76,5.45 38.11,5.46 38.46,5.47 38.81,5.48 39.16,5.49 39.5,5.5 39.85,5.51 40.2,5.52 40.55,5.53 40.9,5.53 41.24,5.54 41.59,5.55 41.94,5.56 42.29,5.57 42.64,5.57 42.98,5.58 43.33,5.59 " class="primitive"/>
          </g>
          <g transform="translate(81.69,74.2)" id="img-728f01b3-41" class="color_f5" stroke-dasharray="none" stroke="#BEA9FF">
            <path fill="none" d="M-43.33,-28.77 L-42.98,-27.43 -42.64,-26.17 -42.29,-25 -41.94,-23.91 -41.59,-22.87 -41.24,-21.9 -40.9,-20.99 -40.55,-20.13 -40.2,-19.31 -39.85,-18.54 -39.5,-17.8 -39.16,-17.11 -38.81,-16.44 -38.46,-15.81 -38.11,-15.21 -37.76,-14.63 -37.42,-14.09 -37.07,-13.56 -36.72,-13.06 -36.37,-12.58 -36.02,-12.11 -35.68,-11.67 -35.33,-11.24 -34.98,-10.83 -34.63,-10.44 -34.28,-10.06 -33.94,-9.69 -33.59,-9.34 -33.24,-9 -32.89,-8.67 -32.54,-8.36 -32.2,-8.05 -31.85,-7.75 -31.5,-7.47 -31.15,-7.19 -30.8,-6.92 -30.45,-6.66 -30.11,-6.4 -29.76,-6.16 -29.41,-5.92 -29.06,-5.69 -28.71,-5.46 -28.37,-5.25 -28.02,-5.03 -27.67,-4.83 -27.32,-4.63 -26.97,-4.43 -26.63,-4.24 -26.28,-4.05 -25.93,-3.87 -25.58,-3.7 -25.23,-3.53 -24.89,-3.36 -24.54,-3.2 -24.19,-3.04 -23.84,-2.88 -23.49,-2.73 -23.15,-2.58 -22.8,-2.43 -22.45,-2.29 -22.1,-2.15 -21.75,-2.02 -21.41,-1.89 -21.06,-1.76 -20.71,-1.63 -20.36,-1.51 -20.01,-1.38 -19.67,-1.27 -19.32,-1.15 -18.97,-1.03 -18.62,-0.92 -18.27,-0.81 -17.92,-0.71 -17.58,-0.6 -17.23,-0.5 -16.88,-0.4 -16.53,-0.3 -16.18,-0.2 -15.84,-0.1 -15.49,-0.01 -15.14,0.08 -14.79,0.17 -14.44,0.26 -14.1,0.35 -13.75,0.43 -13.4,0.52 -13.05,0.6 -12.7,0.68 -12.36,0.76 -12.01,0.84 -11.66,0.92 -11.31,0.99 -10.96,1.07 -10.62,1.14 -10.27,1.21 -9.92,1.29 -9.57,1.36 -9.22,1.42 -8.88,1.49 -8.53,1.56 -8.18,1.62 -7.83,1.69 -7.48,1.75 -7.14,1.82 -6.79,1.88 -6.44,1.94 -6.09,2 -5.74,2.06 -5.39,2.12 -5.05,2.17 -4.7,2.23 -4.35,2.29 -4,2.34 -3.65,2.39 -3.31,2.45 -2.96,2.5 -2.61,2.55 -2.26,2.6 -1.91,2.65 -1.57,2.7 -1.22,2.75 -0.87,2.8 -0.52,2.85 -0.17,2.9 0.17,2.94 0.52,2.99 0.87,3.03 1.22,3.08 1.57,3.12 1.91,3.17 2.26,3.21 2.61,3.25 2.96,3.3 3.31,3.34 3.65,3.38 4,3.42 4.35,3.46 4.7,3.5 5.05,3.54 5.39,3.58 5.74,3.61 6.09,3.65 6.44,3.69 6.79,3.73 7.14,3.76 7.48,3.8 7.83,3.83 8.18,3.87 8.53,3.9 8.88,3.94 9.22,3.97 9.57,4.01 9.92,4.04 10.27,4.07 10.62,4.1 10.96,4.14 11.31,4.17 11.66,4.2 12.01,4.23 12.36,4.26 12.7,4.29 13.05,4.32 13.4,4.35 13.75,4.38 14.1,4.41 14.44,4.44 14.79,4.47 15.14,4.5 15.49,4.53 15.84,4.55 16.18,4.58 16.53,4.61 16.88,4.64 17.23,4.66 17.58,4.69 17.92,4.71 18.27,4.74 18.62,4.77 18.97,4.79 19.32,4.82 19.67,4.84 20.01,4.87 20.36,4.89 20.71,4.91 21.06,4.94 21.41,4.96 21.75,4.99 22.1,5.01 22.45,5.03 22.8,5.06 23.15,5.08 23.49,5.1 23.84,5.12 24.19,5.15 24.54,5.17 24.89,5.19 25.23,5.21 25.58,5.23 25.93,5.25 26.28,5.27 26.63,5.29 26.97,5.31 27.32,5.34 27.67,5.36 28.02,5.38 28.37,5.4 28.71,5.42 29.06,5.43 29.41,5.45 29.76,5.47 30.11,5.49 30.45,5.51 30.8,5.53 31.15,5.55 31.5,5.57 31.85,5.59 32.2,5.6 32.54,5.62 32.89,5.64 33.24,5.66 33.59,5.67 33.94,5.69 34.28,5.71 34.63,5.73 34.98,5.74 35.33,5.76 35.68,5.78 36.02,5.79 36.37,5.81 36.72,5.83 37.07,5.84 37.42,5.86 37.76,5.87 38.11,5.89 38.46,5.91 38.81,5.92 39.16,5.94 39.5,5.95 39.85,5.97 40.2,5.98 40.55,6 40.9,6.01 41.24,6.03 41.59,6.04 41.94,6.06 42.29,6.07 42.64,6.09 42.98,6.1 43.33,6.11 " class="primitive"/>
          </g>
        </g>
      </g>
    </g>
  </g>
  <g class="guide ylabels" font-size="2.82" font-family="'PT Sans Caption','Helvetica Neue','Helvetica',sans-serif" fill="#6C606B" id="img-728f01b3-42">
    <g transform="translate(25.72,80.31)" id="img-728f01b3-43">
      <g class="primitive">
        <text text-anchor="end" dy="0.35em">0</text>
      </g>
    </g>
    <g transform="translate(25.72,61.99)" id="img-728f01b3-44">
      <g class="primitive">
        <text text-anchor="end" dy="0.35em">1.0×10³</text>
      </g>
    </g>
    <g transform="translate(25.72,43.66)" id="img-728f01b3-45">
      <g class="primitive">
        <text text-anchor="end" dy="0.35em">2.0×10³</text>
      </g>
    </g>
    <g transform="translate(25.72,25.33)" id="img-728f01b3-46">
      <g class="primitive">
        <text text-anchor="end" dy="0.35em">3.0×10³</text>
      </g>
    </g>
    <g transform="translate(25.72,7)" id="img-728f01b3-47">
      <g class="primitive">
        <text text-anchor="end" dy="0.35em">4.0×10³</text>
      </g>
    </g>
  </g>
  <g font-size="3.88" font-family="'PT Sans','Helvetica Neue','Helvetica',sans-serif" fill="#564A55" stroke="#000000" stroke-opacity="0.000" id="img-728f01b3-48">
    <g transform="translate(8.81,41.66)" id="img-728f01b3-49">
      <g class="primitive">
        <text text-anchor="middle" dy="0.35em" transform="rotate(-90,0, 2)">Intensity (arb)</text>
      </g>
    </g>
  </g>
</g>
<defs>
  <clipPath id="img-728f01b3-19">
    <path d="M26.72,5 L127.02,5 127.02,82.32 26.72,82.32 " />
  </clipPath>
</defs>
</svg>
