<?xml version="1.0" encoding="UTF-8"?>
<svg xmlns="http://www.w3.org/2000/svg"
     xmlns:xlink="http://www.w3.org/1999/xlink"
     xmlns:gadfly="http://www.gadflyjl.org/ns"
     version="1.2"
     width="203.2mm" height="101.6mm" viewBox="0 0 203.2 101.6"
     stroke="none"
     fill="#000000"
     stroke-width="0.3"
     font-size="3.88"
>
<defs>
  <marker id="arrow" markerWidth="15" markerHeight="7" refX="5" refY="3.5" orient="auto" markerUnits="strokeWidth">
    <path d="M0,0 L15,3.5 L0,7 z" stroke="context-stroke" fill="context-stroke"/>
  </marker>
</defs>
<g class="plotroot xscalable yscalable" id="img-1bcf5b3a-1">
  <g font-size="3.88" font-family="'PT Sans','Helvetica Neue','Helvetica',sans-serif" fill="#564A55" stroke="#000000" stroke-opacity="0.000" id="img-1bcf5b3a-2">
    <g transform="translate(98.35,89.99)">
      <g class="primitive">
        <text text-anchor="middle" dy="0.6em">Energy (eV)</text>
      </g>
    </g>
  </g>
  <g class="guide xlabels" font-size="2.82" font-family="'PT Sans Caption','Helvetica Neue','Helvetica',sans-serif" fill="#6C606B" id="img-1bcf5b3a-3">
    <g transform="translate(18.29,83.32)">
      <g class="primitive">
        <text text-anchor="middle" dy="0.6em">0</text>
      </g>
    </g>
    <g transform="translate(50.31,83.32)">
      <g class="primitive">
        <text text-anchor="middle" dy="0.6em">1.00×10³</text>
      </g>
    </g>
    <g transform="translate(82.34,83.32)">
      <g class="primitive">
        <text text-anchor="middle" dy="0.6em">2.00×10³</text>
      </g>
    </g>
    <g transform="translate(114.37,83.32)">
      <g class="primitive">
        <text text-anchor="middle" dy="0.6em">3.00×10³</text>
      </g>
    </g>
    <g transform="translate(146.39,83.32)">
      <g class="primitive">
        <text text-anchor="middle" dy="0.6em">4.00×10³</text>
      </g>
    </g>
    <g transform="translate(178.42,83.32)">
      <g class="primitive">
        <text text-anchor="middle" dy="0.6em">5.00×10³</text>
      </g>
    </g>
  </g>
  <g class="guide colorkey" id="img-1bcf5b3a-4">
    <g fill="#4C404B" font-size="2.82" font-family="'PT Sans','Helvetica Neue','Helvetica',sans-serif" id="img-1bcf5b3a-5">
      <g transform="translate(185.05,40.77)" id="img-1bcf5b3a-6">
        <g class="primitive">
          <text dy="0.35em">Aluminium</text>
        </g>
      </g>
      <g transform="translate(185.05,44.4)" id="img-1bcf5b3a-7">
        <g class="primitive">
          <text dy="0.35em">Sodium</text>
        </g>
      </g>
      <g transform="translate(185.05,48.03)" id="img-1bcf5b3a-8">
        <g class="primitive">
          <text dy="0.35em">Silicon</text>
        </g>
      </g>
      <g transform="translate(185.05,51.65)" id="img-1bcf5b3a-9">
        <g class="primitive">
          <text dy="0.35em">Oxygen</text>
        </g>
      </g>
    </g>
    <g stroke-width="0.3" id="img-1bcf5b3a-10">
      <g stroke="#FFFFFF" fill-opacity="1" fill="#FFBC00" id="img-1bcf5b3a-11">
        <g transform="translate(182.23,51.65)" id="img-1bcf5b3a-12">
          <circle cx="0" cy="0" r="0.9" class="primitive"/>
        </g>
      </g>
      <g stroke="#FFFFFF" fill-opacity="1" fill="#00BBFF" id="img-1bcf5b3a-13">
        <g transform="translate(182.23,48.03)" id="img-1bcf5b3a-14">
          <circle cx="0" cy="0" r="0.9" class="primitive"/>
        </g>
      </g>
      <g stroke="#FFFFFF" fill-opacity="1" fill="#B70002" id="img-1bcf5b3a-15">
        <g transform="translate(182.23,44.4)" id="img-1bcf5b3a-16">
          <circle cx="0" cy="0" r="0.9" class="primitive"/>
        </g>
      </g>
      <g stroke="#FFFFFF" fill-opacity="1" fill="#104E8B" id="img-1bcf5b3a-17">
        <g transform="translate(182.23,40.77)" id="img-1bcf5b3a-18">
          <circle cx="0" cy="0" r="0.9" class="primitive"/>
        </g>
      </g>
    </g>
    <g fill="#362A35" font-size="3.88" font-family="'PT Sans','Helvetica Neue','Helvetica',sans-serif" stroke="#000000" stroke-opacity="0.000" id="img-1bcf5b3a-19">
      <g transform="translate(181.42,37.46)" id="img-1bcf5b3a-20">
        <g class="primitive">
          <text dy="-0em">Material</text>
        </g>
      </g>
    </g>
  </g>
  <g clip-path="url(#img-1bcf5b3a-21)">
    <g id="img-1bcf5b3a-22">
      <g pointer-events="visible" stroke-width="0.3" fill="#000000" fill-opacity="0.000" stroke="#000000" stroke-opacity="0.000" class="guide background" id="img-1bcf5b3a-23">
        <g transform="translate(98.35,43.66)" id="img-1bcf5b3a-24">
          <path d="M-82.07,-38.66 L82.07,-38.66 82.07,38.66 -82.07,38.66  z" class="primitive"/>
        </g>
      </g>
      <g class="guide ygridlines xfixed" stroke-dasharray="0.5,0.5" stroke-width="0.2" stroke="#D0D0E0" id="img-1bcf5b3a-25">
        <g transform="translate(98.35,80.32)" id="img-1bcf5b3a-26">
          <path fill="none" d="M-82.07,0 L82.07,0 " class="primitive"/>
        </g>
        <g transform="translate(98.35,68.1)" id="img-1bcf5b3a-27">
          <path fill="none" d="M-82.07,0 L82.07,0 " class="primitive"/>
        </g>
        <g transform="translate(98.35,55.88)" id="img-1bcf5b3a-28">
          <path fill="none" d="M-82.07,0 L82.07,0 " class="primitive"/>
        </g>
        <g transform="translate(98.35,43.66)" id="img-1bcf5b3a-29">
          <path fill="none" d="M-82.07,0 L82.07,0 " class="primitive"/>
        </g>
        <g transform="translate(98.35,31.44)" id="img-1bcf5b3a-30">
          <path fill="none" d="M-82.07,0 L82.07,0 " class="primitive"/>
        </g>
        <g transform="translate(98.35,19.22)" id="img-1bcf5b3a-31">
          <path fill="none" d="M-82.07,0 L82.07,0 " class="primitive"/>
        </g>
        <g transform="translate(98.35,7)" id="img-1bcf5b3a-32">
          <path fill="none" d="M-82.07,0 L82.07,0 " class="primitive"/>
        </g>
      </g>
      <g class="guide xgridlines yfixed" stroke-dasharray="0.5,0.5" stroke-width="0.2" stroke="#D0D0E0" id="img-1bcf5b3a-33">
        <g transform="translate(18.29,43.66)" id="img-1bcf5b3a-34">
          <path fill="none" d="M0,-38.66 L0,38.66 " class="primitive"/>
        </g>
        <g transform="translate(50.31,43.66)" id="img-1bcf5b3a-35">
          <path fill="none" d="M0,-38.66 L0,38.66 " class="primitive"/>
        </g>
        <g transform="translate(82.34,43.66)" id="img-1bcf5b3a-36">
          <path fill="none" d="M0,-38.66 L0,38.66 " class="primitive"/>
        </g>
        <g transform="translate(114.37,43.66)" id="img-1bcf5b3a-37">
          <path fill="none" d="M0,-38.66 L0,38.66 " class="primitive"/>
        </g>
        <g transform="translate(146.39,43.66)" id="img-1bcf5b3a-38">
          <path fill="none" d="M0,-38.66 L0,38.66 " class="primitive"/>
        </g>
        <g transform="translate(178.42,43.66)" id="img-1bcf5b3a-39">
          <path fill="none" d="M0,-38.66 L0,38.66 " class="primitive"/>
        </g>
      </g>
      <g class="plotpanel" id="img-1bcf5b3a-40">
        <metadata>
          <boundingbox value="16.285000000000025mm 5.0mm 164.135mm 77.315mm"/>
          <unitbox value="-62.44731008211822 6.163677282957103 5124.894620164237 -6.327354565914206"/>
        </metadata>
        <g stroke-width="0.3" fill="#000000" fill-opacity="0.000" class="geometry" id="img-1bcf5b3a-41">
          <g class="color_RGB{N0f8}(1.0,0.737,0.0)" stroke-dasharray="none" stroke="#FFBC00" id="img-1bcf5b3a-42">
            <g transform="translate(99.95,47.68)" id="img-1bcf5b3a-43">
              <path fill="none" d="M-78.47,-24.98 L-77.84,-23.11 -77.21,-21.41 -76.58,-19.79 -75.95,-18.35 -75.31,-17.04 -74.68,-15.85 -74.05,-14.75 -73.42,-13.75 -72.79,-12.81 -72.16,-11.94 -71.53,-11.13 -70.9,-10.37 -70.27,-9.65 -69.64,-8.97 -69.01,-8.32 -68.38,-7.71 -67.75,-7.12 -67.12,-6.56 -66.49,-5.99 -65.86,-5.45 -65.23,-4.93 -64.6,-11.58 -63.97,-19.59 -63.34,-19.19 -62.71,-18.8 -62.08,-18.41 -61.45,-18.02 -60.82,-17.64 -60.19,-17.27 -59.56,-16.89 -58.93,-16.53 -58.3,-16.17 -57.67,-15.82 -57.04,-15.48 -56.41,-15.14 -55.78,-14.81 -55.15,-14.49 -54.52,-14.17 -53.89,-13.86 -53.26,-13.56 -52.63,-13.26 -52,-12.97 -51.37,-12.68 -50.74,-12.39 -50.1,-12.11 -49.47,-11.83 -48.84,-11.55 -48.21,-11.28 -47.58,-11.01 -46.95,-10.75 -46.32,-10.49 -45.69,-10.23 -45.06,-9.98 -44.43,-9.73 -43.8,-9.49 -43.17,-9.25 -42.54,-9.01 -41.91,-8.78 -41.28,-8.55 -40.65,-8.33 -40.02,-8.11 -39.39,-7.89 -38.76,-7.67 -38.13,-7.46 -37.5,-7.25 -36.87,-7.05 -36.24,-6.84 -35.61,-6.64 -34.98,-6.44 -34.35,-6.25 -33.72,-6.05 -33.09,-5.86 -32.46,-5.68 -31.83,-5.49 -31.2,-5.31 -30.57,-5.13 -29.94,-4.95 -29.31,-4.77 -28.68,-4.59 -28.05,-4.42 -27.42,-4.25 -26.79,-4.08 -26.16,-3.91 -25.53,-3.75 -24.89,-3.59 -24.26,-3.42 -23.63,-3.26 -23,-3.11 -22.37,-2.95 -21.74,-2.79 -21.11,-2.64 -20.48,-2.49 -19.85,-2.34 -19.22,-2.19 -18.59,-2.04 -17.96,-1.9 -17.33,-1.75 -16.7,-1.61 -16.07,-1.47 -15.44,-1.33 -14.81,-1.19 -14.18,-1.05 -13.55,-0.91 -12.92,-0.77 -12.29,-0.63 -11.66,-0.49 -11.03,-0.36 -10.4,-0.22 -9.77,-0.09 -9.14,0.04 -8.51,0.18 -7.88,0.31 -7.25,0.44 -6.62,0.57 -5.99,0.69 -5.36,0.82 -4.73,0.95 -4.1,1.07 -3.47,1.19 -2.84,1.32 -2.21,1.44 -1.58,1.56 -0.95,1.68 -0.32,1.8 0.32,1.92 0.95,2.03 1.58,2.15 2.21,2.27 2.84,2.38 3.47,2.49 4.1,2.61 4.73,2.72 5.36,2.83 5.99,2.94 6.62,3.05 7.25,3.16 7.88,3.27 8.51,3.37 9.14,3.48 9.77,3.58 10.4,3.69 11.03,3.79 11.66,3.9 12.29,4 12.92,4.11 13.55,4.21 14.18,4.32 14.81,4.42 15.44,4.52 16.07,4.62 16.7,4.72 17.33,4.82 17.96,4.92 18.59,5.03 19.22,5.13 19.85,5.23 20.48,5.33 21.11,5.42 21.74,5.52 22.37,5.62 23,5.72 23.63,5.81 24.26,5.91 24.89,6 25.53,6.1 26.16,6.19 26.79,6.29 27.42,6.38 28.05,6.47 28.68,6.56 29.31,6.66 29.94,6.75 30.57,6.84 31.2,6.93 31.83,7.02 32.46,7.11 33.09,7.19 33.72,7.28 34.35,7.37 34.98,7.46 35.61,7.54 36.24,7.63 36.87,7.71 37.5,7.8 38.13,7.88 38.76,7.97 39.39,8.05 40.02,8.14 40.65,8.22 41.28,8.3 41.91,8.38 42.54,8.47 43.17,8.55 43.8,8.63 44.43,8.71 45.06,8.79 45.69,8.87 46.32,8.95 46.95,9.03 47.58,9.1 48.21,9.18 48.84,9.26 49.47,9.34 50.1,9.41 50.74,9.49 51.37,9.57 52,9.64 52.63,9.72 53.26,9.79 53.89,9.87 54.52,9.94 55.15,10.02 55.78,10.09 56.41,10.16 57.04,10.24 57.67,10.31 58.3,10.38 58.93,10.45 59.56,10.53 60.19,10.6 60.82,10.67 61.45,10.74 62.08,10.81 62.71,10.88 63.34,10.95 63.97,11.02 64.6,11.09 65.23,11.16 65.86,11.23 66.49,11.3 67.12,11.36 67.75,11.43 68.38,11.5 69.01,11.57 69.64,11.63 70.27,11.7 70.9,11.77 71.53,11.83 72.16,11.9 72.79,11.96 73.42,12.03 74.05,12.1 74.68,12.16 75.31,12.22 75.95,12.29 76.58,12.35 77.21,12.42 77.84,12.48 78.47,12.54 " class="primitive"/>
            </g>
          </g>
        </g>
        <g stroke-width="0.3" fill="#000000" fill-opacity="0.000" class="geometry" id="img-1bcf5b3a-44">
          <g class="color_RGB{N0f8}(1.0,0.737,0.0)" stroke-dasharray="none" stroke="#FFBC00" id="img-1bcf5b3a-45">
            <g transform="translate(99.95,47.68)" id="img-1bcf5b3a-46">
              <path fill="none" d="M-78.47,-24.98 L-77.84,-23.11 -77.21,-21.41 -76.58,-19.79 -75.95,-18.35 -75.31,-17.04 -74.68,-15.85 -74.05,-14.75 -73.42,-13.75 -72.79,-12.81 -72.16,-11.94 -71.53,-11.13 -70.9,-10.37 -70.27,-9.65 -69.64,-8.97 -69.01,-8.32 -68.38,-7.71 -67.75,-7.12 -67.12,-6.56 -66.49,-5.99 -65.86,-5.45 -65.23,-4.93 -64.6,-11.58 -63.97,-19.59 -63.34,-19.19 -62.71,-18.8 -62.08,-18.41 -61.45,-18.02 -60.82,-17.64 -60.19,-17.27 -59.56,-16.89 -58.93,-16.53 -58.3,-16.17 -57.67,-15.82 -57.04,-15.48 -56.41,-15.14 -55.78,-14.81 -55.15,-14.49 -54.52,-14.17 -53.89,-13.86 -53.26,-13.56 -52.63,-13.26 -52,-12.97 -51.37,-12.68 -50.74,-12.39 -50.1,-12.11 -49.47,-11.83 -48.84,-11.55 -48.21,-11.28 -47.58,-11.01 -46.95,-10.75 -46.32,-10.49 -45.69,-10.23 -45.06,-9.98 -44.43,-9.73 -43.8,-9.49 -43.17,-9.25 -42.54,-9.01 -41.91,-8.78 -41.28,-8.55 -40.65,-8.33 -40.02,-8.11 -39.39,-7.89 -38.76,-7.67 -38.13,-7.46 -37.5,-7.25 -36.87,-7.05 -36.24,-6.84 -35.61,-6.64 -34.98,-6.44 -34.35,-6.25 -33.72,-6.05 -33.09,-5.86 -32.46,-5.68 -31.83,-5.49 -31.2,-5.31 -30.57,-5.13 -29.94,-4.95 -29.31,-4.77 -28.68,-4.59 -28.05,-4.42 -27.42,-4.25 -26.79,-4.08 -26.16,-3.91 -25.53,-3.75 -24.89,-3.59 -24.26,-3.42 -23.63,-3.26 -23,-3.11 -22.37,-2.95 -21.74,-2.79 -21.11,-2.64 -20.48,-2.49 -19.85,-2.34 -19.22,-2.19 -18.59,-2.04 -17.96,-1.9 -17.33,-1.75 -16.7,-1.61 -16.07,-1.47 -15.44,-1.33 -14.81,-1.19 -14.18,-1.05 -13.55,-0.91 -12.92,-0.77 -12.29,-0.63 -11.66,-0.49 -11.03,-0.36 -10.4,-0.22 -9.77,-0.09 -9.14,0.04 -8.51,0.18 -7.88,0.31 -7.25,0.44 -6.62,0.57 -5.99,0.69 -5.36,0.82 -4.73,0.95 -4.1,1.07 -3.47,1.19 -2.84,1.32 -2.21,1.44 -1.58,1.56 -0.95,1.68 -0.32,1.8 0.32,1.92 0.95,2.03 1.58,2.15 2.21,2.27 2.84,2.38 3.47,2.49 4.1,2.61 4.73,2.72 5.36,2.83 5.99,2.94 6.62,3.05 7.25,3.16 7.88,3.27 8.51,3.37 9.14,3.48 9.77,3.58 10.4,3.69 11.03,3.79 11.66,3.9 12.29,4 12.92,4.11 13.55,4.21 14.18,4.32 14.81,4.42 15.44,4.52 16.07,4.62 16.7,4.72 17.33,4.82 17.96,4.92 18.59,5.03 19.22,5.13 19.85,5.23 20.48,5.33 21.11,5.42 21.74,5.52 22.37,5.62 23,5.72 23.63,5.81 24.26,5.91 24.89,6 25.53,6.1 26.16,6.19 26.79,6.29 27.42,6.38 28.05,6.47 28.68,6.56 29.31,6.66 29.94,6.75 30.57,6.84 31.2,6.93 31.83,7.02 32.46,7.11 33.09,7.19 33.72,7.28 34.35,7.37 34.98,7.46 35.61,7.54 36.24,7.63 36.87,7.71 37.5,7.8 38.13,7.88 38.76,7.97 39.39,8.05 40.02,8.14 40.65,8.22 41.28,8.3 41.91,8.38 42.54,8.47 43.17,8.55 43.8,8.63 44.43,8.71 45.06,8.79 45.69,8.87 46.32,8.95 46.95,9.03 47.58,9.1 48.21,9.18 48.84,9.26 49.47,9.34 50.1,9.41 50.74,9.49 51.37,9.57 52,9.64 52.63,9.72 53.26,9.79 53.89,9.87 54.52,9.94 55.15,10.02 55.78,10.09 56.41,10.16 57.04,10.24 57.67,10.31 58.3,10.38 58.93,10.45 59.56,10.53 60.19,10.6 60.82,10.67 61.45,10.74 62.08,10.81 62.71,10.88 63.34,10.95 63.97,11.02 64.6,11.09 65.23,11.16 65.86,11.23 66.49,11.3 67.12,11.36 67.75,11.43 68.38,11.5 69.01,11.57 69.64,11.63 70.27,11.7 70.9,11.77 71.53,11.83 72.16,11.9 72.79,11.96 73.42,12.03 74.05,12.1 74.68,12.16 75.31,12.22 75.95,12.29 76.58,12.35 77.21,12.42 77.84,12.48 78.47,12.54 " class="primitive"/>
            </g>
          </g>
        </g>
        <g stroke-width="0.3" fill="#000000" fill-opacity="0.000" class="geometry" id="img-1bcf5b3a-47">
          <g class="color_RGB{N0f8}(0.0,0.733,1.0)" stroke-dasharray="none" stroke="#00BBFF" id="img-1bcf5b3a-48">
            <g transform="translate(99.95,43.02)" id="img-1bcf5b3a-49">
              <path fill="none" d="M-78.47,-24.23 L-77.84,-24.4 -77.21,-23.9 -76.58,-23.6 -75.95,-22.68 -75.31,-21.72 -74.68,-20.77 -74.05,-19.84 -73.42,-18.95 -72.79,-18.1 -72.16,-17.28 -71.53,-16.51 -70.9,-15.77 -70.27,-15.07 -69.64,-14.4 -69.01,-13.76 -68.38,-13.14 -67.75,-12.54 -67.12,-11.97 -66.49,-11.42 -65.86,-10.89 -65.23,-10.38 -64.6,-9.88 -63.97,-9.41 -63.34,-8.94 -62.71,-8.49 -62.08,-8.05 -61.45,-7.63 -60.82,-7.22 -60.19,-6.82 -59.56,-6.43 -58.93,-6.05 -58.3,-5.68 -57.67,-5.32 -57.04,-4.97 -56.41,-4.62 -55.78,-4.29 -55.15,-3.96 -54.52,-3.64 -53.89,-3.33 -53.26,-3.03 -52.63,-2.73 -52,-2.44 -51.37,-2.15 -50.74,-1.87 -50.1,-1.59 -49.47,-1.32 -48.84,-1.03 -48.21,-0.75 -47.58,-0.48 -46.95,-0.21 -46.32,0.06 -45.69,0.32 -45.06,0.57 -44.43,0.82 -43.8,1.07 -43.17,1.31 -42.54,1.55 -41.91,1.78 -41.28,2.01 -40.65,2.24 -40.02,2.46 -39.39,2.68 -38.76,2.89 -38.13,3.1 -37.5,3.31 -36.87,3.51 -36.24,3.72 -35.61,3.91 -34.98,4.11 -34.35,4.3 -33.72,4.49 -33.09,4.68 -32.46,4.87 -31.83,5.05 -31.2,5.23 -30.57,5.41 -29.94,5.58 -29.31,5.75 -28.68,5.93 -28.05,6.09 -27.42,6.26 -26.79,6.43 -26.16,6.59 -25.53,6.75 -24.89,6.91 -24.26,7.06 -23.63,7.22 -23,7.37 -22.37,-5.69 -21.74,-5.59 -21.11,-5.48 -20.48,-5.37 -19.85,-5.27 -19.22,-5.16 -18.59,-5.03 -17.96,-4.9 -17.33,-4.77 -16.7,-4.64 -16.07,-4.51 -15.44,-4.39 -14.81,-4.26 -14.18,-4.13 -13.55,-4 -12.92,-3.87 -12.29,-3.74 -11.66,-3.62 -11.03,-3.49 -10.4,-3.37 -9.77,-3.24 -9.14,-3.11 -8.51,-2.99 -7.88,-2.87 -7.25,-2.75 -6.62,-2.63 -5.99,-2.51 -5.36,-2.39 -4.73,-2.27 -4.1,-2.16 -3.47,-2.05 -2.84,-1.93 -2.21,-1.82 -1.58,-1.71 -0.95,-1.6 -0.32,-1.5 0.32,-1.39 0.95,-1.28 1.58,-1.18 2.21,-1.08 2.84,-0.97 3.47,-0.87 4.1,-0.77 4.73,-0.67 5.36,-0.57 5.99,-0.47 6.62,-0.37 7.25,-0.27 7.88,-0.17 8.51,-0.08 9.14,0.02 9.77,0.12 10.4,0.21 11.03,0.3 11.66,0.4 12.29,0.49 12.92,0.59 13.55,0.68 14.18,0.77 14.81,0.87 15.44,0.96 16.07,1.05 16.7,1.14 17.33,1.23 17.96,1.32 18.59,1.41 19.22,1.5 19.85,1.59 20.48,1.68 21.11,1.76 21.74,1.85 22.37,1.94 23,2.03 23.63,2.11 24.26,2.2 24.89,2.28 25.53,2.37 26.16,2.45 26.79,2.53 27.42,2.62 28.05,2.7 28.68,2.78 29.31,2.86 29.94,2.94 30.57,3.02 31.2,3.1 31.83,3.18 32.46,3.26 33.09,3.34 33.72,3.42 34.35,3.5 34.98,3.58 35.61,3.66 36.24,3.74 36.87,3.82 37.5,3.89 38.13,3.97 38.76,4.05 39.39,4.12 40.02,4.2 40.65,4.28 41.28,4.36 41.91,4.43 42.54,4.51 43.17,4.58 43.8,4.66 44.43,4.74 45.06,4.81 45.69,4.88 46.32,4.96 46.95,5.03 47.58,5.11 48.21,5.18 48.84,5.25 49.47,5.32 50.1,5.39 50.74,5.47 51.37,5.54 52,5.61 52.63,5.68 53.26,5.75 53.89,5.82 54.52,5.89 55.15,5.96 55.78,6.03 56.41,6.1 57.04,6.16 57.67,6.23 58.3,6.3 58.93,6.37 59.56,6.43 60.19,6.5 60.82,6.57 61.45,6.63 62.08,6.7 62.71,6.76 63.34,6.83 63.97,6.89 64.6,6.96 65.23,7.02 65.86,7.09 66.49,7.15 67.12,7.22 67.75,7.28 68.38,7.34 69.01,7.4 69.64,7.47 70.27,7.53 70.9,7.59 71.53,7.65 72.16,7.71 72.79,7.78 73.42,7.84 74.05,7.9 74.68,7.96 75.31,8.02 75.95,8.08 76.58,8.14 77.21,8.2 77.84,8.26 78.47,8.32 " class="primitive"/>
            </g>
          </g>
        </g>
        <g stroke-width="0.3" fill="#000000" fill-opacity="0.000" class="geometry" id="img-1bcf5b3a-50">
          <g class="color_RGB{N0f8}(0.0,0.733,1.0)" stroke-dasharray="none" stroke="#00BBFF" id="img-1bcf5b3a-51">
            <g transform="translate(99.95,43.02)" id="img-1bcf5b3a-52">
              <path fill="none" d="M-78.47,-24.23 L-77.84,-24.4 -77.21,-23.9 -76.58,-23.6 -75.95,-22.68 -75.31,-21.72 -74.68,-20.77 -74.05,-19.84 -73.42,-18.95 -72.79,-18.1 -72.16,-17.28 -71.53,-16.51 -70.9,-15.77 -70.27,-15.07 -69.64,-14.4 -69.01,-13.76 -68.38,-13.14 -67.75,-12.54 -67.12,-11.97 -66.49,-11.42 -65.86,-10.89 -65.23,-10.38 -64.6,-9.88 -63.97,-9.41 -63.34,-8.94 -62.71,-8.49 -62.08,-8.05 -61.45,-7.63 -60.82,-7.22 -60.19,-6.82 -59.56,-6.43 -58.93,-6.05 -58.3,-5.68 -57.67,-5.32 -57.04,-4.97 -56.41,-4.62 -55.78,-4.29 -55.15,-3.96 -54.52,-3.64 -53.89,-3.33 -53.26,-3.03 -52.63,-2.73 -52,-2.44 -51.37,-2.15 -50.74,-1.87 -50.1,-1.59 -49.47,-1.32 -48.84,-1.03 -48.21,-0.75 -47.58,-0.48 -46.95,-0.21 -46.32,0.06 -45.69,0.32 -45.06,0.57 -44.43,0.82 -43.8,1.07 -43.17,1.31 -42.54,1.55 -41.91,1.78 -41.28,2.01 -40.65,2.24 -40.02,2.46 -39.39,2.68 -38.76,2.89 -38.13,3.1 -37.5,3.31 -36.87,3.51 -36.24,3.72 -35.61,3.91 -34.98,4.11 -34.35,4.3 -33.72,4.49 -33.09,4.68 -32.46,4.87 -31.83,5.05 -31.2,5.23 -30.57,5.41 -29.94,5.58 -29.31,5.75 -28.68,5.93 -28.05,6.09 -27.42,6.26 -26.79,6.43 -26.16,6.59 -25.53,6.75 -24.89,6.91 -24.26,7.06 -23.63,7.22 -23,7.37 -22.37,-5.69 -21.74,-5.59 -21.11,-5.48 -20.48,-5.37 -19.85,-5.27 -19.22,-5.16 -18.59,-5.03 -17.96,-4.9 -17.33,-4.77 -16.7,-4.64 -16.07,-4.51 -15.44,-4.39 -14.81,-4.26 -14.18,-4.13 -13.55,-4 -12.92,-3.87 -12.29,-3.74 -11.66,-3.62 -11.03,-3.49 -10.4,-3.37 -9.77,-3.24 -9.14,-3.11 -8.51,-2.99 -7.88,-2.87 -7.25,-2.75 -6.62,-2.63 -5.99,-2.51 -5.36,-2.39 -4.73,-2.27 -4.1,-2.16 -3.47,-2.05 -2.84,-1.93 -2.21,-1.82 -1.58,-1.71 -0.95,-1.6 -0.32,-1.5 0.32,-1.39 0.95,-1.28 1.58,-1.18 2.21,-1.08 2.84,-0.97 3.47,-0.87 4.1,-0.77 4.73,-0.67 5.36,-0.57 5.99,-0.47 6.62,-0.37 7.25,-0.27 7.88,-0.17 8.51,-0.08 9.14,0.02 9.77,0.12 10.4,0.21 11.03,0.3 11.66,0.4 12.29,0.49 12.92,0.59 13.55,0.68 14.18,0.77 14.81,0.87 15.44,0.96 16.07,1.05 16.7,1.14 17.33,1.23 17.96,1.32 18.59,1.41 19.22,1.5 19.85,1.59 20.48,1.68 21.11,1.76 21.74,1.85 22.37,1.94 23,2.03 23.63,2.11 24.26,2.2 24.89,2.28 25.53,2.37 26.16,2.45 26.79,2.53 27.42,2.62 28.05,2.7 28.68,2.78 29.31,2.86 29.94,2.94 30.57,3.02 31.2,3.1 31.83,3.18 32.46,3.26 33.09,3.34 33.72,3.42 34.35,3.5 34.98,3.58 35.61,3.66 36.24,3.74 36.87,3.82 37.5,3.89 38.13,3.97 38.76,4.05 39.39,4.12 40.02,4.2 40.65,4.28 41.28,4.36 41.91,4.43 42.54,4.51 43.17,4.58 43.8,4.66 44.43,4.74 45.06,4.81 45.69,4.88 46.32,4.96 46.95,5.03 47.58,5.11 48.21,5.18 48.84,5.25 49.47,5.32 50.1,5.39 50.74,5.47 51.37,5.54 52,5.61 52.63,5.68 53.26,5.75 53.89,5.82 54.52,5.89 55.15,5.96 55.78,6.03 56.41,6.1 57.04,6.16 57.67,6.23 58.3,6.3 58.93,6.37 59.56,6.43 60.19,6.5 60.82,6.57 61.45,6.63 62.08,6.7 62.71,6.76 63.34,6.83 63.97,6.89 64.6,6.96 65.23,7.02 65.86,7.09 66.49,7.15 67.12,7.22 67.75,7.28 68.38,7.34 69.01,7.4 69.64,7.47 70.27,7.53 70.9,7.59 71.53,7.65 72.16,7.71 72.79,7.78 73.42,7.84 74.05,7.9 74.68,7.96 75.31,8.02 75.95,8.08 76.58,8.14 77.21,8.2 77.84,8.26 78.47,8.32 " class="primitive"/>
            </g>
          </g>
        </g>
        <g stroke-width="0.3" fill="#000000" fill-opacity="0.000" class="geometry" id="img-1bcf5b3a-53">
          <g class="color_RGB{N0f8}(0.718,0.0,0.008)" stroke-dasharray="none" stroke="#B70002" id="img-1bcf5b3a-54">
            <g transform="translate(99.95,44.66)" id="img-1bcf5b3a-55">
              <path fill="none" d="M-78.47,-26.52 L-77.84,-25.01 -77.21,-23.53 -76.58,-22.13 -75.95,-20.82 -75.31,-19.6 -74.68,-18.46 -74.05,-17.4 -73.42,-16.41 -72.79,-15.49 -72.16,-14.61 -71.53,-13.79 -70.9,-13.01 -70.27,-12.27 -69.64,-11.57 -69.01,-10.9 -68.38,-10.26 -67.75,-9.65 -67.12,-9.06 -66.49,-8.5 -65.86,-7.96 -65.23,-7.44 -64.6,-6.94 -63.97,-6.46 -63.34,-5.99 -62.71,-5.53 -62.08,-5.08 -61.45,-4.64 -60.82,-4.22 -60.19,-3.8 -59.56,-3.4 -58.93,-3.01 -58.3,-2.63 -57.67,-2.26 -57.04,-1.9 -56.41,-1.55 -55.78,-1.21 -55.15,-0.87 -54.52,-0.55 -53.89,-0.23 -53.26,0.08 -52.63,0.39 -52,0.68 -51.37,0.98 -50.74,1.26 -50.1,1.54 -49.47,1.82 -48.84,2.1 -48.21,2.38 -47.58,2.65 -46.95,-10.35 -46.32,-10.67 -45.69,-10.92 -45.06,-11.14 -44.43,-11 -43.8,-10.87 -43.17,-10.74 -42.54,-10.6 -41.91,-10.33 -41.28,-10.06 -40.65,-9.8 -40.02,-9.54 -39.39,-9.24 -38.76,-8.94 -38.13,-8.64 -37.5,-8.35 -36.87,-8.07 -36.24,-7.85 -35.61,-7.62 -34.98,-7.4 -34.35,-7.19 -33.72,-6.98 -33.09,-6.79 -32.46,-6.59 -31.83,-6.4 -31.2,-6.22 -30.57,-6.04 -29.94,-5.87 -29.31,-5.7 -28.68,-5.54 -28.05,-5.37 -27.42,-5.21 -26.79,-5.06 -26.16,-4.91 -25.53,-4.76 -24.89,-4.62 -24.26,-4.47 -23.63,-4.33 -23,-4.19 -22.37,-4.05 -21.74,-3.92 -21.11,-3.78 -20.48,-3.65 -19.85,-3.52 -19.22,-3.39 -18.59,-3.26 -17.96,-3.13 -17.33,-3 -16.7,-2.88 -16.07,-2.75 -15.44,-2.63 -14.81,-2.51 -14.18,-2.37 -13.55,-2.25 -12.92,-2.12 -12.29,-1.99 -11.66,-1.86 -11.03,-1.74 -10.4,-1.62 -9.77,-1.49 -9.14,-1.36 -8.51,-1.24 -7.88,-1.11 -7.25,-0.99 -6.62,-0.87 -5.99,-0.74 -5.36,-0.62 -4.73,-0.5 -4.1,-0.38 -3.47,-0.27 -2.84,-0.15 -2.21,-0.03 -1.58,0.08 -0.95,0.19 -0.32,0.31 0.32,0.42 0.95,0.53 1.58,0.64 2.21,0.75 2.84,0.86 3.47,0.97 4.1,1.07 4.73,1.18 5.36,1.29 5.99,1.39 6.62,1.49 7.25,1.6 7.88,1.7 8.51,1.8 9.14,1.9 9.77,2 10.4,2.1 11.03,2.2 11.66,2.3 12.29,2.4 12.92,2.5 13.55,2.6 14.18,2.7 14.81,2.8 15.44,2.89 16.07,2.99 16.7,3.08 17.33,3.18 17.96,3.27 18.59,3.37 19.22,3.46 19.85,3.56 20.48,3.65 21.11,3.74 21.74,3.84 22.37,3.93 23,4.02 23.63,4.11 24.26,4.2 24.89,4.29 25.53,4.38 26.16,4.47 26.79,4.56 27.42,4.65 28.05,4.73 28.68,4.82 29.31,4.91 29.94,4.99 30.57,5.08 31.2,5.16 31.83,5.25 32.46,5.33 33.09,5.41 33.72,5.5 34.35,5.58 34.98,5.66 35.61,5.74 36.24,5.82 36.87,5.9 37.5,5.98 38.13,6.06 38.76,6.14 39.39,6.22 40.02,6.3 40.65,6.38 41.28,6.46 41.91,6.53 42.54,6.61 43.17,6.69 43.8,6.76 44.43,6.84 45.06,6.91 45.69,6.99 46.32,7.06 46.95,7.14 47.58,7.21 48.21,7.29 48.84,7.36 49.47,7.43 50.1,7.51 50.74,7.58 51.37,7.65 52,7.72 52.63,7.79 53.26,7.86 53.89,7.93 54.52,8 55.15,8.07 55.78,8.14 56.41,8.21 57.04,8.28 57.67,8.35 58.3,8.42 58.93,8.49 59.56,8.55 60.19,8.62 60.82,8.69 61.45,8.75 62.08,8.82 62.71,8.89 63.34,8.95 63.97,9.02 64.6,9.08 65.23,9.15 65.86,9.21 66.49,9.28 67.12,9.34 67.75,9.41 68.38,9.48 69.01,9.54 69.64,9.61 70.27,9.67 70.9,9.74 71.53,9.8 72.16,9.87 72.79,9.93 73.42,9.99 74.05,10.06 74.68,10.12 75.31,10.18 75.95,10.25 76.58,10.31 77.21,10.37 77.84,10.43 78.47,10.5 " class="primitive"/>
            </g>
          </g>
        </g>
        <g stroke-width="0.3" fill="#000000" fill-opacity="0.000" class="geometry" id="img-1bcf5b3a-56">
          <g class="color_RGB{N0f8}(0.718,0.0,0.008)" stroke-dasharray="none" stroke="#B70002" id="img-1bcf5b3a-57">
            <g transform="translate(99.95,44.66)" id="img-1bcf5b3a-58">
              <path fill="none" d="M-78.47,-26.52 L-77.84,-25.01 -77.21,-23.53 -76.58,-22.13 -75.95,-20.82 -75.31,-19.6 -74.68,-18.46 -74.05,-17.4 -73.42,-16.41 -72.79,-15.49 -72.16,-14.61 -71.53,-13.79 -70.9,-13.01 -70.27,-12.27 -69.64,-11.57 -69.01,-10.9 -68.38,-10.26 -67.75,-9.65 -67.12,-9.06 -66.49,-8.5 -65.86,-7.96 -65.23,-7.44 -64.6,-6.94 -63.97,-6.46 -63.34,-5.99 -62.71,-5.53 -62.08,-5.08 -61.45,-4.64 -60.82,-4.22 -60.19,-3.8 -59.56,-3.4 -58.93,-3.01 -58.3,-2.63 -57.67,-2.26 -57.04,-1.9 -56.41,-1.55 -55.78,-1.21 -55.15,-0.87 -54.52,-0.55 -53.89,-0.23 -53.26,0.08 -52.63,0.39 -52,0.68 -51.37,0.98 -50.74,1.26 -50.1,1.54 -49.47,1.82 -48.84,2.1 -48.21,2.38 -47.58,2.65 -46.95,-10.35 -46.32,-10.67 -45.69,-10.92 -45.06,-11.14 -44.43,-11 -43.8,-10.87 -43.17,-10.74 -42.54,-10.6 -41.91,-10.33 -41.28,-10.06 -40.65,-9.8 -40.02,-9.54 -39.39,-9.24 -38.76,-8.94 -38.13,-8.64 -37.5,-8.35 -36.87,-8.07 -36.24,-7.85 -35.61,-7.62 -34.98,-7.4 -34.35,-7.19 -33.72,-6.98 -33.09,-6.79 -32.46,-6.59 -31.83,-6.4 -31.2,-6.22 -30.57,-6.04 -29.94,-5.87 -29.31,-5.7 -28.68,-5.54 -28.05,-5.37 -27.42,-5.21 -26.79,-5.06 -26.16,-4.91 -25.53,-4.76 -24.89,-4.62 -24.26,-4.47 -23.63,-4.33 -23,-4.19 -22.37,-4.05 -21.74,-3.92 -21.11,-3.78 -20.48,-3.65 -19.85,-3.52 -19.22,-3.39 -18.59,-3.26 -17.96,-3.13 -17.33,-3 -16.7,-2.88 -16.07,-2.75 -15.44,-2.63 -14.81,-2.51 -14.18,-2.37 -13.55,-2.25 -12.92,-2.12 -12.29,-1.99 -11.66,-1.86 -11.03,-1.74 -10.4,-1.62 -9.77,-1.49 -9.14,-1.36 -8.51,-1.24 -7.88,-1.11 -7.25,-0.99 -6.62,-0.87 -5.99,-0.74 -5.36,-0.62 -4.73,-0.5 -4.1,-0.38 -3.47,-0.27 -2.84,-0.15 -2.21,-0.03 -1.58,0.08 -0.95,0.19 -0.32,0.31 0.32,0.42 0.95,0.53 1.58,0.64 2.21,0.75 2.84,0.86 3.47,0.97 4.1,1.07 4.73,1.18 5.36,1.29 5.99,1.39 6.62,1.49 7.25,1.6 7.88,1.7 8.51,1.8 9.14,1.9 9.77,2 10.4,2.1 11.03,2.2 11.66,2.3 12.29,2.4 12.92,2.5 13.55,2.6 14.18,2.7 14.81,2.8 15.44,2.89 16.07,2.99 16.7,3.08 17.33,3.18 17.96,3.27 18.59,3.37 19.22,3.46 19.85,3.56 20.48,3.65 21.11,3.74 21.74,3.84 22.37,3.93 23,4.02 23.63,4.11 24.26,4.2 24.89,4.29 25.53,4.38 26.16,4.47 26.79,4.56 27.42,4.65 28.05,4.73 28.68,4.82 29.31,4.91 29.94,4.99 30.57,5.08 31.2,5.16 31.83,5.25 32.46,5.33 33.09,5.41 33.72,5.5 34.35,5.58 34.98,5.66 35.61,5.74 36.24,5.82 36.87,5.9 37.5,5.98 38.13,6.06 38.76,6.14 39.39,6.22 40.02,6.3 40.65,6.38 41.28,6.46 41.91,6.53 42.54,6.61 43.17,6.69 43.8,6.76 44.43,6.84 45.06,6.91 45.69,6.99 46.32,7.06 46.95,7.14 47.58,7.21 48.21,7.29 48.84,7.36 49.47,7.43 50.1,7.51 50.74,7.58 51.37,7.65 52,7.72 52.63,7.79 53.26,7.86 53.89,7.93 54.52,8 55.15,8.07 55.78,8.14 56.41,8.21 57.04,8.28 57.67,8.35 58.3,8.42 58.93,8.49 59.56,8.55 60.19,8.62 60.82,8.69 61.45,8.75 62.08,8.82 62.71,8.89 63.34,8.95 63.97,9.02 64.6,9.08 65.23,9.15 65.86,9.21 66.49,9.28 67.12,9.34 67.75,9.41 68.38,9.48 69.01,9.54 69.64,9.61 70.27,9.67 70.9,9.74 71.53,9.8 72.16,9.87 72.79,9.93 73.42,9.99 74.05,10.06 74.68,10.12 75.31,10.18 75.95,10.25 76.58,10.31 77.21,10.37 77.84,10.43 78.47,10.5 " class="primitive"/>
            </g>
          </g>
        </g>
        <g stroke-width="0.3" fill="#000000" fill-opacity="0.000" class="geometry" id="img-1bcf5b3a-59">
          <g class="color_RGB{N0f8}(0.063,0.306,0.545)" stroke-dasharray="none" stroke="#104E8B" id="img-1bcf5b3a-60">
            <g transform="translate(99.95,43.53)" id="img-1bcf5b3a-61">
              <path fill="none" d="M-78.47,-25.35 L-77.84,-25.41 -77.21,-24.46 -76.58,-23.36 -75.95,-22.23 -75.31,-21.12 -74.68,-20.07 -74.05,-19.07 -73.42,-18.13 -72.79,-17.24 -72.16,-16.41 -71.53,-15.61 -70.9,-14.86 -70.27,-14.14 -69.64,-13.46 -69.01,-12.8 -68.38,-12.17 -67.75,-11.57 -67.12,-11 -66.49,-10.44 -65.86,-9.9 -65.23,-9.39 -64.6,-8.89 -63.97,-8.41 -63.34,-7.94 -62.71,-7.49 -62.08,-7.05 -61.45,-6.62 -60.82,-6.21 -60.19,-5.81 -59.56,-5.42 -58.93,-5.04 -58.3,-4.67 -57.67,-4.31 -57.04,-3.95 -56.41,-3.61 -55.78,-3.28 -55.15,-2.95 -54.52,-2.63 -53.89,-2.32 -53.26,-2.01 -52.63,-1.71 -52,-1.42 -51.37,-1.13 -50.74,-0.85 -50.1,-0.58 -49.47,-0.31 -48.84,-0.02 -48.21,0.26 -47.58,0.53 -46.95,0.79 -46.32,1.06 -45.69,1.31 -45.06,1.56 -44.43,1.81 -43.8,2.05 -43.17,2.29 -42.54,2.53 -41.91,2.76 -41.28,2.98 -40.65,3.21 -40.02,3.43 -39.39,3.64 -38.76,3.86 -38.13,4.07 -37.5,4.27 -36.87,4.48 -36.24,4.68 -35.61,4.89 -34.98,5.09 -34.35,5.28 -33.72,5.48 -33.09,5.67 -32.46,5.86 -31.83,6.04 -31.2,-7.24 -30.57,-7.15 -29.94,-7.02 -29.31,-6.9 -28.68,-6.79 -28.05,-6.67 -27.42,-6.55 -26.79,-6.42 -26.16,-6.26 -25.53,-6.11 -24.89,-5.96 -24.26,-5.81 -23.63,-5.66 -23,-5.51 -22.37,-5.36 -21.74,-5.2 -21.11,-5.05 -20.48,-4.89 -19.85,-4.74 -19.22,-4.6 -18.59,-4.45 -17.96,-4.3 -17.33,-4.16 -16.7,-4.02 -16.07,-3.87 -15.44,-3.73 -14.81,-3.6 -14.18,-3.46 -13.55,-3.33 -12.92,-3.2 -12.29,-3.08 -11.66,-2.95 -11.03,-2.82 -10.4,-2.7 -9.77,-2.58 -9.14,-2.45 -8.51,-2.33 -7.88,-2.21 -7.25,-2.1 -6.62,-1.98 -5.99,-1.86 -5.36,-1.75 -4.73,-1.63 -4.1,-1.52 -3.47,-1.41 -2.84,-1.3 -2.21,-1.19 -1.58,-1.08 -0.95,-0.97 -0.32,-0.86 0.32,-0.75 0.95,-0.65 1.58,-0.54 2.21,-0.44 2.84,-0.33 3.47,-0.23 4.1,-0.13 4.73,-0.03 5.36,0.07 5.99,0.17 6.62,0.27 7.25,0.37 7.88,0.47 8.51,0.57 9.14,0.67 9.77,0.76 10.4,0.86 11.03,0.95 11.66,1.05 12.29,1.14 12.92,1.24 13.55,1.33 14.18,1.43 14.81,1.52 15.44,1.61 16.07,1.7 16.7,1.79 17.33,1.88 17.96,1.98 18.59,2.07 19.22,2.16 19.85,2.26 20.48,2.35 21.11,2.44 21.74,2.53 22.37,2.62 23,2.71 23.63,2.8 24.26,2.89 24.89,2.98 25.53,3.07 26.16,3.16 26.79,3.25 27.42,3.33 28.05,3.42 28.68,3.5 29.31,3.59 29.94,3.67 30.57,3.76 31.2,3.84 31.83,3.93 32.46,4.01 33.09,4.09 33.72,4.17 34.35,4.25 34.98,4.34 35.61,4.42 36.24,4.5 36.87,4.58 37.5,4.66 38.13,4.73 38.76,4.81 39.39,4.89 40.02,4.97 40.65,5.05 41.28,5.12 41.91,5.2 42.54,5.28 43.17,5.35 43.8,5.43 44.43,5.5 45.06,5.58 45.69,5.65 46.32,5.73 46.95,5.8 47.58,5.87 48.21,5.94 48.84,6.02 49.47,6.09 50.1,6.16 50.74,6.23 51.37,6.3 52,6.37 52.63,6.44 53.26,6.51 53.89,6.58 54.52,6.65 55.15,6.72 55.78,6.79 56.41,6.86 57.04,6.93 57.67,7 58.3,7.06 58.93,7.13 59.56,7.2 60.19,7.26 60.82,7.33 61.45,7.4 62.08,7.46 62.71,7.53 63.34,7.59 63.97,7.66 64.6,7.72 65.23,7.79 65.86,7.85 66.49,7.91 67.12,7.98 67.75,8.04 68.38,8.1 69.01,8.17 69.64,8.23 70.27,8.29 70.9,8.35 71.53,8.42 72.16,8.48 72.79,8.54 73.42,8.6 74.05,8.66 74.68,8.72 75.31,8.78 75.95,8.84 76.58,8.9 77.21,8.96 77.84,9.02 78.47,9.08 " class="primitive"/>
            </g>
          </g>
        </g>
        <g stroke-width="0.3" fill="#000000" fill-opacity="0.000" class="geometry" id="img-1bcf5b3a-62">
          <g class="color_RGB{N0f8}(0.063,0.306,0.545)" stroke-dasharray="none" stroke="#104E8B" id="img-1bcf5b3a-63">
            <g transform="translate(99.95,43.53)" id="img-1bcf5b3a-64">
              <path fill="none" d="M-78.47,-25.35 L-77.84,-25.41 -77.21,-24.46 -76.58,-23.36 -75.95,-22.23 -75.31,-21.12 -74.68,-20.07 -74.05,-19.07 -73.42,-18.13 -72.79,-17.24 -72.16,-16.41 -71.53,-15.61 -70.9,-14.86 -70.27,-14.14 -69.64,-13.46 -69.01,-12.8 -68.38,-12.17 -67.75,-11.57 -67.12,-11 -66.49,-10.44 -65.86,-9.9 -65.23,-9.39 -64.6,-8.89 -63.97,-8.41 -63.34,-7.94 -62.71,-7.49 -62.08,-7.05 -61.45,-6.62 -60.82,-6.21 -60.19,-5.81 -59.56,-5.42 -58.93,-5.04 -58.3,-4.67 -57.67,-4.31 -57.04,-3.95 -56.41,-3.61 -55.78,-3.28 -55.15,-2.95 -54.52,-2.63 -53.89,-2.32 -53.26,-2.01 -52.63,-1.71 -52,-1.42 -51.37,-1.13 -50.74,-0.85 -50.1,-0.58 -49.47,-0.31 -48.84,-0.02 -48.21,0.26 -47.58,0.53 -46.95,0.79 -46.32,1.06 -45.69,1.31 -45.06,1.56 -44.43,1.81 -43.8,2.05 -43.17,2.29 -42.54,2.53 -41.91,2.76 -41.28,2.98 -40.65,3.21 -40.02,3.43 -39.39,3.64 -38.76,3.86 -38.13,4.07 -37.5,4.27 -36.87,4.48 -36.24,4.68 -35.61,4.89 -34.98,5.09 -34.35,5.28 -33.72,5.48 -33.09,5.67 -32.46,5.86 -31.83,6.04 -31.2,-7.24 -30.57,-7.15 -29.94,-7.02 -29.31,-6.9 -28.68,-6.79 -28.05,-6.67 -27.42,-6.55 -26.79,-6.42 -26.16,-6.26 -25.53,-6.11 -24.89,-5.96 -24.26,-5.81 -23.63,-5.66 -23,-5.51 -22.37,-5.36 -21.74,-5.2 -21.11,-5.05 -20.48,-4.89 -19.85,-4.74 -19.22,-4.6 -18.59,-4.45 -17.96,-4.3 -17.33,-4.16 -16.7,-4.02 -16.07,-3.87 -15.44,-3.73 -14.81,-3.6 -14.18,-3.46 -13.55,-3.33 -12.92,-3.2 -12.29,-3.08 -11.66,-2.95 -11.03,-2.82 -10.4,-2.7 -9.77,-2.58 -9.14,-2.45 -8.51,-2.33 -7.88,-2.21 -7.25,-2.1 -6.62,-1.98 -5.99,-1.86 -5.36,-1.75 -4.73,-1.63 -4.1,-1.52 -3.47,-1.41 -2.84,-1.3 -2.21,-1.19 -1.58,-1.08 -0.95,-0.97 -0.32,-0.86 0.32,-0.75 0.95,-0.65 1.58,-0.54 2.21,-0.44 2.84,-0.33 3.47,-0.23 4.1,-0.13 4.73,-0.03 5.36,0.07 5.99,0.17 6.62,0.27 7.25,0.37 7.88,0.47 8.51,0.57 9.14,0.67 9.77,0.76 10.4,0.86 11.03,0.95 11.66,1.05 12.29,1.14 12.92,1.24 13.55,1.33 14.18,1.43 14.81,1.52 15.44,1.61 16.07,1.7 16.7,1.79 17.33,1.88 17.96,1.98 18.59,2.07 19.22,2.16 19.85,2.26 20.48,2.35 21.11,2.44 21.74,2.53 22.37,2.62 23,2.71 23.63,2.8 24.26,2.89 24.89,2.98 25.53,3.07 26.16,3.16 26.79,3.25 27.42,3.33 28.05,3.42 28.68,3.5 29.31,3.59 29.94,3.67 30.57,3.76 31.2,3.84 31.83,3.93 32.46,4.01 33.09,4.09 33.72,4.17 34.35,4.25 34.98,4.34 35.61,4.42 36.24,4.5 36.87,4.58 37.5,4.66 38.13,4.73 38.76,4.81 39.39,4.89 40.02,4.97 40.65,5.05 41.28,5.12 41.91,5.2 42.54,5.28 43.17,5.35 43.8,5.43 44.43,5.5 45.06,5.58 45.69,5.65 46.32,5.73 46.95,5.8 47.58,5.87 48.21,5.94 48.84,6.02 49.47,6.09 50.1,6.16 50.74,6.23 51.37,6.3 52,6.37 52.63,6.44 53.26,6.51 53.89,6.58 54.52,6.65 55.15,6.72 55.78,6.79 56.41,6.86 57.04,6.93 57.67,7 58.3,7.06 58.93,7.13 59.56,7.2 60.19,7.26 60.82,7.33 61.45,7.4 62.08,7.46 62.71,7.53 63.34,7.59 63.97,7.66 64.6,7.72 65.23,7.79 65.86,7.85 66.49,7.91 67.12,7.98 67.75,8.04 68.38,8.1 69.01,8.17 69.64,8.23 70.27,8.29 70.9,8.35 71.53,8.42 72.16,8.48 72.79,8.54 73.42,8.6 74.05,8.66 74.68,8.72 75.31,8.78 75.95,8.84 76.58,8.9 77.21,8.96 77.84,9.02 78.47,9.08 " class="primitive"/>
            </g>
          </g>
        </g>
      </g>
    </g>
  </g>
  <g class="guide ylabels" font-size="2.82" font-family="'PT Sans Caption','Helvetica Neue','Helvetica',sans-serif" fill="#6C606B" id="img-1bcf5b3a-65">
    <g transform="translate(15.28,80.32)" id="img-1bcf5b3a-66">
      <g class="primitive">
        <text text-anchor="end" dy="0.35em">0</text>
      </g>
    </g>
    <g transform="translate(15.28,68.1)" id="img-1bcf5b3a-67">
      <g class="primitive">
        <text text-anchor="end" dy="0.35em">1</text>
      </g>
    </g>
    <g transform="translate(15.28,55.88)" id="img-1bcf5b3a-68">
      <g class="primitive">
        <text text-anchor="end" dy="0.35em">2</text>
      </g>
    </g>
    <g transform="translate(15.28,43.66)" id="img-1bcf5b3a-69">
      <g class="primitive">
        <text text-anchor="end" dy="0.35em">3</text>
      </g>
    </g>
    <g transform="translate(15.28,31.44)" id="img-1bcf5b3a-70">
      <g class="primitive">
        <text text-anchor="end" dy="0.35em">4</text>
      </g>
    </g>
    <g transform="translate(15.28,19.22)" id="img-1bcf5b3a-71">
      <g class="primitive">
        <text text-anchor="end" dy="0.35em">5</text>
      </g>
    </g>
    <g transform="translate(15.28,7)" id="img-1bcf5b3a-72">
      <g class="primitive">
        <text text-anchor="end" dy="0.35em">6</text>
      </g>
    </g>
  </g>
  <g font-size="3.88" font-family="'PT Sans','Helvetica Neue','Helvetica',sans-serif" fill="#564A55" stroke="#000000" stroke-opacity="0.000" id="img-1bcf5b3a-73">
    <g transform="translate(8.81,41.66)" id="img-1bcf5b3a-74">
      <g class="primitive">
        <text text-anchor="middle" dy="0.35em" transform="rotate(-90,0, 2)">log₁₀(MAC (cm²/g))</text>
      </g>
    </g>
  </g>
</g>
<defs>
  <clipPath id="img-1bcf5b3a-21">
    <path d="M16.29,5 L180.42,5 180.42,82.32 16.29,82.32 " />
  </clipPath>
</defs>
</svg>
