<?xml version="1.0" encoding="UTF-8"?>
<svg xmlns="http://www.w3.org/2000/svg"
     xmlns:xlink="http://www.w3.org/1999/xlink"
     xmlns:gadfly="http://www.gadflyjl.org/ns"
     version="1.2"
     width="203.2mm" height="101.6mm" viewBox="0 0 203.2 101.6"
     stroke="none"
     fill="#000000"
     stroke-width="0.3"
     font-size="3.88"
>
<defs>
  <marker id="arrow" markerWidth="15" markerHeight="7" refX="5" refY="3.5" orient="auto" markerUnits="strokeWidth">
    <path d="M0,0 L15,3.5 L0,7 z" stroke="context-stroke" fill="context-stroke"/>
  </marker>
</defs>
<g class="plotroot xscalable yscalable" id="img-b86ce97f-1">
  <g font-size="3.88" font-family="'PT Sans','Helvetica Neue','Helvetica',sans-serif" fill="#564A55" stroke="#000000" stroke-opacity="0.000" id="img-b86ce97f-2">
    <g transform="translate(110.93,89.99)">
      <g class="primitive">
        <text text-anchor="middle" dy="0.6em">x</text>
      </g>
    </g>
  </g>
  <g class="guide xlabels" font-size="2.82" font-family="'PT Sans Caption','Helvetica Neue','Helvetica',sans-serif" fill="#6C606B" id="img-b86ce97f-3">
    <g transform="translate(25.65,83.32)">
      <g class="primitive">
        <text text-anchor="middle" dy="0.6em">0</text>
      </g>
    </g>
    <g transform="translate(68.29,83.32)">
      <g class="primitive">
        <text text-anchor="middle" dy="0.6em">5.00×10³</text>
      </g>
    </g>
    <g transform="translate(110.93,83.32)">
      <g class="primitive">
        <text text-anchor="middle" dy="0.6em">1.00×10⁴</text>
      </g>
    </g>
    <g transform="translate(153.56,83.32)">
      <g class="primitive">
        <text text-anchor="middle" dy="0.6em">1.50×10⁴</text>
      </g>
    </g>
    <g transform="translate(196.2,83.32)">
      <g class="primitive">
        <text text-anchor="middle" dy="0.6em">2.00×10⁴</text>
      </g>
    </g>
  </g>
  <g clip-path="url(#img-b86ce97f-4)">
    <g id="img-b86ce97f-5">
      <g pointer-events="visible" stroke-width="0.3" fill="#000000" fill-opacity="0.000" stroke="#000000" stroke-opacity="0.000" class="guide background" id="img-b86ce97f-6">
        <g transform="translate(110.93,43.66)" id="img-b86ce97f-7">
          <path d="M-87.27,-38.66 L87.27,-38.66 87.27,38.66 -87.27,38.66  z" class="primitive"/>
        </g>
      </g>
      <g class="guide ygridlines xfixed" stroke-dasharray="0.5,0.5" stroke-width="0.2" stroke="#D0D0E0" id="img-b86ce97f-8">
        <g transform="translate(110.93,80.32)" id="img-b86ce97f-9">
          <path fill="none" d="M-87.27,0 L87.27,0 " class="primitive"/>
        </g>
        <g transform="translate(110.93,65.65)" id="img-b86ce97f-10">
          <path fill="none" d="M-87.27,0 L87.27,0 " class="primitive"/>
        </g>
        <g transform="translate(110.93,50.99)" id="img-b86ce97f-11">
          <path fill="none" d="M-87.27,0 L87.27,0 " class="primitive"/>
        </g>
        <g transform="translate(110.93,36.33)" id="img-b86ce97f-12">
          <path fill="none" d="M-87.27,0 L87.27,0 " class="primitive"/>
        </g>
        <g transform="translate(110.93,21.66)" id="img-b86ce97f-13">
          <path fill="none" d="M-87.27,0 L87.27,0 " class="primitive"/>
        </g>
        <g transform="translate(110.93,7)" id="img-b86ce97f-14">
          <path fill="none" d="M-87.27,0 L87.27,0 " class="primitive"/>
        </g>
      </g>
      <g class="guide xgridlines yfixed" stroke-dasharray="0.5,0.5" stroke-width="0.2" stroke="#D0D0E0" id="img-b86ce97f-15">
        <g transform="translate(25.65,43.66)" id="img-b86ce97f-16">
          <path fill="none" d="M0,-38.66 L0,38.66 " class="primitive"/>
        </g>
        <g transform="translate(68.29,43.66)" id="img-b86ce97f-17">
          <path fill="none" d="M0,-38.66 L0,38.66 " class="primitive"/>
        </g>
        <g transform="translate(110.93,43.66)" id="img-b86ce97f-18">
          <path fill="none" d="M0,-38.66 L0,38.66 " class="primitive"/>
        </g>
        <g transform="translate(153.56,43.66)" id="img-b86ce97f-19">
          <path fill="none" d="M0,-38.66 L0,38.66 " class="primitive"/>
        </g>
        <g transform="translate(196.2,43.66)" id="img-b86ce97f-20">
          <path fill="none" d="M0,-38.66 L0,38.66 " class="primitive"/>
        </g>
      </g>
      <g class="plotpanel" id="img-b86ce97f-21">
        <metadata>
          <boundingbox value="23.65166666666667mm 5.0mm 174.54833333333332mm 77.315mm"/>
          <unitbox value="-234.53761885682457 0.0005136397735797588 20469.07523771365 -0.0005272795471595174"/>
        </metadata>
        <g stroke-width="0.3" fill="#000000" fill-opacity="0.000" class="geometry" id="img-b86ce97f-22">
          <g class="color_LCHab{Float32}(70.0f0,60.0f0,240.0f0)" stroke-dasharray="none" stroke="#00BFFF" id="img-b86ce97f-23">
            <g transform="translate(115.19,58.49)" id="img-b86ce97f-24">
              <path fill="none" d="M-81.01,21.43 L-80.36,21.37 -79.71,21.42 -79.06,21.27 -78.41,21.2 -77.76,21.16 -77.11,21.1 -76.46,21.62 -75.8,20.96 -75.15,20.9 -74.5,20.84 -73.85,20.77 -73.2,20.7 -72.55,20.68 -71.9,21.56 -71.25,20.48 -70.6,21.21 -69.95,20.31 -69.3,20.24 -68.65,20.16 -68,20.07 -67.35,20.7 -66.7,19.91 -66.04,19.79 -65.39,19.7 -64.74,19.62 -64.09,19.52 -63.44,19.43 -62.79,19.32 -62.14,19.23 -61.49,20.51 -60.84,19 -60.19,18.9 -59.54,18.96 -58.89,18.68 -58.24,18.57 -57.59,18.47 -56.94,18.34 -56.28,18.23 -55.63,18.11 -54.98,18 -54.33,17.87 -53.68,19.7 -53.03,17.62 -52.38,17.5 -51.73,17.36 -51.08,17.25 -50.43,17.12 -49.78,16.98 -49.13,16.82 -48.48,16.71 -47.83,16.58 -47.17,16.44 -46.52,16.29 -45.87,16.15 -45.22,16 -44.57,15.85 -43.92,15.72 -43.27,15.52 -42.62,15.41 -41.97,15.24 -41.32,15.11 -40.67,17.64 -40.02,19.55 -39.37,14.64 -38.72,14.49 -38.07,14.25 -37.41,14.12 -36.76,13.99 -36.11,13.82 -35.46,13.66 -34.81,13.48 -34.16,13.33 -33.51,20.54 -32.86,12.96 -32.21,12.79 -31.56,12.61 -30.91,12.45 -30.26,12.25 -29.61,12.09 -28.96,11.89 -28.3,11.72 -27.65,11.52 -27,11.33 -26.35,11.14 -25.7,10.97 -25.05,10.79 -24.4,17.12 -23.75,10.36 -23.1,10.17 -22.45,9.99 -21.8,9.79 -21.15,9.59 -20.5,9.4 -19.85,9.19 -19.2,8.97 -18.54,8.76 -17.89,14.81 -17.24,8.38 -16.59,8.12 -15.94,7.91 -15.29,7.72 -14.64,7.49 -13.99,7.3 -13.34,7.1 -12.69,6.88 -12.04,6.63 -11.39,6.4 -10.74,6.19 -10.09,5.95 -9.43,5.71 -8.78,5.48 -8.13,5.27 -7.48,5.02 -6.83,4.81 -6.18,4.58 -5.53,9.17 -4.88,21.35 -4.23,3.87 -3.58,3.62 -2.93,6.81 -2.28,8.43 -1.63,2.9 -0.98,2.64 -0.33,2.4 0.33,2.17 0.98,14 1.63,4.75 2.28,1.39 2.93,1.14 3.58,0.9 4.23,0.66 4.88,13.98 5.53,0.11 6.18,15.22 6.83,-0.42 7.48,-0.64 8.13,-0.91 8.78,-1.18 9.43,-1.45 10.09,-1.7 10.74,-1.98 11.39,18.54 12.04,-2.53 12.69,-2.82 13.34,13.14 13.99,-3.41 14.64,-3.63 15.29,-3.93 15.94,-4.2 16.59,-4.5 17.24,-4.78 17.89,-5.05 18.54,-5.34 19.2,-5.62 19.85,-5.89 20.5,-6.24 21.15,-6.55 21.8,9.34 22.45,-7.13 23.1,-7.38 23.75,-7.68 24.4,-7.98 25.05,-8.28 25.7,-8.61 26.35,1.14 27,-9.22 27.65,3.92 28.3,-9.78 28.96,-10.11 29.61,-10.45 30.26,1.69 30.91,-11.03 31.56,-6.93 32.21,-11.69 32.86,-11.98 33.51,-12.29 34.16,-12.64 34.81,-12.95 35.46,-13.27 36.11,-13.58 36.76,-13.9 37.41,-14.29 38.07,-14.55 38.72,-14.93 39.37,-15.26 40.02,-15.58 40.67,-15.89 41.32,-16.24 41.97,-16.57 42.62,-16.91 43.27,-17.23 43.92,-17.55 44.57,-17.92 45.22,-18.28 45.87,-18.63 46.52,-18.97 47.17,-19.29 47.83,-19.59 48.48,-20.02 49.13,-20.33 49.78,-20.68 50.43,-3.96 51.08,-21.36 51.73,-21.74 52.38,-0.54 53.03,-7.89 53.68,-22.82 54.33,0.91 54.98,-23.59 55.63,-23.88 56.28,-24.29 56.94,-24.64 57.59,-25.04 58.24,-25.4 58.89,-25.74 59.54,-26.09 60.19,-26.47 60.84,-26.81 61.49,-27.2 62.14,-27.56 62.79,-27.94 63.44,-28.32 64.09,-28.76 64.74,-29.09 65.39,-21.7 66.04,-29.83 66.7,-30.27 67.35,-30.66 68,-31.07 68.65,-31.42 69.3,-6.07 69.95,-32.17 70.6,-32.58 71.25,-33.02 71.9,-33.35 72.55,-33.81 73.2,-34.22 73.85,-34.57 74.5,-34.98 75.15,-35.38 75.8,-35.79 76.46,-36.22 77.11,-36.56 77.76,-36.99 78.41,-37.4 79.06,-37.82 79.71,2.05 80.36,-38.62 81.01,-39.01 " class="primitive"/>
            </g>
          </g>
        </g>
      </g>
    </g>
  </g>
  <g class="guide ylabels" font-size="2.82" font-family="'PT Sans Caption','Helvetica Neue','Helvetica',sans-serif" fill="#6C606B" id="img-b86ce97f-25">
    <g transform="translate(22.65,80.32)" id="img-b86ce97f-26">
      <g class="primitive">
        <text text-anchor="end" dy="0.35em">0.0000</text>
      </g>
    </g>
    <g transform="translate(22.65,65.65)" id="img-b86ce97f-27">
      <g class="primitive">
        <text text-anchor="end" dy="0.35em">0.0001</text>
      </g>
    </g>
    <g transform="translate(22.65,50.99)" id="img-b86ce97f-28">
      <g class="primitive">
        <text text-anchor="end" dy="0.35em">0.0002</text>
      </g>
    </g>
    <g transform="translate(22.65,36.33)" id="img-b86ce97f-29">
      <g class="primitive">
        <text text-anchor="end" dy="0.35em">0.0003</text>
      </g>
    </g>
    <g transform="translate(22.65,21.66)" id="img-b86ce97f-30">
      <g class="primitive">
        <text text-anchor="end" dy="0.35em">0.0004</text>
      </g>
    </g>
    <g transform="translate(22.65,7)" id="img-b86ce97f-31">
      <g class="primitive">
        <text text-anchor="end" dy="0.35em">0.0005</text>
      </g>
    </g>
  </g>
  <g font-size="3.88" font-family="'PT Sans','Helvetica Neue','Helvetica',sans-serif" fill="#564A55" stroke="#000000" stroke-opacity="0.000" id="img-b86ce97f-32">
    <g transform="translate(8.81,41.66)" id="img-b86ce97f-33">
      <g class="primitive">
        <text text-anchor="middle" dy="0.35em" transform="rotate(-90,0, 2)">f(x)</text>
      </g>
    </g>
  </g>
</g>
<defs>
  <clipPath id="img-b86ce97f-4">
    <path d="M23.65,5 L198.2,5 198.2,82.32 23.65,82.32 " />
  </clipPath>
</defs>
</svg>
