<?xml version="1.0" encoding="UTF-8"?>
<svg xmlns="http://www.w3.org/2000/svg"
     xmlns:xlink="http://www.w3.org/1999/xlink"
     xmlns:gadfly="http://www.gadflyjl.org/ns"
     version="1.2"
     width="203.2mm" height="101.6mm" viewBox="0 0 203.2 101.6"
     stroke="none"
     fill="#000000"
     stroke-width="0.3"
     font-size="3.88"
>
<defs>
  <marker id="arrow" markerWidth="15" markerHeight="7" refX="5" refY="3.5" orient="auto" markerUnits="strokeWidth">
    <path d="M0,0 L15,3.5 L0,7 z" stroke="context-stroke" fill="context-stroke"/>
  </marker>
</defs>
<g class="plotroot xscalable yscalable" id="img-dff2a808-1">
  <g font-size="3.88" font-family="'PT Sans','Helvetica Neue','Helvetica',sans-serif" fill="#564A55" stroke="#000000" stroke-opacity="0.000" id="img-dff2a808-2">
    <g transform="translate(107.24,89.99)">
      <g class="primitive">
        <text text-anchor="middle" dy="0.6em">Energy (eV)</text>
      </g>
    </g>
  </g>
  <g class="guide xlabels" font-size="2.82" font-family="'PT Sans Caption','Helvetica Neue','Helvetica',sans-serif" fill="#6C606B" id="img-dff2a808-3">
    <g transform="translate(18.29,83.32)">
      <g class="primitive">
        <text text-anchor="middle" dy="0.6em">0</text>
      </g>
    </g>
    <g transform="translate(62.76,83.32)">
      <g class="primitive">
        <text text-anchor="middle" dy="0.6em">5.00×10³</text>
      </g>
    </g>
    <g transform="translate(107.24,83.32)">
      <g class="primitive">
        <text text-anchor="middle" dy="0.6em">1.00×10⁴</text>
      </g>
    </g>
    <g transform="translate(151.72,83.32)">
      <g class="primitive">
        <text text-anchor="middle" dy="0.6em">1.50×10⁴</text>
      </g>
    </g>
    <g transform="translate(196.2,83.32)">
      <g class="primitive">
        <text text-anchor="middle" dy="0.6em">2.00×10⁴</text>
      </g>
    </g>
  </g>
  <g clip-path="url(#img-dff2a808-4)">
    <g id="img-dff2a808-5">
      <g pointer-events="visible" stroke-width="0.3" fill="#000000" fill-opacity="0.000" stroke="#000000" stroke-opacity="0.000" class="guide background" id="img-dff2a808-6">
        <g transform="translate(107.24,46.46)" id="img-dff2a808-7">
          <path d="M-90.96,-35.85 L90.96,-35.85 90.96,35.85 -90.96,35.85  z" class="primitive"/>
        </g>
      </g>
      <g class="guide ygridlines xfixed" stroke-dasharray="0.5,0.5" stroke-width="0.2" stroke="#D0D0E0" id="img-dff2a808-8">
        <g transform="translate(107.24,80.32)" id="img-dff2a808-9">
          <path fill="none" d="M-90.96,0 L90.96,0 " class="primitive"/>
        </g>
        <g transform="translate(107.24,69.03)" id="img-dff2a808-10">
          <path fill="none" d="M-90.96,0 L90.96,0 " class="primitive"/>
        </g>
        <g transform="translate(107.24,57.75)" id="img-dff2a808-11">
          <path fill="none" d="M-90.96,0 L90.96,0 " class="primitive"/>
        </g>
        <g transform="translate(107.24,46.46)" id="img-dff2a808-12">
          <path fill="none" d="M-90.96,0 L90.96,0 " class="primitive"/>
        </g>
        <g transform="translate(107.24,35.18)" id="img-dff2a808-13">
          <path fill="none" d="M-90.96,0 L90.96,0 " class="primitive"/>
        </g>
        <g transform="translate(107.24,23.9)" id="img-dff2a808-14">
          <path fill="none" d="M-90.96,0 L90.96,0 " class="primitive"/>
        </g>
        <g transform="translate(107.24,12.61)" id="img-dff2a808-15">
          <path fill="none" d="M-90.96,0 L90.96,0 " class="primitive"/>
        </g>
      </g>
      <g class="guide xgridlines yfixed" stroke-dasharray="0.5,0.5" stroke-width="0.2" stroke="#D0D0E0" id="img-dff2a808-16">
        <g transform="translate(18.29,46.46)" id="img-dff2a808-17">
          <path fill="none" d="M0,-35.85 L0,35.85 " class="primitive"/>
        </g>
        <g transform="translate(62.76,46.46)" id="img-dff2a808-18">
          <path fill="none" d="M0,-35.85 L0,35.85 " class="primitive"/>
        </g>
        <g transform="translate(107.24,46.46)" id="img-dff2a808-19">
          <path fill="none" d="M0,-35.85 L0,35.85 " class="primitive"/>
        </g>
        <g transform="translate(151.72,46.46)" id="img-dff2a808-20">
          <path fill="none" d="M0,-35.85 L0,35.85 " class="primitive"/>
        </g>
        <g transform="translate(196.2,46.46)" id="img-dff2a808-21">
          <path fill="none" d="M0,-35.85 L0,35.85 " class="primitive"/>
        </g>
      </g>
      <g class="plotpanel" id="img-dff2a808-22">
        <metadata>
          <boundingbox value="16.285000000000025mm 10.611666666666665mm 181.915mm 71.70333333333333mm"/>
          <unitbox value="-224.82646207458617 6.177243858007976 20449.65292414917 -6.354487716015951"/>
        </metadata>
        <g stroke-width="0.3" fill="#000000" fill-opacity="0.000" class="geometry" id="img-dff2a808-23">
          <g class="color_RGB{N0f8}(0.063,0.306,0.545)" stroke-dasharray="none" stroke="#104E8B" id="img-dff2a808-24">
            <g transform="translate(107.69,52.12)" id="img-dff2a808-25">
              <path fill="none" d="M-88.51,-29.69 L-87.8,-26.27 -87.09,-24.07 -86.38,-22.45 -85.67,-21.16 -84.96,-20.09 -84.25,-19.18 -83.54,-18.39 -82.83,-17.68 -82.11,-15.31 -81.4,-14.54 -80.69,-13.79 -79.98,-13.08 -79.27,-12.4 -78.56,-11.74 -77.85,-11.11 -77.14,-10.51 -76.43,-9.94 -75.72,-9.39 -75,-8.86 -74.29,-8.35 -73.58,-7.86 -72.87,-7.39 -72.16,-6.93 -71.45,-6.49 -70.74,-6.07 -70.03,-5.66 -69.32,-7.53 -68.61,-11.47 -67.9,-11.04 -67.18,-10.62 -66.47,-10.21 -65.76,-9.81 -65.05,-9.42 -64.34,-10.68 -63.63,-10.31 -62.92,-9.95 -62.21,-9.6 -61.5,-9.26 -60.79,-8.4 -60.07,-8.08 -59.36,-7.76 -58.65,-8.38 -57.94,-8.12 -57.23,-7.87 -56.52,-7.62 -55.81,-7.37 -55.1,-7.13 -54.39,-6.89 -53.68,-6.65 -52.97,-6.42 -52.25,-6.19 -51.54,-5.97 -50.83,-5.74 -50.12,-5.52 -49.41,-5.31 -48.7,-5.1 -47.99,-4.89 -47.28,-4.68 -46.57,-4.48 -45.86,-4.28 -45.15,-4.08 -44.43,-3.88 -43.72,-3.69 -43.01,-3.5 -42.3,-3.31 -41.59,-3.12 -40.88,-2.94 -40.17,-2.76 -39.46,-2.58 -38.75,-2.4 -38.04,-2.23 -37.32,-2.05 -36.61,-1.88 -35.9,-1.72 -35.19,-1.55 -34.48,-1.38 -33.77,-1.22 -33.06,-1.06 -32.35,-0.9 -31.64,-0.74 -30.93,-0.59 -30.22,-0.43 -29.5,-0.28 -28.79,-0.13 -28.08,0.02 -27.37,0.16 -26.66,0.31 -25.95,0.46 -25.24,0.6 -24.53,0.74 -23.82,0.88 -23.11,1.02 -22.39,1.15 -21.68,1.29 -20.97,1.43 -20.26,1.56 -19.55,1.69 -18.84,1.82 -18.13,1.95 -17.42,2.08 -16.71,2.2 -16,2.33 -15.29,2.46 -14.57,2.58 -13.86,2.7 -13.15,2.82 -12.44,2.94 -11.73,3.06 -11.02,3.18 -10.31,3.3 -9.6,3.41 -8.89,3.53 -8.18,3.64 -7.46,3.75 -6.75,3.87 -6.04,3.98 -5.33,4.09 -4.62,4.2 -3.91,4.31 -3.2,4.41 -2.49,4.52 -1.78,4.63 -1.07,4.73 -0.36,4.84 0.36,4.94 1.07,5.04 1.78,5.14 2.49,5.24 3.2,5.34 3.91,5.44 4.62,5.54 5.33,5.64 6.04,5.74 6.75,5.83 7.46,5.93 8.18,6.03 8.89,6.12 9.6,6.21 10.31,6.31 11.02,6.4 11.73,6.49 12.44,6.58 13.15,6.67 13.86,6.76 14.57,6.85 15.29,6.94 16,7.03 16.71,2.59 17.42,2.67 18.13,2.75 18.84,2.83 19.55,2.91 20.26,2.99 20.97,3.07 21.68,3.15 22.39,3.22 23.11,3.3 23.82,3.38 24.53,3.45 25.24,3.53 25.95,3.61 26.66,3.68 27.37,3.76 28.08,3.83 28.79,3.91 29.5,3.98 30.22,4.05 30.93,4.13 31.64,4.2 32.35,4.27 33.06,2.88 33.77,2.95 34.48,3.02 35.19,3.09 35.9,3.16 36.61,3.23 37.32,3.3 38.04,3.37 38.75,2.69 39.46,2.76 40.17,2.83 40.88,2.9 41.59,2.96 42.3,3.03 43.01,3.1 43.72,3.16 44.43,3.23 45.15,3.3 45.86,3.36 46.57,3.43 47.28,3.49 47.99,3.56 48.7,3.62 49.41,3.68 50.12,3.75 50.83,3.81 51.54,3.88 52.25,3.94 52.97,4 53.68,4.06 54.39,4.12 55.1,4.19 55.81,4.25 56.52,4.31 57.23,4.37 57.94,4.43 58.65,4.49 59.36,4.55 60.07,4.61 60.79,4.67 61.5,4.73 62.21,4.79 62.92,4.85 63.63,4.9 64.34,4.96 65.05,5.02 65.76,5.08 66.47,5.14 67.18,5.19 67.9,5.25 68.61,5.31 69.32,5.36 70.03,5.42 70.74,5.48 71.45,5.53 72.16,5.59 72.87,5.64 73.58,5.7 74.29,5.75 75,5.81 75.72,5.86 76.43,5.91 77.14,5.97 77.85,6.02 78.56,6.08 79.27,6.13 79.98,6.18 80.69,6.23 81.4,6.29 82.11,6.34 82.83,6.39 83.54,6.44 84.25,6.5 84.96,6.55 85.67,6.6 86.38,6.65 87.09,6.7 87.8,6.75 88.51,6.8 " class="primitive"/>
            </g>
          </g>
        </g>
        <g stroke-width="0.3" fill="#000000" fill-opacity="0.000" class="geometry" id="img-dff2a808-26">
          <g class="color_RGB{N0f8}(0.063,0.306,0.545)" stroke-dasharray="none" stroke="#104E8B" id="img-dff2a808-27">
            <g transform="translate(107.69,52.12)" id="img-dff2a808-28">
              <path fill="none" d="M-88.51,-29.69 L-87.8,-26.27 -87.09,-24.07 -86.38,-22.45 -85.67,-21.16 -84.96,-20.09 -84.25,-19.18 -83.54,-18.39 -82.83,-17.68 -82.11,-15.31 -81.4,-14.54 -80.69,-13.79 -79.98,-13.08 -79.27,-12.4 -78.56,-11.74 -77.85,-11.11 -77.14,-10.51 -76.43,-9.94 -75.72,-9.39 -75,-8.86 -74.29,-8.35 -73.58,-7.86 -72.87,-7.39 -72.16,-6.93 -71.45,-6.49 -70.74,-6.07 -70.03,-5.66 -69.32,-7.53 -68.61,-11.47 -67.9,-11.04 -67.18,-10.62 -66.47,-10.21 -65.76,-9.81 -65.05,-9.42 -64.34,-10.68 -63.63,-10.31 -62.92,-9.95 -62.21,-9.6 -61.5,-9.26 -60.79,-8.4 -60.07,-8.08 -59.36,-7.76 -58.65,-8.38 -57.94,-8.12 -57.23,-7.87 -56.52,-7.62 -55.81,-7.37 -55.1,-7.13 -54.39,-6.89 -53.68,-6.65 -52.97,-6.42 -52.25,-6.19 -51.54,-5.97 -50.83,-5.74 -50.12,-5.52 -49.41,-5.31 -48.7,-5.1 -47.99,-4.89 -47.28,-4.68 -46.57,-4.48 -45.86,-4.28 -45.15,-4.08 -44.43,-3.88 -43.72,-3.69 -43.01,-3.5 -42.3,-3.31 -41.59,-3.12 -40.88,-2.94 -40.17,-2.76 -39.46,-2.58 -38.75,-2.4 -38.04,-2.23 -37.32,-2.05 -36.61,-1.88 -35.9,-1.72 -35.19,-1.55 -34.48,-1.38 -33.77,-1.22 -33.06,-1.06 -32.35,-0.9 -31.64,-0.74 -30.93,-0.59 -30.22,-0.43 -29.5,-0.28 -28.79,-0.13 -28.08,0.02 -27.37,0.16 -26.66,0.31 -25.95,0.46 -25.24,0.6 -24.53,0.74 -23.82,0.88 -23.11,1.02 -22.39,1.15 -21.68,1.29 -20.97,1.43 -20.26,1.56 -19.55,1.69 -18.84,1.82 -18.13,1.95 -17.42,2.08 -16.71,2.2 -16,2.33 -15.29,2.46 -14.57,2.58 -13.86,2.7 -13.15,2.82 -12.44,2.94 -11.73,3.06 -11.02,3.18 -10.31,3.3 -9.6,3.41 -8.89,3.53 -8.18,3.64 -7.46,3.75 -6.75,3.87 -6.04,3.98 -5.33,4.09 -4.62,4.2 -3.91,4.31 -3.2,4.41 -2.49,4.52 -1.78,4.63 -1.07,4.73 -0.36,4.84 0.36,4.94 1.07,5.04 1.78,5.14 2.49,5.24 3.2,5.34 3.91,5.44 4.62,5.54 5.33,5.64 6.04,5.74 6.75,5.83 7.46,5.93 8.18,6.03 8.89,6.12 9.6,6.21 10.31,6.31 11.02,6.4 11.73,6.49 12.44,6.58 13.15,6.67 13.86,6.76 14.57,6.85 15.29,6.94 16,7.03 16.71,2.59 17.42,2.67 18.13,2.75 18.84,2.83 19.55,2.91 20.26,2.99 20.97,3.07 21.68,3.15 22.39,3.22 23.11,3.3 23.82,3.38 24.53,3.45 25.24,3.53 25.95,3.61 26.66,3.68 27.37,3.76 28.08,3.83 28.79,3.91 29.5,3.98 30.22,4.05 30.93,4.13 31.64,4.2 32.35,4.27 33.06,2.88 33.77,2.95 34.48,3.02 35.19,3.09 35.9,3.16 36.61,3.23 37.32,3.3 38.04,3.37 38.75,2.69 39.46,2.76 40.17,2.83 40.88,2.9 41.59,2.96 42.3,3.03 43.01,3.1 43.72,3.16 44.43,3.23 45.15,3.3 45.86,3.36 46.57,3.43 47.28,3.49 47.99,3.56 48.7,3.62 49.41,3.68 50.12,3.75 50.83,3.81 51.54,3.88 52.25,3.94 52.97,4 53.68,4.06 54.39,4.12 55.1,4.19 55.81,4.25 56.52,4.31 57.23,4.37 57.94,4.43 58.65,4.49 59.36,4.55 60.07,4.61 60.79,4.67 61.5,4.73 62.21,4.79 62.92,4.85 63.63,4.9 64.34,4.96 65.05,5.02 65.76,5.08 66.47,5.14 67.18,5.19 67.9,5.25 68.61,5.31 69.32,5.36 70.03,5.42 70.74,5.48 71.45,5.53 72.16,5.59 72.87,5.64 73.58,5.7 74.29,5.75 75,5.81 75.72,5.86 76.43,5.91 77.14,5.97 77.85,6.02 78.56,6.08 79.27,6.13 79.98,6.18 80.69,6.23 81.4,6.29 82.11,6.34 82.83,6.39 83.54,6.44 84.25,6.5 84.96,6.55 85.67,6.6 86.38,6.65 87.09,6.7 87.8,6.75 88.51,6.8 " class="primitive"/>
            </g>
          </g>
        </g>
      </g>
    </g>
  </g>
  <g class="guide ylabels" font-size="2.82" font-family="'PT Sans Caption','Helvetica Neue','Helvetica',sans-serif" fill="#6C606B" id="img-dff2a808-29">
    <g transform="translate(15.28,80.32)" id="img-dff2a808-30">
      <g class="primitive">
        <text text-anchor="end" dy="0.35em">0</text>
      </g>
    </g>
    <g transform="translate(15.28,69.03)" id="img-dff2a808-31">
      <g class="primitive">
        <text text-anchor="end" dy="0.35em">1</text>
      </g>
    </g>
    <g transform="translate(15.28,57.75)" id="img-dff2a808-32">
      <g class="primitive">
        <text text-anchor="end" dy="0.35em">2</text>
      </g>
    </g>
    <g transform="translate(15.28,46.46)" id="img-dff2a808-33">
      <g class="primitive">
        <text text-anchor="end" dy="0.35em">3</text>
      </g>
    </g>
    <g transform="translate(15.28,35.18)" id="img-dff2a808-34">
      <g class="primitive">
        <text text-anchor="end" dy="0.35em">4</text>
      </g>
    </g>
    <g transform="translate(15.28,23.9)" id="img-dff2a808-35">
      <g class="primitive">
        <text text-anchor="end" dy="0.35em">5</text>
      </g>
    </g>
    <g transform="translate(15.28,12.61)" id="img-dff2a808-36">
      <g class="primitive">
        <text text-anchor="end" dy="0.35em">6</text>
      </g>
    </g>
  </g>
  <g font-size="3.88" font-family="'PT Sans','Helvetica Neue','Helvetica',sans-serif" fill="#564A55" stroke="#000000" stroke-opacity="0.000" id="img-dff2a808-37">
    <g transform="translate(8.81,44.46)" id="img-dff2a808-38">
      <g class="primitive">
        <text text-anchor="middle" dy="0.35em" transform="rotate(-90,0, 2)">log₁₀(MAC (cm²/g))</text>
      </g>
    </g>
  </g>
  <g font-size="3.88" font-family="'PT Sans','Helvetica Neue','Helvetica',sans-serif" fill="#564A55" stroke="#000000" stroke-opacity="0.000" id="img-dff2a808-39">
    <g transform="translate(107.24,5)" id="img-dff2a808-40">
      <g class="primitive">
        <text text-anchor="middle" dy="0.6em">MAC - Gold</text>
      </g>
    </g>
  </g>
</g>
<defs>
  <clipPath id="img-dff2a808-4">
    <path d="M16.29,10.61 L198.2,10.61 198.2,82.32 16.29,82.32 " />
  </clipPath>
</defs>
</svg>
