<?xml version="1.0" encoding="UTF-8"?>
<svg xmlns="http://www.w3.org/2000/svg"
     xmlns:xlink="http://www.w3.org/1999/xlink"
     xmlns:gadfly="http://www.gadflyjl.org/ns"
     version="1.2"
     width="203.2mm" height="101.6mm" viewBox="0 0 203.2 101.6"
     stroke="none"
     fill="#000000"
     stroke-width="0.3"
     font-size="3.88"
>
<defs>
  <marker id="arrow" markerWidth="15" markerHeight="7" refX="5" refY="3.5" orient="auto" markerUnits="strokeWidth">
    <path d="M0,0 L15,3.5 L0,7 z" stroke="context-stroke" fill="context-stroke"/>
  </marker>
</defs>
<g class="plotroot xscalable yscalable" id="img-559a6960-1">
  <g font-size="3.88" font-family="'PT Sans','Helvetica Neue','Helvetica',sans-serif" fill="#564A55" stroke="#000000" stroke-opacity="0.000" id="img-559a6960-2">
    <g transform="translate(110.93,89.99)">
      <g class="primitive">
        <text text-anchor="middle" dy="0.6em">x</text>
      </g>
    </g>
  </g>
  <g class="guide xlabels" font-size="2.82" font-family="'PT Sans Caption','Helvetica Neue','Helvetica',sans-serif" fill="#6C606B" id="img-559a6960-3">
    <g transform="translate(25.65,83.32)">
      <g class="primitive">
        <text text-anchor="middle" dy="0.6em">0</text>
      </g>
    </g>
    <g transform="translate(68.29,83.32)">
      <g class="primitive">
        <text text-anchor="middle" dy="0.6em">5.00×10³</text>
      </g>
    </g>
    <g transform="translate(110.93,83.32)">
      <g class="primitive">
        <text text-anchor="middle" dy="0.6em">1.00×10⁴</text>
      </g>
    </g>
    <g transform="translate(153.56,83.32)">
      <g class="primitive">
        <text text-anchor="middle" dy="0.6em">1.50×10⁴</text>
      </g>
    </g>
    <g transform="translate(196.2,83.32)">
      <g class="primitive">
        <text text-anchor="middle" dy="0.6em">2.00×10⁴</text>
      </g>
    </g>
  </g>
  <g clip-path="url(#img-559a6960-4)">
    <g id="img-559a6960-5">
      <g pointer-events="visible" stroke-width="0.3" fill="#000000" fill-opacity="0.000" stroke="#000000" stroke-opacity="0.000" class="guide background" id="img-559a6960-6">
        <g transform="translate(110.93,43.66)" id="img-559a6960-7">
          <path d="M-87.27,-38.66 L87.27,-38.66 87.27,38.66 -87.27,38.66  z" class="primitive"/>
        </g>
      </g>
      <g class="guide ygridlines xfixed" stroke-dasharray="0.5,0.5" stroke-width="0.2" stroke="#D0D0E0" id="img-559a6960-8">
        <g transform="translate(110.93,80.32)" id="img-559a6960-9">
          <path fill="none" d="M-87.27,0 L87.27,0 " class="primitive"/>
        </g>
        <g transform="translate(110.93,65.65)" id="img-559a6960-10">
          <path fill="none" d="M-87.27,0 L87.27,0 " class="primitive"/>
        </g>
        <g transform="translate(110.93,50.99)" id="img-559a6960-11">
          <path fill="none" d="M-87.27,0 L87.27,0 " class="primitive"/>
        </g>
        <g transform="translate(110.93,36.33)" id="img-559a6960-12">
          <path fill="none" d="M-87.27,0 L87.27,0 " class="primitive"/>
        </g>
        <g transform="translate(110.93,21.66)" id="img-559a6960-13">
          <path fill="none" d="M-87.27,0 L87.27,0 " class="primitive"/>
        </g>
        <g transform="translate(110.93,7)" id="img-559a6960-14">
          <path fill="none" d="M-87.27,0 L87.27,0 " class="primitive"/>
        </g>
      </g>
      <g class="guide xgridlines yfixed" stroke-dasharray="0.5,0.5" stroke-width="0.2" stroke="#D0D0E0" id="img-559a6960-15">
        <g transform="translate(25.65,43.66)" id="img-559a6960-16">
          <path fill="none" d="M0,-38.66 L0,38.66 " class="primitive"/>
        </g>
        <g transform="translate(68.29,43.66)" id="img-559a6960-17">
          <path fill="none" d="M0,-38.66 L0,38.66 " class="primitive"/>
        </g>
        <g transform="translate(110.93,43.66)" id="img-559a6960-18">
          <path fill="none" d="M0,-38.66 L0,38.66 " class="primitive"/>
        </g>
        <g transform="translate(153.56,43.66)" id="img-559a6960-19">
          <path fill="none" d="M0,-38.66 L0,38.66 " class="primitive"/>
        </g>
        <g transform="translate(196.2,43.66)" id="img-559a6960-20">
          <path fill="none" d="M0,-38.66 L0,38.66 " class="primitive"/>
        </g>
      </g>
      <g class="plotpanel" id="img-559a6960-21">
        <metadata>
          <boundingbox value="23.65166666666667mm 5.0mm 174.54833333333332mm 77.315mm"/>
          <unitbox value="-234.53761885682457 0.0005136397735797586 20469.07523771365 -0.0005272795471595172"/>
        </metadata>
        <g stroke-width="0.3" fill="#000000" fill-opacity="0.000" class="geometry" id="img-559a6960-22">
          <g class="color_LCHab{Float32}(70.0f0,60.0f0,240.0f0)" stroke-dasharray="none" stroke="#00BFFF" id="img-559a6960-23">
            <g transform="translate(115.19,58.17)" id="img-559a6960-24">
              <path fill="none" d="M-81.01,21.74 L-80.36,21.69 -79.71,21.63 -79.06,21.59 -78.41,21.54 -77.76,21.48 -77.11,21.42 -76.46,21.35 -75.8,21.3 -75.15,21.23 -74.5,21.17 -73.85,21.94 -73.2,21.01 -72.55,20.94 -71.9,21.1 -71.25,21.51 -70.6,20.72 -69.95,20.65 -69.3,20.56 -68.65,20.47 -68,20.39 -67.35,20.31 -66.7,20.21 -66.04,20.12 -65.39,20.02 -64.74,19.94 -64.09,19.84 -63.44,19.74 -62.79,19.64 -62.14,19.54 -61.49,20.18 -60.84,19.33 -60.19,19.22 -59.54,19.1 -58.89,19 -58.24,18.89 -57.59,18.78 -56.94,18.67 -56.28,18.54 -55.63,18.45 -54.98,21.47 -54.33,18.19 -53.68,18.07 -53.03,17.95 -52.38,17.81 -51.73,17.68 -51.08,17.56 -50.43,17.42 -49.78,17.3 -49.13,17.14 -48.48,17.03 -47.83,16.9 -47.17,16.76 -46.52,16.58 -45.87,16.48 -45.22,16.31 -44.57,16.16 -43.92,16.02 -43.27,15.87 -42.62,15.74 -41.97,17.69 -41.32,15.42 -40.67,17.11 -40.02,19.46 -39.37,14.94 -38.72,14.81 -38.07,19.13 -37.41,14.46 -36.76,14.3 -36.11,14.13 -35.46,13.97 -34.81,13.81 -34.16,13.64 -33.51,13.47 -32.86,13.3 -32.21,13.11 -31.56,12.93 -30.91,12.77 -30.26,12.55 -29.61,12.41 -28.96,12.22 -28.3,12.03 -27.65,18.3 -27,11.64 -26.35,11.49 -25.7,11.28 -25.05,11.52 -24.4,10.89 -23.75,10.7 -23.1,10.48 -22.45,10.32 -21.8,10.09 -21.15,17.44 -20.5,9.68 -19.85,9.48 -19.2,9.3 -18.54,16.01 -17.89,8.89 -17.24,8.67 -16.59,8.48 -15.94,14.17 -15.29,8.04 -14.64,7.84 -13.99,7.62 -13.34,7.4 -12.69,7.19 -12.04,6.95 -11.39,6.72 -10.74,14.94 -10.09,19.33 -9.43,6.04 -8.78,5.82 -8.13,5.56 -7.48,5.37 -6.83,5.12 -6.18,4.88 -5.53,4.66 -4.88,4.42 -4.23,4.18 -3.58,3.94 -2.93,3.7 -2.28,3.44 -1.63,3.22 -0.98,2.98 -0.33,2.64 0.33,2.51 0.98,2.23 1.63,9.79 2.28,1.75 2.93,1.41 3.58,10.7 4.23,0.95 4.88,0.7 5.53,0.45 6.18,0.2 6.83,-0.06 7.48,-0.35 8.13,-0.6 8.78,-0.85 9.43,-1.14 10.09,-1.42 10.74,-1.68 11.39,-1.93 12.04,-2.23 12.69,-2.49 13.34,19.57 13.99,-3.02 14.64,-3.36 15.29,-3.6 15.94,-3.89 16.59,-4.18 17.24,-4.45 17.89,-4.72 18.54,-5.01 19.2,-5.28 19.85,-5.63 20.5,4.42 21.15,-6.17 21.8,-6.47 22.45,-6.77 23.1,-7.07 23.75,-7.35 24.4,-7.68 25.05,-7.95 25.7,-8.26 26.35,-8.58 27,-8.86 27.65,-9.21 28.3,-9.51 28.96,-9.78 29.61,-10.12 30.26,-10.41 30.91,-10.76 31.56,-11.03 32.21,-11.38 32.86,-11.66 33.51,-11.99 34.16,-12.3 34.81,-12.63 35.46,-12.96 36.11,-13.3 36.76,16.89 37.41,-13.92 38.07,-14.26 38.72,-14.58 39.37,-14.91 40.02,-15.25 40.67,-15.58 41.32,-15.89 41.97,-13.32 42.62,-16.56 43.27,-16.95 43.92,-17.23 44.57,-17.6 45.22,-17.96 45.87,-18.28 46.52,-18.6 47.17,-18.96 47.83,-19.33 48.48,-19.67 49.13,-20.02 49.78,12.13 50.43,-20.71 51.08,-21.06 51.73,-21.43 52.38,-21.78 53.03,-22.1 53.68,-22.47 54.33,-22.86 54.98,-23.25 55.63,-23.58 56.28,-23.92 56.94,-24.3 57.59,-24.65 58.24,-18.52 58.89,-25.48 59.54,-25.84 60.19,-26.14 60.84,15.66 61.49,4.28 62.14,-27.28 62.79,-27.62 63.44,-28.02 64.09,-28.4 64.74,-28.79 65.39,-29.2 66.04,-29.54 66.7,-29.97 67.35,-30.35 68,-19.76 68.65,-31.11 69.3,-31.49 69.95,-31.87 70.6,-32.29 71.25,-32.65 71.9,-33.08 72.55,-33.46 73.2,-33.87 73.85,-34.24 74.5,-34.68 75.15,-35.05 75.8,-35.44 76.46,-35.87 77.11,-36.27 77.76,-36.68 78.41,-37.05 79.06,-37.49 79.71,-37.88 80.36,-38.3 81.01,-38.7 " class="primitive"/>
            </g>
          </g>
        </g>
      </g>
    </g>
  </g>
  <g class="guide ylabels" font-size="2.82" font-family="'PT Sans Caption','Helvetica Neue','Helvetica',sans-serif" fill="#6C606B" id="img-559a6960-25">
    <g transform="translate(22.65,80.32)" id="img-559a6960-26">
      <g class="primitive">
        <text text-anchor="end" dy="0.35em">0.0000</text>
      </g>
    </g>
    <g transform="translate(22.65,65.65)" id="img-559a6960-27">
      <g class="primitive">
        <text text-anchor="end" dy="0.35em">0.0001</text>
      </g>
    </g>
    <g transform="translate(22.65,50.99)" id="img-559a6960-28">
      <g class="primitive">
        <text text-anchor="end" dy="0.35em">0.0002</text>
      </g>
    </g>
    <g transform="translate(22.65,36.33)" id="img-559a6960-29">
      <g class="primitive">
        <text text-anchor="end" dy="0.35em">0.0003</text>
      </g>
    </g>
    <g transform="translate(22.65,21.66)" id="img-559a6960-30">
      <g class="primitive">
        <text text-anchor="end" dy="0.35em">0.0004</text>
      </g>
    </g>
    <g transform="translate(22.65,7)" id="img-559a6960-31">
      <g class="primitive">
        <text text-anchor="end" dy="0.35em">0.0005</text>
      </g>
    </g>
  </g>
  <g font-size="3.88" font-family="'PT Sans','Helvetica Neue','Helvetica',sans-serif" fill="#564A55" stroke="#000000" stroke-opacity="0.000" id="img-559a6960-32">
    <g transform="translate(8.81,41.66)" id="img-559a6960-33">
      <g class="primitive">
        <text text-anchor="middle" dy="0.35em" transform="rotate(-90,0, 2)">f(x)</text>
      </g>
    </g>
  </g>
</g>
<defs>
  <clipPath id="img-559a6960-4">
    <path d="M23.65,5 L198.2,5 198.2,82.32 23.65,82.32 " />
  </clipPath>
</defs>
</svg>
