<?xml version="1.0" encoding="UTF-8"?>
<svg xmlns="http://www.w3.org/2000/svg"
     xmlns:xlink="http://www.w3.org/1999/xlink"
     xmlns:gadfly="http://www.gadflyjl.org/ns"
     version="1.2"
     width="203.2mm" height="101.6mm" viewBox="0 0 203.2 101.6"
     stroke="none"
     fill="#000000"
     stroke-width="0.3"
     font-size="3.88"
>
<defs>
  <marker id="arrow" markerWidth="15" markerHeight="7" refX="5" refY="3.5" orient="auto" markerUnits="strokeWidth">
    <path d="M0,0 L15,3.5 L0,7 z" stroke="context-stroke" fill="context-stroke"/>
  </marker>
</defs>
<g class="plotroot xscalable yscalable" id="img-64ad2315-1">
  <g font-size="3.88" font-family="'PT Sans','Helvetica Neue','Helvetica',sans-serif" fill="#564A55" stroke="#000000" stroke-opacity="0.000" id="img-64ad2315-2">
    <g transform="translate(108.92,89.99)">
      <g class="primitive">
        <text text-anchor="middle" dy="0.6em">x</text>
      </g>
    </g>
  </g>
  <g class="guide xlabels" font-size="2.82" font-family="'PT Sans Caption','Helvetica Neue','Helvetica',sans-serif" fill="#6C606B" id="img-64ad2315-3">
    <g transform="translate(21.63,83.32)">
      <g class="primitive">
        <text text-anchor="middle" dy="0.6em">0</text>
      </g>
    </g>
    <g transform="translate(65.27,83.32)">
      <g class="primitive">
        <text text-anchor="middle" dy="0.6em">5.00×10³</text>
      </g>
    </g>
    <g transform="translate(108.92,83.32)">
      <g class="primitive">
        <text text-anchor="middle" dy="0.6em">1.00×10⁴</text>
      </g>
    </g>
    <g transform="translate(152.56,83.32)">
      <g class="primitive">
        <text text-anchor="middle" dy="0.6em">1.50×10⁴</text>
      </g>
    </g>
    <g transform="translate(196.2,83.32)">
      <g class="primitive">
        <text text-anchor="middle" dy="0.6em">2.00×10⁴</text>
      </g>
    </g>
  </g>
  <g clip-path="url(#img-64ad2315-4)">
    <g id="img-64ad2315-5">
      <g pointer-events="visible" stroke-width="0.3" fill="#000000" fill-opacity="0.000" stroke="#000000" stroke-opacity="0.000" class="guide background" id="img-64ad2315-6">
        <g transform="translate(108.92,43.66)" id="img-64ad2315-7">
          <path d="M-89.28,-38.66 L89.28,-38.66 89.28,38.66 -89.28,38.66  z" class="primitive"/>
        </g>
      </g>
      <g class="guide ygridlines xfixed" stroke-dasharray="0.5,0.5" stroke-width="0.2" stroke="#D0D0E0" id="img-64ad2315-8">
        <g transform="translate(108.92,80.32)" id="img-64ad2315-9">
          <path fill="none" d="M-89.28,0 L89.28,0 " class="primitive"/>
        </g>
        <g transform="translate(108.92,61.99)" id="img-64ad2315-10">
          <path fill="none" d="M-89.28,0 L89.28,0 " class="primitive"/>
        </g>
        <g transform="translate(108.92,43.66)" id="img-64ad2315-11">
          <path fill="none" d="M-89.28,0 L89.28,0 " class="primitive"/>
        </g>
        <g transform="translate(108.92,25.33)" id="img-64ad2315-12">
          <path fill="none" d="M-89.28,0 L89.28,0 " class="primitive"/>
        </g>
        <g transform="translate(108.92,7)" id="img-64ad2315-13">
          <path fill="none" d="M-89.28,0 L89.28,0 " class="primitive"/>
        </g>
      </g>
      <g class="guide xgridlines yfixed" stroke-dasharray="0.5,0.5" stroke-width="0.2" stroke="#D0D0E0" id="img-64ad2315-14">
        <g transform="translate(21.63,43.66)" id="img-64ad2315-15">
          <path fill="none" d="M0,-38.66 L0,38.66 " class="primitive"/>
        </g>
        <g transform="translate(65.27,43.66)" id="img-64ad2315-16">
          <path fill="none" d="M0,-38.66 L0,38.66 " class="primitive"/>
        </g>
        <g transform="translate(108.92,43.66)" id="img-64ad2315-17">
          <path fill="none" d="M0,-38.66 L0,38.66 " class="primitive"/>
        </g>
        <g transform="translate(152.56,43.66)" id="img-64ad2315-18">
          <path fill="none" d="M0,-38.66 L0,38.66 " class="primitive"/>
        </g>
        <g transform="translate(196.2,43.66)" id="img-64ad2315-19">
          <path fill="none" d="M0,-38.66 L0,38.66 " class="primitive"/>
        </g>
      </g>
      <g class="plotpanel" id="img-64ad2315-20">
        <metadata>
          <boundingbox value="19.63166666666669mm 5.0mm 178.56833333333333mm 77.315mm"/>
          <unitbox value="-229.13663226434727 410.91181886380684 20458.273264528692 -421.82363772761374"/>
        </metadata>
        <g stroke-width="0.3" fill="#000000" fill-opacity="0.000" class="geometry" id="img-64ad2315-21">
          <g class="color_LCHab{Float32}(70.0f0,60.0f0,240.0f0)" stroke-dasharray="none" stroke="#00BFFF" id="img-64ad2315-22">
            <g transform="translate(113.28,46.49)" id="img-64ad2315-23">
              <path fill="none" d="M-82.92,27.78 L-82.25,27.59 -81.59,27.41 -80.92,26.49 -80.26,24.84 -79.59,27.59 -78.92,26.31 -78.26,30.71 -77.59,25.76 -76.93,24.29 -76.26,25.03 -75.59,24.84 -74.93,26.86 -74.26,23.01 -73.6,22.64 -72.93,29.61 -72.26,28.14 -71.6,22.09 -70.93,21.18 -70.27,23.74 -69.6,21.18 -68.93,20.99 -68.27,32.54 -67.6,20.63 -66.94,20.81 -66.27,19.71 -65.6,20.99 -64.94,26.68 -64.27,17.15 -63.61,29.24 -62.94,16.6 -62.27,18.98 -61.61,19.71 -60.94,23.74 -60.28,15.86 -59.61,16.6 -58.94,17.33 -58.28,18.06 -57.61,18.61 -56.95,14.76 -56.28,16.6 -55.61,20.08 -54.95,14.21 -54.28,24.11 -53.61,15.13 -52.95,22.28 -52.28,15.5 -51.62,14.76 -50.95,15.31 -50.28,11.65 -49.62,12.56 -48.95,13.48 -48.29,21.91 -47.62,11.83 -46.95,24.66 -46.29,12.93 -45.62,12.01 -44.96,16.41 -44.29,9.81 -43.62,6.33 -42.96,11.1 -42.29,12.93 -41.63,11.46 -40.96,14.4 -40.29,12.56 -39.63,12.38 -38.96,8.35 -38.3,8.71 -37.63,6.7 -36.96,10.55 -36.3,14.95 -35.63,9.63 -34.97,8.35 -34.3,8.16 -33.63,1.38 -32.97,8.71 -32.3,25.21 -31.64,3.58 -30.97,7.43 -30.3,1.57 -29.64,9.63 -28.97,5.78 -28.31,5.05 -27.64,3.77 -26.97,8.9 -26.31,4.32 -25.64,5.05 -24.98,2.3 -24.31,23.93 -23.64,3.77 -22.98,1.75 -22.31,3.95 -21.65,2.3 -20.98,5.6 -20.31,0.28 -19.65,23.93 -18.98,5.96 -18.32,7.25 -17.65,0.28 -16.98,-1.55 -16.32,32.91 -15.65,0.47 -14.99,1.02 -14.32,2.3 -13.65,1.02 -12.99,0.1 -12.32,-0.45 -11.66,0.65 -10.99,-1.92 -10.32,-2.83 -9.66,2.85 -8.99,-1.18 -8.33,26.49 -7.66,-3.57 -6.99,1.2 -6.33,-5.58 -5.66,-7.42 -5,-2.83 -4.33,-1.92 -3.66,-5.77 -3,-3.02 -2.33,-4.12 -1.67,-2.47 -1,-3.2 -0.33,-5.22 0.33,-3.02 1,-2.28 1.67,-11.08 2.33,-3.93 3,-3.02 3.66,-8.33 4.33,-5.22 5,-9.98 5.66,-7.6 6.33,-5.95 6.99,-5.95 7.66,-5.22 8.33,-14.01 8.99,-7.96 9.66,-10.53 10.32,-5.4 10.99,-7.23 11.66,29.79 12.32,-7.05 12.99,-5.77 13.65,14.03 14.32,-8.7 14.99,-4.67 15.65,-16.95 16.32,-9.43 16.98,-15.11 17.65,-7.96 18.32,-13.46 18.98,9.45 19.65,-7.42 20.31,-8.88 20.98,-11.63 21.65,12.01 22.31,-11.08 22.98,-16.58 23.64,-9.43 24.31,-14.01 24.98,-15.48 25.64,-11.45 26.31,-16.21 26.97,-10.16 27.64,-13.1 28.31,-18.78 28.97,-18.96 29.64,-15.3 30.3,20.26 30.97,-16.95 31.64,-12.36 32.3,-12.91 32.97,-17.13 33.63,-13.28 34.3,-10.35 34.97,-18.05 35.63,-19.7 36.3,-20.8 36.96,-14.93 37.63,-22.99 38.3,-15.11 38.96,16.41 39.63,-14.75 40.29,28.51 40.96,-18.05 41.63,-19.15 42.29,16.05 42.96,-17.5 43.62,10.55 44.29,-16.21 44.96,6.7 45.62,-25.38 46.29,-23.73 46.95,-16.03 47.62,-19.88 48.29,-19.51 48.95,-23.91 49.62,-20.61 50.28,-1.37 50.95,-25.19 51.62,-19.88 52.28,-27.03 52.95,-27.39 53.61,-22.44 54.28,-23.73 54.95,-25.01 55.61,-26.48 56.28,-22.08 56.95,-19.15 57.61,10.73 58.28,-23.54 58.94,-22.63 59.61,-20.61 60.28,-20.43 60.94,-21.34 61.61,-24.64 62.27,-29.96 62.94,-26.66 63.61,16.96 64.27,-24.28 64.94,-23.91 65.6,-20.61 66.27,-23.91 66.94,-29.41 67.6,9.45 68.27,-25.74 68.93,-23.36 69.6,8.71 70.27,-25.93 70.93,-27.39 71.6,-27.94 72.26,-30.33 72.93,-26.29 73.6,18.8 74.26,5.42 74.93,-26.48 75.59,-25.38 76.26,-25.01 76.93,-25.93 77.59,-19.33 78.26,-30.14 78.92,-26.48 79.59,-7.96 80.26,5.6 80.92,-30.88 81.59,-29.96 82.25,32.54 82.92,-27.76 " class="primitive"/>
            </g>
          </g>
        </g>
      </g>
    </g>
  </g>
  <g class="guide ylabels" font-size="2.82" font-family="'PT Sans Caption','Helvetica Neue','Helvetica',sans-serif" fill="#6C606B" id="img-64ad2315-24">
    <g transform="translate(18.63,80.32)" id="img-64ad2315-25">
      <g class="primitive">
        <text text-anchor="end" dy="0.35em">0</text>
      </g>
    </g>
    <g transform="translate(18.63,61.99)" id="img-64ad2315-26">
      <g class="primitive">
        <text text-anchor="end" dy="0.35em">100</text>
      </g>
    </g>
    <g transform="translate(18.63,43.66)" id="img-64ad2315-27">
      <g class="primitive">
        <text text-anchor="end" dy="0.35em">200</text>
      </g>
    </g>
    <g transform="translate(18.63,25.33)" id="img-64ad2315-28">
      <g class="primitive">
        <text text-anchor="end" dy="0.35em">300</text>
      </g>
    </g>
    <g transform="translate(18.63,7)" id="img-64ad2315-29">
      <g class="primitive">
        <text text-anchor="end" dy="0.35em">400</text>
      </g>
    </g>
  </g>
  <g font-size="3.88" font-family="'PT Sans','Helvetica Neue','Helvetica',sans-serif" fill="#564A55" stroke="#000000" stroke-opacity="0.000" id="img-64ad2315-30">
    <g transform="translate(8.81,41.66)" id="img-64ad2315-31">
      <g class="primitive">
        <text text-anchor="middle" dy="0.35em" transform="rotate(-90,0, 2)">f(x)</text>
      </g>
    </g>
  </g>
</g>
<defs>
  <clipPath id="img-64ad2315-4">
    <path d="M19.63,5 L198.2,5 198.2,82.32 19.63,82.32 " />
  </clipPath>
</defs>
</svg>
