<?xml version="1.0" encoding="UTF-8"?>
<svg xmlns="http://www.w3.org/2000/svg"
     xmlns:xlink="http://www.w3.org/1999/xlink"
     xmlns:gadfly="http://www.gadflyjl.org/ns"
     version="1.2"
     width="152.4mm" height="101.6mm" viewBox="0 0 152.4 101.6"
     stroke="none"
     fill="#000000"
     stroke-width="0.3"
     font-size="3.88"
>
<defs>
  <marker id="arrow" markerWidth="15" markerHeight="7" refX="5" refY="3.5" orient="auto" markerUnits="strokeWidth">
    <path d="M0,0 L15,3.5 L0,7 z" stroke="context-stroke" fill="context-stroke"/>
  </marker>
</defs>
<g class="plotroot xscalable yscalable" id="img-fa50f6ec-1">
  <g font-size="3.88" font-family="'PT Sans','Helvetica Neue','Helvetica',sans-serif" fill="#564A55" stroke="#000000" stroke-opacity="0.000" id="img-fa50f6ec-2">
    <g transform="translate(70.54,89.99)">
      <g class="primitive">
        <text text-anchor="middle" dy="0.6em">Energy (eV)</text>
      </g>
    </g>
  </g>
  <g class="guide xlabels" font-size="2.82" font-family="'PT Sans Caption','Helvetica Neue','Helvetica',sans-serif" fill="#6C606B" id="img-fa50f6ec-3">
    <g transform="translate(21.63,83.32)">
      <g class="primitive">
        <text text-anchor="middle" dy="0.6em">0</text>
      </g>
    </g>
    <g transform="translate(46.09,83.32)">
      <g class="primitive">
        <text text-anchor="middle" dy="0.6em">5.00×10³</text>
      </g>
    </g>
    <g transform="translate(70.54,83.32)">
      <g class="primitive">
        <text text-anchor="middle" dy="0.6em">1.00×10⁴</text>
      </g>
    </g>
    <g transform="translate(95,83.32)">
      <g class="primitive">
        <text text-anchor="middle" dy="0.6em">1.50×10⁴</text>
      </g>
    </g>
    <g transform="translate(119.46,83.32)">
      <g class="primitive">
        <text text-anchor="middle" dy="0.6em">2.00×10⁴</text>
      </g>
    </g>
  </g>
  <g class="guide colorkey" id="img-fa50f6ec-4">
    <g fill="#4C404B" font-size="2.82" font-family="'PT Sans','Helvetica Neue','Helvetica',sans-serif" id="img-fa50f6ec-5">
      <g transform="translate(125.27,40.03)" id="img-fa50f6ec-6" class="color_f1">
        <g class="primitive">
          <text dy="0.35em">2.0 keV</text>
        </g>
      </g>
      <g transform="translate(125.27,43.66)" id="img-fa50f6ec-7" class="color_f2">
        <g class="primitive">
          <text dy="0.35em">5.0 keV</text>
        </g>
      </g>
      <g transform="translate(125.27,47.28)" id="img-fa50f6ec-8" class="color_f3">
        <g class="primitive">
          <text dy="0.35em">10.0 keV</text>
        </g>
      </g>
      <g transform="translate(125.27,50.91)" id="img-fa50f6ec-9" class="color_f4">
        <g class="primitive">
          <text dy="0.35em">20.0 keV</text>
        </g>
      </g>
    </g>
    <g fill-opacity="1" id="img-fa50f6ec-10">
      <g transform="translate(123.36,40.03)" id="img-fa50f6ec-11" stroke="#FFFFFF" class="color_f1" fill="#00BFFF">
        <path d="M-0.91,-0.91 L0.91,-0.91 0.91,0.91 -0.91,0.91  z" class="primitive"/>
      </g>
      <g transform="translate(123.36,43.66)" id="img-fa50f6ec-12" stroke="#FFFFFF" class="color_f2" fill="#D4CA3A">
        <path d="M-0.91,-0.91 L0.91,-0.91 0.91,0.91 -0.91,0.91  z" class="primitive"/>
      </g>
      <g transform="translate(123.36,47.28)" id="img-fa50f6ec-13" stroke="#FFFFFF" class="color_f3" fill="#FF6DAE">
        <path d="M-0.91,-0.91 L0.91,-0.91 0.91,0.91 -0.91,0.91  z" class="primitive"/>
      </g>
      <g transform="translate(123.36,50.91)" id="img-fa50f6ec-14" stroke="#FFFFFF" class="color_f4" fill="#00B78D">
        <path d="M-0.91,-0.91 L0.91,-0.91 0.91,0.91 -0.91,0.91  z" class="primitive"/>
      </g>
    </g>
    <g fill="#362A35" font-size="3.88" font-family="'PT Sans','Helvetica Neue','Helvetica',sans-serif" stroke="#000000" stroke-opacity="0.000" id="img-fa50f6ec-15">
      <g transform="translate(122.46,36.21)" id="img-fa50f6ec-16">
        <g class="primitive">
          <text dy="-0em">Incident Energy</text>
        </g>
      </g>
    </g>
  </g>
  <g clip-path="url(#img-fa50f6ec-17)">
    <g id="img-fa50f6ec-18">
      <g pointer-events="visible" stroke-width="0.3" fill="#000000" fill-opacity="0.000" stroke="#000000" stroke-opacity="0.000" class="guide background" id="img-fa50f6ec-19">
        <g transform="translate(70.54,43.66)" id="img-fa50f6ec-20">
          <path d="M-50.91,-38.66 L50.91,-38.66 50.91,38.66 -50.91,38.66  z" class="primitive"/>
        </g>
      </g>
      <g class="guide ygridlines xfixed" stroke-dasharray="0.5,0.5" stroke-width="0.2" stroke="#D0D0E0" id="img-fa50f6ec-21">
        <g transform="translate(70.54,80.31)" id="img-fa50f6ec-22">
          <path fill="none" d="M-50.91,0 L50.91,0 " class="primitive"/>
        </g>
        <g transform="translate(70.54,65.65)" id="img-fa50f6ec-23">
          <path fill="none" d="M-50.91,0 L50.91,0 " class="primitive"/>
        </g>
        <g transform="translate(70.54,50.99)" id="img-fa50f6ec-24">
          <path fill="none" d="M-50.91,0 L50.91,0 " class="primitive"/>
        </g>
        <g transform="translate(70.54,36.33)" id="img-fa50f6ec-25">
          <path fill="none" d="M-50.91,0 L50.91,0 " class="primitive"/>
        </g>
        <g transform="translate(70.54,21.66)" id="img-fa50f6ec-26">
          <path fill="none" d="M-50.91,0 L50.91,0 " class="primitive"/>
        </g>
        <g transform="translate(70.54,7)" id="img-fa50f6ec-27">
          <path fill="none" d="M-50.91,0 L50.91,0 " class="primitive"/>
        </g>
      </g>
      <g class="guide xgridlines yfixed" stroke-dasharray="0.5,0.5" stroke-width="0.2" stroke="#D0D0E0" id="img-fa50f6ec-28">
        <g transform="translate(21.63,43.66)" id="img-fa50f6ec-29">
          <path fill="none" d="M0,-38.66 L0,38.66 " class="primitive"/>
        </g>
        <g transform="translate(46.09,43.66)" id="img-fa50f6ec-30">
          <path fill="none" d="M0,-38.66 L0,38.66 " class="primitive"/>
        </g>
        <g transform="translate(70.54,43.66)" id="img-fa50f6ec-31">
          <path fill="none" d="M0,-38.66 L0,38.66 " class="primitive"/>
        </g>
        <g transform="translate(95,43.66)" id="img-fa50f6ec-32">
          <path fill="none" d="M0,-38.66 L0,38.66 " class="primitive"/>
        </g>
        <g transform="translate(119.46,43.66)" id="img-fa50f6ec-33">
          <path fill="none" d="M0,-38.66 L0,38.66 " class="primitive"/>
        </g>
      </g>
      <g class="plotpanel" id="img-fa50f6ec-34">
        <metadata>
          <boundingbox value="19.63166666666666mm 5.0mm 101.82666666666665mm 77.315mm"/>
          <unitbox value="-408.88646585798017 513.6397735797585 20817.77293171596 -527.2795471595172"/>
        </metadata>
        <g stroke-width="0.3" fill="#000000" fill-opacity="0.000" class="geometry" id="img-fa50f6ec-35">
          <g transform="translate(72.99,80.23)" id="img-fa50f6ec-36" class="color_f1" stroke-dasharray="none" stroke="#00BFFF">
            <path fill="none" d="M-46.47,-3.73 L-46.09,-3.19 -45.72,-2.72 -45.35,-2.31 -44.97,-1.94 -44.6,-1.62 -44.23,-1.33 -43.86,-1.07 -43.48,-0.84 -43.11,-0.62 -42.74,-0.43 -42.36,-0.25 -41.99,-0.08 -41.62,0.07 -41.24,0.08 -40.87,0.08 -40.5,0.08 -40.12,0.08 -39.75,0.08 -39.38,0.08 -39,0.08 -38.63,0.08 -38.26,0.08 -37.88,0.08 -37.51,0.08 -37.14,0.08 -36.76,0.08 -36.39,0.08 -36.02,0.08 -35.64,0.08 -35.27,0.08 -34.9,0.08 -34.52,0.08 -34.15,0.08 -33.78,0.08 -33.4,0.08 -33.03,0.08 -32.66,0.08 -32.28,0.08 -31.91,0.08 -31.54,0.08 -31.17,0.08 -30.79,0.08 -30.42,0.08 -30.05,0.08 -29.67,0.08 -29.3,0.08 -28.93,0.08 -28.55,0.08 -28.18,0.08 -27.81,0.08 -27.43,0.08 -27.06,0.08 -26.69,0.08 -26.31,0.08 -25.94,0.08 -25.57,0.08 -25.19,0.08 -24.82,0.08 -24.45,0.08 -24.07,0.08 -23.7,0.08 -23.33,0.08 -22.95,0.08 -22.58,0.08 -22.21,0.08 -21.83,0.08 -21.46,0.08 -21.09,0.08 -20.71,0.08 -20.34,0.08 -19.97,0.08 -19.59,0.08 -19.22,0.08 -18.85,0.08 -18.48,0.08 -18.1,0.08 -17.73,0.08 -17.36,0.08 -16.98,0.08 -16.61,0.08 -16.24,0.08 -15.86,0.08 -15.49,0.08 -15.12,0.08 -14.74,0.08 -14.37,0.08 -14,0.08 -13.62,0.08 -13.25,0.08 -12.88,0.08 -12.5,0.08 -12.13,0.08 -11.76,0.08 -11.38,0.08 -11.01,0.08 -10.64,0.08 -10.26,0.08 -9.89,0.08 -9.52,0.08 -9.14,0.08 -8.77,0.08 -8.4,0.08 -8.02,0.08 -7.65,0.08 -7.28,0.08 -6.9,0.08 -6.53,0.08 -6.16,0.08 -5.79,0.08 -5.41,0.08 -5.04,0.08 -4.67,0.08 -4.29,0.08 -3.92,0.08 -3.55,0.08 -3.17,0.08 -2.8,0.08 -2.43,0.08 -2.05,0.08 -1.68,0.08 -1.31,0.08 -0.93,0.08 -0.56,0.08 -0.19,0.08 0.19,0.08 0.56,0.08 0.93,0.08 1.31,0.08 1.68,0.08 2.05,0.08 2.43,0.08 2.8,0.08 3.17,0.08 3.55,0.08 3.92,0.08 4.29,0.08 4.67,0.08 5.04,0.08 5.41,0.08 5.79,0.08 6.16,0.08 6.53,0.08 6.9,0.08 7.28,0.08 7.65,0.08 8.02,0.08 8.4,0.08 8.77,0.08 9.14,0.08 9.52,0.08 9.89,0.08 10.26,0.08 10.64,0.08 11.01,0.08 11.38,0.08 11.76,0.08 12.13,0.08 12.5,0.08 12.88,0.08 13.25,0.08 13.62,0.08 14,0.08 14.37,0.08 14.74,0.08 15.12,0.08 15.49,0.08 15.86,0.08 16.24,0.08 16.61,0.08 16.98,0.08 17.36,0.08 17.73,0.08 18.1,0.08 18.48,0.08 18.85,0.08 19.22,0.08 19.59,0.08 19.97,0.08 20.34,0.08 20.71,0.08 21.09,0.08 21.46,0.08 21.83,0.08 22.21,0.08 22.58,0.08 22.95,0.08 23.33,0.08 23.7,0.08 24.07,0.08 24.45,0.08 24.82,0.08 25.19,0.08 25.57,0.08 25.94,0.08 26.31,0.08 26.69,0.08 27.06,0.08 27.43,0.08 27.81,0.08 28.18,0.08 28.55,0.08 28.93,0.08 29.3,0.08 29.67,0.08 30.05,0.08 30.42,0.08 30.79,0.08 31.17,0.08 31.54,0.08 31.91,0.08 32.28,0.08 32.66,0.08 33.03,0.08 33.4,0.08 33.78,0.08 34.15,0.08 34.52,0.08 34.9,0.08 35.27,0.08 35.64,0.08 36.02,0.08 36.39,0.08 36.76,0.08 37.14,0.08 37.51,0.08 37.88,0.08 38.26,0.08 38.63,0.08 39,0.08 39.38,0.08 39.75,0.08 40.12,0.08 40.5,0.08 40.87,0.08 41.24,0.08 41.62,0.08 41.99,0.08 42.36,0.08 42.74,0.08 43.11,0.08 43.48,0.08 43.86,0.08 44.23,0.08 44.6,0.08 44.97,0.08 45.35,0.08 45.72,0.08 46.09,0.08 46.47,0.08 " class="primitive"/>
          </g>
          <g transform="translate(72.99,79.48)" id="img-fa50f6ec-37" class="color_f2" stroke-dasharray="none" stroke="#D4CA3A">
            <path fill="none" d="M-46.47,-14.41 L-46.09,-13.06 -45.72,-11.89 -45.35,-10.86 -44.97,-9.95 -44.6,-9.15 -44.23,-8.42 -43.86,-7.77 -43.48,-7.18 -43.11,-6.65 -42.74,-6.16 -42.36,-5.71 -41.99,-5.3 -41.62,-4.92 -41.24,-4.56 -40.87,-4.24 -40.5,-3.93 -40.12,-3.65 -39.75,-3.38 -39.38,-3.13 -39,-2.89 -38.63,-2.67 -38.26,-2.46 -37.88,-2.27 -37.51,-2.08 -37.14,-1.9 -36.76,-1.74 -36.39,-1.58 -36.02,-1.43 -35.64,-1.28 -35.27,-1.14 -34.9,-1.01 -34.52,-0.89 -34.15,-0.77 -33.78,-0.65 -33.4,-0.54 -33.03,-0.44 -32.66,-0.33 -32.28,-0.24 -31.91,-0.14 -31.54,-0.05 -31.17,0.04 -30.79,0.12 -30.42,0.2 -30.05,0.28 -29.67,0.35 -29.3,0.43 -28.93,0.5 -28.55,0.56 -28.18,0.63 -27.81,0.69 -27.43,0.76 -27.06,0.82 -26.69,0.84 -26.31,0.84 -25.94,0.84 -25.57,0.84 -25.19,0.84 -24.82,0.84 -24.45,0.84 -24.07,0.84 -23.7,0.84 -23.33,0.84 -22.95,0.84 -22.58,0.84 -22.21,0.84 -21.83,0.84 -21.46,0.84 -21.09,0.84 -20.71,0.84 -20.34,0.84 -19.97,0.84 -19.59,0.84 -19.22,0.84 -18.85,0.84 -18.48,0.84 -18.1,0.84 -17.73,0.84 -17.36,0.84 -16.98,0.84 -16.61,0.84 -16.24,0.84 -15.86,0.84 -15.49,0.84 -15.12,0.84 -14.74,0.84 -14.37,0.84 -14,0.84 -13.62,0.84 -13.25,0.84 -12.88,0.84 -12.5,0.84 -12.13,0.84 -11.76,0.84 -11.38,0.84 -11.01,0.84 -10.64,0.84 -10.26,0.84 -9.89,0.84 -9.52,0.84 -9.14,0.84 -8.77,0.84 -8.4,0.84 -8.02,0.84 -7.65,0.84 -7.28,0.84 -6.9,0.84 -6.53,0.84 -6.16,0.84 -5.79,0.84 -5.41,0.84 -5.04,0.84 -4.67,0.84 -4.29,0.84 -3.92,0.84 -3.55,0.84 -3.17,0.84 -2.8,0.84 -2.43,0.84 -2.05,0.84 -1.68,0.84 -1.31,0.84 -0.93,0.84 -0.56,0.84 -0.19,0.84 0.19,0.84 0.56,0.84 0.93,0.84 1.31,0.84 1.68,0.84 2.05,0.84 2.43,0.84 2.8,0.84 3.17,0.84 3.55,0.84 3.92,0.84 4.29,0.84 4.67,0.84 5.04,0.84 5.41,0.84 5.79,0.84 6.16,0.84 6.53,0.84 6.9,0.84 7.28,0.84 7.65,0.84 8.02,0.84 8.4,0.84 8.77,0.84 9.14,0.84 9.52,0.84 9.89,0.84 10.26,0.84 10.64,0.84 11.01,0.84 11.38,0.84 11.76,0.84 12.13,0.84 12.5,0.84 12.88,0.84 13.25,0.84 13.62,0.84 14,0.84 14.37,0.84 14.74,0.84 15.12,0.84 15.49,0.84 15.86,0.84 16.24,0.84 16.61,0.84 16.98,0.84 17.36,0.84 17.73,0.84 18.1,0.84 18.48,0.84 18.85,0.84 19.22,0.84 19.59,0.84 19.97,0.84 20.34,0.84 20.71,0.84 21.09,0.84 21.46,0.84 21.83,0.84 22.21,0.84 22.58,0.84 22.95,0.84 23.33,0.84 23.7,0.84 24.07,0.84 24.45,0.84 24.82,0.84 25.19,0.84 25.57,0.84 25.94,0.84 26.31,0.84 26.69,0.84 27.06,0.84 27.43,0.84 27.81,0.84 28.18,0.84 28.55,0.84 28.93,0.84 29.3,0.84 29.67,0.84 30.05,0.84 30.42,0.84 30.79,0.84 31.17,0.84 31.54,0.84 31.91,0.84 32.28,0.84 32.66,0.84 33.03,0.84 33.4,0.84 33.78,0.84 34.15,0.84 34.52,0.84 34.9,0.84 35.27,0.84 35.64,0.84 36.02,0.84 36.39,0.84 36.76,0.84 37.14,0.84 37.51,0.84 37.88,0.84 38.26,0.84 38.63,0.84 39,0.84 39.38,0.84 39.75,0.84 40.12,0.84 40.5,0.84 40.87,0.84 41.24,0.84 41.62,0.84 41.99,0.84 42.36,0.84 42.74,0.84 43.11,0.84 43.48,0.84 43.86,0.84 44.23,0.84 44.6,0.84 44.97,0.84 45.35,0.84 45.72,0.84 46.09,0.84 46.47,0.84 " class="primitive"/>
          </g>
          <g transform="translate(72.99,77.44)" id="img-fa50f6ec-38" class="color_f3" stroke-dasharray="none" stroke="#FF6DAE">
            <path fill="none" d="M-46.47,-31.44 L-46.09,-28.74 -45.72,-26.39 -45.35,-24.34 -44.97,-22.52 -44.6,-20.91 -44.23,-19.47 -43.86,-18.17 -43.48,-16.99 -43.11,-15.92 -42.74,-14.94 -42.36,-14.04 -41.99,-13.22 -41.62,-12.45 -41.24,-11.75 -40.87,-11.09 -40.5,-10.48 -40.12,-9.91 -39.75,-9.38 -39.38,-8.88 -39,-8.41 -38.63,-7.96 -38.26,-7.55 -37.88,-7.15 -37.51,-6.78 -37.14,-6.43 -36.76,-6.09 -36.39,-5.77 -36.02,-5.47 -35.64,-5.18 -35.27,-4.91 -34.9,-4.64 -34.52,-4.39 -34.15,-4.15 -33.78,-3.92 -33.4,-3.7 -33.03,-3.49 -32.66,-3.29 -32.28,-3.09 -31.91,-2.9 -31.54,-2.72 -31.17,-2.55 -30.79,-2.38 -30.42,-2.22 -30.05,-2.06 -29.67,-1.91 -29.3,-1.77 -28.93,-1.63 -28.55,-1.49 -28.18,-1.36 -27.81,-1.23 -27.43,-1.11 -27.06,-0.99 -26.69,-0.87 -26.31,-0.76 -25.94,-0.65 -25.57,-0.54 -25.19,-0.44 -24.82,-0.34 -24.45,-0.24 -24.07,-0.15 -23.7,-0.06 -23.33,0.03 -22.95,0.12 -22.58,0.21 -22.21,0.29 -21.83,0.37 -21.46,0.45 -21.09,0.52 -20.71,0.6 -20.34,0.67 -19.97,0.74 -19.59,0.81 -19.22,0.88 -18.85,0.95 -18.48,1.01 -18.1,1.08 -17.73,1.14 -17.36,1.2 -16.98,1.26 -16.61,1.32 -16.24,1.38 -15.86,1.43 -15.49,1.49 -15.12,1.54 -14.74,1.59 -14.37,1.64 -14,1.69 -13.62,1.74 -13.25,1.79 -12.88,1.84 -12.5,1.89 -12.13,1.93 -11.76,1.98 -11.38,2.02 -11.01,2.06 -10.64,2.11 -10.26,2.15 -9.89,2.19 -9.52,2.23 -9.14,2.27 -8.77,2.31 -8.4,2.34 -8.02,2.38 -7.65,2.42 -7.28,2.45 -6.9,2.49 -6.53,2.53 -6.16,2.56 -5.79,2.59 -5.41,2.63 -5.04,2.66 -4.67,2.69 -4.29,2.72 -3.92,2.75 -3.55,2.78 -3.17,2.82 -2.8,2.84 -2.43,2.87 -2.05,2.87 -1.68,2.87 -1.31,2.87 -0.93,2.87 -0.56,2.87 -0.19,2.87 0.19,2.87 0.56,2.87 0.93,2.87 1.31,2.87 1.68,2.87 2.05,2.87 2.43,2.87 2.8,2.87 3.17,2.87 3.55,2.87 3.92,2.87 4.29,2.87 4.67,2.87 5.04,2.87 5.41,2.87 5.79,2.87 6.16,2.87 6.53,2.87 6.9,2.87 7.28,2.87 7.65,2.87 8.02,2.87 8.4,2.87 8.77,2.87 9.14,2.87 9.52,2.87 9.89,2.87 10.26,2.87 10.64,2.87 11.01,2.87 11.38,2.87 11.76,2.87 12.13,2.87 12.5,2.87 12.88,2.87 13.25,2.87 13.62,2.87 14,2.87 14.37,2.87 14.74,2.87 15.12,2.87 15.49,2.87 15.86,2.87 16.24,2.87 16.61,2.87 16.98,2.87 17.36,2.87 17.73,2.87 18.1,2.87 18.48,2.87 18.85,2.87 19.22,2.87 19.59,2.87 19.97,2.87 20.34,2.87 20.71,2.87 21.09,2.87 21.46,2.87 21.83,2.87 22.21,2.87 22.58,2.87 22.95,2.87 23.33,2.87 23.7,2.87 24.07,2.87 24.45,2.87 24.82,2.87 25.19,2.87 25.57,2.87 25.94,2.87 26.31,2.87 26.69,2.87 27.06,2.87 27.43,2.87 27.81,2.87 28.18,2.87 28.55,2.87 28.93,2.87 29.3,2.87 29.67,2.87 30.05,2.87 30.42,2.87 30.79,2.87 31.17,2.87 31.54,2.87 31.91,2.87 32.28,2.87 32.66,2.87 33.03,2.87 33.4,2.87 33.78,2.87 34.15,2.87 34.52,2.87 34.9,2.87 35.27,2.87 35.64,2.87 36.02,2.87 36.39,2.87 36.76,2.87 37.14,2.87 37.51,2.87 37.88,2.87 38.26,2.87 38.63,2.87 39,2.87 39.38,2.87 39.75,2.87 40.12,2.87 40.5,2.87 40.87,2.87 41.24,2.87 41.62,2.87 41.99,2.87 42.36,2.87 42.74,2.87 43.11,2.87 43.48,2.87 43.86,2.87 44.23,2.87 44.6,2.87 44.97,2.87 45.35,2.87 45.72,2.87 46.09,2.87 46.47,2.87 " class="primitive"/>
          </g>
          <g transform="translate(72.99,71.99)" id="img-fa50f6ec-39" class="color_f4" stroke-dasharray="none" stroke="#00B78D">
            <path fill="none" d="M-46.47,-64.11 L-46.09,-58.71 -45.72,-54.02 -45.35,-49.91 -44.97,-46.28 -44.6,-43.05 -44.23,-40.17 -43.86,-37.56 -43.48,-35.21 -43.11,-33.07 -42.74,-31.11 -42.36,-29.32 -41.99,-27.67 -41.62,-26.14 -41.24,-24.73 -40.87,-23.42 -40.5,-22.2 -40.12,-21.06 -39.75,-19.99 -39.38,-18.99 -39,-18.05 -38.63,-17.16 -38.26,-16.33 -37.88,-15.54 -37.51,-14.79 -37.14,-14.09 -36.76,-13.42 -36.39,-12.78 -36.02,-12.17 -35.64,-11.6 -35.27,-11.05 -34.9,-10.52 -34.52,-10.02 -34.15,-9.54 -33.78,-9.08 -33.4,-8.64 -33.03,-8.21 -32.66,-7.81 -32.28,-7.42 -31.91,-7.04 -31.54,-6.68 -31.17,-6.33 -30.79,-6 -30.42,-5.67 -30.05,-5.36 -29.67,-5.06 -29.3,-4.77 -28.93,-4.49 -28.55,-4.22 -28.18,-3.95 -27.81,-3.7 -27.43,-3.45 -27.06,-3.21 -26.69,-2.98 -26.31,-2.75 -25.94,-2.54 -25.57,-2.32 -25.19,-2.12 -24.82,-1.92 -24.45,-1.72 -24.07,-1.53 -23.7,-1.35 -23.33,-1.17 -22.95,-0.99 -22.58,-0.82 -22.21,-0.66 -21.83,-0.5 -21.46,-0.34 -21.09,-0.18 -20.71,-0.03 -20.34,0.11 -19.97,0.26 -19.59,0.39 -19.22,0.53 -18.85,0.66 -18.48,0.79 -18.1,0.92 -17.73,1.05 -17.36,1.17 -16.98,1.29 -16.61,1.4 -16.24,1.52 -15.86,1.63 -15.49,1.74 -15.12,1.85 -14.74,1.95 -14.37,2.05 -14,2.15 -13.62,2.25 -13.25,2.35 -12.88,2.44 -12.5,2.54 -12.13,2.63 -11.76,2.72 -11.38,2.81 -11.01,2.89 -10.64,2.98 -10.26,3.06 -9.89,3.14 -9.52,3.22 -9.14,3.3 -8.77,3.38 -8.4,3.45 -8.02,3.53 -7.65,3.6 -7.28,3.68 -6.9,3.75 -6.53,3.82 -6.16,3.88 -5.79,3.95 -5.41,4.02 -5.04,4.08 -4.67,4.15 -4.29,4.21 -3.92,4.27 -3.55,4.34 -3.17,4.4 -2.8,4.46 -2.43,4.51 -2.05,4.57 -1.68,4.63 -1.31,4.68 -0.93,4.74 -0.56,4.79 -0.19,4.85 0.19,4.9 0.56,4.95 0.93,5 1.31,5.05 1.68,5.1 2.05,5.15 2.43,5.2 2.8,5.25 3.17,5.3 3.55,5.34 3.92,5.39 4.29,5.43 4.67,5.48 5.04,5.52 5.41,5.57 5.79,5.61 6.16,5.65 6.53,5.69 6.9,5.73 7.28,5.78 7.65,5.82 8.02,5.86 8.4,5.89 8.77,5.93 9.14,5.97 9.52,6.01 9.89,6.05 10.26,6.08 10.64,6.12 11.01,6.16 11.38,6.19 11.76,6.23 12.13,6.26 12.5,6.3 12.88,6.33 13.25,6.36 13.62,6.4 14,6.43 14.37,6.46 14.74,6.49 15.12,6.53 15.49,6.56 15.86,6.59 16.24,6.62 16.61,6.65 16.98,6.68 17.36,6.71 17.73,6.74 18.1,6.77 18.48,6.8 18.85,6.82 19.22,6.85 19.59,6.88 19.97,6.91 20.34,6.93 20.71,6.96 21.09,6.99 21.46,7.01 21.83,7.04 22.21,7.07 22.58,7.09 22.95,7.12 23.33,7.14 23.7,7.17 24.07,7.19 24.45,7.22 24.82,7.24 25.19,7.26 25.57,7.29 25.94,7.31 26.31,7.33 26.69,7.36 27.06,7.38 27.43,7.4 27.81,7.42 28.18,7.45 28.55,7.47 28.93,7.49 29.3,7.51 29.67,7.53 30.05,7.55 30.42,7.58 30.79,7.6 31.17,7.62 31.54,7.64 31.91,7.66 32.28,7.68 32.66,7.7 33.03,7.72 33.4,7.74 33.78,7.76 34.15,7.77 34.52,7.79 34.9,7.81 35.27,7.83 35.64,7.85 36.02,7.87 36.39,7.89 36.76,7.9 37.14,7.92 37.51,7.94 37.88,7.96 38.26,7.97 38.63,7.99 39,8.01 39.38,8.03 39.75,8.04 40.12,8.06 40.5,8.08 40.87,8.09 41.24,8.11 41.62,8.12 41.99,8.14 42.36,8.16 42.74,8.17 43.11,8.19 43.48,8.2 43.86,8.22 44.23,8.23 44.6,8.25 44.97,8.26 45.35,8.28 45.72,8.29 46.09,8.31 46.47,8.32 " class="primitive"/>
          </g>
        </g>
      </g>
    </g>
  </g>
  <g class="guide ylabels" font-size="2.82" font-family="'PT Sans Caption','Helvetica Neue','Helvetica',sans-serif" fill="#6C606B" id="img-fa50f6ec-40">
    <g transform="translate(18.63,80.31)" id="img-fa50f6ec-41">
      <g class="primitive">
        <text text-anchor="end" dy="0.35em">0</text>
      </g>
    </g>
    <g transform="translate(18.63,65.65)" id="img-fa50f6ec-42">
      <g class="primitive">
        <text text-anchor="end" dy="0.35em">100</text>
      </g>
    </g>
    <g transform="translate(18.63,50.99)" id="img-fa50f6ec-43">
      <g class="primitive">
        <text text-anchor="end" dy="0.35em">200</text>
      </g>
    </g>
    <g transform="translate(18.63,36.33)" id="img-fa50f6ec-44">
      <g class="primitive">
        <text text-anchor="end" dy="0.35em">300</text>
      </g>
    </g>
    <g transform="translate(18.63,21.66)" id="img-fa50f6ec-45">
      <g class="primitive">
        <text text-anchor="end" dy="0.35em">400</text>
      </g>
    </g>
    <g transform="translate(18.63,7)" id="img-fa50f6ec-46">
      <g class="primitive">
        <text text-anchor="end" dy="0.35em">500</text>
      </g>
    </g>
  </g>
  <g font-size="3.88" font-family="'PT Sans','Helvetica Neue','Helvetica',sans-serif" fill="#564A55" stroke="#000000" stroke-opacity="0.000" id="img-fa50f6ec-47">
    <g transform="translate(8.81,41.66)" id="img-fa50f6ec-48">
      <g class="primitive">
        <text text-anchor="middle" dy="0.35em" transform="rotate(-90,0, 2)">Intensity (arb)</text>
      </g>
    </g>
  </g>
</g>
<defs>
  <clipPath id="img-fa50f6ec-17">
    <path d="M19.63,5 L121.46,5 121.46,82.32 19.63,82.32 " />
  </clipPath>
</defs>
</svg>
