<?xml version="1.0" encoding="UTF-8"?>
<svg xmlns="http://www.w3.org/2000/svg"
     xmlns:xlink="http://www.w3.org/1999/xlink"
     xmlns:gadfly="http://www.gadflyjl.org/ns"
     version="1.2"
     width="152.4mm" height="101.6mm" viewBox="0 0 152.4 101.6"
     stroke="none"
     fill="#000000"
     stroke-width="0.3"
     font-size="3.88"
>
<defs>
  <marker id="arrow" markerWidth="15" markerHeight="7" refX="5" refY="3.5" orient="auto" markerUnits="strokeWidth">
    <path d="M0,0 L15,3.5 L0,7 z" stroke="context-stroke" fill="context-stroke"/>
  </marker>
</defs>
<g class="plotroot xscalable yscalable" id="img-126b007b-1">
  <g font-size="3.88" font-family="'PT Sans','Helvetica Neue','Helvetica',sans-serif" fill="#564A55" stroke="#000000" stroke-opacity="0.000" id="img-126b007b-2">
    <g transform="translate(75.7,89.99)">
      <g class="primitive">
        <text text-anchor="middle" dy="0.6em">Energy (eV)</text>
      </g>
    </g>
  </g>
  <g class="guide xlabels" font-size="2.82" font-family="'PT Sans Caption','Helvetica Neue','Helvetica',sans-serif" fill="#6C606B" id="img-126b007b-3">
    <g transform="translate(26.38,83.32)">
      <g class="primitive">
        <text text-anchor="middle" dy="0.6em">0</text>
      </g>
    </g>
    <g transform="translate(51.04,83.32)">
      <g class="primitive">
        <text text-anchor="middle" dy="0.6em">5.0×10³</text>
      </g>
    </g>
    <g transform="translate(75.7,83.32)">
      <g class="primitive">
        <text text-anchor="middle" dy="0.6em">1.0×10⁴</text>
      </g>
    </g>
    <g transform="translate(100.36,83.32)">
      <g class="primitive">
        <text text-anchor="middle" dy="0.6em">1.5×10⁴</text>
      </g>
    </g>
    <g transform="translate(125.02,83.32)">
      <g class="primitive">
        <text text-anchor="middle" dy="0.6em">2.0×10⁴</text>
      </g>
    </g>
  </g>
  <g class="guide colorkey" id="img-126b007b-4">
    <g fill="#4C404B" font-size="2.82" font-family="'PT Sans','Helvetica Neue','Helvetica',sans-serif" id="img-126b007b-5">
      <g transform="translate(130.83,38.22)" id="img-126b007b-6" class="color_f1">
        <g class="primitive">
          <text dy="0.35em">Smith</text>
        </g>
      </g>
      <g transform="translate(130.83,41.84)" id="img-126b007b-7" class="color_f2">
        <g class="primitive">
          <text dy="0.35em">Small</text>
        </g>
      </g>
      <g transform="translate(130.83,45.47)" id="img-126b007b-8" class="color_f3">
        <g class="primitive">
          <text dy="0.35em">Trincavelli</text>
        </g>
      </g>
      <g transform="translate(130.83,49.1)" id="img-126b007b-9" class="color_f4">
        <g class="primitive">
          <text dy="0.35em">Castellano (a)</text>
        </g>
      </g>
      <g transform="translate(130.83,52.72)" id="img-126b007b-10" class="color_f5">
        <g class="primitive">
          <text dy="0.35em">Castellano (b)</text>
        </g>
      </g>
    </g>
    <g fill-opacity="1" id="img-126b007b-11">
      <g transform="translate(128.93,38.22)" id="img-126b007b-12" class="color_f1" stroke="#FFFFFF" fill="#00BFFF">
        <path d="M-0.91,-0.91 L0.91,-0.91 0.91,0.91 -0.91,0.91  z" class="primitive"/>
      </g>
      <g transform="translate(128.93,41.84)" id="img-126b007b-13" class="color_f2" stroke="#FFFFFF" fill="#D4CA3A">
        <path d="M-0.91,-0.91 L0.91,-0.91 0.91,0.91 -0.91,0.91  z" class="primitive"/>
      </g>
      <g transform="translate(128.93,45.47)" id="img-126b007b-14" class="color_f3" stroke="#FFFFFF" fill="#FF6DAE">
        <path d="M-0.91,-0.91 L0.91,-0.91 0.91,0.91 -0.91,0.91  z" class="primitive"/>
      </g>
      <g transform="translate(128.93,49.1)" id="img-126b007b-15" class="color_f4" stroke="#FFFFFF" fill="#00B78D">
        <path d="M-0.91,-0.91 L0.91,-0.91 0.91,0.91 -0.91,0.91  z" class="primitive"/>
      </g>
      <g transform="translate(128.93,52.72)" id="img-126b007b-16" class="color_f5" stroke="#FFFFFF" fill="#BEA9FF">
        <path d="M-0.91,-0.91 L0.91,-0.91 0.91,0.91 -0.91,0.91  z" class="primitive"/>
      </g>
    </g>
    <g fill="#362A35" font-size="3.88" font-family="'PT Sans','Helvetica Neue','Helvetica',sans-serif" stroke="#000000" stroke-opacity="0.000" id="img-126b007b-17">
      <g transform="translate(128.02,34.4)" id="img-126b007b-18">
        <g class="primitive">
          <text dy="-0em">Author</text>
        </g>
      </g>
    </g>
  </g>
  <g clip-path="url(#img-126b007b-19)">
    <g id="img-126b007b-20">
      <g pointer-events="visible" stroke-width="0.3" fill="#000000" fill-opacity="0.000" stroke="#000000" stroke-opacity="0.000" class="guide background" id="img-126b007b-21">
        <g transform="translate(75.7,43.66)" id="img-126b007b-22">
          <path d="M-51.32,-38.66 L51.32,-38.66 51.32,38.66 -51.32,38.66  z" class="primitive"/>
        </g>
      </g>
      <g class="guide ygridlines xfixed" stroke-dasharray="0.5,0.5" stroke-width="0.2" stroke="#D0D0E0" id="img-126b007b-23">
        <g transform="translate(75.7,80.31)" id="img-126b007b-24">
          <path fill="none" d="M-51.32,0 L51.32,0 " class="primitive"/>
        </g>
        <g transform="translate(75.7,61.99)" id="img-126b007b-25">
          <path fill="none" d="M-51.32,0 L51.32,0 " class="primitive"/>
        </g>
        <g transform="translate(75.7,43.66)" id="img-126b007b-26">
          <path fill="none" d="M-51.32,0 L51.32,0 " class="primitive"/>
        </g>
        <g transform="translate(75.7,25.33)" id="img-126b007b-27">
          <path fill="none" d="M-51.32,0 L51.32,0 " class="primitive"/>
        </g>
        <g transform="translate(75.7,7)" id="img-126b007b-28">
          <path fill="none" d="M-51.32,0 L51.32,0 " class="primitive"/>
        </g>
      </g>
      <g class="guide xgridlines yfixed" stroke-dasharray="0.5,0.5" stroke-width="0.2" stroke="#D0D0E0" id="img-126b007b-29">
        <g transform="translate(26.38,43.66)" id="img-126b007b-30">
          <path fill="none" d="M0,-38.66 L0,38.66 " class="primitive"/>
        </g>
        <g transform="translate(51.04,43.66)" id="img-126b007b-31">
          <path fill="none" d="M0,-38.66 L0,38.66 " class="primitive"/>
        </g>
        <g transform="translate(75.7,43.66)" id="img-126b007b-32">
          <path fill="none" d="M0,-38.66 L0,38.66 " class="primitive"/>
        </g>
        <g transform="translate(100.36,43.66)" id="img-126b007b-33">
          <path fill="none" d="M0,-38.66 L0,38.66 " class="primitive"/>
        </g>
        <g transform="translate(125.02,43.66)" id="img-126b007b-34">
          <path fill="none" d="M0,-38.66 L0,38.66 " class="primitive"/>
        </g>
      </g>
      <g class="plotpanel" id="img-126b007b-35">
        <metadata>
          <boundingbox value="24.37833333333333mm 5.0mm 102.64166666666665mm 77.315mm"/>
          <unitbox value="-405.5081524034806 4109.118188638068 20811.01630480696 -4218.236377276137"/>
        </metadata>
        <g stroke-width="0.3" fill="#000000" fill-opacity="0.000" class="geometry" id="img-126b007b-36">
          <g transform="translate(80.63,70.52)" id="img-126b007b-37" stroke-dasharray="none" class="color_f1" stroke="#00BFFF">
            <path fill="none" d="M-44.39,-57.73 L-44.03,-54.13 -43.68,-50.84 -43.32,-47.83 -42.96,-45.07 -42.61,-42.52 -42.25,-40.16 -41.89,-37.98 -41.54,-35.96 -41.18,-34.08 -40.82,-32.33 -40.47,-30.69 -40.11,-29.16 -39.75,-27.73 -39.4,-26.39 -39.04,-25.12 -38.68,-23.93 -38.33,-22.81 -37.97,-21.76 -37.61,-20.76 -37.26,-19.81 -36.9,-18.91 -36.54,-18.06 -36.19,-17.26 -35.83,-16.49 -35.48,-15.76 -35.12,-15.07 -34.76,-14.4 -34.41,-13.77 -34.05,-13.17 -33.69,-12.59 -33.34,-12.04 -32.98,-11.51 -32.62,-11 -32.27,-10.52 -31.91,-10.05 -31.55,-9.6 -31.2,-9.17 -30.84,-8.76 -30.48,-8.36 -30.13,-7.97 -29.77,-7.6 -29.41,-7.25 -29.06,-6.9 -28.7,-6.57 -28.34,-6.25 -27.99,-5.94 -27.63,-5.64 -27.28,-5.35 -26.92,-5.07 -26.56,-4.8 -26.21,-4.53 -25.85,-4.28 -25.49,-4.03 -25.14,-3.79 -24.78,-3.56 -24.42,-3.33 -24.07,-3.11 -23.71,-2.9 -23.35,-2.69 -23,-2.48 -22.64,-2.29 -22.28,-2.1 -21.93,-1.91 -21.57,-1.73 -21.21,-1.55 -20.86,-1.38 -20.5,-1.21 -20.14,-1.04 -19.79,-0.88 -19.43,-0.72 -19.07,-0.57 -18.72,-0.42 -18.36,-0.27 -18.01,-0.13 -17.65,0.01 -17.29,0.15 -16.94,0.28 -16.58,0.41 -16.22,0.54 -15.87,0.67 -15.51,0.79 -15.15,0.91 -14.8,1.03 -14.44,1.15 -14.08,1.26 -13.73,1.38 -13.37,1.49 -13.01,1.59 -12.66,1.7 -12.3,1.81 -11.94,1.91 -11.59,2.01 -11.23,2.11 -10.87,2.21 -10.52,2.3 -10.16,2.4 -9.8,2.49 -9.45,2.58 -9.09,2.67 -8.74,2.76 -8.38,2.85 -8.02,2.94 -7.67,3.02 -7.31,3.1 -6.95,3.19 -6.6,3.27 -6.24,3.35 -5.88,3.43 -5.53,3.51 -5.17,3.59 -4.81,3.66 -4.46,3.74 -4.1,3.81 -3.74,3.89 -3.39,3.96 -3.03,4.03 -2.67,4.1 -2.32,4.17 -1.96,4.24 -1.6,4.31 -1.25,4.38 -0.89,4.45 -0.53,4.52 -0.18,4.58 0.18,4.65 0.53,4.71 0.89,4.78 1.25,4.84 1.6,4.9 1.96,4.97 2.32,5.03 2.67,5.09 3.03,5.15 3.39,5.21 3.74,5.27 4.1,5.33 4.46,5.39 4.81,5.45 5.17,5.51 5.53,5.57 5.88,5.62 6.24,5.68 6.6,5.74 6.95,5.79 7.31,5.85 7.67,5.9 8.02,5.96 8.38,6.01 8.74,6.07 9.09,6.12 9.45,6.18 9.8,6.23 10.16,6.28 10.52,6.34 10.87,6.39 11.23,6.44 11.59,6.49 11.94,6.54 12.3,6.59 12.66,6.65 13.01,6.7 13.37,6.75 13.73,6.8 14.08,6.85 14.44,6.9 14.8,6.95 15.15,6.99 15.51,7.04 15.87,7.09 16.22,7.14 16.58,7.19 16.94,7.24 17.29,7.28 17.65,7.33 18.01,7.38 18.36,7.43 18.72,7.47 19.07,7.52 19.43,7.56 19.79,7.61 20.14,7.66 20.5,7.7 20.86,7.75 21.21,7.79 21.57,7.84 21.93,7.88 22.28,7.93 22.64,7.97 23,8.01 23.35,8.06 23.71,8.1 24.07,8.14 24.42,8.19 24.78,8.23 25.14,8.27 25.49,8.31 25.85,8.35 26.21,8.39 26.56,8.44 26.92,8.48 27.28,8.52 27.63,8.56 27.99,8.6 28.34,8.63 28.7,8.67 29.06,8.71 29.41,8.75 29.77,8.79 30.13,8.83 30.48,8.86 30.84,8.9 31.2,8.94 31.55,8.97 31.91,9.01 32.27,9.04 32.62,9.08 32.98,9.11 33.34,9.14 33.69,9.18 34.05,9.21 34.41,9.24 34.76,9.27 35.12,9.3 35.48,9.33 35.83,9.36 36.19,9.39 36.54,9.42 36.9,9.45 37.26,9.47 37.61,9.5 37.97,9.52 38.33,9.55 38.68,9.57 39.04,9.6 39.4,9.62 39.75,9.64 40.11,9.66 40.47,9.68 40.82,9.69 41.18,9.71 41.54,9.73 41.89,9.74 42.25,9.75 42.61,9.77 42.96,9.78 43.32,9.78 43.68,9.79 44.03,9.79 44.39,9.8 " class="primitive"/>
          </g>
          <g transform="translate(80.63,79.79)" id="img-126b007b-38" stroke-dasharray="none" class="color_f2" stroke="#D4CA3A">
            <path fill="none" d="M-44.39,-5.18 L-44.03,-4.8 -43.68,-4.45 -43.32,-4.14 -42.96,-3.85 -42.61,-3.59 -42.25,-3.36 -41.89,-3.14 -41.54,-2.94 -41.18,-2.75 -40.82,-2.58 -40.47,-2.42 -40.11,-2.27 -39.75,-2.14 -39.4,-2.01 -39.04,-1.89 -38.68,-1.78 -38.33,-1.68 -37.97,-1.58 -37.61,-1.49 -37.26,-1.4 -36.9,-1.32 -36.54,-1.25 -36.19,-1.17 -35.83,-1.11 -35.48,-1.04 -35.12,-0.98 -34.76,-0.92 -34.41,-0.87 -34.05,-0.82 -33.69,-0.77 -33.34,-0.72 -32.98,-0.68 -32.62,-0.64 -32.27,-0.6 -31.91,-0.56 -31.55,-0.52 -31.2,-0.49 -30.84,-0.45 -30.48,-0.42 -30.13,-0.39 -29.77,-0.36 -29.41,-0.34 -29.06,-0.31 -28.7,-0.28 -28.34,-0.26 -27.99,-0.24 -27.63,-0.21 -27.28,-0.19 -26.92,-0.17 -26.56,-0.15 -26.21,-0.13 -25.85,-0.11 -25.49,-0.09 -25.14,-0.08 -24.78,-0.06 -24.42,-0.04 -24.07,-0.03 -23.71,-0.01 -23.35,0 -23,0.01 -22.64,0.03 -22.28,0.04 -21.93,0.05 -21.57,0.07 -21.21,0.08 -20.86,0.09 -20.5,0.1 -20.14,0.11 -19.79,0.12 -19.43,0.13 -19.07,0.14 -18.72,0.15 -18.36,0.16 -18.01,0.17 -17.65,0.18 -17.29,0.19 -16.94,0.19 -16.58,0.2 -16.22,0.21 -15.87,0.22 -15.51,0.22 -15.15,0.23 -14.8,0.24 -14.44,0.24 -14.08,0.25 -13.73,0.26 -13.37,0.26 -13.01,0.27 -12.66,0.27 -12.3,0.28 -11.94,0.29 -11.59,0.29 -11.23,0.3 -10.87,0.3 -10.52,0.31 -10.16,0.31 -9.8,0.32 -9.45,0.32 -9.09,0.33 -8.74,0.33 -8.38,0.33 -8.02,0.34 -7.67,0.34 -7.31,0.35 -6.95,0.35 -6.6,0.35 -6.24,0.36 -5.88,0.36 -5.53,0.36 -5.17,0.37 -4.81,0.37 -4.46,0.37 -4.1,0.38 -3.74,0.38 -3.39,0.38 -3.03,0.39 -2.67,0.39 -2.32,0.39 -1.96,0.4 -1.6,0.4 -1.25,0.4 -0.89,0.4 -0.53,0.41 -0.18,0.41 0.18,0.41 0.53,0.41 0.89,0.42 1.25,0.42 1.6,0.42 1.96,0.42 2.32,0.42 2.67,0.43 3.03,0.43 3.39,0.43 3.74,0.43 4.1,0.43 4.46,0.44 4.81,0.44 5.17,0.44 5.53,0.44 5.88,0.44 6.24,0.45 6.6,0.45 6.95,0.45 7.31,0.45 7.67,0.45 8.02,0.45 8.38,0.46 8.74,0.46 9.09,0.46 9.45,0.46 9.8,0.46 10.16,0.46 10.52,0.46 10.87,0.47 11.23,0.47 11.59,0.47 11.94,0.47 12.3,0.47 12.66,0.47 13.01,0.47 13.37,0.47 13.73,0.48 14.08,0.48 14.44,0.48 14.8,0.48 15.15,0.48 15.51,0.48 15.87,0.48 16.22,0.48 16.58,0.48 16.94,0.48 17.29,0.49 17.65,0.49 18.01,0.49 18.36,0.49 18.72,0.49 19.07,0.49 19.43,0.49 19.79,0.49 20.14,0.49 20.5,0.49 20.86,0.49 21.21,0.5 21.57,0.5 21.93,0.5 22.28,0.5 22.64,0.5 23,0.5 23.35,0.5 23.71,0.5 24.07,0.5 24.42,0.5 24.78,0.5 25.14,0.5 25.49,0.5 25.85,0.5 26.21,0.5 26.56,0.51 26.92,0.51 27.28,0.51 27.63,0.51 27.99,0.51 28.34,0.51 28.7,0.51 29.06,0.51 29.41,0.51 29.77,0.51 30.13,0.51 30.48,0.51 30.84,0.51 31.2,0.51 31.55,0.51 31.91,0.51 32.27,0.51 32.62,0.51 32.98,0.51 33.34,0.52 33.69,0.52 34.05,0.52 34.41,0.52 34.76,0.52 35.12,0.52 35.48,0.52 35.83,0.52 36.19,0.52 36.54,0.52 36.9,0.52 37.26,0.52 37.61,0.52 37.97,0.52 38.33,0.52 38.68,0.52 39.04,0.52 39.4,0.52 39.75,0.52 40.11,0.52 40.47,0.52 40.82,0.52 41.18,0.52 41.54,0.52 41.89,0.52 42.25,0.52 42.61,0.52 42.96,0.52 43.32,0.52 43.68,0.52 44.03,0.52 44.39,0.52 " class="primitive"/>
          </g>
          <g transform="translate(80.63,74.91)" id="img-126b007b-39" stroke-dasharray="none" class="color_f3" stroke="#FF6DAE">
            <path fill="none" d="M-44.39,-28.68 L-44.03,-27.3 -43.68,-26.02 -43.32,-24.81 -42.96,-23.69 -42.61,-22.63 -42.25,-21.64 -41.89,-20.71 -41.54,-19.82 -41.18,-18.99 -40.82,-18.2 -40.47,-17.45 -40.11,-16.74 -39.75,-16.07 -39.4,-15.43 -39.04,-14.82 -38.68,-14.23 -38.33,-13.68 -37.97,-13.14 -37.61,-12.64 -37.26,-12.15 -36.9,-11.68 -36.54,-11.23 -36.19,-10.8 -35.83,-10.39 -35.48,-9.99 -35.12,-9.61 -34.76,-9.24 -34.41,-8.89 -34.05,-8.55 -33.69,-8.22 -33.34,-7.9 -32.98,-7.59 -32.62,-7.29 -32.27,-7.01 -31.91,-6.73 -31.55,-6.46 -31.2,-6.2 -30.84,-5.95 -30.48,-5.7 -30.13,-5.47 -29.77,-5.24 -29.41,-5.01 -29.06,-4.8 -28.7,-4.59 -28.34,-4.38 -27.99,-4.18 -27.63,-3.99 -27.28,-3.8 -26.92,-3.62 -26.56,-3.44 -26.21,-3.27 -25.85,-3.1 -25.49,-2.94 -25.14,-2.78 -24.78,-2.62 -24.42,-2.47 -24.07,-2.32 -23.71,-2.18 -23.35,-2.03 -23,-1.9 -22.64,-1.76 -22.28,-1.63 -21.93,-1.5 -21.57,-1.38 -21.21,-1.25 -20.86,-1.13 -20.5,-1.02 -20.14,-0.9 -19.79,-0.79 -19.43,-0.68 -19.07,-0.57 -18.72,-0.47 -18.36,-0.36 -18.01,-0.26 -17.65,-0.16 -17.29,-0.07 -16.94,0.03 -16.58,0.12 -16.22,0.21 -15.87,0.3 -15.51,0.39 -15.15,0.47 -14.8,0.56 -14.44,0.64 -14.08,0.72 -13.73,0.8 -13.37,0.88 -13.01,0.95 -12.66,1.03 -12.3,1.1 -11.94,1.17 -11.59,1.24 -11.23,1.31 -10.87,1.38 -10.52,1.45 -10.16,1.51 -9.8,1.58 -9.45,1.64 -9.09,1.7 -8.74,1.76 -8.38,1.82 -8.02,1.88 -7.67,1.94 -7.31,2 -6.95,2.06 -6.6,2.11 -6.24,2.17 -5.88,2.22 -5.53,2.27 -5.17,2.32 -4.81,2.37 -4.46,2.42 -4.1,2.47 -3.74,2.52 -3.39,2.57 -3.03,2.62 -2.67,2.66 -2.32,2.71 -1.96,2.75 -1.6,2.8 -1.25,2.84 -0.89,2.88 -0.53,2.93 -0.18,2.97 0.18,3.01 0.53,3.05 0.89,3.09 1.25,3.13 1.6,3.16 1.96,3.2 2.32,3.24 2.67,3.28 3.03,3.31 3.39,3.35 3.74,3.38 4.1,3.42 4.46,3.45 4.81,3.49 5.17,3.52 5.53,3.55 5.88,3.58 6.24,3.62 6.6,3.65 6.95,3.68 7.31,3.71 7.67,3.74 8.02,3.77 8.38,3.8 8.74,3.83 9.09,3.85 9.45,3.88 9.8,3.91 10.16,3.94 10.52,3.96 10.87,3.99 11.23,4.02 11.59,4.04 11.94,4.07 12.3,4.09 12.66,4.12 13.01,4.14 13.37,4.17 13.73,4.19 14.08,4.21 14.44,4.24 14.8,4.26 15.15,4.28 15.51,4.3 15.87,4.32 16.22,4.35 16.58,4.37 16.94,4.39 17.29,4.41 17.65,4.43 18.01,4.45 18.36,4.47 18.72,4.49 19.07,4.51 19.43,4.53 19.79,4.55 20.14,4.57 20.5,4.58 20.86,4.6 21.21,4.62 21.57,4.64 21.93,4.66 22.28,4.67 22.64,4.69 23,4.71 23.35,4.72 23.71,4.74 24.07,4.76 24.42,4.77 24.78,4.79 25.14,4.8 25.49,4.82 25.85,4.83 26.21,4.85 26.56,4.86 26.92,4.88 27.28,4.89 27.63,4.91 27.99,4.92 28.34,4.94 28.7,4.95 29.06,4.96 29.41,4.98 29.77,4.99 30.13,5 30.48,5.02 30.84,5.03 31.2,5.04 31.55,5.05 31.91,5.07 32.27,5.08 32.62,5.09 32.98,5.1 33.34,5.11 33.69,5.12 34.05,5.14 34.41,5.15 34.76,5.16 35.12,5.17 35.48,5.18 35.83,5.19 36.19,5.2 36.54,5.21 36.9,5.22 37.26,5.23 37.61,5.24 37.97,5.25 38.33,5.26 38.68,5.27 39.04,5.28 39.4,5.29 39.75,5.3 40.11,5.31 40.47,5.32 40.82,5.33 41.18,5.33 41.54,5.34 41.89,5.35 42.25,5.36 42.61,5.37 42.96,5.38 43.32,5.38 43.68,5.39 44.03,5.4 44.39,5.41 " class="primitive"/>
          </g>
          <g transform="translate(80.63,74.73)" id="img-126b007b-40" stroke-dasharray="none" class="color_f4" stroke="#00B78D">
            <path fill="none" d="M-44.39,-29.86 L-44.03,-28.43 -43.68,-27.09 -43.32,-25.85 -42.96,-24.68 -42.61,-23.58 -42.25,-22.55 -41.89,-21.58 -41.54,-20.66 -41.18,-19.79 -40.82,-18.97 -40.47,-18.2 -40.11,-17.46 -39.75,-16.75 -39.4,-16.08 -39.04,-15.45 -38.68,-14.84 -38.33,-14.26 -37.97,-13.7 -37.61,-13.17 -37.26,-12.66 -36.9,-12.18 -36.54,-11.71 -36.19,-11.26 -35.83,-10.83 -35.48,-10.42 -35.12,-10.02 -34.76,-9.63 -34.41,-9.26 -34.05,-8.91 -33.69,-8.56 -33.34,-8.23 -32.98,-7.91 -32.62,-7.6 -32.27,-7.3 -31.91,-7.01 -31.55,-6.73 -31.2,-6.46 -30.84,-6.19 -30.48,-5.94 -30.13,-5.69 -29.77,-5.45 -29.41,-5.22 -29.06,-4.99 -28.7,-4.77 -28.34,-4.56 -27.99,-4.35 -27.63,-4.15 -27.28,-3.95 -26.92,-3.76 -26.56,-3.57 -26.21,-3.39 -25.85,-3.22 -25.49,-3.05 -25.14,-2.88 -24.78,-2.71 -24.42,-2.56 -24.07,-2.4 -23.71,-2.25 -23.35,-2.1 -23,-1.96 -22.64,-1.82 -22.28,-1.68 -21.93,-1.55 -21.57,-1.41 -21.21,-1.29 -20.86,-1.16 -20.5,-1.04 -20.14,-0.92 -19.79,-0.8 -19.43,-0.69 -19.07,-0.57 -18.72,-0.47 -18.36,-0.36 -18.01,-0.25 -17.65,-0.15 -17.29,-0.05 -16.94,0.05 -16.58,0.15 -16.22,0.24 -15.87,0.33 -15.51,0.42 -15.15,0.51 -14.8,0.6 -14.44,0.69 -14.08,0.77 -13.73,0.85 -13.37,0.93 -13.01,1.01 -12.66,1.09 -12.3,1.17 -11.94,1.24 -11.59,1.32 -11.23,1.39 -10.87,1.46 -10.52,1.53 -10.16,1.6 -9.8,1.67 -9.45,1.73 -9.09,1.8 -8.74,1.86 -8.38,1.92 -8.02,1.98 -7.67,2.04 -7.31,2.1 -6.95,2.16 -6.6,2.22 -6.24,2.28 -5.88,2.33 -5.53,2.39 -5.17,2.44 -4.81,2.49 -4.46,2.55 -4.1,2.6 -3.74,2.65 -3.39,2.7 -3.03,2.74 -2.67,2.79 -2.32,2.84 -1.96,2.89 -1.6,2.93 -1.25,2.98 -0.89,3.02 -0.53,3.06 -0.18,3.11 0.18,3.15 0.53,3.19 0.89,3.23 1.25,3.27 1.6,3.31 1.96,3.35 2.32,3.39 2.67,3.43 3.03,3.46 3.39,3.5 3.74,3.54 4.1,3.57 4.46,3.61 4.81,3.64 5.17,3.68 5.53,3.71 5.88,3.74 6.24,3.78 6.6,3.81 6.95,3.84 7.31,3.87 7.67,3.9 8.02,3.93 8.38,3.96 8.74,3.99 9.09,4.02 9.45,4.05 9.8,4.08 10.16,4.11 10.52,4.13 10.87,4.16 11.23,4.19 11.59,4.21 11.94,4.24 12.3,4.27 12.66,4.29 13.01,4.32 13.37,4.34 13.73,4.37 14.08,4.39 14.44,4.41 14.8,4.44 15.15,4.46 15.51,4.48 15.87,4.5 16.22,4.53 16.58,4.55 16.94,4.57 17.29,4.59 17.65,4.61 18.01,4.63 18.36,4.65 18.72,4.67 19.07,4.69 19.43,4.71 19.79,4.73 20.14,4.75 20.5,4.77 20.86,4.79 21.21,4.81 21.57,4.82 21.93,4.84 22.28,4.86 22.64,4.88 23,4.89 23.35,4.91 23.71,4.93 24.07,4.94 24.42,4.96 24.78,4.97 25.14,4.99 25.49,5.01 25.85,5.02 26.21,5.04 26.56,5.05 26.92,5.07 27.28,5.08 27.63,5.09 27.99,5.11 28.34,5.12 28.7,5.14 29.06,5.15 29.41,5.16 29.77,5.18 30.13,5.19 30.48,5.2 30.84,5.22 31.2,5.23 31.55,5.24 31.91,5.25 32.27,5.26 32.62,5.28 32.98,5.29 33.34,5.3 33.69,5.31 34.05,5.32 34.41,5.33 34.76,5.34 35.12,5.35 35.48,5.37 35.83,5.38 36.19,5.39 36.54,5.4 36.9,5.41 37.26,5.42 37.61,5.43 37.97,5.44 38.33,5.45 38.68,5.45 39.04,5.46 39.4,5.47 39.75,5.48 40.11,5.49 40.47,5.5 40.82,5.51 41.18,5.52 41.54,5.53 41.89,5.53 42.25,5.54 42.61,5.55 42.96,5.56 43.32,5.57 43.68,5.57 44.03,5.58 44.39,5.59 " class="primitive"/>
          </g>
          <g transform="translate(80.63,74.2)" id="img-126b007b-41" stroke-dasharray="none" class="color_f5" stroke="#BEA9FF">
            <path fill="none" d="M-44.39,-28.77 L-44.03,-27.43 -43.68,-26.17 -43.32,-25 -42.96,-23.91 -42.61,-22.87 -42.25,-21.9 -41.89,-20.99 -41.54,-20.13 -41.18,-19.31 -40.82,-18.54 -40.47,-17.8 -40.11,-17.11 -39.75,-16.44 -39.4,-15.81 -39.04,-15.21 -38.68,-14.63 -38.33,-14.09 -37.97,-13.56 -37.61,-13.06 -37.26,-12.58 -36.9,-12.11 -36.54,-11.67 -36.19,-11.24 -35.83,-10.83 -35.48,-10.44 -35.12,-10.06 -34.76,-9.69 -34.41,-9.34 -34.05,-9 -33.69,-8.67 -33.34,-8.36 -32.98,-8.05 -32.62,-7.75 -32.27,-7.47 -31.91,-7.19 -31.55,-6.92 -31.2,-6.66 -30.84,-6.4 -30.48,-6.16 -30.13,-5.92 -29.77,-5.69 -29.41,-5.46 -29.06,-5.25 -28.7,-5.03 -28.34,-4.83 -27.99,-4.63 -27.63,-4.43 -27.28,-4.24 -26.92,-4.05 -26.56,-3.87 -26.21,-3.7 -25.85,-3.53 -25.49,-3.36 -25.14,-3.2 -24.78,-3.04 -24.42,-2.88 -24.07,-2.73 -23.71,-2.58 -23.35,-2.43 -23,-2.29 -22.64,-2.15 -22.28,-2.02 -21.93,-1.89 -21.57,-1.76 -21.21,-1.63 -20.86,-1.51 -20.5,-1.38 -20.14,-1.27 -19.79,-1.15 -19.43,-1.03 -19.07,-0.92 -18.72,-0.81 -18.36,-0.71 -18.01,-0.6 -17.65,-0.5 -17.29,-0.4 -16.94,-0.3 -16.58,-0.2 -16.22,-0.1 -15.87,-0.01 -15.51,0.08 -15.15,0.17 -14.8,0.26 -14.44,0.35 -14.08,0.43 -13.73,0.52 -13.37,0.6 -13.01,0.68 -12.66,0.76 -12.3,0.84 -11.94,0.92 -11.59,0.99 -11.23,1.07 -10.87,1.14 -10.52,1.21 -10.16,1.29 -9.8,1.36 -9.45,1.42 -9.09,1.49 -8.74,1.56 -8.38,1.62 -8.02,1.69 -7.67,1.75 -7.31,1.82 -6.95,1.88 -6.6,1.94 -6.24,2 -5.88,2.06 -5.53,2.12 -5.17,2.17 -4.81,2.23 -4.46,2.29 -4.1,2.34 -3.74,2.39 -3.39,2.45 -3.03,2.5 -2.67,2.55 -2.32,2.6 -1.96,2.65 -1.6,2.7 -1.25,2.75 -0.89,2.8 -0.53,2.85 -0.18,2.9 0.18,2.94 0.53,2.99 0.89,3.03 1.25,3.08 1.6,3.12 1.96,3.17 2.32,3.21 2.67,3.25 3.03,3.3 3.39,3.34 3.74,3.38 4.1,3.42 4.46,3.46 4.81,3.5 5.17,3.54 5.53,3.58 5.88,3.61 6.24,3.65 6.6,3.69 6.95,3.73 7.31,3.76 7.67,3.8 8.02,3.83 8.38,3.87 8.74,3.9 9.09,3.94 9.45,3.97 9.8,4.01 10.16,4.04 10.52,4.07 10.87,4.1 11.23,4.14 11.59,4.17 11.94,4.2 12.3,4.23 12.66,4.26 13.01,4.29 13.37,4.32 13.73,4.35 14.08,4.38 14.44,4.41 14.8,4.44 15.15,4.47 15.51,4.5 15.87,4.53 16.22,4.55 16.58,4.58 16.94,4.61 17.29,4.64 17.65,4.66 18.01,4.69 18.36,4.71 18.72,4.74 19.07,4.77 19.43,4.79 19.79,4.82 20.14,4.84 20.5,4.87 20.86,4.89 21.21,4.91 21.57,4.94 21.93,4.96 22.28,4.99 22.64,5.01 23,5.03 23.35,5.06 23.71,5.08 24.07,5.1 24.42,5.12 24.78,5.15 25.14,5.17 25.49,5.19 25.85,5.21 26.21,5.23 26.56,5.25 26.92,5.27 27.28,5.29 27.63,5.31 27.99,5.34 28.34,5.36 28.7,5.38 29.06,5.4 29.41,5.42 29.77,5.43 30.13,5.45 30.48,5.47 30.84,5.49 31.2,5.51 31.55,5.53 31.91,5.55 32.27,5.57 32.62,5.59 32.98,5.6 33.34,5.62 33.69,5.64 34.05,5.66 34.41,5.67 34.76,5.69 35.12,5.71 35.48,5.73 35.83,5.74 36.19,5.76 36.54,5.78 36.9,5.79 37.26,5.81 37.61,5.83 37.97,5.84 38.33,5.86 38.68,5.87 39.04,5.89 39.4,5.91 39.75,5.92 40.11,5.94 40.47,5.95 40.82,5.97 41.18,5.98 41.54,6 41.89,6.01 42.25,6.03 42.61,6.04 42.96,6.06 43.32,6.07 43.68,6.09 44.03,6.1 44.39,6.11 " class="primitive"/>
          </g>
        </g>
      </g>
    </g>
  </g>
  <g class="guide ylabels" font-size="2.82" font-family="'PT Sans Caption','Helvetica Neue','Helvetica',sans-serif" fill="#6C606B" id="img-126b007b-42">
    <g transform="translate(23.38,80.31)" id="img-126b007b-43">
      <g class="primitive">
        <text text-anchor="end" dy="0.35em">0</text>
      </g>
    </g>
    <g transform="translate(23.38,61.99)" id="img-126b007b-44">
      <g class="primitive">
        <text text-anchor="end" dy="0.35em">1×10³</text>
      </g>
    </g>
    <g transform="translate(23.38,43.66)" id="img-126b007b-45">
      <g class="primitive">
        <text text-anchor="end" dy="0.35em">2×10³</text>
      </g>
    </g>
    <g transform="translate(23.38,25.33)" id="img-126b007b-46">
      <g class="primitive">
        <text text-anchor="end" dy="0.35em">3×10³</text>
      </g>
    </g>
    <g transform="translate(23.38,7)" id="img-126b007b-47">
      <g class="primitive">
        <text text-anchor="end" dy="0.35em">4×10³</text>
      </g>
    </g>
  </g>
  <g font-size="3.88" font-family="'PT Sans','Helvetica Neue','Helvetica',sans-serif" fill="#564A55" stroke="#000000" stroke-opacity="0.000" id="img-126b007b-48">
    <g transform="translate(8.81,41.66)" id="img-126b007b-49">
      <g class="primitive">
        <text text-anchor="middle" dy="0.35em" transform="rotate(-90,0, 2)">Intensity (arb)</text>
      </g>
    </g>
  </g>
</g>
<defs>
  <clipPath id="img-126b007b-19">
    <path d="M24.38,5 L127.02,5 127.02,82.32 24.38,82.32 " />
  </clipPath>
</defs>
</svg>
