<?xml version="1.0" encoding="UTF-8"?>
<svg xmlns="http://www.w3.org/2000/svg"
     xmlns:xlink="http://www.w3.org/1999/xlink"
     xmlns:gadfly="http://www.gadflyjl.org/ns"
     version="1.2"
     width="152.4mm" height="101.6mm" viewBox="0 0 152.4 101.6"
     stroke="none"
     fill="#000000"
     stroke-width="0.3"
     font-size="3.88"
>
<defs>
  <marker id="arrow" markerWidth="15" markerHeight="7" refX="5" refY="3.5" orient="auto" markerUnits="strokeWidth">
    <path d="M0,0 L15,3.5 L0,7 z" stroke="context-stroke" fill="context-stroke"/>
  </marker>
</defs>
<g class="plotroot xscalable yscalable" id="img-fd8b6d05-1">
  <g font-size="3.88" font-family="'PT Sans','Helvetica Neue','Helvetica',sans-serif" fill="#564A55" stroke="#000000" stroke-opacity="0.000" id="img-fd8b6d05-2">
    <g transform="translate(75.09,89.99)">
      <g class="primitive">
        <text text-anchor="middle" dy="0.6em">Energy (eV)</text>
      </g>
    </g>
  </g>
  <g class="guide xlabels" font-size="2.82" font-family="'PT Sans Caption','Helvetica Neue','Helvetica',sans-serif" fill="#6C606B" id="img-fd8b6d05-3">
    <g transform="translate(21.63,83.32)">
      <g class="primitive">
        <text text-anchor="middle" dy="0.6em">0</text>
      </g>
    </g>
    <g transform="translate(48.36,83.32)">
      <g class="primitive">
        <text text-anchor="middle" dy="0.6em">5.0×10³</text>
      </g>
    </g>
    <g transform="translate(75.09,83.32)">
      <g class="primitive">
        <text text-anchor="middle" dy="0.6em">1.0×10⁴</text>
      </g>
    </g>
    <g transform="translate(101.81,83.32)">
      <g class="primitive">
        <text text-anchor="middle" dy="0.6em">1.5×10⁴</text>
      </g>
    </g>
    <g transform="translate(128.54,83.32)">
      <g class="primitive">
        <text text-anchor="middle" dy="0.6em">2.0×10⁴</text>
      </g>
    </g>
  </g>
  <g class="guide colorkey" id="img-fd8b6d05-4">
    <g fill="#4C404B" font-size="2.82" font-family="'PT Sans','Helvetica Neue','Helvetica',sans-serif" id="img-fd8b6d05-5">
      <g transform="translate(134.35,38.22)" id="img-fd8b6d05-6" class="color_f1">
        <g class="primitive">
          <text dy="0.35em">Na</text>
        </g>
      </g>
      <g transform="translate(134.35,41.84)" id="img-fd8b6d05-7" class="color_f2">
        <g class="primitive">
          <text dy="0.35em">Al</text>
        </g>
      </g>
      <g transform="translate(134.35,45.47)" id="img-fd8b6d05-8" class="color_f3">
        <g class="primitive">
          <text dy="0.35em">Si</text>
        </g>
      </g>
      <g transform="translate(134.35,49.1)" id="img-fd8b6d05-9" class="color_f4">
        <g class="primitive">
          <text dy="0.35em">O</text>
        </g>
      </g>
      <g transform="translate(134.35,52.72)" id="img-fd8b6d05-10" class="color_f5">
        <g class="primitive">
          <text dy="0.35em">NaAlSi3O8</text>
        </g>
      </g>
    </g>
    <g fill-opacity="1" id="img-fd8b6d05-11">
      <g transform="translate(132.45,38.22)" id="img-fd8b6d05-12" class="color_f1" fill="#00BFFF" stroke="#FFFFFF">
        <path d="M-0.91,-0.91 L 0.91 -0.91 0.91 0.91 -0.91 0.91 z" class="primitive"/>
      </g>
      <g transform="translate(132.45,41.84)" id="img-fd8b6d05-13" class="color_f2" fill="#D4CA3A" stroke="#FFFFFF">
        <path d="M-0.91,-0.91 L 0.91 -0.91 0.91 0.91 -0.91 0.91 z" class="primitive"/>
      </g>
      <g transform="translate(132.45,45.47)" id="img-fd8b6d05-14" class="color_f3" fill="#FF6DAE" stroke="#FFFFFF">
        <path d="M-0.91,-0.91 L 0.91 -0.91 0.91 0.91 -0.91 0.91 z" class="primitive"/>
      </g>
      <g transform="translate(132.45,49.1)" id="img-fd8b6d05-15" class="color_f4" fill="#00B78D" stroke="#FFFFFF">
        <path d="M-0.91,-0.91 L 0.91 -0.91 0.91 0.91 -0.91 0.91 z" class="primitive"/>
      </g>
      <g transform="translate(132.45,52.72)" id="img-fd8b6d05-16" class="color_f5" fill="#BEA9FF" stroke="#FFFFFF">
        <path d="M-0.91,-0.91 L 0.91 -0.91 0.91 0.91 -0.91 0.91 z" class="primitive"/>
      </g>
    </g>
    <g fill="#362A35" font-size="3.88" font-family="'PT Sans','Helvetica Neue','Helvetica',sans-serif" stroke="#000000" stroke-opacity="0.000" id="img-fd8b6d05-17">
      <g transform="translate(131.54,34.4)" id="img-fd8b6d05-18">
        <g class="primitive">
          <text dy="-0em">Material</text>
        </g>
      </g>
    </g>
  </g>
  <g clip-path="url(#img-fd8b6d05-19)">
    <g id="img-fd8b6d05-20">
      <g pointer-events="visible" stroke-width="0.3" fill="#000000" fill-opacity="0.000" stroke="#000000" stroke-opacity="0.000" class="guide background" id="img-fd8b6d05-21">
        <g transform="translate(75.09,43.66)" id="img-fd8b6d05-22">
          <path d="M-55.45,-38.66 L 55.45 -38.66 55.45 38.66 -55.45 38.66 z" class="primitive"/>
        </g>
      </g>
      <g class="guide ygridlines xfixed" stroke-dasharray="0.5,0.5" stroke-width="0.2" stroke="#D0D0E0" id="img-fd8b6d05-23">
        <g transform="translate(75.09,80.32)" id="img-fd8b6d05-24">
          <path fill="none" d="M-55.45,0 L 55.45 0" class="primitive"/>
        </g>
        <g transform="translate(75.09,55.88)" id="img-fd8b6d05-25">
          <path fill="none" d="M-55.45,0 L 55.45 0" class="primitive"/>
        </g>
        <g transform="translate(75.09,31.44)" id="img-fd8b6d05-26">
          <path fill="none" d="M-55.45,0 L 55.45 0" class="primitive"/>
        </g>
        <g transform="translate(75.09,7)" id="img-fd8b6d05-27">
          <path fill="none" d="M-55.45,0 L 55.45 0" class="primitive"/>
        </g>
      </g>
      <g class="guide xgridlines yfixed" stroke-dasharray="0.5,0.5" stroke-width="0.2" stroke="#D0D0E0" id="img-fd8b6d05-28">
        <g transform="translate(21.63,43.66)" id="img-fd8b6d05-29">
          <path fill="none" d="M0,-38.66 L 0 38.66" class="primitive"/>
        </g>
        <g transform="translate(48.36,43.66)" id="img-fd8b6d05-30">
          <path fill="none" d="M0,-38.66 L 0 38.66" class="primitive"/>
        </g>
        <g transform="translate(75.09,43.66)" id="img-fd8b6d05-31">
          <path fill="none" d="M0,-38.66 L 0 38.66" class="primitive"/>
        </g>
        <g transform="translate(101.81,43.66)" id="img-fd8b6d05-32">
          <path fill="none" d="M0,-38.66 L 0 38.66" class="primitive"/>
        </g>
        <g transform="translate(128.54,43.66)" id="img-fd8b6d05-33">
          <path fill="none" d="M0,-38.66 L 0 38.66" class="primitive"/>
        </g>
      </g>
      <g class="plotpanel" id="img-fd8b6d05-34">
        <metadata>
          <boundingbox value="19.63166666666666mm 5.0mm 110.90833333333332mm 77.315mm"/>
          <unitbox value="-374.1523111700055 154.09193207392758 20748.304622340012 -158.18386414785516"/>
        </metadata>
        <g stroke-width="0.3" fill="#000000" fill-opacity="0.000" class="geometry" id="img-fd8b6d05-35">
          <g transform="translate(80.43,71.87)" id="img-fd8b6d05-36" stroke-dasharray="none" class="color_f1" stroke="#00BFFF">
            <path fill="none" d="M-48.11,-39.95 L -47.72 -38.07 -47.34 -36.32 -46.95 -34.69 -46.56 -33.15 -46.18 -31.72 -45.79 -30.36 -45.4 -29.09 -45.02 -27.89 -44.63 -26.75 -44.24 -25.67 -43.86 -24.65 -43.47 -23.68 -43.09 -22.76 -42.7 -21.88 -42.31 -21.04 -41.93 -20.25 -41.54 -19.48 -41.15 -18.75 -40.77 -18.06 -40.38 -17.39 -39.99 -16.75 -39.61 -16.13 -39.22 -15.54 -38.83 -14.97 -38.45 -14.42 -38.06 -13.9 -37.68 -13.39 -37.29 -12.9 -36.9 -12.43 -36.52 -11.98 -36.13 -11.54 -35.74 -11.11 -35.36 -10.7 -34.97 -10.3 -34.58 -9.92 -34.2 -9.54 -33.81 -9.18 -33.42 -8.83 -33.04 -8.49 -32.65 -8.16 -32.27 -7.84 -31.88 -7.53 -31.49 -7.23 -31.11 -6.94 -30.72 -6.65 -30.33 -6.37 -29.95 -6.1 -29.56 -5.84 -29.17 -5.58 -28.79 -5.33 -28.4 -5.09 -28.02 -4.85 -27.63 -4.62 -27.24 -4.39 -26.86 -4.17 -26.47 -3.96 -26.08 -3.75 -25.7 -3.54 -25.31 -3.34 -24.92 -3.15 -24.54 -2.96 -24.15 -2.77 -23.76 -2.59 -23.38 -2.41 -22.99 -2.23 -22.61 -2.06 -22.22 -1.89 -21.83 -1.73 -21.45 -1.57 -21.06 -1.41 -20.67 -1.26 -20.29 -1.11 -19.9 -0.96 -19.51 -0.81 -19.13 -0.67 -18.74 -0.53 -18.35 -0.39 -17.97 -0.26 -17.58 -0.13 -17.2 0 -16.81 0.13 -16.42 0.26 -16.04 0.38 -15.65 0.5 -15.26 0.62 -14.88 0.73 -14.49 0.85 -14.1 0.96 -13.72 1.07 -13.33 1.18 -12.94 1.28 -12.56 1.39 -12.17 1.49 -11.79 1.59 -11.4 1.69 -11.01 1.79 -10.63 1.89 -10.24 1.98 -9.85 2.08 -9.47 2.17 -9.08 2.26 -8.69 2.35 -8.31 2.44 -7.92 2.52 -7.54 2.61 -7.15 2.69 -6.76 2.77 -6.38 2.85 -5.99 2.94 -5.6 3.01 -5.22 3.09 -4.83 3.17 -4.44 3.24 -4.06 3.32 -3.67 3.39 -3.28 3.47 -2.9 3.54 -2.51 3.61 -2.13 3.68 -1.74 3.75 -1.35 3.81 -0.97 3.88 -0.58 3.95 -0.19 4.01 0.19 4.08 0.58 4.14 0.97 4.2 1.35 4.26 1.74 4.32 2.13 4.38 2.51 4.44 2.9 4.5 3.28 4.56 3.67 4.62 4.06 4.67 4.44 4.73 4.83 4.79 5.22 4.84 5.6 4.89 5.99 4.95 6.38 5 6.76 5.05 7.15 5.1 7.54 5.15 7.92 5.2 8.31 5.25 8.69 5.3 9.08 5.35 9.47 5.4 9.85 5.45 10.24 5.49 10.63 5.54 11.01 5.59 11.4 5.63 11.79 5.68 12.17 5.72 12.56 5.76 12.94 5.81 13.33 5.85 13.72 5.89 14.1 5.93 14.49 5.98 14.88 6.02 15.26 6.06 15.65 6.1 16.04 6.14 16.42 6.18 16.81 6.22 17.2 6.26 17.58 6.29 17.97 6.33 18.35 6.37 18.74 6.41 19.13 6.44 19.51 6.48 19.9 6.52 20.29 6.55 20.67 6.59 21.06 6.62 21.45 6.66 21.83 6.69 22.22 6.72 22.61 6.76 22.99 6.79 23.38 6.82 23.76 6.86 24.15 6.89 24.54 6.92 24.92 6.95 25.31 6.99 25.7 7.02 26.08 7.05 26.47 7.08 26.86 7.11 27.24 7.14 27.63 7.17 28.02 7.2 28.4 7.23 28.79 7.26 29.17 7.29 29.56 7.31 29.95 7.34 30.33 7.37 30.72 7.4 31.11 7.43 31.49 7.45 31.88 7.48 32.27 7.51 32.65 7.53 33.04 7.56 33.42 7.59 33.81 7.61 34.2 7.64 34.58 7.66 34.97 7.69 35.36 7.71 35.74 7.74 36.13 7.76 36.52 7.79 36.9 7.81 37.29 7.84 37.68 7.86 38.06 7.89 38.45 7.91 38.83 7.93 39.22 7.96 39.61 7.98 39.99 8 40.38 8.02 40.77 8.05 41.15 8.07 41.54 8.09 41.93 8.11 42.31 8.13 42.7 8.16 43.09 8.18 43.47 8.2 43.86 8.22 44.24 8.24 44.63 8.26 45.02 8.28 45.4 8.3 45.79 8.32 46.18 8.34 46.56 8.36 46.95 8.38 47.34 8.4 47.72 8.42 48.11 8.44" class="primitive"/>
          </g>
          <g transform="translate(80.43,70.34)" id="img-fd8b6d05-37" stroke-dasharray="none" class="color_f2" stroke="#D4CA3A">
            <path fill="none" d="M-48.11,-47.21 L -47.72 -44.99 -47.34 -42.92 -46.95 -40.99 -46.56 -39.18 -46.18 -37.48 -45.79 -35.88 -45.4 -34.38 -45.02 -32.96 -44.63 -31.61 -44.24 -30.34 -43.86 -29.13 -43.47 -27.99 -43.09 -26.9 -42.7 -25.86 -42.31 -24.87 -41.93 -23.93 -41.54 -23.02 -41.15 -22.16 -40.77 -21.34 -40.38 -20.55 -39.99 -19.79 -39.61 -19.06 -39.22 -18.36 -38.83 -17.69 -38.45 -17.05 -38.06 -16.42 -37.68 -15.83 -37.29 -15.25 -36.9 -14.69 -36.52 -14.15 -36.13 -13.63 -35.74 -13.13 -35.36 -12.65 -34.97 -12.18 -34.58 -11.72 -34.2 -11.28 -33.81 -10.85 -33.42 -10.44 -33.04 -10.04 -32.65 -9.65 -32.27 -9.27 -31.88 -8.9 -31.49 -8.54 -31.11 -8.2 -30.72 -7.86 -30.33 -7.53 -29.95 -7.21 -29.56 -6.9 -29.17 -6.6 -28.79 -6.3 -28.4 -6.01 -28.02 -5.73 -27.63 -5.46 -27.24 -5.19 -26.86 -4.93 -26.47 -4.68 -26.08 -4.43 -25.7 -4.19 -25.31 -3.95 -24.92 -3.72 -24.54 -3.49 -24.15 -3.27 -23.76 -3.06 -23.38 -2.85 -22.99 -2.64 -22.61 -2.44 -22.22 -2.24 -21.83 -2.04 -21.45 -1.85 -21.06 -1.67 -20.67 -1.49 -20.29 -1.31 -19.9 -1.13 -19.51 -0.96 -19.13 -0.79 -18.74 -0.63 -18.35 -0.46 -17.97 -0.3 -17.58 -0.15 -17.2 0 -16.81 0.15 -16.42 0.3 -16.04 0.45 -15.65 0.59 -15.26 0.73 -14.88 0.87 -14.49 1 -14.1 1.13 -13.72 1.26 -13.33 1.39 -12.94 1.52 -12.56 1.64 -12.17 1.76 -11.79 1.88 -11.4 2 -11.01 2.12 -10.63 2.23 -10.24 2.34 -9.85 2.45 -9.47 2.56 -9.08 2.67 -8.69 2.77 -8.31 2.88 -7.92 2.98 -7.54 3.08 -7.15 3.18 -6.76 3.28 -6.38 3.37 -5.99 3.47 -5.6 3.56 -5.22 3.65 -4.83 3.75 -4.44 3.83 -4.06 3.92 -3.67 4.01 -3.28 4.1 -2.9 4.18 -2.51 4.26 -2.13 4.35 -1.74 4.43 -1.35 4.51 -0.97 4.59 -0.58 4.66 -0.19 4.74 0.19 4.82 0.58 4.89 0.97 4.97 1.35 5.04 1.74 5.11 2.13 5.18 2.51 5.25 2.9 5.32 3.28 5.39 3.67 5.46 4.06 5.52 4.44 5.59 4.83 5.66 5.22 5.72 5.6 5.78 5.99 5.85 6.38 5.91 6.76 5.97 7.15 6.03 7.54 6.09 7.92 6.15 8.31 6.21 8.69 6.27 9.08 6.32 9.47 6.38 9.85 6.44 10.24 6.49 10.63 6.55 11.01 6.6 11.4 6.66 11.79 6.71 12.17 6.76 12.56 6.81 12.94 6.86 13.33 6.91 13.72 6.96 14.1 7.01 14.49 7.06 14.88 7.11 15.26 7.16 15.65 7.21 16.04 7.25 16.42 7.3 16.81 7.35 17.2 7.39 17.58 7.44 17.97 7.48 18.35 7.53 18.74 7.57 19.13 7.61 19.51 7.66 19.9 7.7 20.29 7.74 20.67 7.78 21.06 7.83 21.45 7.87 21.83 7.91 22.22 7.95 22.61 7.99 22.99 8.03 23.38 8.07 23.76 8.1 24.15 8.14 24.54 8.18 24.92 8.22 25.31 8.26 25.7 8.29 26.08 8.33 26.47 8.37 26.86 8.4 27.24 8.44 27.63 8.47 28.02 8.51 28.4 8.54 28.79 8.58 29.17 8.61 29.56 8.64 29.95 8.68 30.33 8.71 30.72 8.74 31.11 8.78 31.49 8.81 31.88 8.84 32.27 8.87 32.65 8.9 33.04 8.94 33.42 8.97 33.81 9 34.2 9.03 34.58 9.06 34.97 9.09 35.36 9.12 35.74 9.15 36.13 9.18 36.52 9.2 36.9 9.23 37.29 9.26 37.68 9.29 38.06 9.32 38.45 9.35 38.83 9.37 39.22 9.4 39.61 9.43 39.99 9.46 40.38 9.48 40.77 9.51 41.15 9.54 41.54 9.56 41.93 9.59 42.31 9.61 42.7 9.64 43.09 9.66 43.47 9.69 43.86 9.71 44.24 9.74 44.63 9.76 45.02 9.79 45.4 9.81 45.79 9.84 46.18 9.86 46.56 9.88 46.95 9.91 47.34 9.93 47.72 9.95 48.11 9.98" class="primitive"/>
          </g>
          <g transform="translate(80.43,69.57)" id="img-fd8b6d05-38" stroke-dasharray="none" class="color_f3" stroke="#FF6DAE">
            <path fill="none" d="M-48.11,-50.84 L -47.72 -48.45 -47.34 -46.23 -46.95 -44.15 -46.56 -42.2 -46.18 -40.37 -45.79 -38.64 -45.4 -37.02 -45.02 -35.49 -44.63 -34.04 -44.24 -32.67 -43.86 -31.37 -43.47 -30.14 -43.09 -28.97 -42.7 -27.85 -42.31 -26.78 -41.93 -25.77 -41.54 -24.8 -41.15 -23.87 -40.77 -22.98 -40.38 -22.13 -39.99 -21.31 -39.61 -20.53 -39.22 -19.78 -38.83 -19.05 -38.45 -18.36 -38.06 -17.69 -37.68 -17.04 -37.29 -16.42 -36.9 -15.82 -36.52 -15.24 -36.13 -14.68 -35.74 -14.14 -35.36 -13.62 -34.97 -13.11 -34.58 -12.62 -34.2 -12.15 -33.81 -11.69 -33.42 -11.24 -33.04 -10.81 -32.65 -10.39 -32.27 -9.98 -31.88 -9.59 -31.49 -9.2 -31.11 -8.83 -30.72 -8.46 -30.33 -8.11 -29.95 -7.77 -29.56 -7.43 -29.17 -7.11 -28.79 -6.79 -28.4 -6.48 -28.02 -6.18 -27.63 -5.88 -27.24 -5.59 -26.86 -5.31 -26.47 -5.04 -26.08 -4.77 -25.7 -4.51 -25.31 -4.26 -24.92 -4.01 -24.54 -3.76 -24.15 -3.53 -23.76 -3.29 -23.38 -3.06 -22.99 -2.84 -22.61 -2.62 -22.22 -2.41 -21.83 -2.2 -21.45 -2 -21.06 -1.8 -20.67 -1.6 -20.29 -1.41 -19.9 -1.22 -19.51 -1.03 -19.13 -0.85 -18.74 -0.67 -18.35 -0.5 -17.97 -0.33 -17.58 -0.16 -17.2 0 -16.81 0.17 -16.42 0.33 -16.04 0.48 -15.65 0.63 -15.26 0.78 -14.88 0.93 -14.49 1.08 -14.1 1.22 -13.72 1.36 -13.33 1.5 -12.94 1.63 -12.56 1.77 -12.17 1.9 -11.79 2.03 -11.4 2.15 -11.01 2.28 -10.63 2.4 -10.24 2.52 -9.85 2.64 -9.47 2.76 -9.08 2.87 -8.69 2.99 -8.31 3.1 -7.92 3.21 -7.54 3.32 -7.15 3.42 -6.76 3.53 -6.38 3.63 -5.99 3.74 -5.6 3.84 -5.22 3.94 -4.83 4.03 -4.44 4.13 -4.06 4.22 -3.67 4.32 -3.28 4.41 -2.9 4.5 -2.51 4.59 -2.13 4.68 -1.74 4.77 -1.35 4.85 -0.97 4.94 -0.58 5.02 -0.19 5.11 0.19 5.19 0.58 5.27 0.97 5.35 1.35 5.43 1.74 5.5 2.13 5.58 2.51 5.66 2.9 5.73 3.28 5.8 3.67 5.88 4.06 5.95 4.44 6.02 4.83 6.09 5.22 6.16 5.6 6.23 5.99 6.3 6.38 6.36 6.76 6.43 7.15 6.5 7.54 6.56 7.92 6.62 8.31 6.69 8.69 6.75 9.08 6.81 9.47 6.87 9.85 6.93 10.24 6.99 10.63 7.05 11.01 7.11 11.4 7.17 11.79 7.22 12.17 7.28 12.56 7.34 12.94 7.39 13.33 7.45 13.72 7.5 14.1 7.55 14.49 7.61 14.88 7.66 15.26 7.71 15.65 7.76 16.04 7.81 16.42 7.86 16.81 7.91 17.2 7.96 17.58 8.01 17.97 8.06 18.35 8.11 18.74 8.15 19.13 8.2 19.51 8.25 19.9 8.29 20.29 8.34 20.67 8.38 21.06 8.43 21.45 8.47 21.83 8.52 22.22 8.56 22.61 8.6 22.99 8.64 23.38 8.69 23.76 8.73 24.15 8.77 24.54 8.81 24.92 8.85 25.31 8.89 25.7 8.93 26.08 8.97 26.47 9.01 26.86 9.05 27.24 9.09 27.63 9.12 28.02 9.16 28.4 9.2 28.79 9.24 29.17 9.27 29.56 9.31 29.95 9.34 30.33 9.38 30.72 9.42 31.11 9.45 31.49 9.49 31.88 9.52 32.27 9.55 32.65 9.59 33.04 9.62 33.42 9.66 33.81 9.69 34.2 9.72 34.58 9.75 34.97 9.79 35.36 9.82 35.74 9.85 36.13 9.88 36.52 9.91 36.9 9.94 37.29 9.97 37.68 10.01 38.06 10.04 38.45 10.07 38.83 10.1 39.22 10.12 39.61 10.15 39.99 10.18 40.38 10.21 40.77 10.24 41.15 10.27 41.54 10.3 41.93 10.33 42.31 10.35 42.7 10.38 43.09 10.41 43.47 10.43 43.86 10.46 44.24 10.49 44.63 10.52 45.02 10.54 45.4 10.57 45.79 10.59 46.18 10.62 46.56 10.64 46.95 10.67 47.34 10.7 47.72 10.72 48.11 10.75" class="primitive"/>
          </g>
          <g transform="translate(80.43,74.17)" id="img-fd8b6d05-39" stroke-dasharray="none" class="color_f4" stroke="#00B78D">
            <path fill="none" d="M-48.11,-29.05 L -47.72 -27.69 -47.34 -26.42 -46.95 -25.23 -46.56 -24.11 -46.18 -23.07 -45.79 -22.08 -45.4 -21.16 -45.02 -20.28 -44.63 -19.45 -44.24 -18.67 -43.86 -17.93 -43.47 -17.22 -43.09 -16.55 -42.7 -15.91 -42.31 -15.3 -41.93 -14.72 -41.54 -14.17 -41.15 -13.64 -40.77 -13.13 -40.38 -12.64 -39.99 -12.18 -39.61 -11.73 -39.22 -11.3 -38.83 -10.89 -38.45 -10.49 -38.06 -10.11 -37.68 -9.74 -37.29 -9.38 -36.9 -9.04 -36.52 -8.71 -36.13 -8.39 -35.74 -8.08 -35.36 -7.78 -34.97 -7.49 -34.58 -7.21 -34.2 -6.94 -33.81 -6.68 -33.42 -6.42 -33.04 -6.18 -32.65 -5.94 -32.27 -5.7 -31.88 -5.48 -31.49 -5.26 -31.11 -5.04 -30.72 -4.84 -30.33 -4.63 -29.95 -4.44 -29.56 -4.25 -29.17 -4.06 -28.79 -3.88 -28.4 -3.7 -28.02 -3.53 -27.63 -3.36 -27.24 -3.2 -26.86 -3.04 -26.47 -2.88 -26.08 -2.73 -25.7 -2.58 -25.31 -2.43 -24.92 -2.29 -24.54 -2.15 -24.15 -2.01 -23.76 -1.88 -23.38 -1.75 -22.99 -1.62 -22.61 -1.5 -22.22 -1.38 -21.83 -1.26 -21.45 -1.14 -21.06 -1.03 -20.67 -0.91 -20.29 -0.8 -19.9 -0.7 -19.51 -0.59 -19.13 -0.49 -18.74 -0.39 -18.35 -0.29 -17.97 -0.19 -17.58 -0.09 -17.2 0 -16.81 0.1 -16.42 0.19 -16.04 0.27 -15.65 0.36 -15.26 0.45 -14.88 0.53 -14.49 0.62 -14.1 0.7 -13.72 0.78 -13.33 0.86 -12.94 0.93 -12.56 1.01 -12.17 1.09 -11.79 1.16 -11.4 1.23 -11.01 1.3 -10.63 1.37 -10.24 1.44 -9.85 1.51 -9.47 1.58 -9.08 1.64 -8.69 1.71 -8.31 1.77 -7.92 1.83 -7.54 1.9 -7.15 1.96 -6.76 2.02 -6.38 2.08 -5.99 2.13 -5.6 2.19 -5.22 2.25 -4.83 2.3 -4.44 2.36 -4.06 2.41 -3.67 2.47 -3.28 2.52 -2.9 2.57 -2.51 2.62 -2.13 2.67 -1.74 2.72 -1.35 2.77 -0.97 2.82 -0.58 2.87 -0.19 2.92 0.19 2.96 0.58 3.01 0.97 3.06 1.35 3.1 1.74 3.15 2.13 3.19 2.51 3.23 2.9 3.27 3.28 3.32 3.67 3.36 4.06 3.4 4.44 3.44 4.83 3.48 5.22 3.52 5.6 3.56 5.99 3.6 6.38 3.64 6.76 3.67 7.15 3.71 7.54 3.75 7.92 3.78 8.31 3.82 8.69 3.86 9.08 3.89 9.47 3.93 9.85 3.96 10.24 4 10.63 4.03 11.01 4.06 11.4 4.1 11.79 4.13 12.17 4.16 12.56 4.19 12.94 4.22 13.33 4.25 13.72 4.29 14.1 4.32 14.49 4.35 14.88 4.38 15.26 4.41 15.65 4.44 16.04 4.46 16.42 4.49 16.81 4.52 17.2 4.55 17.58 4.58 17.97 4.6 18.35 4.63 18.74 4.66 19.13 4.69 19.51 4.71 19.9 4.74 20.29 4.76 20.67 4.79 21.06 4.82 21.45 4.84 21.83 4.87 22.22 4.89 22.61 4.92 22.99 4.94 23.38 4.96 23.76 4.99 24.15 5.01 24.54 5.03 24.92 5.06 25.31 5.08 25.7 5.1 26.08 5.13 26.47 5.15 26.86 5.17 27.24 5.19 27.63 5.21 28.02 5.24 28.4 5.26 28.79 5.28 29.17 5.3 29.56 5.32 29.95 5.34 30.33 5.36 30.72 5.38 31.11 5.4 31.49 5.42 31.88 5.44 32.27 5.46 32.65 5.48 33.04 5.5 33.42 5.52 33.81 5.54 34.2 5.56 34.58 5.57 34.97 5.59 35.36 5.61 35.74 5.63 36.13 5.65 36.52 5.66 36.9 5.68 37.29 5.7 37.68 5.72 38.06 5.73 38.45 5.75 38.83 5.77 39.22 5.79 39.61 5.8 39.99 5.82 40.38 5.84 40.77 5.85 41.15 5.87 41.54 5.88 41.93 5.9 42.31 5.92 42.7 5.93 43.09 5.95 43.47 5.96 43.86 5.98 44.24 5.99 44.63 6.01 45.02 6.02 45.4 6.04 45.79 6.05 46.18 6.07 46.56 6.08 46.95 6.1 47.34 6.11 47.72 6.13 48.11 6.14" class="primitive"/>
          </g>
          <g transform="translate(80.43,72.64)" id="img-fd8b6d05-40" stroke-dasharray="none" class="color_f5" stroke="#BEA9FF">
            <path fill="none" d="M-48.11,-36.31 L -47.72 -34.61 -47.34 -33.02 -46.95 -31.53 -46.56 -30.14 -46.18 -28.83 -45.79 -27.6 -45.4 -26.44 -45.02 -25.35 -44.63 -24.32 -44.24 -23.34 -43.86 -22.41 -43.47 -21.53 -43.09 -20.69 -42.7 -19.89 -42.31 -19.13 -41.93 -18.4 -41.54 -17.71 -41.15 -17.05 -40.77 -16.41 -40.38 -15.81 -39.99 -15.22 -39.61 -14.66 -39.22 -14.13 -38.83 -13.61 -38.45 -13.11 -38.06 -12.63 -37.68 -12.17 -37.29 -11.73 -36.9 -11.3 -36.52 -10.89 -36.13 -10.49 -35.74 -10.1 -35.36 -9.73 -34.97 -9.37 -34.58 -9.02 -34.2 -8.68 -33.81 -8.35 -33.42 -8.03 -33.04 -7.72 -32.65 -7.42 -32.27 -7.13 -31.88 -6.85 -31.49 -6.57 -31.11 -6.31 -30.72 -6.05 -30.33 -5.79 -29.95 -5.55 -29.56 -5.31 -29.17 -5.08 -28.79 -4.85 -28.4 -4.63 -28.02 -4.41 -27.63 -4.2 -27.24 -4 -26.86 -3.8 -26.47 -3.6 -26.08 -3.41 -25.7 -3.22 -25.31 -3.04 -24.92 -2.86 -24.54 -2.69 -24.15 -2.52 -23.76 -2.35 -23.38 -2.19 -22.99 -2.03 -22.61 -1.87 -22.22 -1.72 -21.83 -1.57 -21.45 -1.43 -21.06 -1.28 -20.67 -1.14 -20.29 -1 -19.9 -0.87 -19.51 -0.74 -19.13 -0.61 -18.74 -0.48 -18.35 -0.36 -17.97 -0.23 -17.58 -0.11 -17.2 0 -16.81 0.12 -16.42 0.23 -16.04 0.34 -15.65 0.45 -15.26 0.56 -14.88 0.67 -14.49 0.77 -14.1 0.87 -13.72 0.97 -13.33 1.07 -12.94 1.17 -12.56 1.26 -12.17 1.36 -11.79 1.45 -11.4 1.54 -11.01 1.63 -10.63 1.72 -10.24 1.8 -9.85 1.89 -9.47 1.97 -9.08 2.05 -8.69 2.13 -8.31 2.21 -7.92 2.29 -7.54 2.37 -7.15 2.45 -6.76 2.52 -6.38 2.6 -5.99 2.67 -5.6 2.74 -5.22 2.81 -4.83 2.88 -4.44 2.95 -4.06 3.02 -3.67 3.08 -3.28 3.15 -2.9 3.22 -2.51 3.28 -2.13 3.34 -1.74 3.41 -1.35 3.47 -0.97 3.53 -0.58 3.59 -0.19 3.65 0.19 3.71 0.58 3.76 0.97 3.82 1.35 3.88 1.74 3.93 2.13 3.99 2.51 4.04 2.9 4.09 3.28 4.15 3.67 4.2 4.06 4.25 4.44 4.3 4.83 4.35 5.22 4.4 5.6 4.45 5.99 4.5 6.38 4.55 6.76 4.59 7.15 4.64 7.54 4.69 7.92 4.73 8.31 4.78 8.69 4.82 9.08 4.86 9.47 4.91 9.85 4.95 10.24 4.99 10.63 5.04 11.01 5.08 11.4 5.12 11.79 5.16 12.17 5.2 12.56 5.24 12.94 5.28 13.33 5.32 13.72 5.36 14.1 5.4 14.49 5.43 14.88 5.47 15.26 5.51 15.65 5.54 16.04 5.58 16.42 5.62 16.81 5.65 17.2 5.69 17.58 5.72 17.97 5.76 18.35 5.79 18.74 5.82 19.13 5.86 19.51 5.89 19.9 5.92 20.29 5.96 20.67 5.99 21.06 6.02 21.45 6.05 21.83 6.08 22.22 6.11 22.61 6.14 22.99 6.17 23.38 6.2 23.76 6.23 24.15 6.26 24.54 6.29 24.92 6.32 25.31 6.35 25.7 6.38 26.08 6.41 26.47 6.43 26.86 6.46 27.24 6.49 27.63 6.52 28.02 6.54 28.4 6.57 28.79 6.6 29.17 6.62 29.56 6.65 29.95 6.67 30.33 6.7 30.72 6.73 31.11 6.75 31.49 6.78 31.88 6.8 32.27 6.82 32.65 6.85 33.04 6.87 33.42 6.9 33.81 6.92 34.2 6.94 34.58 6.97 34.97 6.99 35.36 7.01 35.74 7.04 36.13 7.06 36.52 7.08 36.9 7.1 37.29 7.12 37.68 7.15 38.06 7.17 38.45 7.19 38.83 7.21 39.22 7.23 39.61 7.25 39.99 7.27 40.38 7.29 40.77 7.31 41.15 7.34 41.54 7.36 41.93 7.38 42.31 7.39 42.7 7.41 43.09 7.43 43.47 7.45 43.86 7.47 44.24 7.49 44.63 7.51 45.02 7.53 45.4 7.55 45.79 7.57 46.18 7.59 46.56 7.6 46.95 7.62 47.34 7.64 47.72 7.66 48.11 7.68" class="primitive"/>
          </g>
        </g>
      </g>
    </g>
  </g>
  <g class="guide ylabels" font-size="2.82" font-family="'PT Sans Caption','Helvetica Neue','Helvetica',sans-serif" fill="#6C606B" id="img-fd8b6d05-41">
    <g transform="translate(18.63,80.32)" id="img-fd8b6d05-42">
      <g class="primitive">
        <text text-anchor="end" dy="0.35em">0</text>
      </g>
    </g>
    <g transform="translate(18.63,55.88)" id="img-fd8b6d05-43">
      <g class="primitive">
        <text text-anchor="end" dy="0.35em">50</text>
      </g>
    </g>
    <g transform="translate(18.63,31.44)" id="img-fd8b6d05-44">
      <g class="primitive">
        <text text-anchor="end" dy="0.35em">100</text>
      </g>
    </g>
    <g transform="translate(18.63,7)" id="img-fd8b6d05-45">
      <g class="primitive">
        <text text-anchor="end" dy="0.35em">150</text>
      </g>
    </g>
  </g>
  <g font-size="3.88" font-family="'PT Sans','Helvetica Neue','Helvetica',sans-serif" fill="#564A55" stroke="#000000" stroke-opacity="0.000" id="img-fd8b6d05-46">
    <g transform="translate(8.81,41.66)" id="img-fd8b6d05-47">
      <g class="primitive">
        <text text-anchor="middle" dy="0.35em" transform="rotate(-90,0, 2)">Intensity (arb)</text>
      </g>
    </g>
  </g>
</g>
<defs>
  <clipPath id="img-fd8b6d05-19">
    <path d="M19.63,5 L 130.54 5 130.54 82.32 19.63 82.32" />
  </clipPath>
</defs>
</svg>
