<?xml version="1.0" encoding="UTF-8"?>
<svg xmlns="http://www.w3.org/2000/svg"
     xmlns:xlink="http://www.w3.org/1999/xlink"
     xmlns:gadfly="http://www.gadflyjl.org/ns"
     version="1.2"
     width="152.4mm" height="101.6mm" viewBox="0 0 152.4 101.6"
     stroke="none"
     fill="#000000"
     stroke-width="0.3"
     font-size="3.88"
>
<defs>
  <marker id="arrow" markerWidth="15" markerHeight="7" refX="5" refY="3.5" orient="auto" markerUnits="strokeWidth">
    <path d="M0,0 L15,3.5 L0,7 z" stroke="context-stroke" fill="context-stroke"/>
  </marker>
</defs>
<g class="plotroot xscalable yscalable" id="img-336b9d62-1">
  <g font-size="3.88" font-family="'PT Sans','Helvetica Neue','Helvetica',sans-serif" fill="#564A55" stroke="#000000" stroke-opacity="0.000" id="img-336b9d62-2">
    <g transform="translate(76.64,89.99)">
      <g class="primitive">
        <text text-anchor="middle" dy="0.6em">Energy (eV)</text>
      </g>
    </g>
  </g>
  <g class="guide xlabels" font-size="2.82" font-family="'PT Sans Caption','Helvetica Neue','Helvetica',sans-serif" fill="#6C606B" id="img-336b9d62-3">
    <g transform="translate(21.63,83.32)">
      <g class="primitive">
        <text text-anchor="middle" dy="0.6em">0</text>
      </g>
    </g>
    <g transform="translate(49.14,83.32)">
      <g class="primitive">
        <text text-anchor="middle" dy="0.6em">5.0×10³</text>
      </g>
    </g>
    <g transform="translate(76.64,83.32)">
      <g class="primitive">
        <text text-anchor="middle" dy="0.6em">1.0×10⁴</text>
      </g>
    </g>
    <g transform="translate(104.15,83.32)">
      <g class="primitive">
        <text text-anchor="middle" dy="0.6em">1.5×10⁴</text>
      </g>
    </g>
    <g transform="translate(131.65,83.32)">
      <g class="primitive">
        <text text-anchor="middle" dy="0.6em">2.0×10⁴</text>
      </g>
    </g>
  </g>
  <g class="guide colorkey" id="img-336b9d62-4">
    <g fill="#4C404B" font-size="2.82" font-family="'PT Sans','Helvetica Neue','Helvetica',sans-serif" id="img-336b9d62-5">
      <g transform="translate(137.46,40.03)" id="img-336b9d62-6" class="color_f1">
        <g class="primitive">
          <text dy="0.35em">C</text>
        </g>
      </g>
      <g transform="translate(137.46,43.66)" id="img-336b9d62-7" class="color_f2">
        <g class="primitive">
          <text dy="0.35em">Al</text>
        </g>
      </g>
      <g transform="translate(137.46,47.28)" id="img-336b9d62-8" class="color_f3">
        <g class="primitive">
          <text dy="0.35em">Fe</text>
        </g>
      </g>
      <g transform="translate(137.46,50.91)" id="img-336b9d62-9" class="color_f4">
        <g class="primitive">
          <text dy="0.35em">Pb</text>
        </g>
      </g>
    </g>
    <g fill-opacity="1" id="img-336b9d62-10">
      <g transform="translate(135.56,40.03)" id="img-336b9d62-11" class="color_f1" fill="#00BFFF" stroke="#FFFFFF">
        <path d="M-0.91,-0.91 L 0.91 -0.91 0.91 0.91 -0.91 0.91 z" class="primitive"/>
      </g>
      <g transform="translate(135.56,43.66)" id="img-336b9d62-12" class="color_f2" fill="#D4CA3A" stroke="#FFFFFF">
        <path d="M-0.91,-0.91 L 0.91 -0.91 0.91 0.91 -0.91 0.91 z" class="primitive"/>
      </g>
      <g transform="translate(135.56,47.28)" id="img-336b9d62-13" class="color_f3" fill="#FF6DAE" stroke="#FFFFFF">
        <path d="M-0.91,-0.91 L 0.91 -0.91 0.91 0.91 -0.91 0.91 z" class="primitive"/>
      </g>
      <g transform="translate(135.56,50.91)" id="img-336b9d62-14" class="color_f4" fill="#00B78D" stroke="#FFFFFF">
        <path d="M-0.91,-0.91 L 0.91 -0.91 0.91 0.91 -0.91 0.91 z" class="primitive"/>
      </g>
    </g>
    <g fill="#362A35" font-size="3.88" font-family="'PT Sans','Helvetica Neue','Helvetica',sans-serif" stroke="#000000" stroke-opacity="0.000" id="img-336b9d62-15">
      <g transform="translate(134.65,36.21)" id="img-336b9d62-16">
        <g class="primitive">
          <text dy="-0em">Element</text>
        </g>
      </g>
    </g>
  </g>
  <g clip-path="url(#img-336b9d62-17)">
    <g id="img-336b9d62-18">
      <g pointer-events="visible" stroke-width="0.3" fill="#000000" fill-opacity="0.000" stroke="#000000" stroke-opacity="0.000" class="guide background" id="img-336b9d62-19">
        <g transform="translate(76.64,43.66)" id="img-336b9d62-20">
          <path d="M-57.01,-38.66 L 57.01 -38.66 57.01 38.66 -57.01 38.66 z" class="primitive"/>
        </g>
      </g>
      <g class="guide ygridlines xfixed" stroke-dasharray="0.5,0.5" stroke-width="0.2" stroke="#D0D0E0" id="img-336b9d62-21">
        <g transform="translate(76.64,80.32)" id="img-336b9d62-22">
          <path fill="none" d="M-57.01,0 L 57.01 0" class="primitive"/>
        </g>
        <g transform="translate(76.64,61.99)" id="img-336b9d62-23">
          <path fill="none" d="M-57.01,0 L 57.01 0" class="primitive"/>
        </g>
        <g transform="translate(76.64,43.66)" id="img-336b9d62-24">
          <path fill="none" d="M-57.01,0 L 57.01 0" class="primitive"/>
        </g>
        <g transform="translate(76.64,25.33)" id="img-336b9d62-25">
          <path fill="none" d="M-57.01,0 L 57.01 0" class="primitive"/>
        </g>
        <g transform="translate(76.64,7)" id="img-336b9d62-26">
          <path fill="none" d="M-57.01,0 L 57.01 0" class="primitive"/>
        </g>
      </g>
      <g class="guide xgridlines yfixed" stroke-dasharray="0.5,0.5" stroke-width="0.2" stroke="#D0D0E0" id="img-336b9d62-27">
        <g transform="translate(21.63,43.66)" id="img-336b9d62-28">
          <path fill="none" d="M0,-38.66 L 0 38.66" class="primitive"/>
        </g>
        <g transform="translate(49.14,43.66)" id="img-336b9d62-29">
          <path fill="none" d="M0,-38.66 L 0 38.66" class="primitive"/>
        </g>
        <g transform="translate(76.64,43.66)" id="img-336b9d62-30">
          <path fill="none" d="M0,-38.66 L 0 38.66" class="primitive"/>
        </g>
        <g transform="translate(104.15,43.66)" id="img-336b9d62-31">
          <path fill="none" d="M0,-38.66 L 0 38.66" class="primitive"/>
        </g>
        <g transform="translate(131.65,43.66)" id="img-336b9d62-32">
          <path fill="none" d="M0,-38.66 L 0 38.66" class="primitive"/>
        </g>
      </g>
      <g class="plotpanel" id="img-336b9d62-33">
        <metadata>
          <boundingbox value="19.63166666666666mm 5.0mm 114.01833333333332mm 77.315mm"/>
          <unitbox value="-363.5757676750845 821.8236377276137 20727.151535350167 -843.6472754552275"/>
        </metadata>
        <g stroke-width="0.3" fill="#000000" fill-opacity="0.000" class="geometry" id="img-336b9d62-34">
          <g transform="translate(82.14,79.45)" id="img-336b9d62-35" stroke-dasharray="none" class="color_f1" stroke="#00BFFF">
            <path fill="none" d="M-49.51,-4.09 L -49.11 -3.89 -48.71 -3.71 -48.32 -3.55 -47.92 -3.39 -47.52 -3.24 -47.12 -3.11 -46.72 -2.98 -46.33 -2.85 -45.93 -2.74 -45.53 -2.63 -45.13 -2.52 -44.74 -2.42 -44.34 -2.33 -43.94 -2.24 -43.54 -2.15 -43.15 -2.07 -42.75 -1.99 -42.35 -1.92 -41.95 -1.85 -41.56 -1.78 -41.16 -1.71 -40.76 -1.65 -40.36 -1.59 -39.96 -1.53 -39.57 -1.48 -39.17 -1.42 -38.77 -1.37 -38.37 -1.32 -37.98 -1.27 -37.58 -1.22 -37.18 -1.18 -36.78 -1.14 -36.39 -1.09 -35.99 -1.05 -35.59 -1.01 -35.19 -0.98 -34.79 -0.94 -34.4 -0.9 -34 -0.87 -33.6 -0.83 -33.2 -0.8 -32.81 -0.77 -32.41 -0.74 -32.01 -0.71 -31.61 -0.68 -31.22 -0.65 -30.82 -0.62 -30.42 -0.6 -30.02 -0.57 -29.63 -0.55 -29.23 -0.52 -28.83 -0.5 -28.43 -0.47 -28.03 -0.45 -27.64 -0.43 -27.24 -0.4 -26.84 -0.38 -26.44 -0.36 -26.05 -0.34 -25.65 -0.32 -25.25 -0.3 -24.85 -0.28 -24.46 -0.26 -24.06 -0.25 -23.66 -0.23 -23.26 -0.21 -22.87 -0.19 -22.47 -0.18 -22.07 -0.16 -21.67 -0.14 -21.27 -0.13 -20.88 -0.11 -20.48 -0.1 -20.08 -0.08 -19.68 -0.07 -19.29 -0.05 -18.89 -0.04 -18.49 -0.03 -18.09 -0.01 -17.7 0 -17.3 0.01 -16.9 0.03 -16.5 0.04 -16.11 0.05 -15.71 0.06 -15.31 0.07 -14.91 0.09 -14.51 0.1 -14.12 0.11 -13.72 0.12 -13.32 0.13 -12.92 0.14 -12.53 0.15 -12.13 0.16 -11.73 0.17 -11.33 0.18 -10.94 0.19 -10.54 0.2 -10.14 0.21 -9.74 0.22 -9.34 0.23 -8.95 0.24 -8.55 0.25 -8.15 0.26 -7.75 0.27 -7.36 0.28 -6.96 0.28 -6.56 0.29 -6.16 0.3 -5.77 0.31 -5.37 0.32 -4.97 0.32 -4.57 0.33 -4.18 0.34 -3.78 0.35 -3.38 0.35 -2.98 0.36 -2.58 0.37 -2.19 0.38 -1.79 0.38 -1.39 0.39 -0.99 0.4 -0.6 0.4 -0.2 0.41 0.2 0.42 0.6 0.42 0.99 0.43 1.39 0.44 1.79 0.44 2.19 0.45 2.58 0.45 2.98 0.46 3.38 0.47 3.78 0.47 4.18 0.48 4.57 0.48 4.97 0.49 5.37 0.5 5.77 0.5 6.16 0.51 6.56 0.51 6.96 0.52 7.36 0.52 7.75 0.53 8.15 0.53 8.55 0.54 8.95 0.54 9.34 0.55 9.74 0.55 10.14 0.56 10.54 0.56 10.94 0.57 11.33 0.57 11.73 0.58 12.13 0.58 12.53 0.59 12.92 0.59 13.32 0.59 13.72 0.6 14.12 0.6 14.51 0.61 14.91 0.61 15.31 0.62 15.71 0.62 16.11 0.62 16.5 0.63 16.9 0.63 17.3 0.64 17.7 0.64 18.09 0.64 18.49 0.65 18.89 0.65 19.29 0.66 19.68 0.66 20.08 0.66 20.48 0.67 20.88 0.67 21.27 0.67 21.67 0.68 22.07 0.68 22.47 0.68 22.87 0.69 23.26 0.69 23.66 0.69 24.06 0.7 24.46 0.7 24.85 0.7 25.25 0.71 25.65 0.71 26.05 0.71 26.44 0.72 26.84 0.72 27.24 0.72 27.64 0.73 28.03 0.73 28.43 0.73 28.83 0.74 29.23 0.74 29.63 0.74 30.02 0.75 30.42 0.75 30.82 0.75 31.22 0.75 31.61 0.76 32.01 0.76 32.41 0.76 32.81 0.77 33.2 0.77 33.6 0.77 34 0.77 34.4 0.78 34.79 0.78 35.19 0.78 35.59 0.78 35.99 0.79 36.39 0.79 36.78 0.79 37.18 0.79 37.58 0.8 37.98 0.8 38.37 0.8 38.77 0.8 39.17 0.81 39.57 0.81 39.96 0.81 40.36 0.81 40.76 0.82 41.16 0.82 41.56 0.82 41.95 0.82 42.35 0.83 42.75 0.83 43.15 0.83 43.54 0.83 43.94 0.83 44.34 0.84 44.74 0.84 45.13 0.84 45.53 0.84 45.93 0.84 46.33 0.85 46.72 0.85 47.12 0.85 47.52 0.85 47.92 0.86 48.32 0.86 48.71 0.86 49.11 0.86 49.51 0.86" class="primitive"/>
          </g>
          <g transform="translate(82.14,78.44)" id="img-336b9d62-36" stroke-dasharray="none" class="color_f2" stroke="#D4CA3A">
            <path fill="none" d="M-49.51,-8.85 L -49.11 -8.44 -48.71 -8.05 -48.32 -7.69 -47.92 -7.35 -47.52 -7.03 -47.12 -6.73 -46.72 -6.45 -46.33 -6.18 -45.93 -5.93 -45.53 -5.69 -45.13 -5.46 -44.74 -5.25 -44.34 -5.04 -43.94 -4.85 -43.54 -4.66 -43.15 -4.49 -42.75 -4.32 -42.35 -4.16 -41.95 -4 -41.56 -3.85 -41.16 -3.71 -40.76 -3.57 -40.36 -3.44 -39.96 -3.32 -39.57 -3.2 -39.17 -3.08 -38.77 -2.97 -38.37 -2.86 -37.98 -2.75 -37.58 -2.65 -37.18 -2.56 -36.78 -2.46 -36.39 -2.37 -35.99 -2.28 -35.59 -2.2 -35.19 -2.11 -34.79 -2.03 -34.4 -1.96 -34 -1.88 -33.6 -1.81 -33.2 -1.74 -32.81 -1.67 -32.41 -1.6 -32.01 -1.54 -31.61 -1.47 -31.22 -1.41 -30.82 -1.35 -30.42 -1.29 -30.02 -1.24 -29.63 -1.18 -29.23 -1.13 -28.83 -1.08 -28.43 -1.02 -28.03 -0.97 -27.64 -0.93 -27.24 -0.88 -26.84 -0.83 -26.44 -0.79 -26.05 -0.74 -25.65 -0.7 -25.25 -0.66 -24.85 -0.61 -24.46 -0.57 -24.06 -0.53 -23.66 -0.49 -23.26 -0.46 -22.87 -0.42 -22.47 -0.38 -22.07 -0.35 -21.67 -0.31 -21.27 -0.28 -20.88 -0.24 -20.48 -0.21 -20.08 -0.18 -19.68 -0.15 -19.29 -0.12 -18.89 -0.09 -18.49 -0.06 -18.09 -0.03 -17.7 0 -17.3 0.03 -16.9 0.06 -16.5 0.08 -16.11 0.11 -15.71 0.14 -15.31 0.16 -14.91 0.19 -14.51 0.21 -14.12 0.24 -13.72 0.26 -13.32 0.28 -12.92 0.31 -12.53 0.33 -12.13 0.35 -11.73 0.38 -11.33 0.4 -10.94 0.42 -10.54 0.44 -10.14 0.46 -9.74 0.48 -9.34 0.5 -8.95 0.52 -8.55 0.54 -8.15 0.56 -7.75 0.58 -7.36 0.6 -6.96 0.61 -6.56 0.63 -6.16 0.65 -5.77 0.67 -5.37 0.69 -4.97 0.7 -4.57 0.72 -4.18 0.74 -3.78 0.75 -3.38 0.77 -2.98 0.78 -2.58 0.8 -2.19 0.81 -1.79 0.83 -1.39 0.85 -0.99 0.86 -0.6 0.87 -0.2 0.89 0.2 0.9 0.6 0.92 0.99 0.93 1.39 0.94 1.79 0.96 2.19 0.97 2.58 0.98 2.98 1 3.38 1.01 3.78 1.02 4.18 1.04 4.57 1.05 4.97 1.06 5.37 1.07 5.77 1.08 6.16 1.1 6.56 1.11 6.96 1.12 7.36 1.13 7.75 1.14 8.15 1.15 8.55 1.16 8.95 1.18 9.34 1.19 9.74 1.2 10.14 1.21 10.54 1.22 10.94 1.23 11.33 1.24 11.73 1.25 12.13 1.26 12.53 1.27 12.92 1.28 13.32 1.29 13.72 1.3 14.12 1.31 14.51 1.32 14.91 1.32 15.31 1.33 15.71 1.34 16.11 1.35 16.5 1.36 16.9 1.37 17.3 1.38 17.7 1.39 18.09 1.39 18.49 1.4 18.89 1.41 19.29 1.42 19.68 1.43 20.08 1.44 20.48 1.44 20.88 1.45 21.27 1.46 21.67 1.47 22.07 1.47 22.47 1.48 22.87 1.49 23.26 1.5 23.66 1.5 24.06 1.51 24.46 1.52 24.85 1.53 25.25 1.53 25.65 1.54 26.05 1.55 26.44 1.55 26.84 1.56 27.24 1.57 27.64 1.58 28.03 1.58 28.43 1.59 28.83 1.6 29.23 1.6 29.63 1.61 30.02 1.61 30.42 1.62 30.82 1.63 31.22 1.63 31.61 1.64 32.01 1.65 32.41 1.65 32.81 1.66 33.2 1.66 33.6 1.67 34 1.68 34.4 1.68 34.79 1.69 35.19 1.69 35.59 1.7 35.99 1.7 36.39 1.71 36.78 1.72 37.18 1.72 37.58 1.73 37.98 1.73 38.37 1.74 38.77 1.74 39.17 1.75 39.57 1.75 39.96 1.76 40.36 1.76 40.76 1.77 41.16 1.77 41.56 1.78 41.95 1.78 42.35 1.79 42.75 1.79 43.15 1.8 43.54 1.8 43.94 1.81 44.34 1.81 44.74 1.82 45.13 1.82 45.53 1.83 45.93 1.83 46.33 1.84 46.72 1.84 47.12 1.84 47.52 1.85 47.92 1.85 48.32 1.86 48.71 1.86 49.11 1.87 49.51 1.87" class="primitive"/>
          </g>
          <g transform="translate(82.14,76.57)" id="img-336b9d62-37" stroke-dasharray="none" class="color_f3" stroke="#FF6DAE">
            <path fill="none" d="M-49.51,-17.7 L -49.11 -16.87 -48.71 -16.1 -48.32 -15.37 -47.92 -14.69 -47.52 -14.06 -47.12 -13.46 -46.72 -12.89 -46.33 -12.36 -45.93 -11.85 -45.53 -11.38 -45.13 -10.92 -44.74 -10.49 -44.34 -10.09 -43.94 -9.7 -43.54 -9.33 -43.15 -8.97 -42.75 -8.63 -42.35 -8.31 -41.95 -8 -41.56 -7.71 -41.16 -7.42 -40.76 -7.15 -40.36 -6.89 -39.96 -6.63 -39.57 -6.39 -39.17 -6.16 -38.77 -5.93 -38.37 -5.72 -37.98 -5.51 -37.58 -5.31 -37.18 -5.11 -36.78 -4.92 -36.39 -4.74 -35.99 -4.57 -35.59 -4.4 -35.19 -4.23 -34.79 -4.07 -34.4 -3.91 -34 -3.76 -33.6 -3.62 -33.2 -3.48 -32.81 -3.34 -32.41 -3.2 -32.01 -3.07 -31.61 -2.95 -31.22 -2.82 -30.82 -2.7 -30.42 -2.59 -30.02 -2.47 -29.63 -2.36 -29.23 -2.26 -28.83 -2.15 -28.43 -2.05 -28.03 -1.95 -27.64 -1.85 -27.24 -1.75 -26.84 -1.66 -26.44 -1.57 -26.05 -1.48 -25.65 -1.4 -25.25 -1.31 -24.85 -1.23 -24.46 -1.15 -24.06 -1.07 -23.66 -0.99 -23.26 -0.91 -22.87 -0.84 -22.47 -0.77 -22.07 -0.7 -21.67 -0.63 -21.27 -0.56 -20.88 -0.49 -20.48 -0.42 -20.08 -0.36 -19.68 -0.3 -19.29 -0.23 -18.89 -0.17 -18.49 -0.11 -18.09 -0.06 -17.7 0 -17.3 0.06 -16.9 0.11 -16.5 0.17 -16.11 0.22 -15.71 0.27 -15.31 0.32 -14.91 0.38 -14.51 0.43 -14.12 0.47 -13.72 0.52 -13.32 0.57 -12.92 0.62 -12.53 0.66 -12.13 0.71 -11.73 0.75 -11.33 0.79 -10.94 0.84 -10.54 0.88 -10.14 0.92 -9.74 0.96 -9.34 1 -8.95 1.04 -8.55 1.08 -8.15 1.12 -7.75 1.16 -7.36 1.19 -6.96 1.23 -6.56 1.27 -6.16 1.3 -5.77 1.34 -5.37 1.37 -4.97 1.4 -4.57 1.44 -4.18 1.47 -3.78 1.5 -3.38 1.54 -2.98 1.57 -2.58 1.6 -2.19 1.63 -1.79 1.66 -1.39 1.69 -0.99 1.72 -0.6 1.75 -0.2 1.78 0.2 1.81 0.6 1.83 0.99 1.86 1.39 1.89 1.79 1.92 2.19 1.94 2.58 1.97 2.98 2 3.38 2.02 3.78 2.05 4.18 2.07 4.57 2.1 4.97 2.12 5.37 2.15 5.77 2.17 6.16 2.19 6.56 2.22 6.96 2.24 7.36 2.26 7.75 2.28 8.15 2.31 8.55 2.33 8.95 2.35 9.34 2.37 9.74 2.39 10.14 2.41 10.54 2.43 10.94 2.46 11.33 2.48 11.73 2.5 12.13 2.52 12.53 2.54 12.92 2.55 13.32 2.57 13.72 2.59 14.12 2.61 14.51 2.63 14.91 2.65 15.31 2.67 15.71 2.68 16.11 2.7 16.5 2.72 16.9 2.74 17.3 2.76 17.7 2.77 18.09 2.79 18.49 2.81 18.89 2.82 19.29 2.84 19.68 2.86 20.08 2.87 20.48 2.89 20.88 2.9 21.27 2.92 21.67 2.93 22.07 2.95 22.47 2.97 22.87 2.98 23.26 3 23.66 3.01 24.06 3.02 24.46 3.04 24.85 3.05 25.25 3.07 25.65 3.08 26.05 3.1 26.44 3.11 26.84 3.12 27.24 3.14 27.64 3.15 28.03 3.16 28.43 3.18 28.83 3.19 29.23 3.2 29.63 3.22 30.02 3.23 30.42 3.24 30.82 3.25 31.22 3.27 31.61 3.28 32.01 3.29 32.41 3.3 32.81 3.32 33.2 3.33 33.6 3.34 34 3.35 34.4 3.36 34.79 3.37 35.19 3.39 35.59 3.4 35.99 3.41 36.39 3.42 36.78 3.43 37.18 3.44 37.58 3.45 37.98 3.46 38.37 3.47 38.77 3.48 39.17 3.49 39.57 3.5 39.96 3.52 40.36 3.53 40.76 3.54 41.16 3.55 41.56 3.56 41.95 3.57 42.35 3.58 42.75 3.59 43.15 3.6 43.54 3.61 43.94 3.61 44.34 3.62 44.74 3.63 45.13 3.64 45.53 3.65 45.93 3.66 46.33 3.67 46.72 3.68 47.12 3.69 47.52 3.7 47.92 3.71 48.32 3.72 48.71 3.72 49.11 3.73 49.51 3.74" class="primitive"/>
          </g>
          <g transform="translate(82.14,68.51)" id="img-336b9d62-38" stroke-dasharray="none" class="color_f4" stroke="#00B78D">
            <path fill="none" d="M-49.51,-55.83 L -49.11 -53.21 -48.71 -50.77 -48.32 -48.48 -47.92 -46.34 -47.52 -44.33 -47.12 -42.44 -46.72 -40.66 -46.33 -38.98 -45.93 -37.39 -45.53 -35.88 -45.13 -34.45 -44.74 -33.1 -44.34 -31.81 -43.94 -30.58 -43.54 -29.41 -43.15 -28.3 -42.75 -27.23 -42.35 -26.21 -41.95 -25.24 -41.56 -24.3 -41.16 -23.41 -40.76 -22.55 -40.36 -21.72 -39.96 -20.93 -39.57 -20.16 -39.17 -19.43 -38.77 -18.72 -38.37 -18.03 -37.98 -17.37 -37.58 -16.74 -37.18 -16.12 -36.78 -15.53 -36.39 -14.96 -35.99 -14.4 -35.59 -13.86 -35.19 -13.34 -34.79 -12.84 -34.4 -12.35 -34 -11.87 -33.6 -11.41 -33.2 -10.96 -32.81 -10.53 -32.41 -10.11 -32.01 -9.7 -31.61 -9.3 -31.22 -8.91 -30.82 -8.53 -30.42 -8.16 -30.02 -7.8 -29.63 -7.45 -29.23 -7.11 -28.83 -6.78 -28.43 -6.46 -28.03 -6.14 -27.64 -5.83 -27.24 -5.53 -26.84 -5.24 -26.44 -4.95 -26.05 -4.67 -25.65 -4.4 -25.25 -4.13 -24.85 -3.87 -24.46 -3.62 -24.06 -3.37 -23.66 -3.12 -23.26 -2.88 -22.87 -2.65 -22.47 -2.42 -22.07 -2.19 -21.67 -1.97 -21.27 -1.76 -20.88 -1.55 -20.48 -1.34 -20.08 -1.13 -19.68 -0.94 -19.29 -0.74 -18.89 -0.55 -18.49 -0.36 -18.09 -0.18 -17.7 0 -17.3 0.18 -16.9 0.36 -16.5 0.53 -16.11 0.7 -15.71 0.86 -15.31 1.02 -14.91 1.18 -14.51 1.34 -14.12 1.49 -13.72 1.65 -13.32 1.79 -12.92 1.94 -12.53 2.09 -12.13 2.23 -11.73 2.37 -11.33 2.5 -10.94 2.64 -10.54 2.77 -10.14 2.9 -9.74 3.03 -9.34 3.16 -8.95 3.28 -8.55 3.4 -8.15 3.52 -7.75 3.64 -7.36 3.76 -6.96 3.88 -6.56 3.99 -6.16 4.1 -5.77 4.21 -5.37 4.32 -4.97 4.43 -4.57 4.54 -4.18 4.64 -3.78 4.74 -3.38 4.84 -2.98 4.94 -2.58 5.04 -2.19 5.14 -1.79 5.24 -1.39 5.33 -0.99 5.42 -0.6 5.52 -0.2 5.61 0.2 5.7 0.6 5.79 0.99 5.87 1.39 5.96 1.79 6.04 2.19 6.13 2.58 6.21 2.98 6.29 3.38 6.37 3.78 6.46 4.18 6.53 4.57 6.61 4.97 6.69 5.37 6.77 5.77 6.84 6.16 6.92 6.56 6.99 6.96 7.06 7.36 7.13 7.75 7.2 8.15 7.27 8.55 7.34 8.95 7.41 9.34 7.48 9.74 7.55 10.14 7.61 10.54 7.68 10.94 7.74 11.33 7.81 11.73 7.87 12.13 7.93 12.53 8 12.92 8.06 13.32 8.12 13.72 8.18 14.12 8.24 14.51 8.3 14.91 8.35 15.31 8.41 15.71 8.47 16.11 8.52 16.5 8.58 16.9 8.64 17.3 8.69 17.7 8.74 18.09 8.8 18.49 8.85 18.89 8.9 19.29 8.95 19.68 9.01 20.08 9.06 20.48 9.11 20.88 9.16 21.27 9.21 21.67 9.26 22.07 9.3 22.47 9.35 22.87 9.4 23.26 9.45 23.66 9.49 24.06 9.54 24.46 9.58 24.85 9.63 25.25 9.68 25.65 9.72 26.05 9.76 26.44 9.81 26.84 9.85 27.24 9.89 27.64 9.94 28.03 9.98 28.43 10.02 28.83 10.06 29.23 10.1 29.63 10.14 30.02 10.18 30.42 10.22 30.82 10.26 31.22 10.3 31.61 10.34 32.01 10.38 32.41 10.42 32.81 10.46 33.2 10.49 33.6 10.53 34 10.57 34.4 10.6 34.79 10.64 35.19 10.68 35.59 10.71 35.99 10.75 36.39 10.78 36.78 10.82 37.18 10.85 37.58 10.89 37.98 10.92 38.37 10.95 38.77 10.99 39.17 11.02 39.57 11.05 39.96 11.09 40.36 11.12 40.76 11.15 41.16 11.18 41.56 11.22 41.95 11.25 42.35 11.28 42.75 11.31 43.15 11.34 43.54 11.37 43.94 11.4 44.34 11.43 44.74 11.46 45.13 11.49 45.53 11.52 45.93 11.55 46.33 11.58 46.72 11.61 47.12 11.63 47.52 11.66 47.92 11.69 48.32 11.72 48.71 11.75 49.11 11.77 49.51 11.8" class="primitive"/>
          </g>
        </g>
      </g>
    </g>
  </g>
  <g class="guide ylabels" font-size="2.82" font-family="'PT Sans Caption','Helvetica Neue','Helvetica',sans-serif" fill="#6C606B" id="img-336b9d62-39">
    <g transform="translate(18.63,80.32)" id="img-336b9d62-40">
      <g class="primitive">
        <text text-anchor="end" dy="0.35em">0</text>
      </g>
    </g>
    <g transform="translate(18.63,61.99)" id="img-336b9d62-41">
      <g class="primitive">
        <text text-anchor="end" dy="0.35em">200</text>
      </g>
    </g>
    <g transform="translate(18.63,43.66)" id="img-336b9d62-42">
      <g class="primitive">
        <text text-anchor="end" dy="0.35em">400</text>
      </g>
    </g>
    <g transform="translate(18.63,25.33)" id="img-336b9d62-43">
      <g class="primitive">
        <text text-anchor="end" dy="0.35em">600</text>
      </g>
    </g>
    <g transform="translate(18.63,7)" id="img-336b9d62-44">
      <g class="primitive">
        <text text-anchor="end" dy="0.35em">800</text>
      </g>
    </g>
  </g>
  <g font-size="3.88" font-family="'PT Sans','Helvetica Neue','Helvetica',sans-serif" fill="#564A55" stroke="#000000" stroke-opacity="0.000" id="img-336b9d62-45">
    <g transform="translate(8.81,41.66)" id="img-336b9d62-46">
      <g class="primitive">
        <text text-anchor="middle" dy="0.35em" transform="rotate(-90,0, 2)">Intensity (arb)</text>
      </g>
    </g>
  </g>
</g>
<defs>
  <clipPath id="img-336b9d62-17">
    <path d="M19.63,5 L 133.65 5 133.65 82.32 19.63 82.32" />
  </clipPath>
</defs>
</svg>
