<?xml version="1.0" encoding="UTF-8"?>
<svg xmlns="http://www.w3.org/2000/svg"
     xmlns:xlink="http://www.w3.org/1999/xlink"
     xmlns:gadfly="http://www.gadflyjl.org/ns"
     version="1.2"
     width="203.2mm" height="101.6mm" viewBox="0 0 203.2 101.6"
     stroke="none"
     fill="#000000"
     stroke-width="0.3"
     font-size="3.88"
>
<defs>
  <marker id="arrow" markerWidth="15" markerHeight="7" refX="5" refY="3.5" orient="auto" markerUnits="strokeWidth">
    <path d="M0,0 L15,3.5 L0,7 z" stroke="context-stroke" fill="context-stroke"/>
  </marker>
</defs>
<g class="plotroot xscalable yscalable" id="img-adbd8bed-1">
  <g font-size="3.88" font-family="'PT Sans','Helvetica Neue','Helvetica',sans-serif" fill="#564A55" stroke="#000000" stroke-opacity="0.000" id="img-adbd8bed-2">
    <g transform="translate(108.92,89.99)">
      <g class="primitive">
        <text text-anchor="middle" dy="0.6em">x</text>
      </g>
    </g>
  </g>
  <g class="guide xlabels" font-size="2.82" font-family="'PT Sans Caption','Helvetica Neue','Helvetica',sans-serif" fill="#6C606B" id="img-adbd8bed-3">
    <g transform="translate(21.63,83.32)">
      <g class="primitive">
        <text text-anchor="middle" dy="0.6em">0</text>
      </g>
    </g>
    <g transform="translate(65.27,83.32)">
      <g class="primitive">
        <text text-anchor="middle" dy="0.6em">5.00×10³</text>
      </g>
    </g>
    <g transform="translate(108.92,83.32)">
      <g class="primitive">
        <text text-anchor="middle" dy="0.6em">1.00×10⁴</text>
      </g>
    </g>
    <g transform="translate(152.56,83.32)">
      <g class="primitive">
        <text text-anchor="middle" dy="0.6em">1.50×10⁴</text>
      </g>
    </g>
    <g transform="translate(196.2,83.32)">
      <g class="primitive">
        <text text-anchor="middle" dy="0.6em">2.00×10⁴</text>
      </g>
    </g>
  </g>
  <g clip-path="url(#img-adbd8bed-4)">
    <g id="img-adbd8bed-5">
      <g pointer-events="visible" stroke-width="0.3" fill="#000000" fill-opacity="0.000" stroke="#000000" stroke-opacity="0.000" class="guide background" id="img-adbd8bed-6">
        <g transform="translate(108.92,43.66)" id="img-adbd8bed-7">
          <path d="M-89.28,-38.66 L89.28,-38.66 89.28,38.66 -89.28,38.66  z" class="primitive"/>
        </g>
      </g>
      <g class="guide ygridlines xfixed" stroke-dasharray="0.5,0.5" stroke-width="0.2" stroke="#D0D0E0" id="img-adbd8bed-8">
        <g transform="translate(108.92,80.32)" id="img-adbd8bed-9">
          <path fill="none" d="M-89.28,0 L89.28,0 " class="primitive"/>
        </g>
        <g transform="translate(108.92,61.99)" id="img-adbd8bed-10">
          <path fill="none" d="M-89.28,0 L89.28,0 " class="primitive"/>
        </g>
        <g transform="translate(108.92,43.66)" id="img-adbd8bed-11">
          <path fill="none" d="M-89.28,0 L89.28,0 " class="primitive"/>
        </g>
        <g transform="translate(108.92,25.33)" id="img-adbd8bed-12">
          <path fill="none" d="M-89.28,0 L89.28,0 " class="primitive"/>
        </g>
        <g transform="translate(108.92,7)" id="img-adbd8bed-13">
          <path fill="none" d="M-89.28,0 L89.28,0 " class="primitive"/>
        </g>
      </g>
      <g class="guide xgridlines yfixed" stroke-dasharray="0.5,0.5" stroke-width="0.2" stroke="#D0D0E0" id="img-adbd8bed-14">
        <g transform="translate(21.63,43.66)" id="img-adbd8bed-15">
          <path fill="none" d="M0,-38.66 L0,38.66 " class="primitive"/>
        </g>
        <g transform="translate(65.27,43.66)" id="img-adbd8bed-16">
          <path fill="none" d="M0,-38.66 L0,38.66 " class="primitive"/>
        </g>
        <g transform="translate(108.92,43.66)" id="img-adbd8bed-17">
          <path fill="none" d="M0,-38.66 L0,38.66 " class="primitive"/>
        </g>
        <g transform="translate(152.56,43.66)" id="img-adbd8bed-18">
          <path fill="none" d="M0,-38.66 L0,38.66 " class="primitive"/>
        </g>
        <g transform="translate(196.2,43.66)" id="img-adbd8bed-19">
          <path fill="none" d="M0,-38.66 L0,38.66 " class="primitive"/>
        </g>
      </g>
      <g class="plotpanel" id="img-adbd8bed-20">
        <metadata>
          <boundingbox value="19.63166666666669mm 5.0mm 178.56833333333333mm 77.315mm"/>
          <unitbox value="-229.13663226434727 410.91181886380684 20458.273264528692 -421.82363772761374"/>
        </metadata>
        <g stroke-width="0.3" fill="#000000" fill-opacity="0.000" class="geometry" id="img-adbd8bed-21">
          <g class="color_LCHab{Float32}(70.0f0,60.0f0,240.0f0)" stroke-dasharray="none" stroke="#00BFFF" id="img-adbd8bed-22">
            <g transform="translate(113.28,46.66)" id="img-adbd8bed-23">
              <path fill="none" d="M-82.92,29.44 L-82.25,28.52 -81.59,27.79 -80.92,28.7 -80.26,30.54 -79.59,25.41 -78.92,24.67 -78.26,24.31 -77.59,24.86 -76.93,25.77 -76.26,24.12 -75.59,24.67 -74.93,23.21 -74.26,24.12 -73.6,27.6 -72.93,29.8 -72.26,24.49 -71.6,23.57 -70.93,23.02 -70.27,19.91 -69.6,21.19 -68.93,19.91 -68.27,21.56 -67.6,22.47 -66.94,21.37 -66.27,18.44 -65.6,18.62 -64.94,19.36 -64.27,19.72 -63.61,17.16 -62.94,27.24 -62.27,16.79 -61.61,17.52 -60.94,16.97 -60.28,19.17 -59.61,18.07 -58.94,14.22 -58.28,15.87 -57.61,16.97 -56.95,16.97 -56.28,18.07 -55.61,15.51 -54.95,16.42 -54.28,16.24 -53.61,12.94 -52.95,16.61 -52.28,14.22 -51.62,26.69 -50.95,14.04 -50.28,11.84 -49.62,12.94 -48.95,13.86 -48.29,11.84 -47.62,11.29 -46.95,12.76 -46.29,14.59 -45.62,10.74 -44.96,11.48 -44.29,31.27 -43.62,7.81 -42.96,12.03 -42.29,24.67 -41.63,8.73 -40.96,9.28 -40.29,25.41 -39.63,8.54 -38.96,4.33 -38.3,10.74 -37.63,8.36 -36.96,12.39 -36.3,17.71 -35.63,7.44 -34.97,11.84 -34.3,4.88 -33.63,8.91 -32.97,20.46 -32.3,5.98 -31.64,6.16 -30.97,7.26 -30.3,8.18 -29.64,19.91 -28.97,3.23 -28.31,14.04 -27.64,10.56 -26.97,5.79 -26.31,1.58 -25.64,25.77 -24.98,7.44 -24.31,3.96 -23.64,4.51 -22.98,8.18 -22.31,3.41 -21.65,5.79 -20.98,-0.99 -20.31,1.03 -19.65,2.31 -18.98,0.66 -18.32,-4.29 -17.65,1.39 -16.98,5.06 -16.32,0.66 -15.65,-2.27 -14.99,2.86 -14.32,25.77 -13.65,1.94 -12.99,-3.37 -12.32,-0.07 -11.66,21.74 -10.99,1.58 -10.32,-4.47 -9.66,-5.2 -8.99,3.23 -8.33,-0.8 -7.66,-3.19 -6.99,9.28 -6.33,-4.47 -5.66,-1.54 -5,0.11 -4.33,0.29 -3.66,18.44 -3,17.89 -2.33,-3.37 -1.67,-3.55 -1,-5.94 -0.33,19.91 0.33,-1.54 1,-9.24 1.67,-2.45 2.33,28.52 3,17.16 3.66,-2.64 4.33,-6.67 5,-8.5 5.66,-10.7 6.33,13.12 6.99,-9.79 7.66,-9.6 8.33,1.76 8.99,-4.84 9.66,-12.17 10.32,-7.04 10.99,-6.12 11.66,-7.22 12.32,20.46 12.99,27.05 13.65,-7.59 14.32,-7.59 14.99,-9.42 15.65,-12.17 16.32,-14.55 16.98,-12.17 17.65,-14 18.32,-8.69 18.98,-6.12 19.65,-12.35 20.31,15.87 20.98,24.12 21.65,-13.64 22.31,31.64 22.98,-10.89 23.64,-10.15 24.31,-13.27 24.98,24.86 25.64,-12.9 26.31,-14.55 26.97,-15.47 27.64,21.19 28.31,-13.27 28.97,-9.97 29.64,-14.55 30.3,-7.77 30.97,-9.97 31.64,-16.2 32.3,-11.25 32.97,-13.09 33.63,-20.05 34.3,9.28 34.97,-17.3 35.63,-16.57 36.3,30.17 36.96,-15.47 37.63,-16.57 38.3,-16.57 38.96,-15.1 39.63,-18.95 40.29,-14.73 40.96,-23.53 41.63,-17.48 42.29,-17.12 42.96,10.56 43.62,5.61 44.29,-16.93 44.96,-19.32 45.62,-17.85 46.29,-20.05 46.95,-19.68 47.62,-16.75 48.29,-21.15 48.95,-16.2 49.62,-22.62 50.28,-16.93 50.95,-17.85 51.62,-24.08 52.28,-26.1 52.95,-24.08 53.61,-24.08 54.28,-15.83 54.95,-24.08 55.61,-25.92 56.28,-24.08 56.95,-17.67 57.61,-24.27 58.28,-18.77 58.94,-24.63 59.61,-22.43 60.28,-22.98 60.94,-22.8 61.61,-24.08 62.27,-23.72 62.94,-26.47 63.61,-23.17 64.27,-16.93 64.94,-3.19 65.6,-23.17 66.27,-24.08 66.94,-25 67.6,-29.58 68.27,-23.9 68.93,1.21 69.6,-26.65 70.27,-33.25 70.93,-22.43 71.6,-24.27 72.26,-28.11 72.93,-27.56 73.6,-27.38 74.26,-26.47 74.93,-32.51 75.59,-31.96 76.26,-31.78 76.93,-27.93 77.59,-25.55 78.26,-25.92 78.92,-33.06 79.59,-30.13 80.26,7.99 80.92,-27.38 81.59,-30.5 82.25,18.99 82.92,-30.13 " class="primitive"/>
            </g>
          </g>
        </g>
      </g>
    </g>
  </g>
  <g class="guide ylabels" font-size="2.82" font-family="'PT Sans Caption','Helvetica Neue','Helvetica',sans-serif" fill="#6C606B" id="img-adbd8bed-24">
    <g transform="translate(18.63,80.32)" id="img-adbd8bed-25">
      <g class="primitive">
        <text text-anchor="end" dy="0.35em">0</text>
      </g>
    </g>
    <g transform="translate(18.63,61.99)" id="img-adbd8bed-26">
      <g class="primitive">
        <text text-anchor="end" dy="0.35em">100</text>
      </g>
    </g>
    <g transform="translate(18.63,43.66)" id="img-adbd8bed-27">
      <g class="primitive">
        <text text-anchor="end" dy="0.35em">200</text>
      </g>
    </g>
    <g transform="translate(18.63,25.33)" id="img-adbd8bed-28">
      <g class="primitive">
        <text text-anchor="end" dy="0.35em">300</text>
      </g>
    </g>
    <g transform="translate(18.63,7)" id="img-adbd8bed-29">
      <g class="primitive">
        <text text-anchor="end" dy="0.35em">400</text>
      </g>
    </g>
  </g>
  <g font-size="3.88" font-family="'PT Sans','Helvetica Neue','Helvetica',sans-serif" fill="#564A55" stroke="#000000" stroke-opacity="0.000" id="img-adbd8bed-30">
    <g transform="translate(8.81,41.66)" id="img-adbd8bed-31">
      <g class="primitive">
        <text text-anchor="middle" dy="0.35em" transform="rotate(-90,0, 2)">f(x)</text>
      </g>
    </g>
  </g>
</g>
<defs>
  <clipPath id="img-adbd8bed-4">
    <path d="M19.63,5 L198.2,5 198.2,82.32 19.63,82.32 " />
  </clipPath>
</defs>
</svg>
