<?xml version="1.0" encoding="UTF-8"?>
<svg xmlns="http://www.w3.org/2000/svg"
     xmlns:xlink="http://www.w3.org/1999/xlink"
     xmlns:gadfly="http://www.gadflyjl.org/ns"
     version="1.2"
     width="203.2mm" height="101.6mm" viewBox="0 0 203.2 101.6"
     stroke="none"
     fill="#000000"
     stroke-width="0.3"
     font-size="3.88"
>
<defs>
  <marker id="arrow" markerWidth="15" markerHeight="7" refX="5" refY="3.5" orient="auto" markerUnits="strokeWidth">
    <path d="M0,0 L15,3.5 L0,7 z" stroke="context-stroke" fill="context-stroke"/>
  </marker>
</defs>
<g class="plotroot xscalable yscalable" id="img-a4c993c3-1">
  <g font-size="3.88" font-family="'PT Sans','Helvetica Neue','Helvetica',sans-serif" fill="#564A55" stroke="#000000" stroke-opacity="0.000" id="img-a4c993c3-2">
    <g transform="translate(110.93,89.99)">
      <g class="primitive">
        <text text-anchor="middle" dy="0.6em">x</text>
      </g>
    </g>
  </g>
  <g class="guide xlabels" font-size="2.82" font-family="'PT Sans Caption','Helvetica Neue','Helvetica',sans-serif" fill="#6C606B" id="img-a4c993c3-3">
    <g transform="translate(25.65,83.32)">
      <g class="primitive">
        <text text-anchor="middle" dy="0.6em">0</text>
      </g>
    </g>
    <g transform="translate(68.29,83.32)">
      <g class="primitive">
        <text text-anchor="middle" dy="0.6em">5.00×10³</text>
      </g>
    </g>
    <g transform="translate(110.93,83.32)">
      <g class="primitive">
        <text text-anchor="middle" dy="0.6em">1.00×10⁴</text>
      </g>
    </g>
    <g transform="translate(153.56,83.32)">
      <g class="primitive">
        <text text-anchor="middle" dy="0.6em">1.50×10⁴</text>
      </g>
    </g>
    <g transform="translate(196.2,83.32)">
      <g class="primitive">
        <text text-anchor="middle" dy="0.6em">2.00×10⁴</text>
      </g>
    </g>
  </g>
  <g clip-path="url(#img-a4c993c3-4)">
    <g id="img-a4c993c3-5">
      <g pointer-events="visible" stroke-width="0.3" fill="#000000" fill-opacity="0.000" stroke="#000000" stroke-opacity="0.000" class="guide background" id="img-a4c993c3-6">
        <g transform="translate(110.93,43.66)" id="img-a4c993c3-7">
          <path d="M-87.27,-38.66 L87.27,-38.66 87.27,38.66 -87.27,38.66  z" class="primitive"/>
        </g>
      </g>
      <g class="guide ygridlines xfixed" stroke-dasharray="0.5,0.5" stroke-width="0.2" stroke="#D0D0E0" id="img-a4c993c3-8">
        <g transform="translate(110.93,80.32)" id="img-a4c993c3-9">
          <path fill="none" d="M-87.27,0 L87.27,0 " class="primitive"/>
        </g>
        <g transform="translate(110.93,65.65)" id="img-a4c993c3-10">
          <path fill="none" d="M-87.27,0 L87.27,0 " class="primitive"/>
        </g>
        <g transform="translate(110.93,50.99)" id="img-a4c993c3-11">
          <path fill="none" d="M-87.27,0 L87.27,0 " class="primitive"/>
        </g>
        <g transform="translate(110.93,36.33)" id="img-a4c993c3-12">
          <path fill="none" d="M-87.27,0 L87.27,0 " class="primitive"/>
        </g>
        <g transform="translate(110.93,21.66)" id="img-a4c993c3-13">
          <path fill="none" d="M-87.27,0 L87.27,0 " class="primitive"/>
        </g>
        <g transform="translate(110.93,7)" id="img-a4c993c3-14">
          <path fill="none" d="M-87.27,0 L87.27,0 " class="primitive"/>
        </g>
      </g>
      <g class="guide xgridlines yfixed" stroke-dasharray="0.5,0.5" stroke-width="0.2" stroke="#D0D0E0" id="img-a4c993c3-15">
        <g transform="translate(25.65,43.66)" id="img-a4c993c3-16">
          <path fill="none" d="M0,-38.66 L0,38.66 " class="primitive"/>
        </g>
        <g transform="translate(68.29,43.66)" id="img-a4c993c3-17">
          <path fill="none" d="M0,-38.66 L0,38.66 " class="primitive"/>
        </g>
        <g transform="translate(110.93,43.66)" id="img-a4c993c3-18">
          <path fill="none" d="M0,-38.66 L0,38.66 " class="primitive"/>
        </g>
        <g transform="translate(153.56,43.66)" id="img-a4c993c3-19">
          <path fill="none" d="M0,-38.66 L0,38.66 " class="primitive"/>
        </g>
        <g transform="translate(196.2,43.66)" id="img-a4c993c3-20">
          <path fill="none" d="M0,-38.66 L0,38.66 " class="primitive"/>
        </g>
      </g>
      <g class="plotpanel" id="img-a4c993c3-21">
        <metadata>
          <boundingbox value="23.65166666666667mm 5.0mm 174.54833333333332mm 77.315mm"/>
          <unitbox value="-234.53761885682457 0.0005136397735797588 20469.07523771365 -0.0005272795471595174"/>
        </metadata>
        <g stroke-width="0.3" fill="#000000" fill-opacity="0.000" class="geometry" id="img-a4c993c3-22">
          <g class="color_LCHab{Float32}(70.0f0,60.0f0,240.0f0)" stroke-dasharray="none" stroke="#00BFFF" id="img-a4c993c3-23">
            <g transform="translate(115.19,58.92)" id="img-a4c993c3-24">
              <path fill="none" d="M-81.01,20.99 L-80.36,20.94 -79.71,20.89 -79.06,21.24 -78.41,20.79 -77.76,20.93 -77.11,21.14 -76.46,20.67 -75.8,20.54 -75.15,20.47 -74.5,20.54 -73.85,20.34 -73.2,20.28 -72.55,20.2 -71.9,20.13 -71.25,20.04 -70.6,19.97 -69.95,21.14 -69.3,19.8 -68.65,19.73 -68,19.65 -67.35,19.56 -66.7,19.46 -66.04,19.37 -65.39,19.27 -64.74,19.19 -64.09,19.09 -63.44,18.99 -62.79,18.91 -62.14,18.8 -61.49,18.69 -60.84,18.58 -60.19,20.7 -59.54,18.37 -58.89,18.23 -58.24,18.14 -57.59,18.03 -56.94,17.93 -56.28,17.81 -55.63,18.99 -54.98,17.55 -54.33,17.41 -53.68,18.49 -53.03,17.19 -52.38,17.06 -51.73,16.93 -51.08,16.81 -50.43,16.68 -49.78,16.54 -49.13,16.42 -48.48,16.27 -47.83,16.14 -47.17,16 -46.52,15.84 -45.87,16.8 -45.22,15.56 -44.57,17.05 -43.92,15.28 -43.27,15.14 -42.62,14.97 -41.97,14.81 -41.32,16.19 -40.67,14.52 -40.02,14.37 -39.37,14.18 -38.72,14.04 -38.07,13.9 -37.41,13.74 -36.76,13.55 -36.11,13.38 -35.46,13.22 -34.81,13.06 -34.16,12.89 -33.51,12.71 -32.86,12.88 -32.21,12.36 -31.56,12.18 -30.91,12.01 -30.26,11.84 -29.61,11.64 -28.96,11.48 -28.3,11.27 -27.65,11.1 -27,10.92 -26.35,10.7 -25.7,10.54 -25.05,10.34 -24.4,10.13 -23.75,9.93 -23.1,9.75 -22.45,9.56 -21.8,9.36 -21.15,9.13 -20.5,8.97 -19.85,8.77 -19.2,13.38 -18.54,8.32 -17.89,18.6 -17.24,7.93 -16.59,7.72 -15.94,7.45 -15.29,7.3 -14.64,7.08 -13.99,6.84 -13.34,6.65 -12.69,6.42 -12.04,6.17 -11.39,5.97 -10.74,5.76 -10.09,5.52 -9.43,5.29 -8.78,15.69 -8.13,4.86 -7.48,6.5 -6.83,4.37 -6.18,8.54 -5.53,12.87 -4.88,3.68 -4.23,11.81 -3.58,3.19 -2.93,2.96 -2.28,2.73 -1.63,2.47 -0.98,2.24 -0.33,1.98 0.33,1.71 0.98,1.46 1.63,1.24 2.28,0.99 2.93,0.73 3.58,0.45 4.23,0.21 4.88,-0.04 5.53,-0.3 6.18,-0.58 6.83,-0.83 7.48,-1.1 8.13,-1.34 8.78,-1.59 9.43,7.58 10.09,-2.16 10.74,-2.42 11.39,-2.7 12.04,-2.96 12.69,-3.27 13.34,-3.52 13.99,-3.81 14.64,-4.08 15.29,-4.36 15.94,-4.64 16.59,-4.97 17.24,-5.2 17.89,-5.5 18.54,-5.77 19.2,-6.07 19.85,-6.35 20.5,-6.64 21.15,-6.91 21.8,-7.21 22.45,-7.53 23.1,-7.79 23.75,-8.15 24.4,0.39 25.05,-8.72 25.7,-9 26.35,-9.33 27,-9.6 27.65,-9.96 28.3,15.89 28.96,6.6 29.61,-10.88 30.26,3.73 30.91,-11.49 31.56,-11.77 32.21,9.42 32.86,-12.42 33.51,6.1 34.16,-13.05 34.81,-2.58 35.46,-13.69 36.11,-14.03 36.76,-14.32 37.41,-14.67 38.07,10.57 38.72,-15.34 39.37,-15.67 40.02,-16.02 40.67,-16.3 41.32,-16.65 41.97,-16.95 42.62,-17.35 43.27,19.77 43.92,-18.02 44.57,-18.35 45.22,3.9 45.87,-19.05 46.52,-15.46 47.17,-19.71 47.83,-20.04 48.48,-20.4 49.13,-20.8 49.78,-21.11 50.43,-21.44 51.08,-21.81 51.73,-10.91 52.38,-22.53 53.03,-22.9 53.68,-23.27 54.33,-23.62 54.98,-23.93 55.63,-24.31 56.28,-24.71 56.94,-25.08 57.59,-25.46 58.24,1.77 58.89,-10.73 59.54,-26.53 60.19,-26.93 60.84,-27.28 61.49,-27.63 62.14,-28 62.79,-28.41 63.44,-28.8 64.09,-29.19 64.74,5.05 65.39,12.17 66.04,-30.36 66.7,-30.67 67.35,-31.07 68,-31.47 68.65,-31.83 69.3,-32.26 69.95,-32.68 70.6,-33.02 71.25,-33.4 71.9,-33.82 72.55,-34.24 73.2,-34.62 73.85,-35.01 74.5,-35.4 75.15,-35.83 75.8,-36.21 76.46,-36.61 77.11,-37.01 77.76,-37.44 78.41,14.26 79.06,-38.27 79.71,-38.67 80.36,-39.07 81.01,-39.47 " class="primitive"/>
            </g>
          </g>
        </g>
      </g>
    </g>
  </g>
  <g class="guide ylabels" font-size="2.82" font-family="'PT Sans Caption','Helvetica Neue','Helvetica',sans-serif" fill="#6C606B" id="img-a4c993c3-25">
    <g transform="translate(22.65,80.32)" id="img-a4c993c3-26">
      <g class="primitive">
        <text text-anchor="end" dy="0.35em">0.0000</text>
      </g>
    </g>
    <g transform="translate(22.65,65.65)" id="img-a4c993c3-27">
      <g class="primitive">
        <text text-anchor="end" dy="0.35em">0.0001</text>
      </g>
    </g>
    <g transform="translate(22.65,50.99)" id="img-a4c993c3-28">
      <g class="primitive">
        <text text-anchor="end" dy="0.35em">0.0002</text>
      </g>
    </g>
    <g transform="translate(22.65,36.33)" id="img-a4c993c3-29">
      <g class="primitive">
        <text text-anchor="end" dy="0.35em">0.0003</text>
      </g>
    </g>
    <g transform="translate(22.65,21.66)" id="img-a4c993c3-30">
      <g class="primitive">
        <text text-anchor="end" dy="0.35em">0.0004</text>
      </g>
    </g>
    <g transform="translate(22.65,7)" id="img-a4c993c3-31">
      <g class="primitive">
        <text text-anchor="end" dy="0.35em">0.0005</text>
      </g>
    </g>
  </g>
  <g font-size="3.88" font-family="'PT Sans','Helvetica Neue','Helvetica',sans-serif" fill="#564A55" stroke="#000000" stroke-opacity="0.000" id="img-a4c993c3-32">
    <g transform="translate(8.81,41.66)" id="img-a4c993c3-33">
      <g class="primitive">
        <text text-anchor="middle" dy="0.35em" transform="rotate(-90,0, 2)">f(x)</text>
      </g>
    </g>
  </g>
</g>
<defs>
  <clipPath id="img-a4c993c3-4">
    <path d="M23.65,5 L198.2,5 198.2,82.32 23.65,82.32 " />
  </clipPath>
</defs>
</svg>
