<?xml version="1.0" encoding="UTF-8"?>
<svg xmlns="http://www.w3.org/2000/svg"
     xmlns:xlink="http://www.w3.org/1999/xlink"
     xmlns:gadfly="http://www.gadflyjl.org/ns"
     version="1.2"
     width="203.2mm" height="101.6mm" viewBox="0 0 203.2 101.6"
     stroke="none"
     fill="#000000"
     stroke-width="0.3"
     font-size="3.88"
>
<defs>
  <marker id="arrow" markerWidth="15" markerHeight="7" refX="5" refY="3.5" orient="auto" markerUnits="strokeWidth">
    <path d="M0,0 L15,3.5 L0,7 z" stroke="context-stroke" fill="context-stroke"/>
  </marker>
</defs>
<g class="plotroot xscalable yscalable" id="img-f7e0c29f-1">
  <g font-size="3.88" font-family="'PT Sans','Helvetica Neue','Helvetica',sans-serif" fill="#564A55" stroke="#000000" stroke-opacity="0.000" id="img-f7e0c29f-2">
    <g transform="translate(107.24,89.99)">
      <g class="primitive">
        <text text-anchor="middle" dy="0.6em">Energy (eV)</text>
      </g>
    </g>
  </g>
  <g class="guide xlabels" font-size="2.82" font-family="'PT Sans Caption','Helvetica Neue','Helvetica',sans-serif" fill="#6C606B" id="img-f7e0c29f-3">
    <g transform="translate(18.29,83.32)">
      <g class="primitive">
        <text text-anchor="middle" dy="0.6em">0</text>
      </g>
    </g>
    <g transform="translate(62.76,83.32)">
      <g class="primitive">
        <text text-anchor="middle" dy="0.6em">5.0×10³</text>
      </g>
    </g>
    <g transform="translate(107.24,83.32)">
      <g class="primitive">
        <text text-anchor="middle" dy="0.6em">1.0×10⁴</text>
      </g>
    </g>
    <g transform="translate(151.72,83.32)">
      <g class="primitive">
        <text text-anchor="middle" dy="0.6em">1.5×10⁴</text>
      </g>
    </g>
    <g transform="translate(196.2,83.32)">
      <g class="primitive">
        <text text-anchor="middle" dy="0.6em">2.0×10⁴</text>
      </g>
    </g>
  </g>
  <g clip-path="url(#img-f7e0c29f-4)">
    <g id="img-f7e0c29f-5">
      <g pointer-events="visible" stroke-width="0.3" fill="#000000" fill-opacity="0.000" stroke="#000000" stroke-opacity="0.000" class="guide background" id="img-f7e0c29f-6">
        <g transform="translate(107.24,46.46)" id="img-f7e0c29f-7">
          <path d="M-90.96,-35.85 L 90.96 -35.85 90.96 35.85 -90.96 35.85 z" class="primitive"/>
        </g>
      </g>
      <g class="guide ygridlines xfixed" stroke-dasharray="0.5,0.5" stroke-width="0.2" stroke="#D0D0E0" id="img-f7e0c29f-8">
        <g transform="translate(107.24,80.32)" id="img-f7e0c29f-9">
          <path fill="none" d="M-90.96,0 L 90.96 0" class="primitive"/>
        </g>
        <g transform="translate(107.24,66.77)" id="img-f7e0c29f-10">
          <path fill="none" d="M-90.96,0 L 90.96 0" class="primitive"/>
        </g>
        <g transform="translate(107.24,53.23)" id="img-f7e0c29f-11">
          <path fill="none" d="M-90.96,0 L 90.96 0" class="primitive"/>
        </g>
        <g transform="translate(107.24,39.69)" id="img-f7e0c29f-12">
          <path fill="none" d="M-90.96,0 L 90.96 0" class="primitive"/>
        </g>
        <g transform="translate(107.24,26.15)" id="img-f7e0c29f-13">
          <path fill="none" d="M-90.96,0 L 90.96 0" class="primitive"/>
        </g>
        <g transform="translate(107.24,12.61)" id="img-f7e0c29f-14">
          <path fill="none" d="M-90.96,0 L 90.96 0" class="primitive"/>
        </g>
      </g>
      <g class="guide xgridlines yfixed" stroke-dasharray="0.5,0.5" stroke-width="0.2" stroke="#D0D0E0" id="img-f7e0c29f-15">
        <g transform="translate(18.29,46.46)" id="img-f7e0c29f-16">
          <path fill="none" d="M0,-35.85 L 0 35.85" class="primitive"/>
        </g>
        <g transform="translate(62.76,46.46)" id="img-f7e0c29f-17">
          <path fill="none" d="M0,-35.85 L 0 35.85" class="primitive"/>
        </g>
        <g transform="translate(107.24,46.46)" id="img-f7e0c29f-18">
          <path fill="none" d="M0,-35.85 L 0 35.85" class="primitive"/>
        </g>
        <g transform="translate(151.72,46.46)" id="img-f7e0c29f-19">
          <path fill="none" d="M0,-35.85 L 0 35.85" class="primitive"/>
        </g>
        <g transform="translate(196.2,46.46)" id="img-f7e0c29f-20">
          <path fill="none" d="M0,-35.85 L 0 35.85" class="primitive"/>
        </g>
      </g>
      <g class="plotpanel" id="img-f7e0c29f-21">
        <metadata>
          <boundingbox value="16.285000000000025mm 10.611666666666665mm 181.915mm 71.70333333333333mm"/>
          <unitbox value="-224.82646207458617 5.147703215006647 20449.65292414917 -5.295406430013293"/>
        </metadata>
        <g stroke-width="0.3" fill="#000000" fill-opacity="0.000" class="geometry" id="img-f7e0c29f-22">
          <g class="color_RGB{Float64}(0.06274509803921569,0.3058823529411765,0.5450980392156862)" stroke-dasharray="none" stroke="#104E8B" id="img-f7e0c29f-23">
            <g transform="translate(107.69,50.41)" id="img-f7e0c29f-24">
              <path fill="none" d="M-88.51,-29.88 L -87.8 -24.84 -87.09 -21.76 -86.38 -19.4 -85.67 -26.7 -84.96 -27.57 -84.25 -27.62 -83.54 -26.72 -82.83 -25.7 -82.11 -24.47 -81.4 -23.31 -80.69 -22.24 -79.98 -21.2 -79.27 -20.21 -78.56 -19.28 -77.85 -18.41 -77.14 -17.58 -76.43 -16.79 -75.72 -16.03 -75 -15.29 -74.29 -14.59 -73.58 -13.93 -72.87 -13.31 -72.16 -12.71 -71.45 -12.14 -70.74 -11.6 -70.03 -11.08 -69.32 -10.57 -68.61 -10.09 -67.9 -9.61 -67.18 -9.14 -66.47 -8.69 -65.76 -8.25 -65.05 -7.83 -64.34 -7.42 -63.63 -7.03 -62.92 -6.61 -62.21 -6.21 -61.5 -5.8 -60.79 -5.39 -60.07 -4.99 -59.36 -11.78 -58.65 -11.54 -57.94 -12.7 -57.23 -12.83 -56.52 -12.54 -55.81 -12.24 -55.1 -12.75 -54.39 -12.44 -53.68 -12.14 -52.97 -11.84 -52.25 -11.53 -51.54 -11.24 -50.83 -10.95 -50.12 -10.66 -49.41 -10.38 -48.7 -10.11 -47.99 -9.84 -47.28 -9.58 -46.57 -9.32 -45.86 -9.07 -45.15 -8.82 -44.43 -8.57 -43.72 -8.33 -43.01 -8.1 -42.3 -7.86 -41.59 -7.63 -40.88 -7.41 -40.17 -7.19 -39.46 -6.97 -38.75 -6.75 -38.04 -6.54 -37.32 -6.33 -36.61 -6.13 -35.9 -5.92 -35.19 -5.72 -34.48 -5.53 -33.77 -5.33 -33.06 -5.14 -32.35 -4.95 -31.64 -4.76 -30.93 -4.57 -30.22 -4.39 -29.5 -4.21 -28.79 -4.03 -28.08 -3.85 -27.37 -3.67 -26.66 -3.49 -25.95 -3.32 -25.24 -3.14 -24.53 -2.97 -23.82 -2.8 -23.11 -2.63 -22.39 -2.47 -21.68 -2.3 -20.97 -2.14 -20.26 -1.98 -19.55 -1.82 -18.84 -1.66 -18.13 -1.5 -17.42 -1.35 -16.71 -1.2 -16 -1.04 -15.29 -0.89 -14.57 -0.74 -13.86 -0.6 -13.15 -0.45 -12.44 -0.3 -11.73 -0.16 -11.02 -0.01 -10.31 0.13 -9.6 0.27 -8.89 0.41 -8.18 0.55 -7.46 0.7 -6.75 0.84 -6.04 0.98 -5.33 1.12 -4.62 1.26 -3.91 1.4 -3.2 1.53 -2.49 1.67 -1.78 1.8 -1.07 1.93 -0.36 2.06 0.36 2.19 1.07 2.32 1.78 2.45 2.49 2.58 3.2 2.7 3.91 2.83 4.62 2.95 5.33 3.07 6.04 3.2 6.75 3.32 7.46 3.44 8.18 3.56 8.89 3.67 9.6 3.79 10.31 3.91 11.02 4.02 11.73 4.14 12.44 4.25 13.15 4.37 13.86 4.48 14.57 4.59 15.29 4.7 16 4.81 16.71 4.92 17.42 5.03 18.13 5.14 18.84 5.24 19.55 5.35 20.26 5.45 20.97 5.56 21.68 5.66 22.39 5.77 23.11 5.87 23.82 5.97 24.53 6.07 25.24 6.17 25.95 6.27 26.66 6.37 27.37 6.47 28.08 6.57 28.79 6.66 29.5 6.76 30.22 6.86 30.93 6.95 31.64 7.05 32.35 7.14 33.06 7.24 33.77 7.33 34.48 7.42 35.19 7.51 35.9 7.6 36.61 7.7 37.32 7.79 38.04 7.88 38.75 7.97 39.46 8.06 40.17 8.15 40.88 8.23 41.59 8.32 42.3 8.41 43.01 8.5 43.72 8.59 44.43 8.67 45.15 8.76 45.86 8.85 46.57 8.93 47.28 9.02 47.99 9.1 48.7 9.18 49.41 9.27 50.12 9.35 50.83 9.44 51.54 9.52 52.25 9.6 52.97 9.68 53.68 9.76 54.39 9.84 55.1 9.93 55.81 10.01 56.52 10.09 57.23 10.17 57.94 10.25 58.65 10.33 59.36 10.41 60.07 10.49 60.79 10.57 61.5 10.64 62.21 10.72 62.92 10.8 63.63 10.88 64.34 10.96 65.05 11.03 65.76 11.11 66.47 11.19 67.18 11.26 67.9 11.34 68.61 11.41 69.32 11.49 70.03 11.56 70.74 11.64 71.45 11.71 72.16 11.78 72.87 11.86 73.58 11.93 74.29 12 75 12.07 75.72 12.14 76.43 12.22 77.14 12.29 77.85 12.36 78.56 12.43 79.27 12.5 79.98 12.57 80.69 12.64 81.4 12.71 82.11 12.77 82.83 12.84 83.54 12.91 84.25 12.98 84.96 13.05 85.67 13.11 86.38 13.18 87.09 13.25 87.8 13.31 88.51 13.38" class="primitive"/>
            </g>
          </g>
        </g>
        <g stroke-width="0.3" fill="#000000" fill-opacity="0.000" class="geometry" id="img-f7e0c29f-25">
          <g class="color_RGB{Float64}(0.06274509803921569,0.3058823529411765,0.5450980392156862)" stroke-dasharray="none" stroke="#104E8B" id="img-f7e0c29f-26">
            <g transform="translate(107.69,50.41)" id="img-f7e0c29f-27">
              <path fill="none" d="M-88.51,-29.88 L -87.8 -24.84 -87.09 -21.76 -86.38 -19.4 -85.67 -26.7 -84.96 -27.57 -84.25 -27.62 -83.54 -26.72 -82.83 -25.7 -82.11 -24.47 -81.4 -23.31 -80.69 -22.24 -79.98 -21.2 -79.27 -20.21 -78.56 -19.28 -77.85 -18.41 -77.14 -17.58 -76.43 -16.79 -75.72 -16.03 -75 -15.29 -74.29 -14.59 -73.58 -13.93 -72.87 -13.31 -72.16 -12.71 -71.45 -12.14 -70.74 -11.6 -70.03 -11.08 -69.32 -10.57 -68.61 -10.09 -67.9 -9.61 -67.18 -9.14 -66.47 -8.69 -65.76 -8.25 -65.05 -7.83 -64.34 -7.42 -63.63 -7.03 -62.92 -6.61 -62.21 -6.21 -61.5 -5.8 -60.79 -5.39 -60.07 -4.99 -59.36 -11.78 -58.65 -11.54 -57.94 -12.7 -57.23 -12.83 -56.52 -12.54 -55.81 -12.24 -55.1 -12.75 -54.39 -12.44 -53.68 -12.14 -52.97 -11.84 -52.25 -11.53 -51.54 -11.24 -50.83 -10.95 -50.12 -10.66 -49.41 -10.38 -48.7 -10.11 -47.99 -9.84 -47.28 -9.58 -46.57 -9.32 -45.86 -9.07 -45.15 -8.82 -44.43 -8.57 -43.72 -8.33 -43.01 -8.1 -42.3 -7.86 -41.59 -7.63 -40.88 -7.41 -40.17 -7.19 -39.46 -6.97 -38.75 -6.75 -38.04 -6.54 -37.32 -6.33 -36.61 -6.13 -35.9 -5.92 -35.19 -5.72 -34.48 -5.53 -33.77 -5.33 -33.06 -5.14 -32.35 -4.95 -31.64 -4.76 -30.93 -4.57 -30.22 -4.39 -29.5 -4.21 -28.79 -4.03 -28.08 -3.85 -27.37 -3.67 -26.66 -3.49 -25.95 -3.32 -25.24 -3.14 -24.53 -2.97 -23.82 -2.8 -23.11 -2.63 -22.39 -2.47 -21.68 -2.3 -20.97 -2.14 -20.26 -1.98 -19.55 -1.82 -18.84 -1.66 -18.13 -1.5 -17.42 -1.35 -16.71 -1.2 -16 -1.04 -15.29 -0.89 -14.57 -0.74 -13.86 -0.6 -13.15 -0.45 -12.44 -0.3 -11.73 -0.16 -11.02 -0.01 -10.31 0.13 -9.6 0.27 -8.89 0.41 -8.18 0.55 -7.46 0.7 -6.75 0.84 -6.04 0.98 -5.33 1.12 -4.62 1.26 -3.91 1.4 -3.2 1.53 -2.49 1.67 -1.78 1.8 -1.07 1.93 -0.36 2.06 0.36 2.19 1.07 2.32 1.78 2.45 2.49 2.58 3.2 2.7 3.91 2.83 4.62 2.95 5.33 3.07 6.04 3.2 6.75 3.32 7.46 3.44 8.18 3.56 8.89 3.67 9.6 3.79 10.31 3.91 11.02 4.02 11.73 4.14 12.44 4.25 13.15 4.37 13.86 4.48 14.57 4.59 15.29 4.7 16 4.81 16.71 4.92 17.42 5.03 18.13 5.14 18.84 5.24 19.55 5.35 20.26 5.45 20.97 5.56 21.68 5.66 22.39 5.77 23.11 5.87 23.82 5.97 24.53 6.07 25.24 6.17 25.95 6.27 26.66 6.37 27.37 6.47 28.08 6.57 28.79 6.66 29.5 6.76 30.22 6.86 30.93 6.95 31.64 7.05 32.35 7.14 33.06 7.24 33.77 7.33 34.48 7.42 35.19 7.51 35.9 7.6 36.61 7.7 37.32 7.79 38.04 7.88 38.75 7.97 39.46 8.06 40.17 8.15 40.88 8.23 41.59 8.32 42.3 8.41 43.01 8.5 43.72 8.59 44.43 8.67 45.15 8.76 45.86 8.85 46.57 8.93 47.28 9.02 47.99 9.1 48.7 9.18 49.41 9.27 50.12 9.35 50.83 9.44 51.54 9.52 52.25 9.6 52.97 9.68 53.68 9.76 54.39 9.84 55.1 9.93 55.81 10.01 56.52 10.09 57.23 10.17 57.94 10.25 58.65 10.33 59.36 10.41 60.07 10.49 60.79 10.57 61.5 10.64 62.21 10.72 62.92 10.8 63.63 10.88 64.34 10.96 65.05 11.03 65.76 11.11 66.47 11.19 67.18 11.26 67.9 11.34 68.61 11.41 69.32 11.49 70.03 11.56 70.74 11.64 71.45 11.71 72.16 11.78 72.87 11.86 73.58 11.93 74.29 12 75 12.07 75.72 12.14 76.43 12.22 77.14 12.29 77.85 12.36 78.56 12.43 79.27 12.5 79.98 12.57 80.69 12.64 81.4 12.71 82.11 12.77 82.83 12.84 83.54 12.91 84.25 12.98 84.96 13.05 85.67 13.11 86.38 13.18 87.09 13.25 87.8 13.31 88.51 13.38" class="primitive"/>
            </g>
          </g>
        </g>
      </g>
    </g>
  </g>
  <g class="guide ylabels" font-size="2.82" font-family="'PT Sans Caption','Helvetica Neue','Helvetica',sans-serif" fill="#6C606B" id="img-f7e0c29f-28">
    <g transform="translate(15.28,80.32)" id="img-f7e0c29f-29">
      <g class="primitive">
        <text text-anchor="end" dy="0.35em">0</text>
      </g>
    </g>
    <g transform="translate(15.28,66.77)" id="img-f7e0c29f-30">
      <g class="primitive">
        <text text-anchor="end" dy="0.35em">1</text>
      </g>
    </g>
    <g transform="translate(15.28,53.23)" id="img-f7e0c29f-31">
      <g class="primitive">
        <text text-anchor="end" dy="0.35em">2</text>
      </g>
    </g>
    <g transform="translate(15.28,39.69)" id="img-f7e0c29f-32">
      <g class="primitive">
        <text text-anchor="end" dy="0.35em">3</text>
      </g>
    </g>
    <g transform="translate(15.28,26.15)" id="img-f7e0c29f-33">
      <g class="primitive">
        <text text-anchor="end" dy="0.35em">4</text>
      </g>
    </g>
    <g transform="translate(15.28,12.61)" id="img-f7e0c29f-34">
      <g class="primitive">
        <text text-anchor="end" dy="0.35em">5</text>
      </g>
    </g>
  </g>
  <g font-size="3.88" font-family="'PT Sans','Helvetica Neue','Helvetica',sans-serif" fill="#564A55" stroke="#000000" stroke-opacity="0.000" id="img-f7e0c29f-35">
    <g transform="translate(8.81,44.46)" id="img-f7e0c29f-36">
      <g class="primitive">
        <text text-anchor="middle" dy="0.35em" transform="rotate(-90,0, 2)">log₁₀(MAC (cm²/g))</text>
      </g>
    </g>
  </g>
  <g font-size="3.88" font-family="'PT Sans','Helvetica Neue','Helvetica',sans-serif" fill="#564A55" stroke="#000000" stroke-opacity="0.000" id="img-f7e0c29f-37">
    <g transform="translate(107.24,5)" id="img-f7e0c29f-38">
      <g class="primitive">
        <text text-anchor="middle" dy="0.6em">MAC - Silver</text>
      </g>
    </g>
  </g>
</g>
<defs>
  <clipPath id="img-f7e0c29f-4">
    <path d="M16.29,10.61 L 198.2 10.61 198.2 82.32 16.29 82.32" />
  </clipPath>
</defs>
</svg>
