<?xml version="1.0" encoding="UTF-8"?>
<svg xmlns="http://www.w3.org/2000/svg"
     xmlns:xlink="http://www.w3.org/1999/xlink"
     xmlns:gadfly="http://www.gadflyjl.org/ns"
     version="1.2"
     width="203.2mm" height="101.6mm" viewBox="0 0 203.2 101.6"
     stroke="none"
     fill="#000000"
     stroke-width="0.3"
     font-size="3.88"
>
<defs>
  <marker id="arrow" markerWidth="15" markerHeight="7" refX="5" refY="3.5" orient="auto" markerUnits="strokeWidth">
    <path d="M0,0 L15,3.5 L0,7 z" stroke="context-stroke" fill="context-stroke"/>
  </marker>
</defs>
<g class="plotroot xscalable yscalable" id="img-c99b7022-1">
  <g font-size="3.88" font-family="'PT Sans','Helvetica Neue','Helvetica',sans-serif" fill="#564A55" stroke="#000000" stroke-opacity="0.000" id="img-c99b7022-2">
    <g transform="translate(108.92,89.99)">
      <g class="primitive">
        <text text-anchor="middle" dy="0.6em">x</text>
      </g>
    </g>
  </g>
  <g class="guide xlabels" font-size="2.82" font-family="'PT Sans Caption','Helvetica Neue','Helvetica',sans-serif" fill="#6C606B" id="img-c99b7022-3">
    <g transform="translate(21.63,83.32)">
      <g class="primitive">
        <text text-anchor="middle" dy="0.6em">0</text>
      </g>
    </g>
    <g transform="translate(65.27,83.32)">
      <g class="primitive">
        <text text-anchor="middle" dy="0.6em">5.00×10³</text>
      </g>
    </g>
    <g transform="translate(108.92,83.32)">
      <g class="primitive">
        <text text-anchor="middle" dy="0.6em">1.00×10⁴</text>
      </g>
    </g>
    <g transform="translate(152.56,83.32)">
      <g class="primitive">
        <text text-anchor="middle" dy="0.6em">1.50×10⁴</text>
      </g>
    </g>
    <g transform="translate(196.2,83.32)">
      <g class="primitive">
        <text text-anchor="middle" dy="0.6em">2.00×10⁴</text>
      </g>
    </g>
  </g>
  <g clip-path="url(#img-c99b7022-4)">
    <g id="img-c99b7022-5">
      <g pointer-events="visible" stroke-width="0.3" fill="#000000" fill-opacity="0.000" stroke="#000000" stroke-opacity="0.000" class="guide background" id="img-c99b7022-6">
        <g transform="translate(108.92,43.66)" id="img-c99b7022-7">
          <path d="M-89.28,-38.66 L89.28,-38.66 89.28,38.66 -89.28,38.66  z" class="primitive"/>
        </g>
      </g>
      <g class="guide ygridlines xfixed" stroke-dasharray="0.5,0.5" stroke-width="0.2" stroke="#D0D0E0" id="img-c99b7022-8">
        <g transform="translate(108.92,80.32)" id="img-c99b7022-9">
          <path fill="none" d="M-89.28,0 L89.28,0 " class="primitive"/>
        </g>
        <g transform="translate(108.92,61.99)" id="img-c99b7022-10">
          <path fill="none" d="M-89.28,0 L89.28,0 " class="primitive"/>
        </g>
        <g transform="translate(108.92,43.66)" id="img-c99b7022-11">
          <path fill="none" d="M-89.28,0 L89.28,0 " class="primitive"/>
        </g>
        <g transform="translate(108.92,25.33)" id="img-c99b7022-12">
          <path fill="none" d="M-89.28,0 L89.28,0 " class="primitive"/>
        </g>
        <g transform="translate(108.92,7)" id="img-c99b7022-13">
          <path fill="none" d="M-89.28,0 L89.28,0 " class="primitive"/>
        </g>
      </g>
      <g class="guide xgridlines yfixed" stroke-dasharray="0.5,0.5" stroke-width="0.2" stroke="#D0D0E0" id="img-c99b7022-14">
        <g transform="translate(21.63,43.66)" id="img-c99b7022-15">
          <path fill="none" d="M0,-38.66 L0,38.66 " class="primitive"/>
        </g>
        <g transform="translate(65.27,43.66)" id="img-c99b7022-16">
          <path fill="none" d="M0,-38.66 L0,38.66 " class="primitive"/>
        </g>
        <g transform="translate(108.92,43.66)" id="img-c99b7022-17">
          <path fill="none" d="M0,-38.66 L0,38.66 " class="primitive"/>
        </g>
        <g transform="translate(152.56,43.66)" id="img-c99b7022-18">
          <path fill="none" d="M0,-38.66 L0,38.66 " class="primitive"/>
        </g>
        <g transform="translate(196.2,43.66)" id="img-c99b7022-19">
          <path fill="none" d="M0,-38.66 L0,38.66 " class="primitive"/>
        </g>
      </g>
      <g class="plotpanel" id="img-c99b7022-20">
        <metadata>
          <boundingbox value="19.63166666666669mm 5.0mm 178.56833333333333mm 77.315mm"/>
          <unitbox value="-229.13663226434727 410.91181886380684 20458.273264528692 -421.82363772761374"/>
        </metadata>
        <g stroke-width="0.3" fill="#000000" fill-opacity="0.000" class="geometry" id="img-c99b7022-21">
          <g class="color_LCHab{Float32}(70.0f0,60.0f0,240.0f0)" stroke-dasharray="none" stroke="#00BFFF" id="img-c99b7022-22">
            <g transform="translate(113.28,46.86)" id="img-c99b7022-23">
              <path fill="none" d="M-82.92,27.4 L-82.25,27.22 -81.59,26.3 -80.92,32.17 -80.26,31.44 -79.59,30.89 -78.92,26.49 -78.26,26.3 -77.59,23.92 -76.93,24.65 -76.26,24.84 -75.59,24.84 -74.93,20.99 -74.26,26.12 -73.6,22.27 -72.93,22.09 -72.26,22.82 -71.6,23.55 -70.93,22.27 -70.27,20.44 -69.6,24.1 -68.93,18.24 -68.27,23.19 -67.6,18.42 -66.94,20.81 -66.27,21.17 -65.6,32.72 -64.94,20.44 -64.27,20.44 -63.61,18.79 -62.94,18.79 -62.27,17.51 -61.61,18.79 -60.94,17.51 -60.28,18.61 -59.61,18.24 -58.94,17.32 -58.28,17.87 -57.61,10.72 -56.95,13.84 -56.28,29.97 -55.61,18.06 -54.95,14.02 -54.28,16.59 -53.61,13.11 -52.95,15.86 -52.28,13.29 -51.62,12.37 -50.95,14.02 -50.28,15.67 -49.62,10.17 -48.95,13.29 -48.29,12.19 -47.62,12.74 -46.95,11.64 -46.29,12.01 -45.62,32.54 -44.96,11.09 -44.29,11.64 -43.62,10.72 -42.96,9.44 -42.29,8.71 -41.63,11.27 -40.96,10.72 -40.29,7.61 -39.63,13.29 -38.96,13.84 -38.3,7.61 -37.63,9.07 -36.96,13.11 -36.3,11.82 -35.63,8.89 -34.97,25.39 -34.3,7.61 -33.63,6.33 -32.97,7.43 -32.3,5.41 -31.64,8.53 -30.97,8.53 -30.3,6.51 -29.64,7.98 -28.97,6.14 -28.31,5.41 -27.64,32.17 -26.97,24.84 -26.31,5.96 -25.64,6.14 -24.98,5.78 -24.31,6.88 -23.64,0.83 -22.98,3.39 -22.31,0.83 -21.65,1.01 -20.98,5.41 -20.31,-1.56 -19.65,5.41 -18.98,13.66 -18.32,32.72 -17.65,1.01 -16.98,0.28 -16.32,2.66 -15.65,0.83 -14.99,2.66 -14.32,-2.29 -13.65,0.64 -12.99,-1.74 -12.32,21.17 -11.66,1.56 -10.99,2.84 -10.32,-1.56 -9.66,-0.82 -8.99,23.92 -8.33,-4.49 -7.66,-3.21 -6.99,-4.31 -6.33,-2.84 -5.66,-0.09 -5,-5.04 -4.33,-2.84 -3.66,-3.57 -3,-8.7 -2.33,-4.12 -1.67,-3.76 -1,-5.77 -0.33,-3.39 0.33,14.39 1,-5.77 1.67,20.07 2.33,-5.4 3,15.86 3.66,-8.15 4.33,30.34 5,15.86 5.66,-10.9 6.33,-4.49 6.99,-1.92 7.66,-3.02 8.33,-6.87 8.99,-4.85 9.66,-7.79 10.32,-11.45 10.99,-7.42 11.66,-6.14 12.32,-5.95 12.99,-5.4 13.65,-7.79 14.32,-8.15 14.99,28.69 15.65,-3.76 16.32,-6.14 16.98,-13.65 17.65,-15.12 18.32,-11.45 18.98,-5.77 19.65,-9.44 20.31,-7.6 20.98,-9.07 21.65,0.28 22.31,-11.09 22.98,-14.94 23.64,-10.9 24.31,-8.34 24.98,-12.37 25.64,-8.89 26.31,-11.27 26.97,22.45 27.64,10.17 28.31,-15.12 28.97,-17.69 29.64,-15.3 30.3,15.12 30.97,-17.5 31.64,-18.97 32.3,-17.14 32.97,31.99 33.63,-15.85 34.3,-16.22 34.97,-17.14 35.63,-17.5 36.3,-13.47 36.96,-17.14 37.63,-14.02 38.3,-17.5 38.96,-21.35 39.63,-19.52 40.29,-11.82 40.96,-1.74 41.63,-21.17 42.29,-17.87 42.96,14.39 43.62,-16.22 44.29,-16.4 44.96,-22.82 45.62,-20.43 46.29,-18.05 46.95,-18.42 47.62,-18.97 48.29,-19.33 48.95,-23.37 49.62,-19.15 50.28,-19.52 50.95,-19.52 51.62,-20.98 52.28,-20.8 52.95,-19.88 53.61,-25.93 54.28,-22.27 54.95,-20.07 55.61,16.77 56.28,-27.77 56.95,-19.33 57.61,-22.45 58.28,-24.65 58.94,-27.95 59.61,11.46 60.28,-25.75 60.94,9.81 61.61,-20.98 62.27,-23.55 62.94,-32.16 63.61,-26.67 64.27,-29.6 64.94,-23.92 65.6,-24.28 66.27,-21.53 66.94,-22.82 67.6,-23.92 68.27,-26.3 68.93,-27.03 69.6,-28.87 70.27,-23.18 70.93,-22.63 71.6,-27.4 72.26,13.84 72.93,-28.5 73.6,18.61 74.26,-33.81 74.93,7.79 75.59,4.31 76.26,-32.16 76.93,-31.61 77.59,-29.97 78.26,-28.87 78.92,-34.18 79.59,-29.78 80.26,-29.78 80.92,-34.18 81.59,-32.9 82.25,20.81 82.92,-25.75 " class="primitive"/>
            </g>
          </g>
        </g>
      </g>
    </g>
  </g>
  <g class="guide ylabels" font-size="2.82" font-family="'PT Sans Caption','Helvetica Neue','Helvetica',sans-serif" fill="#6C606B" id="img-c99b7022-24">
    <g transform="translate(18.63,80.32)" id="img-c99b7022-25">
      <g class="primitive">
        <text text-anchor="end" dy="0.35em">0</text>
      </g>
    </g>
    <g transform="translate(18.63,61.99)" id="img-c99b7022-26">
      <g class="primitive">
        <text text-anchor="end" dy="0.35em">100</text>
      </g>
    </g>
    <g transform="translate(18.63,43.66)" id="img-c99b7022-27">
      <g class="primitive">
        <text text-anchor="end" dy="0.35em">200</text>
      </g>
    </g>
    <g transform="translate(18.63,25.33)" id="img-c99b7022-28">
      <g class="primitive">
        <text text-anchor="end" dy="0.35em">300</text>
      </g>
    </g>
    <g transform="translate(18.63,7)" id="img-c99b7022-29">
      <g class="primitive">
        <text text-anchor="end" dy="0.35em">400</text>
      </g>
    </g>
  </g>
  <g font-size="3.88" font-family="'PT Sans','Helvetica Neue','Helvetica',sans-serif" fill="#564A55" stroke="#000000" stroke-opacity="0.000" id="img-c99b7022-30">
    <g transform="translate(8.81,41.66)" id="img-c99b7022-31">
      <g class="primitive">
        <text text-anchor="middle" dy="0.35em" transform="rotate(-90,0, 2)">f(x)</text>
      </g>
    </g>
  </g>
</g>
<defs>
  <clipPath id="img-c99b7022-4">
    <path d="M19.63,5 L198.2,5 198.2,82.32 19.63,82.32 " />
  </clipPath>
</defs>
</svg>
