<?xml version="1.0" encoding="UTF-8"?>
<svg xmlns="http://www.w3.org/2000/svg"
     xmlns:xlink="http://www.w3.org/1999/xlink"
     xmlns:gadfly="http://www.gadflyjl.org/ns"
     version="1.2"
     width="203.2mm" height="101.6mm" viewBox="0 0 203.2 101.6"
     stroke="none"
     fill="#000000"
     stroke-width="0.3"
     font-size="3.88"
>
<defs>
  <marker id="arrow" markerWidth="15" markerHeight="7" refX="5" refY="3.5" orient="auto" markerUnits="strokeWidth">
    <path d="M0,0 L15,3.5 L0,7 z" stroke="context-stroke" fill="context-stroke"/>
  </marker>
</defs>
<g class="plotroot xscalable yscalable" id="img-2a2803cd-1">
  <g font-size="3.88" font-family="'PT Sans','Helvetica Neue','Helvetica',sans-serif" fill="#564A55" stroke="#000000" stroke-opacity="0.000" id="img-2a2803cd-2">
    <g transform="translate(96.72,89.99)">
      <g class="primitive">
        <text text-anchor="middle" dy="0.6em">Energy (eV)</text>
      </g>
    </g>
  </g>
  <g class="guide xlabels" font-size="2.82" font-family="'PT Sans Caption','Helvetica Neue','Helvetica',sans-serif" fill="#6C606B" id="img-2a2803cd-3">
    <g transform="translate(19.4,83.32)">
      <g class="primitive">
        <text text-anchor="middle" dy="0.6em">0</text>
      </g>
    </g>
    <g transform="translate(58.06,83.32)">
      <g class="primitive">
        <text text-anchor="middle" dy="0.6em">5.00×10³</text>
      </g>
    </g>
    <g transform="translate(96.72,83.32)">
      <g class="primitive">
        <text text-anchor="middle" dy="0.6em">1.00×10⁴</text>
      </g>
    </g>
    <g transform="translate(135.38,83.32)">
      <g class="primitive">
        <text text-anchor="middle" dy="0.6em">1.50×10⁴</text>
      </g>
    </g>
    <g transform="translate(174.05,83.32)">
      <g class="primitive">
        <text text-anchor="middle" dy="0.6em">2.00×10⁴</text>
      </g>
    </g>
  </g>
  <g class="guide colorkey" id="img-2a2803cd-4">
    <g fill="#4C404B" font-size="2.82" font-family="'PT Sans','Helvetica Neue','Helvetica',sans-serif" id="img-2a2803cd-5">
      <g transform="translate(180.67,47.21)" id="img-2a2803cd-6">
        <g class="primitive">
          <text dy="0.35em">Default/FFAST</text>
        </g>
      </g>
      <g transform="translate(180.67,50.83)" id="img-2a2803cd-7">
        <g class="primitive">
          <text dy="0.35em">Heinrich</text>
        </g>
      </g>
    </g>
    <g stroke-width="0.3" id="img-2a2803cd-8">
      <g stroke="#FFFFFF" fill-opacity="1" fill="#B70002" id="img-2a2803cd-9">
        <g transform="translate(177.86,50.83)" id="img-2a2803cd-10">
          <circle cx="0" cy="0" r="0.9" class="primitive"/>
        </g>
      </g>
      <g stroke="#FFFFFF" fill-opacity="1" fill="#104E8B" id="img-2a2803cd-11">
        <g transform="translate(177.86,47.21)" id="img-2a2803cd-12">
          <circle cx="0" cy="0" r="0.9" class="primitive"/>
        </g>
      </g>
    </g>
    <g fill="#362A35" font-size="3.88" font-family="'PT Sans','Helvetica Neue','Helvetica',sans-serif" stroke="#000000" stroke-opacity="0.000" id="img-2a2803cd-13">
      <g transform="translate(177.05,43.89)" id="img-2a2803cd-14">
        <g class="primitive">
          <text dy="-0em">Type</text>
        </g>
      </g>
    </g>
  </g>
  <g clip-path="url(#img-2a2803cd-15)">
    <g id="img-2a2803cd-16">
      <g pointer-events="visible" stroke-width="0.3" fill="#000000" fill-opacity="0.000" stroke="#000000" stroke-opacity="0.000" class="guide background" id="img-2a2803cd-17">
        <g transform="translate(96.72,46.46)" id="img-2a2803cd-18">
          <path d="M-79.32,-35.85 L79.32,-35.85 79.32,35.85 -79.32,35.85  z" class="primitive"/>
        </g>
      </g>
      <g class="guide ygridlines xfixed" stroke-dasharray="0.5,0.5" stroke-width="0.2" stroke="#D0D0E0" id="img-2a2803cd-19">
        <g transform="translate(96.72,80.32)" id="img-2a2803cd-20">
          <path fill="none" d="M-79.32,0 L79.32,0 " class="primitive"/>
        </g>
        <g transform="translate(96.72,69.03)" id="img-2a2803cd-21">
          <path fill="none" d="M-79.32,0 L79.32,0 " class="primitive"/>
        </g>
        <g transform="translate(96.72,57.75)" id="img-2a2803cd-22">
          <path fill="none" d="M-79.32,0 L79.32,0 " class="primitive"/>
        </g>
        <g transform="translate(96.72,46.46)" id="img-2a2803cd-23">
          <path fill="none" d="M-79.32,0 L79.32,0 " class="primitive"/>
        </g>
        <g transform="translate(96.72,35.18)" id="img-2a2803cd-24">
          <path fill="none" d="M-79.32,0 L79.32,0 " class="primitive"/>
        </g>
        <g transform="translate(96.72,23.9)" id="img-2a2803cd-25">
          <path fill="none" d="M-79.32,0 L79.32,0 " class="primitive"/>
        </g>
        <g transform="translate(96.72,12.61)" id="img-2a2803cd-26">
          <path fill="none" d="M-79.32,0 L79.32,0 " class="primitive"/>
        </g>
      </g>
      <g class="guide xgridlines yfixed" stroke-dasharray="0.5,0.5" stroke-width="0.2" stroke="#D0D0E0" id="img-2a2803cd-27">
        <g transform="translate(19.4,46.46)" id="img-2a2803cd-28">
          <path fill="none" d="M0,-35.85 L0,35.85 " class="primitive"/>
        </g>
        <g transform="translate(58.06,46.46)" id="img-2a2803cd-29">
          <path fill="none" d="M0,-35.85 L0,35.85 " class="primitive"/>
        </g>
        <g transform="translate(96.72,46.46)" id="img-2a2803cd-30">
          <path fill="none" d="M0,-35.85 L0,35.85 " class="primitive"/>
        </g>
        <g transform="translate(135.38,46.46)" id="img-2a2803cd-31">
          <path fill="none" d="M0,-35.85 L0,35.85 " class="primitive"/>
        </g>
        <g transform="translate(174.05,46.46)" id="img-2a2803cd-32">
          <path fill="none" d="M0,-35.85 L0,35.85 " class="primitive"/>
        </g>
      </g>
      <g class="plotpanel" id="img-2a2803cd-33">
        <metadata>
          <boundingbox value="17.39833333333334mm 10.611666666666665mm 158.6483333333333mm 71.70333333333333mm"/>
          <unitbox value="-258.65134875901236 5.177243858007976 20517.302697518022 -6.354487716015951"/>
        </metadata>
        <g stroke-width="0.3" fill="#000000" fill-opacity="0.000" class="geometry" id="img-2a2803cd-34">
          <g class="color_RGB{N0f8}(0.718,0.0,0.008)" stroke-dasharray="none" stroke="#B70002" id="img-2a2803cd-35">
            <g transform="translate(97.11,61.11)" id="img-2a2803cd-36">
              <path fill="none" d="M-76.94,-41.34 L-76.32,-34.86 -75.7,-30.47 -75.08,-43.08 -74.47,-40.61 -73.85,-38.53 -73.23,-36.72 -72.61,-35.1 -71.99,-33.65 -71.38,-32.32 -70.76,-31.1 -70.14,-29.97 -69.52,-28.91 -68.9,-27.92 -68.29,-26.99 -67.67,-26.11 -67.05,-25.28 -66.43,-24.48 -65.81,-23.73 -65.2,-23 -64.58,-22.31 -63.96,-21.65 -63.34,-21.02 -62.72,-20.4 -62.11,-19.82 -61.49,-19.25 -60.87,-18.7 -60.25,-18.17 -59.63,-17.66 -59.02,-17.17 -58.4,-16.69 -57.78,-16.22 -57.16,-15.77 -56.54,-15.34 -55.93,-14.91 -55.31,-14.49 -54.69,-14.09 -54.07,-13.7 -53.45,-13.32 -52.84,-12.94 -52.22,-12.58 -51.6,-12.22 -50.98,-11.87 -50.36,-11.53 -49.75,-11.2 -49.13,-10.88 -48.51,-10.56 -47.89,-10.25 -47.27,-9.94 -46.66,-9.64 -46.04,-9.35 -45.42,-9.06 -44.8,-8.78 -44.19,-8.5 -43.57,-8.23 -42.95,-7.96 -42.33,-7.7 -41.71,-7.44 -41.1,-7.19 -40.48,-6.94 -39.86,-6.69 -39.24,-6.45 -38.62,-6.22 -38.01,-5.98 -37.39,-5.75 -36.77,-5.53 -36.15,-5.3 -35.53,-5.08 -34.92,-4.87 -34.3,-4.65 -33.68,-4.44 -33.06,-4.23 -32.44,-4.03 -31.83,-3.83 -31.21,-3.63 -30.59,-3.43 -29.97,-3.24 -29.35,-3.05 -28.74,-2.86 -28.12,-2.67 -27.5,-2.49 -26.88,-2.3 -26.26,-2.12 -25.65,-1.95 -25.03,-1.77 -24.41,-1.6 -23.79,-1.42 -23.17,-1.26 -22.56,-1.09 -21.94,-0.92 -21.32,-0.76 -20.7,-0.59 -20.08,-0.43 -19.47,-0.28 -18.85,-0.12 -18.23,0.04 -17.61,0.19 -16.99,0.34 -16.38,0.49 -15.76,0.64 -15.14,0.79 -14.52,0.94 -13.9,1.08 -13.29,1.23 -12.67,1.37 -12.05,1.51 -11.43,1.65 -10.81,1.79 -10.2,1.92 -9.58,2.06 -8.96,2.19 -8.34,2.33 -7.72,2.46 -7.11,2.59 -6.49,2.72 -5.87,2.85 -5.25,2.98 -4.63,3.1 -4.02,3.23 -3.4,3.35 -2.78,3.48 -2.16,3.6 -1.54,3.72 -0.93,3.84 -0.31,3.96 0.31,4.08 0.93,4.2 1.54,4.31 2.16,4.43 2.78,4.54 3.4,4.66 4.02,4.77 4.63,4.88 5.25,4.99 5.87,5.1 6.49,5.21 7.11,5.32 7.72,5.43 8.34,5.54 8.96,5.64 9.58,5.75 10.2,5.86 10.81,5.96 11.43,6.06 12.05,6.17 12.67,6.27 13.29,6.37 13.9,6.47 14.52,6.57 15.14,6.67 15.76,6.77 16.38,6.87 16.99,6.97 17.61,7.06 18.23,7.16 18.85,7.25 19.47,7.35 20.08,7.44 20.7,7.54 21.32,7.63 21.94,7.72 22.56,7.82 23.17,7.91 23.79,8 24.41,8.09 25.03,8.18 25.65,8.27 26.26,8.36 26.88,8.44 27.5,8.53 28.12,8.62 28.74,8.71 29.35,8.79 29.97,8.88 30.59,8.96 31.21,9.05 31.83,9.13 32.44,9.22 33.06,9.3 33.68,9.38 34.3,9.46 34.92,9.55 35.53,9.63 36.15,9.71 36.77,9.79 37.39,9.87 38.01,9.95 38.62,10.03 39.24,10.11 39.86,10.19 40.48,10.26 41.1,10.34 41.71,10.42 42.33,10.5 42.95,10.57 43.57,10.65 44.19,10.72 44.8,10.8 45.42,10.87 46.04,10.95 46.66,11.02 47.27,11.1 47.89,11.17 48.51,11.24 49.13,11.32 49.75,11.39 50.36,11.46 50.98,11.53 51.6,11.6 52.22,11.68 52.84,11.75 53.45,11.82 54.07,11.89 54.69,11.96 55.31,12.03 55.93,12.09 56.54,12.16 57.16,12.23 57.78,12.3 58.4,12.37 59.02,12.43 59.63,12.5 60.25,12.57 60.87,12.64 61.49,12.7 62.11,12.77 62.72,12.83 63.34,12.9 63.96,12.96 64.58,13.03 65.2,13.09 65.81,13.16 66.43,13.22 67.05,13.29 67.67,13.35 68.29,13.41 68.9,13.47 69.52,13.54 70.14,13.6 70.76,13.66 71.38,13.72 71.99,13.79 72.61,13.85 73.23,13.91 73.85,13.97 74.47,14.03 75.08,14.09 75.7,14.15 76.32,14.21 76.94,14.27 " class="primitive"/>
            </g>
          </g>
        </g>
        <g stroke-width="0.3" fill="#000000" fill-opacity="0.000" class="geometry" id="img-2a2803cd-37">
          <g class="color_RGB{N0f8}(0.718,0.0,0.008)" stroke-dasharray="none" stroke="#B70002" id="img-2a2803cd-38">
            <g transform="translate(97.11,61.11)" id="img-2a2803cd-39">
              <path fill="none" d="M-76.94,-41.34 L-76.32,-34.86 -75.7,-30.47 -75.08,-43.08 -74.47,-40.61 -73.85,-38.53 -73.23,-36.72 -72.61,-35.1 -71.99,-33.65 -71.38,-32.32 -70.76,-31.1 -70.14,-29.97 -69.52,-28.91 -68.9,-27.92 -68.29,-26.99 -67.67,-26.11 -67.05,-25.28 -66.43,-24.48 -65.81,-23.73 -65.2,-23 -64.58,-22.31 -63.96,-21.65 -63.34,-21.02 -62.72,-20.4 -62.11,-19.82 -61.49,-19.25 -60.87,-18.7 -60.25,-18.17 -59.63,-17.66 -59.02,-17.17 -58.4,-16.69 -57.78,-16.22 -57.16,-15.77 -56.54,-15.34 -55.93,-14.91 -55.31,-14.49 -54.69,-14.09 -54.07,-13.7 -53.45,-13.32 -52.84,-12.94 -52.22,-12.58 -51.6,-12.22 -50.98,-11.87 -50.36,-11.53 -49.75,-11.2 -49.13,-10.88 -48.51,-10.56 -47.89,-10.25 -47.27,-9.94 -46.66,-9.64 -46.04,-9.35 -45.42,-9.06 -44.8,-8.78 -44.19,-8.5 -43.57,-8.23 -42.95,-7.96 -42.33,-7.7 -41.71,-7.44 -41.1,-7.19 -40.48,-6.94 -39.86,-6.69 -39.24,-6.45 -38.62,-6.22 -38.01,-5.98 -37.39,-5.75 -36.77,-5.53 -36.15,-5.3 -35.53,-5.08 -34.92,-4.87 -34.3,-4.65 -33.68,-4.44 -33.06,-4.23 -32.44,-4.03 -31.83,-3.83 -31.21,-3.63 -30.59,-3.43 -29.97,-3.24 -29.35,-3.05 -28.74,-2.86 -28.12,-2.67 -27.5,-2.49 -26.88,-2.3 -26.26,-2.12 -25.65,-1.95 -25.03,-1.77 -24.41,-1.6 -23.79,-1.42 -23.17,-1.26 -22.56,-1.09 -21.94,-0.92 -21.32,-0.76 -20.7,-0.59 -20.08,-0.43 -19.47,-0.28 -18.85,-0.12 -18.23,0.04 -17.61,0.19 -16.99,0.34 -16.38,0.49 -15.76,0.64 -15.14,0.79 -14.52,0.94 -13.9,1.08 -13.29,1.23 -12.67,1.37 -12.05,1.51 -11.43,1.65 -10.81,1.79 -10.2,1.92 -9.58,2.06 -8.96,2.19 -8.34,2.33 -7.72,2.46 -7.11,2.59 -6.49,2.72 -5.87,2.85 -5.25,2.98 -4.63,3.1 -4.02,3.23 -3.4,3.35 -2.78,3.48 -2.16,3.6 -1.54,3.72 -0.93,3.84 -0.31,3.96 0.31,4.08 0.93,4.2 1.54,4.31 2.16,4.43 2.78,4.54 3.4,4.66 4.02,4.77 4.63,4.88 5.25,4.99 5.87,5.1 6.49,5.21 7.11,5.32 7.72,5.43 8.34,5.54 8.96,5.64 9.58,5.75 10.2,5.86 10.81,5.96 11.43,6.06 12.05,6.17 12.67,6.27 13.29,6.37 13.9,6.47 14.52,6.57 15.14,6.67 15.76,6.77 16.38,6.87 16.99,6.97 17.61,7.06 18.23,7.16 18.85,7.25 19.47,7.35 20.08,7.44 20.7,7.54 21.32,7.63 21.94,7.72 22.56,7.82 23.17,7.91 23.79,8 24.41,8.09 25.03,8.18 25.65,8.27 26.26,8.36 26.88,8.44 27.5,8.53 28.12,8.62 28.74,8.71 29.35,8.79 29.97,8.88 30.59,8.96 31.21,9.05 31.83,9.13 32.44,9.22 33.06,9.3 33.68,9.38 34.3,9.46 34.92,9.55 35.53,9.63 36.15,9.71 36.77,9.79 37.39,9.87 38.01,9.95 38.62,10.03 39.24,10.11 39.86,10.19 40.48,10.26 41.1,10.34 41.71,10.42 42.33,10.5 42.95,10.57 43.57,10.65 44.19,10.72 44.8,10.8 45.42,10.87 46.04,10.95 46.66,11.02 47.27,11.1 47.89,11.17 48.51,11.24 49.13,11.32 49.75,11.39 50.36,11.46 50.98,11.53 51.6,11.6 52.22,11.68 52.84,11.75 53.45,11.82 54.07,11.89 54.69,11.96 55.31,12.03 55.93,12.09 56.54,12.16 57.16,12.23 57.78,12.3 58.4,12.37 59.02,12.43 59.63,12.5 60.25,12.57 60.87,12.64 61.49,12.7 62.11,12.77 62.72,12.83 63.34,12.9 63.96,12.96 64.58,13.03 65.2,13.09 65.81,13.16 66.43,13.22 67.05,13.29 67.67,13.35 68.29,13.41 68.9,13.47 69.52,13.54 70.14,13.6 70.76,13.66 71.38,13.72 71.99,13.79 72.61,13.85 73.23,13.91 73.85,13.97 74.47,14.03 75.08,14.09 75.7,14.15 76.32,14.21 76.94,14.27 " class="primitive"/>
            </g>
          </g>
        </g>
        <g stroke-width="0.3" fill="#000000" fill-opacity="0.000" class="geometry" id="img-2a2803cd-40">
          <g class="color_RGB{N0f8}(0.063,0.306,0.545)" stroke-dasharray="none" stroke="#104E8B" id="img-2a2803cd-41">
            <g transform="translate(97.11,61.82)" id="img-2a2803cd-42">
              <path fill="none" d="M-76.94,-41.9 L-76.32,-35.63 -75.7,-31.47 -75.08,-43.85 -74.47,-41.45 -73.85,-39.31 -73.23,-37.43 -72.61,-35.76 -71.99,-34.26 -71.38,-32.9 -70.76,-31.65 -70.14,-30.49 -69.52,-29.42 -68.9,-28.42 -68.29,-27.44 -67.67,-26.53 -67.05,-25.68 -66.43,-24.87 -65.81,-24.11 -65.2,-23.38 -64.58,-22.69 -63.96,-22.03 -63.34,-21.4 -62.72,-20.79 -62.11,-20.22 -61.49,-19.66 -60.87,-19.12 -60.25,-18.61 -59.63,-18.11 -59.02,-17.62 -58.4,-17.16 -57.78,-16.71 -57.16,-16.27 -56.54,-15.84 -55.93,-15.43 -55.31,-15.03 -54.69,-14.63 -54.07,-14.24 -53.45,-13.86 -52.84,-13.48 -52.22,-13.11 -51.6,-12.75 -50.98,-12.4 -50.36,-12.05 -49.75,-11.71 -49.13,-11.38 -48.51,-11.06 -47.89,-10.75 -47.27,-10.44 -46.66,-10.13 -46.04,-9.84 -45.42,-9.55 -44.8,-9.26 -44.19,-8.98 -43.57,-8.7 -42.95,-8.43 -42.33,-8.17 -41.71,-7.91 -41.1,-7.65 -40.48,-7.4 -39.86,-7.15 -39.24,-6.91 -38.62,-6.67 -38.01,-6.43 -37.39,-6.2 -36.77,-5.97 -36.15,-5.74 -35.53,-5.51 -34.92,-5.28 -34.3,-5.06 -33.68,-4.85 -33.06,-4.63 -32.44,-4.42 -31.83,-4.21 -31.21,-4 -30.59,-3.8 -29.97,-3.59 -29.35,-3.39 -28.74,-3.2 -28.12,-3 -27.5,-2.81 -26.88,-2.62 -26.26,-2.44 -25.65,-2.25 -25.03,-2.07 -24.41,-1.89 -23.79,-1.71 -23.17,-1.53 -22.56,-1.36 -21.94,-1.19 -21.32,-1.02 -20.7,-0.85 -20.08,-0.68 -19.47,-0.52 -18.85,-0.35 -18.23,-0.19 -17.61,-0.03 -16.99,0.13 -16.38,0.28 -15.76,0.44 -15.14,0.59 -14.52,0.74 -13.9,0.9 -13.29,1.04 -12.67,1.19 -12.05,1.34 -11.43,1.48 -10.81,1.63 -10.2,1.77 -9.58,1.91 -8.96,2.06 -8.34,2.19 -7.72,2.33 -7.11,2.47 -6.49,2.61 -5.87,2.75 -5.25,2.89 -4.63,3.02 -4.02,3.16 -3.4,3.29 -2.78,3.42 -2.16,3.55 -1.54,3.68 -0.93,3.81 -0.31,3.94 0.31,4.06 0.93,4.19 1.54,4.31 2.16,4.44 2.78,4.56 3.4,4.68 4.02,4.8 4.63,4.92 5.25,5.04 5.87,5.16 6.49,5.28 7.11,5.39 7.72,5.51 8.34,5.62 8.96,5.74 9.58,5.85 10.2,5.96 10.81,6.08 11.43,6.19 12.05,6.3 12.67,6.41 13.29,6.51 13.9,6.62 14.52,6.73 15.14,6.84 15.76,6.94 16.38,7.05 16.99,7.15 17.61,7.25 18.23,7.36 18.85,7.46 19.47,7.56 20.08,7.66 20.7,7.76 21.32,7.86 21.94,7.96 22.56,8.06 23.17,8.16 23.79,8.25 24.41,8.35 25.03,8.45 25.65,8.54 26.26,8.64 26.88,8.73 27.5,8.83 28.12,8.92 28.74,9.01 29.35,9.1 29.97,9.2 30.59,9.29 31.21,9.38 31.83,9.47 32.44,9.56 33.06,9.65 33.68,9.73 34.3,9.82 34.92,9.91 35.53,10 36.15,10.08 36.77,10.17 37.39,10.26 38.01,10.34 38.62,10.43 39.24,10.51 39.86,10.59 40.48,10.68 41.1,10.76 41.71,10.84 42.33,10.93 42.95,11.01 43.57,11.09 44.19,11.17 44.8,11.25 45.42,11.33 46.04,11.41 46.66,11.49 47.27,11.57 47.89,11.65 48.51,11.72 49.13,11.8 49.75,11.88 50.36,11.96 50.98,12.03 51.6,12.11 52.22,12.19 52.84,12.26 53.45,12.34 54.07,12.41 54.69,12.49 55.31,12.56 55.93,12.63 56.54,12.71 57.16,12.78 57.78,12.85 58.4,12.93 59.02,13 59.63,13.07 60.25,13.14 60.87,13.21 61.49,13.28 62.11,13.35 62.72,13.42 63.34,13.49 63.96,13.56 64.58,13.63 65.2,13.7 65.81,13.77 66.43,13.84 67.05,13.91 67.67,13.98 68.29,14.04 68.9,14.11 69.52,14.18 70.14,14.24 70.76,14.31 71.38,14.38 71.99,14.44 72.61,14.51 73.23,14.57 73.85,14.64 74.47,14.7 75.08,14.77 75.7,14.83 76.32,14.9 76.94,14.96 " class="primitive"/>
            </g>
          </g>
        </g>
        <g stroke-width="0.3" fill="#000000" fill-opacity="0.000" class="geometry" id="img-2a2803cd-43">
          <g class="color_RGB{N0f8}(0.063,0.306,0.545)" stroke-dasharray="none" stroke="#104E8B" id="img-2a2803cd-44">
            <g transform="translate(97.11,61.82)" id="img-2a2803cd-45">
              <path fill="none" d="M-76.94,-41.9 L-76.32,-35.63 -75.7,-31.47 -75.08,-43.85 -74.47,-41.45 -73.85,-39.31 -73.23,-37.43 -72.61,-35.76 -71.99,-34.26 -71.38,-32.9 -70.76,-31.65 -70.14,-30.49 -69.52,-29.42 -68.9,-28.42 -68.29,-27.44 -67.67,-26.53 -67.05,-25.68 -66.43,-24.87 -65.81,-24.11 -65.2,-23.38 -64.58,-22.69 -63.96,-22.03 -63.34,-21.4 -62.72,-20.79 -62.11,-20.22 -61.49,-19.66 -60.87,-19.12 -60.25,-18.61 -59.63,-18.11 -59.02,-17.62 -58.4,-17.16 -57.78,-16.71 -57.16,-16.27 -56.54,-15.84 -55.93,-15.43 -55.31,-15.03 -54.69,-14.63 -54.07,-14.24 -53.45,-13.86 -52.84,-13.48 -52.22,-13.11 -51.6,-12.75 -50.98,-12.4 -50.36,-12.05 -49.75,-11.71 -49.13,-11.38 -48.51,-11.06 -47.89,-10.75 -47.27,-10.44 -46.66,-10.13 -46.04,-9.84 -45.42,-9.55 -44.8,-9.26 -44.19,-8.98 -43.57,-8.7 -42.95,-8.43 -42.33,-8.17 -41.71,-7.91 -41.1,-7.65 -40.48,-7.4 -39.86,-7.15 -39.24,-6.91 -38.62,-6.67 -38.01,-6.43 -37.39,-6.2 -36.77,-5.97 -36.15,-5.74 -35.53,-5.51 -34.92,-5.28 -34.3,-5.06 -33.68,-4.85 -33.06,-4.63 -32.44,-4.42 -31.83,-4.21 -31.21,-4 -30.59,-3.8 -29.97,-3.59 -29.35,-3.39 -28.74,-3.2 -28.12,-3 -27.5,-2.81 -26.88,-2.62 -26.26,-2.44 -25.65,-2.25 -25.03,-2.07 -24.41,-1.89 -23.79,-1.71 -23.17,-1.53 -22.56,-1.36 -21.94,-1.19 -21.32,-1.02 -20.7,-0.85 -20.08,-0.68 -19.47,-0.52 -18.85,-0.35 -18.23,-0.19 -17.61,-0.03 -16.99,0.13 -16.38,0.28 -15.76,0.44 -15.14,0.59 -14.52,0.74 -13.9,0.9 -13.29,1.04 -12.67,1.19 -12.05,1.34 -11.43,1.48 -10.81,1.63 -10.2,1.77 -9.58,1.91 -8.96,2.06 -8.34,2.19 -7.72,2.33 -7.11,2.47 -6.49,2.61 -5.87,2.75 -5.25,2.89 -4.63,3.02 -4.02,3.16 -3.4,3.29 -2.78,3.42 -2.16,3.55 -1.54,3.68 -0.93,3.81 -0.31,3.94 0.31,4.06 0.93,4.19 1.54,4.31 2.16,4.44 2.78,4.56 3.4,4.68 4.02,4.8 4.63,4.92 5.25,5.04 5.87,5.16 6.49,5.28 7.11,5.39 7.72,5.51 8.34,5.62 8.96,5.74 9.58,5.85 10.2,5.96 10.81,6.08 11.43,6.19 12.05,6.3 12.67,6.41 13.29,6.51 13.9,6.62 14.52,6.73 15.14,6.84 15.76,6.94 16.38,7.05 16.99,7.15 17.61,7.25 18.23,7.36 18.85,7.46 19.47,7.56 20.08,7.66 20.7,7.76 21.32,7.86 21.94,7.96 22.56,8.06 23.17,8.16 23.79,8.25 24.41,8.35 25.03,8.45 25.65,8.54 26.26,8.64 26.88,8.73 27.5,8.83 28.12,8.92 28.74,9.01 29.35,9.1 29.97,9.2 30.59,9.29 31.21,9.38 31.83,9.47 32.44,9.56 33.06,9.65 33.68,9.73 34.3,9.82 34.92,9.91 35.53,10 36.15,10.08 36.77,10.17 37.39,10.26 38.01,10.34 38.62,10.43 39.24,10.51 39.86,10.59 40.48,10.68 41.1,10.76 41.71,10.84 42.33,10.93 42.95,11.01 43.57,11.09 44.19,11.17 44.8,11.25 45.42,11.33 46.04,11.41 46.66,11.49 47.27,11.57 47.89,11.65 48.51,11.72 49.13,11.8 49.75,11.88 50.36,11.96 50.98,12.03 51.6,12.11 52.22,12.19 52.84,12.26 53.45,12.34 54.07,12.41 54.69,12.49 55.31,12.56 55.93,12.63 56.54,12.71 57.16,12.78 57.78,12.85 58.4,12.93 59.02,13 59.63,13.07 60.25,13.14 60.87,13.21 61.49,13.28 62.11,13.35 62.72,13.42 63.34,13.49 63.96,13.56 64.58,13.63 65.2,13.7 65.81,13.77 66.43,13.84 67.05,13.91 67.67,13.98 68.29,14.04 68.9,14.11 69.52,14.18 70.14,14.24 70.76,14.31 71.38,14.38 71.99,14.44 72.61,14.51 73.23,14.57 73.85,14.64 74.47,14.7 75.08,14.77 75.7,14.83 76.32,14.9 76.94,14.96 " class="primitive"/>
            </g>
          </g>
        </g>
      </g>
    </g>
  </g>
  <g class="guide ylabels" font-size="2.82" font-family="'PT Sans Caption','Helvetica Neue','Helvetica',sans-serif" fill="#6C606B" id="img-2a2803cd-46">
    <g transform="translate(16.4,80.32)" id="img-2a2803cd-47">
      <g class="primitive">
        <text text-anchor="end" dy="0.35em">-1</text>
      </g>
    </g>
    <g transform="translate(16.4,69.03)" id="img-2a2803cd-48">
      <g class="primitive">
        <text text-anchor="end" dy="0.35em">0</text>
      </g>
    </g>
    <g transform="translate(16.4,57.75)" id="img-2a2803cd-49">
      <g class="primitive">
        <text text-anchor="end" dy="0.35em">1</text>
      </g>
    </g>
    <g transform="translate(16.4,46.46)" id="img-2a2803cd-50">
      <g class="primitive">
        <text text-anchor="end" dy="0.35em">2</text>
      </g>
    </g>
    <g transform="translate(16.4,35.18)" id="img-2a2803cd-51">
      <g class="primitive">
        <text text-anchor="end" dy="0.35em">3</text>
      </g>
    </g>
    <g transform="translate(16.4,23.9)" id="img-2a2803cd-52">
      <g class="primitive">
        <text text-anchor="end" dy="0.35em">4</text>
      </g>
    </g>
    <g transform="translate(16.4,12.61)" id="img-2a2803cd-53">
      <g class="primitive">
        <text text-anchor="end" dy="0.35em">5</text>
      </g>
    </g>
  </g>
  <g font-size="3.88" font-family="'PT Sans','Helvetica Neue','Helvetica',sans-serif" fill="#564A55" stroke="#000000" stroke-opacity="0.000" id="img-2a2803cd-54">
    <g transform="translate(8.81,44.46)" id="img-2a2803cd-55">
      <g class="primitive">
        <text text-anchor="middle" dy="0.35em" transform="rotate(-90,0, 2)">log₁₀(MAC (cm²/g))</text>
      </g>
    </g>
  </g>
  <g font-size="3.88" font-family="'PT Sans','Helvetica Neue','Helvetica',sans-serif" fill="#564A55" stroke="#000000" stroke-opacity="0.000" id="img-2a2803cd-56">
    <g transform="translate(96.72,5)" id="img-2a2803cd-57">
      <g class="primitive">
        <text text-anchor="middle" dy="0.6em">MAC - Element(Carbon)</text>
      </g>
    </g>
  </g>
</g>
<defs>
  <clipPath id="img-2a2803cd-15">
    <path d="M17.4,10.61 L176.05,10.61 176.05,82.32 17.4,82.32 " />
  </clipPath>
</defs>
</svg>
