<?xml version="1.0" encoding="UTF-8"?>
<svg xmlns="http://www.w3.org/2000/svg"
     xmlns:xlink="http://www.w3.org/1999/xlink"
     xmlns:gadfly="http://www.gadflyjl.org/ns"
     version="1.2"
     width="203.2mm" height="101.6mm" viewBox="0 0 203.2 101.6"
     stroke="none"
     fill="#000000"
     stroke-width="0.3"
     font-size="3.88"
>
<defs>
  <marker id="arrow" markerWidth="15" markerHeight="7" refX="5" refY="3.5" orient="auto" markerUnits="strokeWidth">
    <path d="M0,0 L15,3.5 L0,7 z" stroke="context-stroke" fill="context-stroke"/>
  </marker>
</defs>
<g class="plotroot xscalable yscalable" id="img-5a6da447-1">
  <g font-size="3.88" font-family="'PT Sans','Helvetica Neue','Helvetica',sans-serif" fill="#564A55" stroke="#000000" stroke-opacity="0.000" id="img-5a6da447-2">
    <g transform="translate(96.17,89.99)">
      <g class="primitive">
        <text text-anchor="middle" dy="0.6em">Energy (eV)</text>
      </g>
    </g>
  </g>
  <g class="guide xlabels" font-size="2.82" font-family="'PT Sans Caption','Helvetica Neue','Helvetica',sans-serif" fill="#6C606B" id="img-5a6da447-3">
    <g transform="translate(18.29,83.32)">
      <g class="primitive">
        <text text-anchor="middle" dy="0.6em">0</text>
      </g>
    </g>
    <g transform="translate(57.23,83.32)">
      <g class="primitive">
        <text text-anchor="middle" dy="0.6em">5.00×10³</text>
      </g>
    </g>
    <g transform="translate(96.17,83.32)">
      <g class="primitive">
        <text text-anchor="middle" dy="0.6em">1.00×10⁴</text>
      </g>
    </g>
    <g transform="translate(135.11,83.32)">
      <g class="primitive">
        <text text-anchor="middle" dy="0.6em">1.50×10⁴</text>
      </g>
    </g>
    <g transform="translate(174.05,83.32)">
      <g class="primitive">
        <text text-anchor="middle" dy="0.6em">2.00×10⁴</text>
      </g>
    </g>
  </g>
  <g class="guide colorkey" id="img-5a6da447-4">
    <g fill="#4C404B" font-size="2.82" font-family="'PT Sans','Helvetica Neue','Helvetica',sans-serif" id="img-5a6da447-5">
      <g transform="translate(180.67,47.21)" id="img-5a6da447-6">
        <g class="primitive">
          <text dy="0.35em">Default/FFAST</text>
        </g>
      </g>
      <g transform="translate(180.67,50.83)" id="img-5a6da447-7">
        <g class="primitive">
          <text dy="0.35em">Heinrich</text>
        </g>
      </g>
    </g>
    <g stroke-width="0.3" id="img-5a6da447-8">
      <g stroke="#FFFFFF" fill-opacity="1" fill="#B70002" id="img-5a6da447-9">
        <g transform="translate(177.86,50.83)" id="img-5a6da447-10">
          <circle cx="0" cy="0" r="0.9" class="primitive"/>
        </g>
      </g>
      <g stroke="#FFFFFF" fill-opacity="1" fill="#104E8B" id="img-5a6da447-11">
        <g transform="translate(177.86,47.21)" id="img-5a6da447-12">
          <circle cx="0" cy="0" r="0.9" class="primitive"/>
        </g>
      </g>
    </g>
    <g fill="#362A35" font-size="3.88" font-family="'PT Sans','Helvetica Neue','Helvetica',sans-serif" stroke="#000000" stroke-opacity="0.000" id="img-5a6da447-13">
      <g transform="translate(177.05,43.89)" id="img-5a6da447-14">
        <g class="primitive">
          <text dy="-0em">Type</text>
        </g>
      </g>
    </g>
  </g>
  <g clip-path="url(#img-5a6da447-15)">
    <g id="img-5a6da447-16">
      <g pointer-events="visible" stroke-width="0.3" fill="#000000" fill-opacity="0.000" stroke="#000000" stroke-opacity="0.000" class="guide background" id="img-5a6da447-17">
        <g transform="translate(96.17,46.46)" id="img-5a6da447-18">
          <path d="M-79.88,-35.85 L79.88,-35.85 79.88,35.85 -79.88,35.85  z" class="primitive"/>
        </g>
      </g>
      <g class="guide ygridlines xfixed" stroke-dasharray="0.5,0.5" stroke-width="0.2" stroke="#D0D0E0" id="img-5a6da447-19">
        <g transform="translate(96.17,80.32)" id="img-5a6da447-20">
          <path fill="none" d="M-79.88,0 L79.88,0 " class="primitive"/>
        </g>
        <g transform="translate(96.17,69.03)" id="img-5a6da447-21">
          <path fill="none" d="M-79.88,0 L79.88,0 " class="primitive"/>
        </g>
        <g transform="translate(96.17,57.75)" id="img-5a6da447-22">
          <path fill="none" d="M-79.88,0 L79.88,0 " class="primitive"/>
        </g>
        <g transform="translate(96.17,46.46)" id="img-5a6da447-23">
          <path fill="none" d="M-79.88,0 L79.88,0 " class="primitive"/>
        </g>
        <g transform="translate(96.17,35.18)" id="img-5a6da447-24">
          <path fill="none" d="M-79.88,0 L79.88,0 " class="primitive"/>
        </g>
        <g transform="translate(96.17,23.9)" id="img-5a6da447-25">
          <path fill="none" d="M-79.88,0 L79.88,0 " class="primitive"/>
        </g>
        <g transform="translate(96.17,12.61)" id="img-5a6da447-26">
          <path fill="none" d="M-79.88,0 L79.88,0 " class="primitive"/>
        </g>
      </g>
      <g class="guide xgridlines yfixed" stroke-dasharray="0.5,0.5" stroke-width="0.2" stroke="#D0D0E0" id="img-5a6da447-27">
        <g transform="translate(18.29,46.46)" id="img-5a6da447-28">
          <path fill="none" d="M0,-35.85 L0,35.85 " class="primitive"/>
        </g>
        <g transform="translate(57.23,46.46)" id="img-5a6da447-29">
          <path fill="none" d="M0,-35.85 L0,35.85 " class="primitive"/>
        </g>
        <g transform="translate(96.17,46.46)" id="img-5a6da447-30">
          <path fill="none" d="M0,-35.85 L0,35.85 " class="primitive"/>
        </g>
        <g transform="translate(135.11,46.46)" id="img-5a6da447-31">
          <path fill="none" d="M0,-35.85 L0,35.85 " class="primitive"/>
        </g>
        <g transform="translate(174.05,46.46)" id="img-5a6da447-32">
          <path fill="none" d="M0,-35.85 L0,35.85 " class="primitive"/>
        </g>
      </g>
      <g class="plotpanel" id="img-5a6da447-33">
        <metadata>
          <boundingbox value="16.285000000000025mm 10.611666666666665mm 159.76166666666666mm 71.70333333333333mm"/>
          <unitbox value="-256.80259370619643 6.177243858007976 20513.60518741239 -6.354487716015951"/>
        </metadata>
        <g stroke-width="0.3" fill="#000000" fill-opacity="0.000" class="geometry" id="img-5a6da447-34">
          <g class="color_RGB{N0f8}(0.718,0.0,0.008)" stroke-dasharray="none" stroke="#B70002" id="img-5a6da447-35">
            <g transform="translate(96.56,52.14)" id="img-5a6da447-36">
              <path fill="none" d="M-77.49,-34.5 L-76.87,-30.18 -76.25,-27.42 -75.62,-25.38 -75,-23.77 -74.38,-22.44 -73.76,-21.3 -73.13,-20.31 -72.51,-19.43 -71.89,-18.64 -71.27,-17.92 -70.64,-17.27 -70.02,-16.66 -69.4,-16.1 -68.78,-15.58 -68.16,-15.09 -67.53,-14.63 -66.91,-12.68 -66.29,-12.15 -65.67,-11.63 -65.04,-11.14 -64.42,-10.66 -63.8,-10.19 -63.18,-9.74 -62.55,-9.3 -61.93,-8.87 -61.31,-8.45 -60.69,-8.05 -60.06,-7.65 -59.44,-7.27 -58.82,-6.9 -58.2,-6.53 -57.57,-6.17 -56.95,-5.83 -56.33,-5.49 -55.71,-5.16 -55.08,-4.83 -54.46,-4.51 -53.84,-4.2 -53.22,-3.9 -52.59,-3.6 -51.97,-3.31 -51.35,-3.03 -50.73,-2.75 -50.1,-6.13 -49.48,-6.35 -48.86,-7.98 -48.24,-7.78 -47.62,-7.54 -46.99,-7.3 -46.37,-7.05 -45.75,-6.8 -45.13,-6.56 -44.5,-7.83 -43.88,-7.6 -43.26,-7.37 -42.64,-7.14 -42.01,-6.92 -41.39,-6.7 -40.77,-6.48 -40.15,-6.27 -39.52,-6.06 -38.9,-5.85 -38.28,-5.65 -37.66,-5.11 -37.03,-4.91 -36.41,-4.72 -35.79,-4.53 -35.17,-4.34 -34.54,-4.85 -33.92,-4.68 -33.3,-4.52 -32.68,-4.36 -32.05,-4.2 -31.43,-4.04 -30.81,-3.88 -30.19,-3.72 -29.57,-3.57 -28.94,-3.41 -28.32,-3.26 -27.7,-3.11 -27.08,-2.96 -26.45,-2.81 -25.83,-2.67 -25.21,-2.52 -24.59,-2.38 -23.96,-2.23 -23.34,-2.09 -22.72,-1.95 -22.1,-1.81 -21.47,-1.67 -20.85,-1.54 -20.23,-1.4 -19.61,-1.27 -18.98,-1.14 -18.36,-1 -17.74,-0.87 -17.12,-0.74 -16.49,-0.62 -15.87,-0.49 -15.25,-0.36 -14.63,-0.24 -14,-0.12 -13.38,0.01 -12.76,0.13 -12.14,0.25 -11.51,0.37 -10.89,0.49 -10.27,0.6 -9.65,0.72 -9.03,0.83 -8.4,0.95 -7.78,1.06 -7.16,1.17 -6.54,1.29 -5.91,1.4 -5.29,1.51 -4.67,1.61 -4.05,1.72 -3.42,1.83 -2.8,1.94 -2.18,2.04 -1.56,2.14 -0.93,2.25 -0.31,2.35 0.31,2.45 0.93,2.55 1.56,2.65 2.18,2.75 2.8,2.85 3.42,2.95 4.05,3.05 4.67,3.15 5.29,3.24 5.91,3.34 6.54,3.43 7.16,3.53 7.78,3.62 8.4,3.71 9.03,3.8 9.65,3.89 10.27,3.99 10.89,4.08 11.51,4.16 12.14,4.25 12.76,4.34 13.38,4.43 14,4.52 14.63,4.6 15.25,4.69 15.87,4.77 16.49,4.86 17.12,4.94 17.74,5.03 18.36,5.11 18.98,5.19 19.61,5.27 20.23,5.36 20.85,5.44 21.47,5.52 22.1,5.6 22.72,5.68 23.34,5.76 23.96,5.83 24.59,5.91 25.21,5.99 25.83,6.07 26.45,6.14 27.08,6.22 27.7,6.3 28.32,6.37 28.94,6.45 29.57,6.52 30.19,6.59 30.81,6.67 31.43,6.74 32.05,6.81 32.68,6.89 33.3,6.96 33.92,7.03 34.54,7.1 35.17,7.17 35.79,7.24 36.41,7.31 37.03,7.38 37.66,7.45 38.28,7.52 38.9,7.59 39.52,7.66 40.15,7.72 40.77,7.79 41.39,7.86 42.01,7.93 42.64,7.99 43.26,8.06 43.88,8.12 44.5,8.19 45.13,8.25 45.75,8.32 46.37,8.38 46.99,8.45 47.62,8.51 48.24,8.57 48.86,8.64 49.48,8.7 50.1,8.76 50.73,8.83 51.35,8.89 51.97,8.95 52.59,9.01 53.22,9.07 53.84,9.13 54.46,9.19 55.08,9.25 55.71,5.13 56.33,5.19 56.95,5.24 57.57,5.3 58.2,5.35 58.82,5.41 59.44,5.46 60.06,5.52 60.69,5.57 61.31,5.63 61.93,5.68 62.55,5.73 63.18,5.79 63.8,5.84 64.42,5.89 65.04,5.95 65.67,6 66.29,6.05 66.91,6.1 67.53,6.15 68.16,6.21 68.78,6.26 69.4,6.31 70.02,6.36 70.64,6.41 71.27,6.46 71.89,6.51 72.51,6.56 73.13,6.61 73.76,6.66 74.38,6.71 75,6.76 75.62,6.81 76.25,6.86 76.87,6.91 77.49,6.96 " class="primitive"/>
            </g>
          </g>
        </g>
        <g stroke-width="0.3" fill="#000000" fill-opacity="0.000" class="geometry" id="img-5a6da447-37">
          <g class="color_RGB{N0f8}(0.718,0.0,0.008)" stroke-dasharray="none" stroke="#B70002" id="img-5a6da447-38">
            <g transform="translate(96.56,52.14)" id="img-5a6da447-39">
              <path fill="none" d="M-77.49,-34.5 L-76.87,-30.18 -76.25,-27.42 -75.62,-25.38 -75,-23.77 -74.38,-22.44 -73.76,-21.3 -73.13,-20.31 -72.51,-19.43 -71.89,-18.64 -71.27,-17.92 -70.64,-17.27 -70.02,-16.66 -69.4,-16.1 -68.78,-15.58 -68.16,-15.09 -67.53,-14.63 -66.91,-12.68 -66.29,-12.15 -65.67,-11.63 -65.04,-11.14 -64.42,-10.66 -63.8,-10.19 -63.18,-9.74 -62.55,-9.3 -61.93,-8.87 -61.31,-8.45 -60.69,-8.05 -60.06,-7.65 -59.44,-7.27 -58.82,-6.9 -58.2,-6.53 -57.57,-6.17 -56.95,-5.83 -56.33,-5.49 -55.71,-5.16 -55.08,-4.83 -54.46,-4.51 -53.84,-4.2 -53.22,-3.9 -52.59,-3.6 -51.97,-3.31 -51.35,-3.03 -50.73,-2.75 -50.1,-6.13 -49.48,-6.35 -48.86,-7.98 -48.24,-7.78 -47.62,-7.54 -46.99,-7.3 -46.37,-7.05 -45.75,-6.8 -45.13,-6.56 -44.5,-7.83 -43.88,-7.6 -43.26,-7.37 -42.64,-7.14 -42.01,-6.92 -41.39,-6.7 -40.77,-6.48 -40.15,-6.27 -39.52,-6.06 -38.9,-5.85 -38.28,-5.65 -37.66,-5.11 -37.03,-4.91 -36.41,-4.72 -35.79,-4.53 -35.17,-4.34 -34.54,-4.85 -33.92,-4.68 -33.3,-4.52 -32.68,-4.36 -32.05,-4.2 -31.43,-4.04 -30.81,-3.88 -30.19,-3.72 -29.57,-3.57 -28.94,-3.41 -28.32,-3.26 -27.7,-3.11 -27.08,-2.96 -26.45,-2.81 -25.83,-2.67 -25.21,-2.52 -24.59,-2.38 -23.96,-2.23 -23.34,-2.09 -22.72,-1.95 -22.1,-1.81 -21.47,-1.67 -20.85,-1.54 -20.23,-1.4 -19.61,-1.27 -18.98,-1.14 -18.36,-1 -17.74,-0.87 -17.12,-0.74 -16.49,-0.62 -15.87,-0.49 -15.25,-0.36 -14.63,-0.24 -14,-0.12 -13.38,0.01 -12.76,0.13 -12.14,0.25 -11.51,0.37 -10.89,0.49 -10.27,0.6 -9.65,0.72 -9.03,0.83 -8.4,0.95 -7.78,1.06 -7.16,1.17 -6.54,1.29 -5.91,1.4 -5.29,1.51 -4.67,1.61 -4.05,1.72 -3.42,1.83 -2.8,1.94 -2.18,2.04 -1.56,2.14 -0.93,2.25 -0.31,2.35 0.31,2.45 0.93,2.55 1.56,2.65 2.18,2.75 2.8,2.85 3.42,2.95 4.05,3.05 4.67,3.15 5.29,3.24 5.91,3.34 6.54,3.43 7.16,3.53 7.78,3.62 8.4,3.71 9.03,3.8 9.65,3.89 10.27,3.99 10.89,4.08 11.51,4.16 12.14,4.25 12.76,4.34 13.38,4.43 14,4.52 14.63,4.6 15.25,4.69 15.87,4.77 16.49,4.86 17.12,4.94 17.74,5.03 18.36,5.11 18.98,5.19 19.61,5.27 20.23,5.36 20.85,5.44 21.47,5.52 22.1,5.6 22.72,5.68 23.34,5.76 23.96,5.83 24.59,5.91 25.21,5.99 25.83,6.07 26.45,6.14 27.08,6.22 27.7,6.3 28.32,6.37 28.94,6.45 29.57,6.52 30.19,6.59 30.81,6.67 31.43,6.74 32.05,6.81 32.68,6.89 33.3,6.96 33.92,7.03 34.54,7.1 35.17,7.17 35.79,7.24 36.41,7.31 37.03,7.38 37.66,7.45 38.28,7.52 38.9,7.59 39.52,7.66 40.15,7.72 40.77,7.79 41.39,7.86 42.01,7.93 42.64,7.99 43.26,8.06 43.88,8.12 44.5,8.19 45.13,8.25 45.75,8.32 46.37,8.38 46.99,8.45 47.62,8.51 48.24,8.57 48.86,8.64 49.48,8.7 50.1,8.76 50.73,8.83 51.35,8.89 51.97,8.95 52.59,9.01 53.22,9.07 53.84,9.13 54.46,9.19 55.08,9.25 55.71,5.13 56.33,5.19 56.95,5.24 57.57,5.3 58.2,5.35 58.82,5.41 59.44,5.46 60.06,5.52 60.69,5.57 61.31,5.63 61.93,5.68 62.55,5.73 63.18,5.79 63.8,5.84 64.42,5.89 65.04,5.95 65.67,6 66.29,6.05 66.91,6.1 67.53,6.15 68.16,6.21 68.78,6.26 69.4,6.31 70.02,6.36 70.64,6.41 71.27,6.46 71.89,6.51 72.51,6.56 73.13,6.61 73.76,6.66 74.38,6.71 75,6.76 75.62,6.81 76.25,6.86 76.87,6.91 77.49,6.96 " class="primitive"/>
            </g>
          </g>
        </g>
        <g stroke-width="0.3" fill="#000000" fill-opacity="0.000" class="geometry" id="img-5a6da447-40">
          <g class="color_RGB{N0f8}(0.063,0.306,0.545)" stroke-dasharray="none" stroke="#104E8B" id="img-5a6da447-41">
            <g transform="translate(96.56,53.31)" id="img-5a6da447-42">
              <path fill="none" d="M-77.49,-20.85 L-76.87,-12.28 -76.25,-10.15 -75.62,-8.94 -75,-10.34 -74.38,-15.67 -73.76,-17.95 -73.13,-18.18 -72.51,-17.87 -71.89,-17.6 -71.27,-16.83 -70.64,-16.09 -70.02,-15.67 -69.4,-15.02 -68.78,-14.4 -68.16,-13.86 -67.53,-13.27 -66.91,-12.8 -66.29,-12.26 -65.67,-11.72 -65.04,-11.2 -64.42,-10.72 -63.8,-10.25 -63.18,-9.8 -62.55,-9.38 -61.93,-8.97 -61.31,-8.58 -60.69,-8.21 -60.06,-7.85 -59.44,-7.51 -58.82,-7.17 -58.2,-6.86 -57.57,-6.55 -56.95,-6.25 -56.33,-5.96 -55.71,-5.69 -55.08,-5.38 -54.46,-5.09 -53.84,-4.79 -53.22,-4.47 -52.59,-4.17 -51.97,-3.87 -51.35,-3.58 -50.73,-3.3 -50.1,-7.07 -49.48,-7.19 -48.86,-8.76 -48.24,-8.62 -47.62,-8.45 -46.99,-8.29 -46.37,-8.08 -45.75,-7.82 -45.13,-7.56 -44.5,-8.03 -43.88,-7.76 -43.26,-7.5 -42.64,-7.23 -42.01,-6.98 -41.39,-6.75 -40.77,-6.52 -40.15,-6.29 -39.52,-6.07 -38.9,-5.85 -38.28,-5.65 -37.66,-5.76 -37.03,-5.57 -36.41,-5.38 -35.79,-5.2 -35.17,-5.03 -34.54,-5.07 -33.92,-4.9 -33.3,-4.74 -32.68,-4.58 -32.05,-4.42 -31.43,-4.26 -30.81,-4.11 -30.19,-3.96 -29.57,-3.81 -28.94,-3.66 -28.32,-3.51 -27.7,-3.37 -27.08,-3.23 -26.45,-3.09 -25.83,-2.95 -25.21,-2.81 -24.59,-2.68 -23.96,-2.54 -23.34,-2.41 -22.72,-2.27 -22.1,-2.14 -21.47,-2.01 -20.85,-1.88 -20.23,-1.75 -19.61,-1.62 -18.98,-1.49 -18.36,-1.36 -17.74,-1.24 -17.12,-1.12 -16.49,-0.99 -15.87,-0.87 -15.25,-0.75 -14.63,-0.63 -14,-0.52 -13.38,-0.4 -12.76,-0.29 -12.14,-0.17 -11.51,-0.06 -10.89,0.06 -10.27,0.17 -9.65,0.28 -9.03,0.39 -8.4,0.5 -7.78,0.61 -7.16,0.73 -6.54,0.84 -5.91,0.95 -5.29,1.06 -4.67,1.18 -4.05,1.29 -3.42,1.4 -2.8,1.5 -2.18,1.61 -1.56,1.71 -0.93,1.82 -0.31,1.92 0.31,2.03 0.93,2.13 1.56,2.23 2.18,2.33 2.8,2.43 3.42,2.53 4.05,2.63 4.67,2.72 5.29,2.82 5.91,2.92 6.54,3.01 7.16,3.11 7.78,3.2 8.4,3.29 9.03,3.39 9.65,3.48 10.27,3.57 10.89,3.66 11.51,3.75 12.14,3.84 12.76,3.93 13.38,4.02 14,4.1 14.63,4.19 15.25,4.27 15.87,4.36 16.49,4.44 17.12,4.53 17.74,4.61 18.36,4.69 18.98,4.78 19.61,4.86 20.23,4.94 20.85,5.02 21.47,5.1 22.1,5.18 22.72,5.26 23.34,5.33 23.96,5.41 24.59,5.49 25.21,5.57 25.83,5.64 26.45,5.72 27.08,5.79 27.7,5.87 28.32,5.94 28.94,6.01 29.57,6.09 30.19,6.16 30.81,6.23 31.43,6.3 32.05,6.38 32.68,6.45 33.3,6.52 33.92,6.59 34.54,6.66 35.17,6.73 35.79,6.79 36.41,6.86 37.03,6.93 37.66,7 38.28,7.07 38.9,7.13 39.52,7.2 40.15,7.27 40.77,7.33 41.39,7.4 42.01,7.46 42.64,7.53 43.26,7.59 43.88,7.66 44.5,7.72 45.13,7.79 45.75,7.85 46.37,7.91 46.99,7.98 47.62,8.04 48.24,8.1 48.86,8.16 49.48,8.23 50.1,8.29 50.73,8.35 51.35,8.41 51.97,8.47 52.59,8.53 53.22,8.59 53.84,8.65 54.46,8.71 55.08,8.77 55.71,6.51 56.33,4.45 56.95,4.51 57.57,4.57 58.2,4.63 58.82,4.69 59.44,4.75 60.06,4.81 60.69,4.86 61.31,4.92 61.93,4.98 62.55,5.04 63.18,5.1 63.8,5.15 64.42,5.21 65.04,5.27 65.67,5.32 66.29,5.38 66.91,5.43 67.53,5.49 68.16,5.55 68.78,5.6 69.4,5.66 70.02,5.71 70.64,5.77 71.27,5.82 71.89,5.88 72.51,5.94 73.13,5.99 73.76,6.04 74.38,6.1 75,6.15 75.62,6.21 76.25,6.26 76.87,6.31 77.49,6.37 " class="primitive"/>
            </g>
          </g>
        </g>
        <g stroke-width="0.3" fill="#000000" fill-opacity="0.000" class="geometry" id="img-5a6da447-43">
          <g class="color_RGB{N0f8}(0.063,0.306,0.545)" stroke-dasharray="none" stroke="#104E8B" id="img-5a6da447-44">
            <g transform="translate(96.56,53.31)" id="img-5a6da447-45">
              <path fill="none" d="M-77.49,-20.85 L-76.87,-12.28 -76.25,-10.15 -75.62,-8.94 -75,-10.34 -74.38,-15.67 -73.76,-17.95 -73.13,-18.18 -72.51,-17.87 -71.89,-17.6 -71.27,-16.83 -70.64,-16.09 -70.02,-15.67 -69.4,-15.02 -68.78,-14.4 -68.16,-13.86 -67.53,-13.27 -66.91,-12.8 -66.29,-12.26 -65.67,-11.72 -65.04,-11.2 -64.42,-10.72 -63.8,-10.25 -63.18,-9.8 -62.55,-9.38 -61.93,-8.97 -61.31,-8.58 -60.69,-8.21 -60.06,-7.85 -59.44,-7.51 -58.82,-7.17 -58.2,-6.86 -57.57,-6.55 -56.95,-6.25 -56.33,-5.96 -55.71,-5.69 -55.08,-5.38 -54.46,-5.09 -53.84,-4.79 -53.22,-4.47 -52.59,-4.17 -51.97,-3.87 -51.35,-3.58 -50.73,-3.3 -50.1,-7.07 -49.48,-7.19 -48.86,-8.76 -48.24,-8.62 -47.62,-8.45 -46.99,-8.29 -46.37,-8.08 -45.75,-7.82 -45.13,-7.56 -44.5,-8.03 -43.88,-7.76 -43.26,-7.5 -42.64,-7.23 -42.01,-6.98 -41.39,-6.75 -40.77,-6.52 -40.15,-6.29 -39.52,-6.07 -38.9,-5.85 -38.28,-5.65 -37.66,-5.76 -37.03,-5.57 -36.41,-5.38 -35.79,-5.2 -35.17,-5.03 -34.54,-5.07 -33.92,-4.9 -33.3,-4.74 -32.68,-4.58 -32.05,-4.42 -31.43,-4.26 -30.81,-4.11 -30.19,-3.96 -29.57,-3.81 -28.94,-3.66 -28.32,-3.51 -27.7,-3.37 -27.08,-3.23 -26.45,-3.09 -25.83,-2.95 -25.21,-2.81 -24.59,-2.68 -23.96,-2.54 -23.34,-2.41 -22.72,-2.27 -22.1,-2.14 -21.47,-2.01 -20.85,-1.88 -20.23,-1.75 -19.61,-1.62 -18.98,-1.49 -18.36,-1.36 -17.74,-1.24 -17.12,-1.12 -16.49,-0.99 -15.87,-0.87 -15.25,-0.75 -14.63,-0.63 -14,-0.52 -13.38,-0.4 -12.76,-0.29 -12.14,-0.17 -11.51,-0.06 -10.89,0.06 -10.27,0.17 -9.65,0.28 -9.03,0.39 -8.4,0.5 -7.78,0.61 -7.16,0.73 -6.54,0.84 -5.91,0.95 -5.29,1.06 -4.67,1.18 -4.05,1.29 -3.42,1.4 -2.8,1.5 -2.18,1.61 -1.56,1.71 -0.93,1.82 -0.31,1.92 0.31,2.03 0.93,2.13 1.56,2.23 2.18,2.33 2.8,2.43 3.42,2.53 4.05,2.63 4.67,2.72 5.29,2.82 5.91,2.92 6.54,3.01 7.16,3.11 7.78,3.2 8.4,3.29 9.03,3.39 9.65,3.48 10.27,3.57 10.89,3.66 11.51,3.75 12.14,3.84 12.76,3.93 13.38,4.02 14,4.1 14.63,4.19 15.25,4.27 15.87,4.36 16.49,4.44 17.12,4.53 17.74,4.61 18.36,4.69 18.98,4.78 19.61,4.86 20.23,4.94 20.85,5.02 21.47,5.1 22.1,5.18 22.72,5.26 23.34,5.33 23.96,5.41 24.59,5.49 25.21,5.57 25.83,5.64 26.45,5.72 27.08,5.79 27.7,5.87 28.32,5.94 28.94,6.01 29.57,6.09 30.19,6.16 30.81,6.23 31.43,6.3 32.05,6.38 32.68,6.45 33.3,6.52 33.92,6.59 34.54,6.66 35.17,6.73 35.79,6.79 36.41,6.86 37.03,6.93 37.66,7 38.28,7.07 38.9,7.13 39.52,7.2 40.15,7.27 40.77,7.33 41.39,7.4 42.01,7.46 42.64,7.53 43.26,7.59 43.88,7.66 44.5,7.72 45.13,7.79 45.75,7.85 46.37,7.91 46.99,7.98 47.62,8.04 48.24,8.1 48.86,8.16 49.48,8.23 50.1,8.29 50.73,8.35 51.35,8.41 51.97,8.47 52.59,8.53 53.22,8.59 53.84,8.65 54.46,8.71 55.08,8.77 55.71,6.51 56.33,4.45 56.95,4.51 57.57,4.57 58.2,4.63 58.82,4.69 59.44,4.75 60.06,4.81 60.69,4.86 61.31,4.92 61.93,4.98 62.55,5.04 63.18,5.1 63.8,5.15 64.42,5.21 65.04,5.27 65.67,5.32 66.29,5.38 66.91,5.43 67.53,5.49 68.16,5.55 68.78,5.6 69.4,5.66 70.02,5.71 70.64,5.77 71.27,5.82 71.89,5.88 72.51,5.94 73.13,5.99 73.76,6.04 74.38,6.1 75,6.15 75.62,6.21 76.25,6.26 76.87,6.31 77.49,6.37 " class="primitive"/>
            </g>
          </g>
        </g>
      </g>
    </g>
  </g>
  <g class="guide ylabels" font-size="2.82" font-family="'PT Sans Caption','Helvetica Neue','Helvetica',sans-serif" fill="#6C606B" id="img-5a6da447-46">
    <g transform="translate(15.28,80.32)" id="img-5a6da447-47">
      <g class="primitive">
        <text text-anchor="end" dy="0.35em">0</text>
      </g>
    </g>
    <g transform="translate(15.28,69.03)" id="img-5a6da447-48">
      <g class="primitive">
        <text text-anchor="end" dy="0.35em">1</text>
      </g>
    </g>
    <g transform="translate(15.28,57.75)" id="img-5a6da447-49">
      <g class="primitive">
        <text text-anchor="end" dy="0.35em">2</text>
      </g>
    </g>
    <g transform="translate(15.28,46.46)" id="img-5a6da447-50">
      <g class="primitive">
        <text text-anchor="end" dy="0.35em">3</text>
      </g>
    </g>
    <g transform="translate(15.28,35.18)" id="img-5a6da447-51">
      <g class="primitive">
        <text text-anchor="end" dy="0.35em">4</text>
      </g>
    </g>
    <g transform="translate(15.28,23.9)" id="img-5a6da447-52">
      <g class="primitive">
        <text text-anchor="end" dy="0.35em">5</text>
      </g>
    </g>
    <g transform="translate(15.28,12.61)" id="img-5a6da447-53">
      <g class="primitive">
        <text text-anchor="end" dy="0.35em">6</text>
      </g>
    </g>
  </g>
  <g font-size="3.88" font-family="'PT Sans','Helvetica Neue','Helvetica',sans-serif" fill="#564A55" stroke="#000000" stroke-opacity="0.000" id="img-5a6da447-54">
    <g transform="translate(8.81,44.46)" id="img-5a6da447-55">
      <g class="primitive">
        <text text-anchor="middle" dy="0.35em" transform="rotate(-90,0, 2)">log₁₀(MAC (cm²/g))</text>
      </g>
    </g>
  </g>
  <g font-size="3.88" font-family="'PT Sans','Helvetica Neue','Helvetica',sans-serif" fill="#564A55" stroke="#000000" stroke-opacity="0.000" id="img-5a6da447-56">
    <g transform="translate(96.17,5)" id="img-5a6da447-57">
      <g class="primitive">
        <text text-anchor="middle" dy="0.6em">MAC - Element(Uranium)</text>
      </g>
    </g>
  </g>
</g>
<defs>
  <clipPath id="img-5a6da447-15">
    <path d="M16.29,10.61 L176.05,10.61 176.05,82.32 16.29,82.32 " />
  </clipPath>
</defs>
</svg>
